  0
SECTION
  2
HEADER
  9
$ACADVER
  1
AC1014
  9
$ACADMAINTVER
 70
     9
  9
$DWGCODEPAGE
  3
ANSI_1252
  9
$INSBASE
 10
0.0
 20
0.0
 30
0.0
  9
$EXTMIN
 10
1.000000000000000E+20
 20
1.000000000000000E+20
 30
1.000000000000000E+20
  9
$EXTMAX
 10
-1.000000000000000E+20
 20
-1.000000000000000E+20
 30
-1.000000000000000E+20
  9
$LIMMIN
 10
0.0
 20
0.0
  9
$LIMMAX
 10
420.0
 20
297.0
  9
$ORTHOMODE
 70
     0
  9
$REGENMODE
 70
     1
  9
$FILLMODE
 70
     1
  9
$QTEXTMODE
 70
     0
  9
$MIRRTEXT
 70
     1
  9
$DRAGMODE
 70
     2
  9
$LTSCALE
 40
1.0
  9
$OSMODE
 70
    37
  9
$ATTMODE
 70
     1
  9
$TEXTSIZE
 40
2.5
  9
$TRACEWID
 40
1.0
  9
$TEXTSTYLE
  7
STANDARD
  9
$CLAYER
  8
0
  9
$CELTYPE
  6
BYLAYER
  9
$CECOLOR
 62
   256
  9
$CELTSCALE
 40
1.0
  9
$DELOBJ
 70
     1
  9
$DISPSILH
 70
     0
  9
$DIMSCALE
 40
1.0
  9
$DIMASZ
 40
3.0
  9
$DIMEXO
 40
0.625
  9
$DIMDLI
 40
3.75
  9
$DIMRND
 40
0.0
  9
$DIMDLE
 40
0.0
  9
$DIMEXE
 40
1.25
  9
$DIMTP
 40
0.0
  9
$DIMTM
 40
0.0
  9
$DIMTXT
 40
1.22550817624347
  9
$DIMCEN
 40
2.5
  9
$DIMTSZ
 40
0.0
  9
$DIMTOL
 70
     0
  9
$DIMLIM
 70
     0
  9
$DIMTIH
 70
     0
  9
$DIMTOH
 70
     0
  9
$DIMSE1
 70
     0
  9
$DIMSE2
 70
     0
  9
$DIMTAD
 70
     1
  9
$DIMZIN
 70
     8
  9
$DIMBLK
  1

  9
$DIMASO
 70
     1
  9
$DIMSHO
 70
     1
  9
$DIMPOST
  1

  9
$DIMAPOST
  1

  9
$DIMALT
 70
     0
  9
$DIMALTD
 70
     3
  9
$DIMALTF
 40
0.03937007874016
  9
$DIMLFAC
 40
1.0
  9
$DIMTOFL
 70
     1
  9
$DIMTVP
 40
0.0
  9
$DIMTIX
 70
     0
  9
$DIMSOXD
 70
     0
  9
$DIMSAH
 70
     0
  9
$DIMBLK1
  1

  9
$DIMBLK2
  1

  9
$DIMSTYLE
  2
ISO-25
  9
$DIMCLRD
 70
     0
  9
$DIMCLRE
 70
     0
  9
$DIMCLRT
 70
     0
  9
$DIMTFAC
 40
1.0
  9
$DIMGAP
 40
0.625
  9
$DIMJUST
 70
     0
  9
$DIMSD1
 70
     0
  9
$DIMSD2
 70
     0
  9
$DIMTOLJ
 70
     0
  9
$DIMTZIN
 70
     8
  9
$DIMALTZ
 70
     0
  9
$DIMALTTZ
 70
     0
  9
$DIMFIT
 70
     3
  9
$DIMUPT
 70
     0
  9
$DIMUNIT
 70
     2
  9
$DIMDEC
 70
     2
  9
$DIMTDEC
 70
     2
  9
$DIMALTU
 70
     2
  9
$DIMALTTD
 70
     3
  9
$DIMTXSTY
  7
STANDARD
  9
$DIMAUNIT
 70
     0
  9
$LUNITS
 70
     2
  9
$LUPREC
 70
     4
  9
$SKETCHINC
 40
1.0
  9
$FILLETRAD
 40
10.0
  9
$AUNITS
 70
     0
  9
$AUPREC
 70
     0
  9
$MENU
  1
.
  9
$ELEVATION
 40
0.0
  9
$PELEVATION
 40
0.0
  9
$THICKNESS
 40
0.0
  9
$LIMCHECK
 70
     0
  9
$CHAMFERA
 40
10.0
  9
$CHAMFERB
 40
10.0
  9
$CHAMFERC
 40
20.0
  9
$CHAMFERD
 40
0.0
  9
$SKPOLY
 70
     0
  9
$TDCREATE
 40
2457246.98241206
  9
$TDUPDATE
 40
2457246.982414328
  9
$TDINDWG
 40
0.0000000116
  9
$TDUSRTIMER
 40
0.0000000116
  9
$USRTIMER
 70
     1
  9
$ANGBASE
 50
0.0
  9
$ANGDIR
 70
     0
  9
$PDMODE
 70
     0
  9
$PDSIZE
 40
0.0
  9
$PLINEWID
 40
0.0
  9
$COORDS
 70
     1
  9
$SPLFRAME
 70
     0
  9
$SPLINETYPE
 70
     6
  9
$SPLINESEGS
 70
     8
  9
$ATTDIA
 70
     0
  9
$ATTREQ
 70
     1
  9
$HANDLING
 70
     1
  9
$HANDSEED
  5
3F1
  9
$SURFTAB1
 70
     6
  9
$SURFTAB2
 70
     6
  9
$SURFTYPE
 70
     6
  9
$SURFU
 70
     6
  9
$SURFV
 70
     6
  9
$UCSNAME
  2

  9
$UCSORG
 10
0.0
 20
0.0
 30
0.0
  9
$UCSXDIR
 10
1.0
 20
0.0
 30
0.0
  9
$UCSYDIR
 10
0.0
 20
1.0
 30
0.0
  9
$PUCSNAME
  2

  9
$PUCSORG
 10
0.0
 20
0.0
 30
0.0
  9
$PUCSXDIR
 10
1.0
 20
0.0
 30
0.0
  9
$PUCSYDIR
 10
0.0
 20
1.0
 30
0.0
  9
$USERI1
 70
     0
  9
$USERI2
 70
     0
  9
$USERI3
 70
     0
  9
$USERI4
 70
     0
  9
$USERI5
 70
     0
  9
$USERR1
 40
0.0
  9
$USERR2
 40
0.0
  9
$USERR3
 40
0.0
  9
$USERR4
 40
0.0
  9
$USERR5
 40
0.0
  9
$WORLDVIEW
 70
     1
  9
$SHADEDGE
 70
     3
  9
$SHADEDIF
 70
    70
  9
$TILEMODE
 70
     1
  9
$MAXACTVP
 70
    64
  9
$PINSBASE
 10
0.0
 20
0.0
 30
0.0
  9
$PLIMCHECK
 70
     0
  9
$PEXTMIN
 10
1.000000000000000E+20
 20
1.000000000000000E+20
 30
1.000000000000000E+20
  9
$PEXTMAX
 10
-1.000000000000000E+20
 20
-1.000000000000000E+20
 30
-1.000000000000000E+20
  9
$PLIMMIN
 10
0.0
 20
0.0
  9
$PLIMMAX
 10
420.0
 20
297.0
  9
$UNITMODE
 70
     0
  9
$VISRETAIN
 70
     1
  9
$PLINEGEN
 70
     0
  9
$PSLTSCALE
 70
     1
  9
$TREEDEPTH
 70
  3020
  9
$PICKSTYLE
 70
     1
  9
$CMLSTYLE
  2
STANDARD
  9
$CMLJUST
 70
     0
  9
$CMLSCALE
 40
20.0
  9
$PROXYGRAPHICS
 70
     1
  9
$MEASUREMENT
 70
     1
  0
ENDSEC
  0
SECTION
  2
CLASSES
  0
CLASS
  1
ACDBDICTIONARYWDFLT
  2
AcDbDictionaryWithDefault
  3
ObjectDBX Classes
 90
        0
280
     0
281
     0
  0
CLASS
  1
VISUALSTYLE
  2
AcDbVisualStyle
  3
ObjectDBX Classes
 90
     4095
280
     0
281
     0
  0
CLASS
  1
MATERIAL
  2
AcDbMaterial
  3
ObjectDBX Classes
 90
     1153
280
     0
281
     0
  0
CLASS
  1
DICTIONARYVAR
  2
AcDbDictionaryVar
  3
ObjectDBX Classes
 90
        0
280
     0
281
     0
  0
CLASS
  1
XRECORD
  2
AcDbXrecord
  3
AutoCAD 2000
 90
        0
280
     0
281
     0
  0
CLASS
  1
LWPOLYLINE
  2
AcDbPolyline
  3
AutoCAD 2000
 90
        0
280
     0
281
     1
  0
CLASS
  1
HATCH
  2
AcDbHatch
  3
AutoCAD 2000
 90
        0
280
     0
281
     1
  0
CLASS
  1
ACDBPLACEHOLDER
  2
AcDbPlaceHolder
  3
ObjectDBX Classes
 90
        0
280
     0
281
     0
  0
CLASS
  1
LAYOUT
  2
AcDbLayout
  3
ObjectDBX Classes
 90
        0
280
     0
281
     0
  0
ENDSEC
  0
SECTION
  2
TABLES
  0
TABLE
  2
VPORT
  5
8
330
0
100
AcDbSymbolTable
 70
     1
  0
VPORT
  5
29
330
8
100
AcDbSymbolTableRecord
100
AcDbViewportTableRecord
  2
*ACTIVE
 70
     0
 10
0.0
 20
0.0
 11
1.0
 21
1.0
 12
344.1869158878504
 22
148.5
 13
0.0
 23
0.0
 14
10.0
 24
10.0
 15
10.0
 25
10.0
 16
0.0
 26
0.0
 36
1.0
 17
0.0
 27
0.0
 37
0.0
 40
297.0
 41
1.972972972850329
 42
50.0
 43
0.0
 44
0.0
 50
0.0
 51
0.0
 71
     0
 72
   100
 73
     1
 74
     3
 75
     0
 76
     0
 77
     0
 78
     0
  0
ENDTAB
  0
TABLE
  2
LTYPE
  5
5
330
0
100
AcDbSymbolTable
 70
     1
  0
LTYPE
  5
14
330
5
100
AcDbSymbolTableRecord
100
AcDbLinetypeTableRecord
  2
BYBLOCK
 70
     0
  3

 72
    65
 73
     0
 40
0.0
  0
LTYPE
  5
15
330
5
100
AcDbSymbolTableRecord
100
AcDbLinetypeTableRecord
  2
BYLAYER
 70
     0
  3

 72
    65
 73
     0
 40
0.0
  0
LTYPE
  5
16
330
5
100
AcDbSymbolTableRecord
100
AcDbLinetypeTableRecord
  2
CONTINUOUS
 70
     0
  3
Solid line
 72
    65
 73
     0
 40
0.0
  0
ENDTAB
  0
TABLE
  2
LAYER
  5
2
330
0
100
AcDbSymbolTable
 70
     2
  0
LAYER
  5
10
330
2
100
AcDbSymbolTableRecord
100
AcDbLayerTableRecord
  2
0
 70
     0
 62
     7
  6
CONTINUOUS
  0
LAYER
  5
3F
330
2
100
AcDbSymbolTableRecord
100
AcDbLayerTableRecord
  2
VISIBLE
 70
     0
 62
     7
  6
CONTINUOUS
  0
ENDTAB
  0
TABLE
  2
STYLE
  5
3
330
0
100
AcDbSymbolTable
 70
     1
  0
STYLE
  5
11
330
3
100
AcDbSymbolTableRecord
100
AcDbTextStyleTableRecord
  2
STANDARD
 70
     0
 40
0.0
 41
1.0
 50
0.0
 71
     0
 42
2.5
  3
txt
  4

  0
ENDTAB
  0
TABLE
  2
VIEW
  5
6
330
0
100
AcDbSymbolTable
 70
     0
  0
ENDTAB
  0
TABLE
  2
UCS
  5
7
330
0
100
AcDbSymbolTable
 70
     0
  0
ENDTAB
  0
TABLE
  2
APPID
  5
9
330
0
100
AcDbSymbolTable
 70
     1
  0
APPID
  5
12
330
9
100
AcDbSymbolTableRecord
100
AcDbRegAppTableRecord
  2
ACAD
 70
     0
  0
ENDTAB
  0
TABLE
  2
DIMSTYLE
  5
A
330
0
100
AcDbSymbolTable
 70
     1
  0
DIMSTYLE
105
27
330
A
100
AcDbSymbolTableRecord
100
AcDbDimStyleTableRecord
  2
ISO-25
 70
     0
  3

  4

  5

  6

  7

 40
1.0
 41
2.5
 42
0.625
 43
3.75
 44
1.25
 45
0.0
 46
0.0
 47
0.0
 48
0.0
140
2.5
141
2.5
142
0.0
143
0.03937007874016
144
1.0
145
0.0
146
1.0
147
0.625
 71
     0
 72
     0
 73
     0
 74
     0
 75
     0
 76
     0
 77
     1
 78
     8
170
     0
171
     3
172
     1
173
     0
174
     0
175
     0
176
     0
177
     0
178
     0
270
     2
271
     2
272
     2
273
     2
274
     3
340
11
275
     0
280
     0
281
     0
282
     0
283
     0
284
     8
285
     0
286
     0
287
     3
288
     0
  0
ENDTAB
  0
TABLE
  2
BLOCK_RECORD
  5
1
330
0
100
AcDbSymbolTable
 70
     1
  0
BLOCK_RECORD
  5
1F
330
1
100
AcDbSymbolTableRecord
100
AcDbBlockTableRecord
  2
*MODEL_SPACE
  0
BLOCK_RECORD
  5
1B
330
1
100
AcDbSymbolTableRecord
100
AcDbBlockTableRecord
  2
*PAPER_SPACE
  0
ENDTAB
  0
ENDSEC
  0
SECTION
  2
BLOCKS
  0
BLOCK
  5
20
330
1F
100
AcDbEntity
  8
0
100
AcDbBlockBegin
  2
*MODEL_SPACE
 70
     0
 10
0.0
 20
0.0
 30
0.0
  3
*MODEL_SPACE
  1

  0
ENDBLK
  5
21
330
1F
100
AcDbEntity
  8
0
100
AcDbBlockEnd
  0
BLOCK
  5
1C
330
1B
100
AcDbEntity
 67
     1
  8
0
100
AcDbBlockBegin
  2
*PAPER_SPACE
 70
     0
 10
0.0
 20
0.0
 30
0.0
  3
*PAPER_SPACE
  1

  0
ENDBLK
  5
1D
330
1B
100
AcDbEntity
 67
     1
  8
0
100
AcDbBlockEnd
  0
ENDSEC
  0
SECTION
  2
ENTITIES
  0
LINE
  5
40
330
1F
100
AcDbEntity
  8
VISIBLE
100
AcDbLine
 10
688.277473449707
 20
1097.78742980957
 30
0.0
 11
703.277473449707
 21
1097.78742980957
 31
0.0
  0
LINE
  5
41
330
1F
100
AcDbEntity
  8
VISIBLE
100
AcDbLine
 10
603.1618452072144
 20
1182.78742980957
 30
0.0
 11
603.1618452072144
 21
1177.78742980957
 31
0.0
  0
CIRCLE
  5
42
330
1F
100
AcDbEntity
  8
VISIBLE
100
AcDbCircle
 10
493.277473449707
 20
1097.78742980957
 30
0.0
 40
2.0
  0
LINE
  5
43
330
1F
100
AcDbEntity
  8
VISIBLE
100
AcDbLine
 10
530.777473449707
 20
1037.78742980957
 30
0.0
 11
535.777473449707
 21
1037.78742980957
 31
0.0
  0
LINE
  5
44
330
1F
100
AcDbEntity
  8
VISIBLE
100
AcDbLine
 10
658.277473449707
 20
910.28742980957
 30
0.0
 11
640.777473449707
 21
910.28742980957
 31
0.0
  0
LINE
  5
45
330
1F
100
AcDbEntity
  8
VISIBLE
100
AcDbLine
 10
693.277473449707
 20
947.78742980957
 30
0.0
 11
693.277473449707
 21
967.78742980957
 31
0.0
  0
LINE
  5
46
330
1F
100
AcDbEntity
  8
VISIBLE
100
AcDbLine
 10
635.777473449707
 20
910.28742980957
 30
0.0
 11
618.277473449707
 21
910.28742980957
 31
0.0
  0
LINE
  5
47
330
1F
100
AcDbEntity
  8
VISIBLE
100
AcDbLine
 10
378.277473449707
 20
862.78742980957
 30
0.0
 11
378.277473449707
 21
937.78742980957
 31
0.0
  0
LINE
  5
48
330
1F
100
AcDbEntity
  8
VISIBLE
100
AcDbLine
 10
493.277473449707
 20
1172.78742980957
 30
0.0
 11
573.277473449707
 21
1172.78742980957
 31
0.0
  0
LINE
  5
49
330
1F
100
AcDbEntity
  8
VISIBLE
100
AcDbLine
 10
693.277473449707
 20
1067.78742980957
 30
0.0
 11
693.277473449707
 21
1087.78742980957
 31
0.0
  0
LINE
  5
4A
330
1F
100
AcDbEntity
  8
VISIBLE
100
AcDbLine
 10
703.277473449707
 20
1057.78742980957
 30
0.0
 11
688.277473449707
 21
1057.78742980957
 31
0.0
  0
CIRCLE
  5
4B
330
1F
100
AcDbEntity
  8
VISIBLE
100
AcDbCircle
 10
493.277473449707
 20
937.78742980957
 30
0.0
 40
2.0
  0
CIRCLE
  5
4C
330
1F
100
AcDbEntity
  8
VISIBLE
100
AcDbCircle
 10
493.277473449707
 20
1057.78742980957
 30
0.0
 40
2.0
  0
CIRCLE
  5
4D
330
1F
100
AcDbEntity
  8
VISIBLE
100
AcDbCircle
 10
533.277473449707
 20
977.78742980957
 30
0.0
 40
2.0
  0
LINE
  5
4E
330
1F
100
AcDbEntity
  8
VISIBLE
100
AcDbLine
 10
698.277473449707
 20
1067.78742980957
 30
0.0
 11
693.277473449707
 21
1067.78742980957
 31
0.0
  0
CIRCLE
  5
4F
330
1F
100
AcDbEntity
  8
VISIBLE
100
AcDbCircle
 10
533.277473449707
 20
937.78742980957
 30
0.0
 40
2.0
  0
LINE
  5
50
330
1F
100
AcDbEntity
  8
VISIBLE
100
AcDbLine
 10
430.777473449707
 20
1142.78742980957
 30
0.0
 11
430.777473449707
 21
1125.28742980957
 31
0.0
  0
LINE
  5
51
330
1F
100
AcDbEntity
  8
VISIBLE
100
AcDbLine
 10
535.777473449707
 20
1037.78742980957
 30
0.0
 11
535.777473449707
 21
1020.28742980957
 31
0.0
  0
LINE
  5
52
330
1F
100
AcDbEntity
  8
VISIBLE
100
AcDbLine
 10
463.3931016921997
 20
1182.78742980957
 30
0.0
 11
483.3931016921997
 21
1182.78742980957
 31
0.0
  0
LINE
  5
53
330
1F
100
AcDbEntity
  8
VISIBLE
100
AcDbLine
 10
693.277473449707
 20
1087.78742980957
 30
0.0
 11
698.277473449707
 21
1087.78742980957
 31
0.0
  0
LINE
  5
54
330
1F
100
AcDbEntity
  8
VISIBLE
100
AcDbLine
 10
640.777473449707
 20
1102.78742980957
 30
0.0
 11
635.777473449707
 21
1102.78742980957
 31
0.0
  0
CIRCLE
  5
55
330
1F
100
AcDbEntity
  8
VISIBLE
100
AcDbCircle
 10
573.277473449707
 20
1057.78742980957
 30
0.0
 40
2.0
  0
LINE
  5
56
330
1F
100
AcDbEntity
  8
VISIBLE
100
AcDbLine
 10
530.777473449707
 20
1020.28742980957
 30
0.0
 11
530.777473449707
 21
1037.78742980957
 31
0.0
  0
LINE
  5
57
330
1F
100
AcDbEntity
  8
VISIBLE
100
AcDbLine
 10
408.277473449707
 20
910.28742980957
 30
0.0
 11
408.277473449707
 21
915.28742980957
 31
0.0
  0
LINE
  5
58
330
1F
100
AcDbEntity
  8
VISIBLE
100
AcDbLine
 10
448.277473449707
 20
1120.28742980957
 30
0.0
 11
430.777473449707
 21
1120.28742980957
 31
0.0
  0
LINE
  5
59
330
1F
100
AcDbEntity
  8
VISIBLE
100
AcDbLine
 10
430.777473449707
 20
932.78742980957
 30
0.0
 11
430.777473449707
 21
915.28742980957
 31
0.0
  0
LINE
  5
5A
330
1F
100
AcDbEntity
  8
VISIBLE
100
AcDbLine
 10
640.777473449707
 20
1172.78742980957
 30
0.0
 11
688.277473449707
 21
1172.78742980957
 31
0.0
  0
LINE
  5
5B
330
1F
100
AcDbEntity
  8
VISIBLE
100
AcDbLine
 10
688.277473449707
 20
977.78742980957
 30
0.0
 11
703.277473449707
 21
977.78742980957
 31
0.0
  0
LINE
  5
5C
330
1F
100
AcDbEntity
  8
VISIBLE
100
AcDbLine
 10
640.777473449707
 20
1125.28742980957
 30
0.0
 11
658.277473449707
 21
1125.28742980957
 31
0.0
  0
LINE
  5
5D
330
1F
100
AcDbEntity
  8
VISIBLE
100
AcDbLine
 10
635.777473449707
 20
915.28742980957
 30
0.0
 11
635.777473449707
 21
932.78742980957
 31
0.0
  0
LINE
  5
5E
330
1F
100
AcDbEntity
  8
VISIBLE
100
AcDbLine
 10
408.277473449707
 20
915.28742980957
 30
0.0
 11
425.777473449707
 21
915.28742980957
 31
0.0
  0
LINE
  5
5F
330
1F
100
AcDbEntity
  8
VISIBLE
100
AcDbLine
 10
535.777473449707
 20
997.78742980957
 30
0.0
 11
530.777473449707
 21
997.78742980957
 31
0.0
  0
LINE
  5
60
330
1F
100
AcDbEntity
  8
VISIBLE
100
AcDbLine
 10
535.777473449707
 20
1015.28742980957
 30
0.0
 11
535.777473449707
 21
997.78742980957
 31
0.0
  0
LINE
  5
61
330
1F
100
AcDbEntity
  8
VISIBLE
100
AcDbLine
 10
378.277473449707
 20
1057.78742980957
 30
0.0
 11
363.277473449707
 21
1057.78742980957
 31
0.0
  0
LINE
  5
62
330
1F
100
AcDbEntity
  8
VISIBLE
100
AcDbLine
 10
698.277473449707
 20
967.78742980957
 30
0.0
 11
698.277473449707
 21
947.78742980957
 31
0.0
  0
LINE
  5
63
330
1F
100
AcDbEntity
  8
VISIBLE
100
AcDbLine
 10
688.277473449707
 20
862.78742980957
 30
0.0
 11
378.277473449707
 21
862.78742980957
 31
0.0
  0
LINE
  5
64
330
1F
100
AcDbEntity
  8
VISIBLE
100
AcDbLine
 10
408.277473449707
 20
1125.28742980957
 30
0.0
 11
425.777473449707
 21
1125.28742980957
 31
0.0
  0
CIRCLE
  5
65
330
1F
100
AcDbEntity
  8
VISIBLE
100
AcDbCircle
 10
493.277473449707
 20
977.78742980957
 30
0.0
 40
2.0
  0
LINE
  5
66
330
1F
100
AcDbEntity
  8
VISIBLE
100
AcDbLine
 10
635.777473449707
 20
1120.28742980957
 30
0.0
 11
618.277473449707
 21
1120.28742980957
 31
0.0
  0
LINE
  5
67
330
1F
100
AcDbEntity
  8
VISIBLE
100
AcDbLine
 10
530.777473449707
 20
1015.28742980957
 30
0.0
 11
513.277473449707
 21
1015.28742980957
 31
0.0
  0
LINE
  5
68
330
1F
100
AcDbEntity
  8
VISIBLE
100
AcDbLine
 10
618.277473449707
 20
1120.28742980957
 30
0.0
 11
618.277473449707
 21
1125.28742980957
 31
0.0
  0
LINE
  5
69
330
1F
100
AcDbEntity
  8
VISIBLE
100
AcDbLine
 10
618.277473449707
 20
915.28742980957
 30
0.0
 11
635.777473449707
 21
915.28742980957
 31
0.0
  0
LINE
  5
6A
330
1F
100
AcDbEntity
  8
VISIBLE
100
AcDbLine
 10
453.277473449707
 20
1172.78742980957
 30
0.0
 11
453.277473449707
 21
1187.78742980957
 31
0.0
  0
LINE
  5
6B
330
1F
100
AcDbEntity
  8
VISIBLE
100
AcDbLine
 10
703.277473449707
 20
937.78742980957
 30
0.0
 11
688.277473449707
 21
937.78742980957
 31
0.0
  0
LINE
  5
6C
330
1F
100
AcDbEntity
  8
VISIBLE
100
AcDbLine
 10
368.277473449707
 20
1087.78742980957
 30
0.0
 11
373.277473449707
 21
1087.78742980957
 31
0.0
  0
LINE
  5
6D
330
1F
100
AcDbEntity
  8
VISIBLE
100
AcDbLine
 10
378.277473449707
 20
937.78742980957
 30
0.0
 11
363.277473449707
 21
937.78742980957
 31
0.0
  0
LINE
  5
6E
330
1F
100
AcDbEntity
  8
VISIBLE
100
AcDbLine
 10
635.777473449707
 20
1125.28742980957
 30
0.0
 11
635.777473449707
 21
1142.78742980957
 31
0.0
  0
LINE
  5
6F
330
1F
100
AcDbEntity
  8
VISIBLE
100
AcDbLine
 10
513.277473449707
 20
1020.28742980957
 30
0.0
 11
530.777473449707
 21
1020.28742980957
 31
0.0
  0
LINE
  5
70
330
1F
100
AcDbEntity
  8
VISIBLE
100
AcDbLine
 10
635.777473449707
 20
932.78742980957
 30
0.0
 11
640.777473449707
 21
932.78742980957
 31
0.0
  0
LINE
  5
71
330
1F
100
AcDbEntity
  8
VISIBLE
100
AcDbLine
 10
368.277473449707
 20
1067.78742980957
 30
0.0
 11
368.277473449707
 21
1087.78742980957
 31
0.0
  0
LINE
  5
72
330
1F
100
AcDbEntity
  8
VISIBLE
100
AcDbLine
 10
703.277473449707
 20
1097.78742980957
 30
0.0
 11
703.277473449707
 21
1057.78742980957
 31
0.0
  0
LINE
  5
73
330
1F
100
AcDbEntity
  8
VISIBLE
100
AcDbLine
 10
640.777473449707
 20
1142.78742980957
 30
0.0
 11
640.777473449707
 21
1125.28742980957
 31
0.0
  0
LINE
  5
74
330
1F
100
AcDbEntity
  8
VISIBLE
100
AcDbLine
 10
408.277473449707
 20
1120.28742980957
 30
0.0
 11
408.277473449707
 21
1125.28742980957
 31
0.0
  0
CIRCLE
  5
75
330
1F
100
AcDbEntity
  8
VISIBLE
100
AcDbCircle
 10
613.277473449707
 20
1057.78742980957
 30
0.0
 40
2.0
  0
CIRCLE
  5
76
330
1F
100
AcDbEntity
  8
VISIBLE
100
AcDbCircle
 10
493.277473449707
 20
1017.78742980957
 30
0.0
 40
2.0
  0
LINE
  5
77
330
1F
100
AcDbEntity
  8
VISIBLE
100
AcDbLine
 10
463.3931016921997
 20
1177.78742980957
 30
0.0
 11
463.3931016921997
 21
1182.78742980957
 31
0.0
  0
LINE
  5
78
330
1F
100
AcDbEntity
  8
VISIBLE
100
AcDbLine
 10
378.277473449707
 20
977.78742980957
 30
0.0
 11
378.277473449707
 21
1057.78742980957
 31
0.0
  0
LINE
  5
79
330
1F
100
AcDbEntity
  8
VISIBLE
100
AcDbLine
 10
430.777473449707
 20
910.28742980957
 30
0.0
 11
430.777473449707
 21
892.78742980957
 31
0.0
  0
LINE
  5
7A
330
1F
100
AcDbEntity
  8
VISIBLE
100
AcDbLine
 10
425.777473449707
 20
1167.78742980957
 30
0.0
 11
425.777473449707
 21
1172.78742980957
 31
0.0
  0
LINE
  5
7B
330
1F
100
AcDbEntity
  8
VISIBLE
100
AcDbLine
 10
430.777473449707
 20
1125.28742980957
 30
0.0
 11
448.277473449707
 21
1125.28742980957
 31
0.0
  0
LINE
  5
7C
330
1F
100
AcDbEntity
  8
VISIBLE
100
AcDbLine
 10
583.1618452072144
 20
1182.78742980957
 30
0.0
 11
603.1618452072144
 21
1182.78742980957
 31
0.0
  0
LINE
  5
7D
330
1F
100
AcDbEntity
  8
VISIBLE
100
AcDbLine
 10
425.777473449707
 20
1125.28742980957
 30
0.0
 11
425.777473449707
 21
1142.78742980957
 31
0.0
  0
LINE
  5
7E
330
1F
100
AcDbEntity
  8
VISIBLE
100
AcDbLine
 10
535.777473449707
 20
1020.28742980957
 30
0.0
 11
553.277473449707
 21
1020.28742980957
 31
0.0
  0
LINE
  5
7F
330
1F
100
AcDbEntity
  8
VISIBLE
100
AcDbLine
 10
483.3931016921997
 20
1182.78742980957
 30
0.0
 11
483.3931016921997
 21
1177.78742980957
 31
0.0
  0
LINE
  5
80
330
1F
100
AcDbEntity
  8
VISIBLE
100
AcDbLine
 10
688.277473449707
 20
937.78742980957
 30
0.0
 11
688.277473449707
 21
862.78742980957
 31
0.0
  0
LINE
  5
81
330
1F
100
AcDbEntity
  8
VISIBLE
100
AcDbLine
 10
373.277473449707
 20
1067.78742980957
 30
0.0
 11
368.277473449707
 21
1067.78742980957
 31
0.0
  0
CIRCLE
  5
82
330
1F
100
AcDbEntity
  8
VISIBLE
100
AcDbCircle
 10
453.277473449707
 20
1057.78742980957
 30
0.0
 40
2.0
  0
LINE
  5
83
330
1F
100
AcDbEntity
  8
VISIBLE
100
AcDbLine
 10
583.1618452072144
 20
1177.78742980957
 30
0.0
 11
583.1618452072144
 21
1182.78742980957
 31
0.0
  0
LINE
  5
84
330
1F
100
AcDbEntity
  8
VISIBLE
100
AcDbLine
 10
430.777473449707
 20
915.28742980957
 30
0.0
 11
448.277473449707
 21
915.28742980957
 31
0.0
  0
LINE
  5
85
330
1F
100
AcDbEntity
  8
VISIBLE
100
AcDbLine
 10
368.277473449707
 20
967.78742980957
 30
0.0
 11
373.277473449707
 21
967.78742980957
 31
0.0
  0
LINE
  5
86
330
1F
100
AcDbEntity
  8
VISIBLE
100
AcDbLine
 10
363.277473449707
 20
1097.78742980957
 30
0.0
 11
378.277473449707
 21
1097.78742980957
 31
0.0
  0
LINE
  5
87
330
1F
100
AcDbEntity
  8
VISIBLE
100
AcDbLine
 10
425.777473449707
 20
932.78742980957
 30
0.0
 11
430.777473449707
 21
932.78742980957
 31
0.0
  0
LINE
  5
88
330
1F
100
AcDbEntity
  8
VISIBLE
100
AcDbLine
 10
703.277473449707
 20
977.78742980957
 30
0.0
 11
703.277473449707
 21
937.78742980957
 31
0.0
  0
LINE
  5
89
330
1F
100
AcDbEntity
  8
VISIBLE
100
AcDbLine
 10
635.777473449707
 20
892.78742980957
 30
0.0
 11
635.777473449707
 21
910.28742980957
 31
0.0
  0
LINE
  5
8A
330
1F
100
AcDbEntity
  8
VISIBLE
100
AcDbLine
 10
378.277473449707
 20
1097.78742980957
 30
0.0
 11
378.277473449707
 21
1172.78742980957
 31
0.0
  0
LINE
  5
8B
330
1F
100
AcDbEntity
  8
VISIBLE
100
AcDbLine
 10
635.777473449707
 20
1102.78742980957
 30
0.0
 11
635.777473449707
 21
1120.28742980957
 31
0.0
  0
LINE
  5
8C
330
1F
100
AcDbEntity
  8
VISIBLE
100
AcDbLine
 10
698.277473449707
 20
947.78742980957
 30
0.0
 11
693.277473449707
 21
947.78742980957
 31
0.0
  0
LINE
  5
8D
330
1F
100
AcDbEntity
  8
VISIBLE
100
AcDbLine
 10
618.277473449707
 20
1125.28742980957
 30
0.0
 11
635.777473449707
 21
1125.28742980957
 31
0.0
  0
LINE
  5
8E
330
1F
100
AcDbEntity
  8
VISIBLE
100
AcDbLine
 10
688.277473449707
 20
1172.78742980957
 30
0.0
 11
688.277473449707
 21
1097.78742980957
 31
0.0
  0
LINE
  5
8F
330
1F
100
AcDbEntity
  8
VISIBLE
100
AcDbLine
 10
635.777473449707
 20
1142.78742980957
 30
0.0
 11
640.777473449707
 21
1142.78742980957
 31
0.0
  0
LINE
  5
90
330
1F
100
AcDbEntity
  8
VISIBLE
100
AcDbLine
 10
658.277473449707
 20
915.28742980957
 30
0.0
 11
658.277473449707
 21
910.28742980957
 31
0.0
  0
CIRCLE
  5
91
330
1F
100
AcDbEntity
  8
VISIBLE
100
AcDbCircle
 10
453.277473449707
 20
977.78742980957
 30
0.0
 40
2.0
  0
LINE
  5
92
330
1F
100
AcDbEntity
  8
VISIBLE
100
AcDbLine
 10
430.777473449707
 20
1172.78742980957
 30
0.0
 11
430.777473449707
 21
1167.78742980957
 31
0.0
  0
LINE
  5
93
330
1F
100
AcDbEntity
  8
VISIBLE
100
AcDbLine
 10
573.277473449707
 20
1172.78742980957
 30
0.0
 11
573.277473449707
 21
1187.78742980957
 31
0.0
  0
LINE
  5
94
330
1F
100
AcDbEntity
  8
VISIBLE
100
AcDbLine
 10
373.277473449707
 20
947.78742980957
 30
0.0
 11
368.277473449707
 21
947.78742980957
 31
0.0
  0
CIRCLE
  5
95
330
1F
100
AcDbEntity
  8
VISIBLE
100
AcDbCircle
 10
613.277473449707
 20
1017.78742980957
 30
0.0
 40
2.0
  0
LINE
  5
96
330
1F
100
AcDbEntity
  8
VISIBLE
100
AcDbLine
 10
618.277473449707
 20
910.28742980957
 30
0.0
 11
618.277473449707
 21
915.28742980957
 31
0.0
  0
LINE
  5
97
330
1F
100
AcDbEntity
  8
VISIBLE
100
AcDbLine
 10
448.277473449707
 20
910.28742980957
 30
0.0
 11
430.777473449707
 21
910.28742980957
 31
0.0
  0
LINE
  5
98
330
1F
100
AcDbEntity
  8
VISIBLE
100
AcDbLine
 10
603.1618452072144
 20
1177.78742980957
 30
0.0
 11
583.1618452072144
 21
1177.78742980957
 31
0.0
  0
CIRCLE
  5
99
330
1F
100
AcDbEntity
  8
VISIBLE
100
AcDbCircle
 10
573.277473449707
 20
1097.78742980957
 30
0.0
 40
2.0
  0
LINE
  5
9A
330
1F
100
AcDbEntity
  8
VISIBLE
100
AcDbLine
 10
425.777473449707
 20
915.28742980957
 30
0.0
 11
425.777473449707
 21
932.78742980957
 31
0.0
  0
LINE
  5
9B
330
1F
100
AcDbEntity
  8
VISIBLE
100
AcDbLine
 10
613.277473449707
 20
1172.78742980957
 30
0.0
 11
635.777473449707
 21
1172.78742980957
 31
0.0
  0
LINE
  5
9C
330
1F
100
AcDbEntity
  8
VISIBLE
100
AcDbLine
 10
448.277473449707
 20
1125.28742980957
 30
0.0
 11
448.277473449707
 21
1120.28742980957
 31
0.0
  0
LINE
  5
9D
330
1F
100
AcDbEntity
  8
VISIBLE
100
AcDbLine
 10
363.277473449707
 20
1057.78742980957
 30
0.0
 11
363.277473449707
 21
1097.78742980957
 31
0.0
  0
LINE
  5
9E
330
1F
100
AcDbEntity
  8
VISIBLE
100
AcDbLine
 10
425.777473449707
 20
892.78742980957
 30
0.0
 11
425.777473449707
 21
910.28742980957
 31
0.0
  0
LINE
  5
9F
330
1F
100
AcDbEntity
  8
VISIBLE
100
AcDbLine
 10
430.777473449707
 20
1167.78742980957
 30
0.0
 11
425.777473449707
 21
1167.78742980957
 31
0.0
  0
LINE
  5
A0
330
1F
100
AcDbEntity
  8
VISIBLE
100
AcDbLine
 10
373.277473449707
 20
1087.78742980957
 30
0.0
 11
373.277473449707
 21
1067.78742980957
 31
0.0
  0
LINE
  5
A1
330
1F
100
AcDbEntity
  8
VISIBLE
100
AcDbLine
 10
640.777473449707
 20
915.28742980957
 30
0.0
 11
658.277473449707
 21
915.28742980957
 31
0.0
  0
LINE
  5
A2
330
1F
100
AcDbEntity
  8
VISIBLE
100
AcDbLine
 10
425.777473449707
 20
1102.78742980957
 30
0.0
 11
425.777473449707
 21
1120.28742980957
 31
0.0
  0
LINE
  5
A3
330
1F
100
AcDbEntity
  8
VISIBLE
100
AcDbLine
 10
658.277473449707
 20
1125.28742980957
 30
0.0
 11
658.277473449707
 21
1120.28742980957
 31
0.0
  0
LINE
  5
A4
330
1F
100
AcDbEntity
  8
VISIBLE
100
AcDbLine
 10
613.277473449707
 20
1187.78742980957
 30
0.0
 11
613.277473449707
 21
1172.78742980957
 31
0.0
  0
LINE
  5
A5
330
1F
100
AcDbEntity
  8
VISIBLE
100
AcDbLine
 10
573.277473449707
 20
1187.78742980957
 30
0.0
 11
613.277473449707
 21
1187.78742980957
 31
0.0
  0
LINE
  5
A6
330
1F
100
AcDbEntity
  8
VISIBLE
100
AcDbLine
 10
425.777473449707
 20
910.28742980957
 30
0.0
 11
408.277473449707
 21
910.28742980957
 31
0.0
  0
LINE
  5
A7
330
1F
100
AcDbEntity
  8
VISIBLE
100
AcDbLine
 10
658.277473449707
 20
1120.28742980957
 30
0.0
 11
640.777473449707
 21
1120.28742980957
 31
0.0
  0
CIRCLE
  5
A8
330
1F
100
AcDbEntity
  8
VISIBLE
100
AcDbCircle
 10
533.277473449707
 20
1057.78742980957
 30
0.0
 40
2.0
  0
CIRCLE
  5
A9
330
1F
100
AcDbEntity
  8
VISIBLE
100
AcDbCircle
 10
573.277473449707
 20
977.78742980957
 30
0.0
 40
2.0
  0
LINE
  5
AA
330
1F
100
AcDbEntity
  8
VISIBLE
100
AcDbLine
 10
698.277473449707
 20
1087.78742980957
 30
0.0
 11
698.277473449707
 21
1067.78742980957
 31
0.0
  0
LINE
  5
AB
330
1F
100
AcDbEntity
  8
VISIBLE
100
AcDbLine
 10
378.277473449707
 20
1172.78742980957
 30
0.0
 11
425.777473449707
 21
1172.78742980957
 31
0.0
  0
LINE
  5
AC
330
1F
100
AcDbEntity
  8
VISIBLE
100
AcDbLine
 10
363.277473449707
 20
937.78742980957
 30
0.0
 11
363.277473449707
 21
977.78742980957
 31
0.0
  0
CIRCLE
  5
AD
330
1F
100
AcDbEntity
  8
VISIBLE
100
AcDbCircle
 10
453.277473449707
 20
1097.78742980957
 30
0.0
 40
2.0
  0
LINE
  5
AE
330
1F
100
AcDbEntity
  8
VISIBLE
100
AcDbLine
 10
368.277473449707
 20
947.78742980957
 30
0.0
 11
368.277473449707
 21
967.78742980957
 31
0.0
  0
CIRCLE
  5
AF
330
1F
100
AcDbEntity
  8
VISIBLE
100
AcDbCircle
 10
613.277473449707
 20
1097.78742980957
 30
0.0
 40
2.0
  0
CIRCLE
  5
B0
330
1F
100
AcDbEntity
  8
VISIBLE
100
AcDbCircle
 10
613.277473449707
 20
937.78742980957
 30
0.0
 40
2.0
  0
LINE
  5
B1
330
1F
100
AcDbEntity
  8
VISIBLE
100
AcDbLine
 10
448.277473449707
 20
915.28742980957
 30
0.0
 11
448.277473449707
 21
910.28742980957
 31
0.0
  0
CIRCLE
  5
B2
330
1F
100
AcDbEntity
  8
VISIBLE
100
AcDbCircle
 10
573.277473449707
 20
1017.78742980957
 30
0.0
 40
2.0
  0
LINE
  5
B3
330
1F
100
AcDbEntity
  8
VISIBLE
100
AcDbLine
 10
553.277473449707
 20
1020.28742980957
 30
0.0
 11
553.277473449707
 21
1015.28742980957
 31
0.0
  0
LINE
  5
B4
330
1F
100
AcDbEntity
  8
VISIBLE
100
AcDbLine
 10
688.277473449707
 20
1057.78742980957
 30
0.0
 11
688.277473449707
 21
977.78742980957
 31
0.0
  0
LINE
  5
B5
330
1F
100
AcDbEntity
  8
VISIBLE
100
AcDbLine
 10
453.277473449707
 20
1187.78742980957
 30
0.0
 11
493.277473449707
 21
1187.78742980957
 31
0.0
  0
LINE
  5
B6
330
1F
100
AcDbEntity
  8
VISIBLE
100
AcDbLine
 10
553.277473449707
 20
1015.28742980957
 30
0.0
 11
535.777473449707
 21
1015.28742980957
 31
0.0
  0
LINE
  5
B7
330
1F
100
AcDbEntity
  8
VISIBLE
100
AcDbLine
 10
693.277473449707
 20
967.78742980957
 30
0.0
 11
698.277473449707
 21
967.78742980957
 31
0.0
  0
LINE
  5
B8
330
1F
100
AcDbEntity
  8
VISIBLE
100
AcDbLine
 10
635.777473449707
 20
1167.78742980957
 30
0.0
 11
635.777473449707
 21
1172.78742980957
 31
0.0
  0
LINE
  5
B9
330
1F
100
AcDbEntity
  8
VISIBLE
100
AcDbLine
 10
430.777473449707
 20
1172.78742980957
 30
0.0
 11
453.277473449707
 21
1172.78742980957
 31
0.0
  0
CIRCLE
  5
BA
330
1F
100
AcDbEntity
  8
VISIBLE
100
AcDbCircle
 10
573.277473449707
 20
937.78742980957
 30
0.0
 40
2.0
  0
LINE
  5
BB
330
1F
100
AcDbEntity
  8
VISIBLE
100
AcDbLine
 10
640.777473449707
 20
932.78742980957
 30
0.0
 11
640.777473449707
 21
915.28742980957
 31
0.0
  0
CIRCLE
  5
BC
330
1F
100
AcDbEntity
  8
VISIBLE
100
AcDbCircle
 10
613.277473449707
 20
977.78742980957
 30
0.0
 40
2.0
  0
LINE
  5
BD
330
1F
100
AcDbEntity
  8
VISIBLE
100
AcDbLine
 10
430.777473449707
 20
1120.28742980957
 30
0.0
 11
430.777473449707
 21
1102.78742980957
 31
0.0
  0
LINE
  5
BE
330
1F
100
AcDbEntity
  8
VISIBLE
100
AcDbLine
 10
493.277473449707
 20
1187.78742980957
 30
0.0
 11
493.277473449707
 21
1172.78742980957
 31
0.0
  0
LINE
  5
BF
330
1F
100
AcDbEntity
  8
VISIBLE
100
AcDbLine
 10
483.3931016921997
 20
1177.78742980957
 30
0.0
 11
463.3931016921997
 21
1177.78742980957
 31
0.0
  0
CIRCLE
  5
C0
330
1F
100
AcDbEntity
  8
VISIBLE
100
AcDbCircle
 10
453.277473449707
 20
1017.78742980957
 30
0.0
 40
2.0
  0
LINE
  5
C1
330
1F
100
AcDbEntity
  8
VISIBLE
100
AcDbLine
 10
640.777473449707
 20
1120.28742980957
 30
0.0
 11
640.777473449707
 21
1102.78742980957
 31
0.0
  0
LINE
  5
C2
330
1F
100
AcDbEntity
  8
VISIBLE
100
AcDbLine
 10
373.277473449707
 20
967.78742980957
 30
0.0
 11
373.277473449707
 21
947.78742980957
 31
0.0
  0
LINE
  5
C3
330
1F
100
AcDbEntity
  8
VISIBLE
100
AcDbLine
 10
640.777473449707
 20
1172.78742980957
 30
0.0
 11
640.777473449707
 21
1167.78742980957
 31
0.0
  0
LINE
  5
C4
330
1F
100
AcDbEntity
  8
VISIBLE
100
AcDbLine
 10
513.277473449707
 20
1015.28742980957
 30
0.0
 11
513.277473449707
 21
1020.28742980957
 31
0.0
  0
LINE
  5
C5
330
1F
100
AcDbEntity
  8
VISIBLE
100
AcDbLine
 10
430.777473449707
 20
1102.78742980957
 30
0.0
 11
425.777473449707
 21
1102.78742980957
 31
0.0
  0
CIRCLE
  5
C6
330
1F
100
AcDbEntity
  8
VISIBLE
100
AcDbCircle
 10
453.277473449707
 20
937.78742980957
 30
0.0
 40
2.0
  0
CIRCLE
  5
C7
330
1F
100
AcDbEntity
  8
VISIBLE
100
AcDbCircle
 10
393.277473449707
 20
877.78742980957
 30
0.0
 40
5.0
  0
LINE
  5
C8
330
1F
100
AcDbEntity
  8
VISIBLE
100
AcDbLine
 10
363.277473449707
 20
977.78742980957
 30
0.0
 11
378.277473449707
 21
977.78742980957
 31
0.0
  0
LINE
  5
C9
330
1F
100
AcDbEntity
  8
VISIBLE
100
AcDbLine
 10
430.777473449707
 20
892.78742980957
 30
0.0
 11
425.777473449707
 21
892.78742980957
 31
0.0
  0
LINE
  5
CA
330
1F
100
AcDbEntity
  8
VISIBLE
100
AcDbLine
 10
640.777473449707
 20
892.78742980957
 30
0.0
 11
635.777473449707
 21
892.78742980957
 31
0.0
  0
LINE
  5
CB
330
1F
100
AcDbEntity
  8
VISIBLE
100
AcDbLine
 10
640.777473449707
 20
910.28742980957
 30
0.0
 11
640.777473449707
 21
892.78742980957
 31
0.0
  0
LINE
  5
CC
330
1F
100
AcDbEntity
  8
VISIBLE
100
AcDbLine
 10
530.777473449707
 20
997.78742980957
 30
0.0
 11
530.777473449707
 21
1015.28742980957
 31
0.0
  0
LINE
  5
CD
330
1F
100
AcDbEntity
  8
VISIBLE
100
AcDbLine
 10
640.777473449707
 20
1167.78742980957
 30
0.0
 11
635.777473449707
 21
1167.78742980957
 31
0.0
  0
LINE
  5
CE
330
1F
100
AcDbEntity
  8
VISIBLE
100
AcDbLine
 10
425.777473449707
 20
1142.78742980957
 30
0.0
 11
430.777473449707
 21
1142.78742980957
 31
0.0
  0
LINE
  5
CF
330
1F
100
AcDbEntity
  8
VISIBLE
100
AcDbLine
 10
425.777473449707
 20
1120.28742980957
 30
0.0
 11
408.277473449707
 21
1120.28742980957
 31
0.0
  0
CIRCLE
  5
D0
330
1F
100
AcDbEntity
  8
VISIBLE
100
AcDbCircle
 10
533.277473449707
 20
1097.78742980957
 30
0.0
 40
2.0
  0
LINE
  5
D1
330
1F
100
AcDbEntity
  8
VISIBLE
100
AcDbLine
 10
447.9074716568
 20
848.717880249024
 30
0.0
 11
487.9074716568
 21
848.717880249024
 31
0.0
  0
LINE
  5
D2
330
1F
100
AcDbEntity
  8
VISIBLE
100
AcDbLine
 10
525.4074716568
 20
691.217880249024
 30
0.0
 11
525.4074716568
 21
708.717880249024
 31
0.0
  0
LINE
  5
D3
330
1F
100
AcDbEntity
  8
VISIBLE
100
AcDbLine
 10
635.4074716568
 20
543.717880249024
 30
0.0
 11
635.4074716568
 21
533.717880249024
 31
0.0
  0
LINE
  5
D4
330
1F
100
AcDbEntity
  8
VISIBLE
100
AcDbLine
 10
377.9074716568
 20
586.217880249024
 30
0.0
 11
377.9074716568
 21
581.217880249024
 31
0.0
  0
LINE
  5
D5
330
1F
100
AcDbEntity
  8
VISIBLE
100
AcDbLine
 10
635.4074716568
 20
838.717880249024
 30
0.0
 11
630.4074716568
 21
838.717880249024
 31
0.0
  0
LINE
  5
D6
330
1F
100
AcDbEntity
  8
VISIBLE
100
AcDbLine
 10
652.9074716568
 20
581.217880249024
 30
0.0
 11
635.4074716568
 21
581.217880249024
 31
0.0
  0
LINE
  5
D7
330
1F
100
AcDbEntity
  8
VISIBLE
100
AcDbLine
 10
687.9074716568
 20
533.717880249024
 30
0.0
 11
635.4074716568
 21
533.717880249024
 31
0.0
  0
CIRCLE
  5
D8
330
1F
100
AcDbEntity
  8
VISIBLE
100
AcDbCircle
 10
567.9074716568
 20
728.717880249024
 30
0.0
 40
2.0
  0
LINE
  5
D9
330
1F
100
AcDbEntity
  8
VISIBLE
100
AcDbLine
 10
442.9074716568
 20
796.217880249024
 30
0.0
 11
442.9074716568
 21
791.217880249024
 31
0.0
  0
LINE
  5
DA
330
1F
100
AcDbEntity
  8
VISIBLE
100
AcDbLine
 10
367.9074716568
 20
586.217880249024
 30
0.0
 11
377.9074716568
 21
586.217880249024
 31
0.0
  0
LINE
  5
DB
330
1F
100
AcDbEntity
  8
VISIBLE
100
AcDbLine
 10
530.4074716568
 20
691.217880249024
 30
0.0
 11
547.9074716568
 21
691.217880249024
 31
0.0
  0
LINE
  5
DC
330
1F
100
AcDbEntity
  8
VISIBLE
100
AcDbLine
 10
425.4074716568
 20
813.717880249024
 30
0.0
 11
425.4074716568
 21
796.217880249024
 31
0.0
  0
LINE
  5
DD
330
1F
100
AcDbEntity
  8
VISIBLE
100
AcDbLine
 10
442.9074716568
 20
791.217880249024
 30
0.0
 11
425.4074716568
 21
791.217880249024
 31
0.0
  0
CIRCLE
  5
DE
330
1F
100
AcDbEntity
  8
VISIBLE
100
AcDbCircle
 10
607.9074716568
 20
728.717880249024
 30
0.0
 40
2.0
  0
CIRCLE
  5
DF
330
1F
100
AcDbEntity
  8
VISIBLE
100
AcDbCircle
 10
487.9074716568
 20
688.717880249024
 30
0.0
 40
2.0
  0
LINE
  5
E0
330
1F
100
AcDbEntity
  8
VISIBLE
100
AcDbLine
 10
367.9074716568
 20
728.717880249024
 30
0.0
 11
367.9074716568
 21
768.717880249024
 31
0.0
  0
CIRCLE
  5
E1
330
1F
100
AcDbEntity
  8
VISIBLE
100
AcDbCircle
 10
567.9074716568
 20
688.717880249024
 30
0.0
 40
2.0
  0
CIRCLE
  5
E2
330
1F
100
AcDbEntity
  8
VISIBLE
100
AcDbCircle
 10
447.9074716568
 20
728.717880249024
 30
0.0
 40
2.0
  0
LINE
  5
E3
330
1F
100
AcDbEntity
  8
VISIBLE
100
AcDbLine
 10
607.9074716568
 20
848.717880249024
 30
0.0
 11
607.9074716568
 21
843.717880249024
 31
0.0
  0
CIRCLE
  5
E4
330
1F
100
AcDbEntity
  8
VISIBLE
100
AcDbCircle
 10
487.9074716568
 20
608.717880249024
 30
0.0
 40
2.0
  0
LINE
  5
E5
330
1F
100
AcDbEntity
  8
VISIBLE
100
AcDbLine
 10
687.9074716568
 20
581.217880249024
 30
0.0
 11
677.9074716568
 21
581.217880249024
 31
0.0
  0
CIRCLE
  5
E6
330
1F
100
AcDbEntity
  8
VISIBLE
100
AcDbCircle
 10
607.9074716568
 20
648.717880249024
 30
0.0
 40
2.0
  0
LINE
  5
E7
330
1F
100
AcDbEntity
  8
VISIBLE
100
AcDbLine
 10
652.9074716568
 20
791.217880249024
 30
0.0
 11
635.4074716568
 21
791.217880249024
 31
0.0
  0
LINE
  5
E8
330
1F
100
AcDbEntity
  8
VISIBLE
100
AcDbLine
 10
612.9074716568
 20
796.217880249024
 30
0.0
 11
630.4074716568
 21
796.217880249024
 31
0.0
  0
LINE
  5
E9
330
1F
100
AcDbEntity
  8
VISIBLE
100
AcDbLine
 10
630.4074716568
 20
603.717880249024
 30
0.0
 11
635.4074716568
 21
603.717880249024
 31
0.0
  0
LINE
  5
EA
330
1F
100
AcDbEntity
  8
VISIBLE
100
AcDbLine
 10
630.4074716568
 20
586.217880249024
 30
0.0
 11
630.4074716568
 21
603.717880249024
 31
0.0
  0
LINE
  5
EB
330
1F
100
AcDbEntity
  8
VISIBLE
100
AcDbLine
 10
677.9074716568
 20
586.217880249024
 30
0.0
 11
687.9074716568
 21
586.217880249024
 31
0.0
  0
LINE
  5
EC
330
1F
100
AcDbEntity
  8
VISIBLE
100
AcDbLine
 10
607.9074716568
 20
843.717880249024
 30
0.0
 11
630.4074716568
 21
843.717880249024
 31
0.0
  0
LINE
  5
ED
330
1F
100
AcDbEntity
  8
VISIBLE
100
AcDbLine
 10
635.4074716568
 20
586.217880249024
 30
0.0
 11
652.9074716568
 21
586.217880249024
 31
0.0
  0
LINE
  5
EE
330
1F
100
AcDbEntity
  8
VISIBLE
100
AcDbLine
 10
420.4074716568
 20
533.717880249024
 30
0.0
 11
420.4074716568
 21
543.717880249024
 31
0.0
  0
CIRCLE
  5
EF
330
1F
100
AcDbEntity
  8
VISIBLE
100
AcDbCircle
 10
527.9074716568
 20
608.717880249024
 30
0.0
 40
2.0
  0
LINE
  5
F0
330
1F
100
AcDbEntity
  8
VISIBLE
100
AcDbLine
 10
367.9074716568
 20
788.717880249024
 30
0.0
 11
367.9074716568
 21
791.217880249024
 31
0.0
  0
LINE
  5
F1
330
1F
100
AcDbEntity
  8
VISIBLE
100
AcDbLine
 10
425.4074716568
 20
603.717880249024
 30
0.0
 11
425.4074716568
 21
586.217880249024
 31
0.0
  0
LINE
  5
F2
330
1F
100
AcDbEntity
  8
VISIBLE
100
AcDbLine
 10
682.9074716568
 20
728.717880249024
 30
0.0
 11
682.9074716568
 21
768.7178802490241
 31
0.0
  0
LINE
  5
F3
330
1F
100
AcDbEntity
  8
VISIBLE
100
AcDbLine
 10
420.4074716568
 20
563.717880249024
 30
0.0
 11
420.4074716568
 21
581.217880249024
 31
0.0
  0
LINE
  5
F4
330
1F
100
AcDbEntity
  8
VISIBLE
100
AcDbLine
 10
525.4074716568
 20
708.717880249024
 30
0.0
 11
530.4074716568
 21
708.717880249024
 31
0.0
  0
LINE
  5
F5
330
1F
100
AcDbEntity
  8
VISIBLE
100
AcDbLine
 10
402.9074716568
 20
791.217880249024
 30
0.0
 11
402.9074716568
 21
796.217880249024
 31
0.0
  0
LINE
  5
F6
330
1F
100
AcDbEntity
  8
VISIBLE
100
AcDbLine
 10
357.9074716568
 20
778.717880249024
 30
0.0
 11
367.9074716568
 21
788.717880249024
 31
0.0
  0
LINE
  5
F7
330
1F
100
AcDbEntity
  8
VISIBLE
100
AcDbLine
 10
425.4074716568
 20
586.217880249024
 30
0.0
 11
442.9074716568
 21
586.217880249024
 31
0.0
  0
LINE
  5
F8
330
1F
100
AcDbEntity
  8
VISIBLE
100
AcDbLine
 10
635.4074716568
 20
843.717880249024
 30
0.0
 11
635.4074716568
 21
838.717880249024
 31
0.0
  0
LINE
  5
F9
330
1F
100
AcDbEntity
  8
VISIBLE
100
AcDbLine
 10
687.9074716568
 20
843.717880249024
 30
0.0
 11
687.9074716568
 21
796.217880249024
 31
0.0
  0
LINE
  5
FA
330
1F
100
AcDbEntity
  8
VISIBLE
100
AcDbLine
 10
697.9074716568
 20
598.717880249024
 30
0.0
 11
697.9074716568
 21
658.717880249024
 31
0.0
  0
LINE
  5
FB
330
1F
100
AcDbEntity
  8
VISIBLE
100
AcDbLine
 10
357.9074716568
 20
658.717880249024
 30
0.0
 11
367.9074716568
 21
668.717880249024
 31
0.0
  0
LINE
  5
FC
330
1F
100
AcDbEntity
  8
VISIBLE
100
AcDbLine
 10
402.9074716568
 20
586.217880249024
 30
0.0
 11
420.4074716568
 21
586.217880249024
 31
0.0
  0
CIRCLE
  5
FD
330
1F
100
AcDbEntity
  8
VISIBLE
100
AcDbCircle
 10
607.9074716568
 20
608.717880249024
 30
0.0
 40
2.0
  0
LINE
  5
FE
330
1F
100
AcDbEntity
  8
VISIBLE
100
AcDbLine
 10
367.9074716568
 20
843.717880249024
 30
0.0
 11
420.4074716568
 21
843.717880249024
 31
0.0
  0
LINE
  5
FF
330
1F
100
AcDbEntity
  8
VISIBLE
100
AcDbLine
 10
420.4074716568
 20
581.217880249024
 30
0.0
 11
402.9074716568
 21
581.217880249024
 31
0.0
  0
LINE
  5
100
330
1F
100
AcDbEntity
  8
VISIBLE
100
AcDbLine
 10
420.4074716568
 20
796.217880249024
 30
0.0
 11
420.4074716568
 21
813.717880249024
 31
0.0
  0
CIRCLE
  5
101
330
1F
100
AcDbEntity
  8
VISIBLE
100
AcDbCircle
 10
487.9074716568
 20
648.717880249024
 30
0.0
 40
2.0
  0
LINE
  5
102
330
1F
100
AcDbEntity
  8
VISIBLE
100
AcDbLine
 10
547.9074716568
 20
691.217880249024
 30
0.0
 11
547.9074716568
 21
686.217880249024
 31
0.0
  0
LINE
  5
103
330
1F
100
AcDbEntity
  8
VISIBLE
100
AcDbLine
 10
447.9074716568
 20
843.717880249024
 30
0.0
 11
447.9074716568
 21
848.717880249024
 31
0.0
  0
LINE
  5
104
330
1F
100
AcDbEntity
  8
VISIBLE
100
AcDbLine
 10
687.9074716568
 20
728.7178802490241
 30
0.0
 11
682.9074716568
 21
728.7178802490241
 31
0.0
  0
LINE
  5
105
330
1F
100
AcDbEntity
  8
VISIBLE
100
AcDbLine
 10
682.9074716568
 20
768.7178802490241
 30
0.0
 11
687.9074716568
 21
768.7178802490241
 31
0.0
  0
LINE
  5
106
330
1F
100
AcDbEntity
  8
VISIBLE
100
AcDbLine
 10
377.9074716568
 20
791.217880249024
 30
0.0
 11
367.9074716568
 21
791.217880249024
 31
0.0
  0
LINE
  5
107
330
1F
100
AcDbEntity
  8
VISIBLE
100
AcDbLine
 10
402.9074716568
 20
581.217880249024
 30
0.0
 11
402.9074716568
 21
586.217880249024
 31
0.0
  0
CIRCLE
  5
108
330
1F
100
AcDbEntity
  8
VISIBLE
100
AcDbCircle
 10
447.9074716568
 20
768.717880249024
 30
0.0
 40
2.0
  0
LINE
  5
109
330
1F
100
AcDbEntity
  8
VISIBLE
100
AcDbLine
 10
687.9074716568
 20
608.7178802490241
 30
0.0
 11
682.9074716568
 21
608.7178802490241
 31
0.0
  0
LINE
  5
10A
330
1F
100
AcDbEntity
  8
VISIBLE
100
AcDbLine
 10
425.4074716568
 20
773.717880249024
 30
0.0
 11
420.4074716568
 21
773.717880249024
 31
0.0
  0
LINE
  5
10B
330
1F
100
AcDbEntity
  8
VISIBLE
100
AcDbLine
 10
372.9074716568
 20
728.717880249024
 30
0.0
 11
367.9074716568
 21
728.717880249024
 31
0.0
  0
LINE
  5
10C
330
1F
100
AcDbEntity
  8
VISIBLE
100
AcDbLine
 10
525.4074716568
 20
668.717880249024
 30
0.0
 11
525.4074716568
 21
686.217880249024
 31
0.0
  0
CIRCLE
  5
10D
330
1F
100
AcDbEntity
  8
VISIBLE
100
AcDbCircle
 10
607.9074716568
 20
768.717880249024
 30
0.0
 40
2.0
  0
LINE
  5
10E
330
1F
100
AcDbEntity
  8
VISIBLE
100
AcDbLine
 10
635.4074716568
 20
563.717880249024
 30
0.0
 11
630.4074716568
 21
563.717880249024
 31
0.0
  0
LINE
  5
10F
330
1F
100
AcDbEntity
  8
VISIBLE
100
AcDbLine
 10
377.9074716568
 20
581.217880249024
 30
0.0
 11
367.9074716568
 21
581.217880249024
 31
0.0
  0
LINE
  5
110
330
1F
100
AcDbEntity
  8
VISIBLE
100
AcDbLine
 10
630.4074716568
 20
533.717880249024
 30
0.0
 11
630.4074716568
 21
543.717880249024
 31
0.0
  0
LINE
  5
111
330
1F
100
AcDbEntity
  8
VISIBLE
100
AcDbLine
 10
367.9074716568
 20
648.717880249024
 30
0.0
 11
372.9074716568
 21
648.717880249024
 31
0.0
  0
LINE
  5
112
330
1F
100
AcDbEntity
  8
VISIBLE
100
AcDbLine
 10
677.9074716568
 20
581.217880249024
 30
0.0
 11
677.9074716568
 21
586.217880249024
 31
0.0
  0
LINE
  5
113
330
1F
100
AcDbEntity
  8
VISIBLE
100
AcDbLine
 10
507.9074716568
 20
686.217880249024
 30
0.0
 11
507.9074716568
 21
691.217880249024
 31
0.0
  0
LINE
  5
114
330
1F
100
AcDbEntity
  8
VISIBLE
100
AcDbLine
 10
372.9074716568
 20
768.717880249024
 30
0.0
 11
372.9074716568
 21
728.717880249024
 31
0.0
  0
LINE
  5
115
330
1F
100
AcDbEntity
  8
VISIBLE
100
AcDbLine
 10
635.4074716568
 20
603.717880249024
 30
0.0
 11
635.4074716568
 21
586.217880249024
 31
0.0
  0
LINE
  5
116
330
1F
100
AcDbEntity
  8
VISIBLE
100
AcDbLine
 10
367.9074716568
 20
796.217880249024
 30
0.0
 11
367.9074716568
 21
843.717880249024
 31
0.0
  0
LINE
  5
117
330
1F
100
AcDbEntity
  8
VISIBLE
100
AcDbLine
 10
687.9074716568
 20
708.717880249024
 30
0.0
 11
687.9074716568
 21
668.717880249024
 31
0.0
  0
CIRCLE
  5
118
330
1F
100
AcDbEntity
  8
VISIBLE
100
AcDbCircle
 10
487.9074716568
 20
728.717880249024
 30
0.0
 40
2.0
  0
LINE
  5
119
330
1F
100
AcDbEntity
  8
VISIBLE
100
AcDbLine
 10
357.9074716568
 20
598.717880249024
 30
0.0
 11
357.9074716568
 21
658.717880249024
 31
0.0
  0
LINE
  5
11A
330
1F
100
AcDbEntity
  8
VISIBLE
100
AcDbLine
 10
442.9074716568
 20
586.217880249024
 30
0.0
 11
442.9074716568
 21
581.217880249024
 31
0.0
  0
LINE
  5
11B
330
1F
100
AcDbEntity
  8
VISIBLE
100
AcDbLine
 10
630.4074716568
 20
838.717880249024
 30
0.0
 11
630.4074716568
 21
843.717880249024
 31
0.0
  0
CIRCLE
  5
11C
330
1F
100
AcDbEntity
  8
VISIBLE
100
AcDbCircle
 10
567.9074716568
 20
648.717880249024
 30
0.0
 40
2.0
  0
LINE
  5
11D
330
1F
100
AcDbEntity
  8
VISIBLE
100
AcDbLine
 10
635.4074716568
 20
843.717880249024
 30
0.0
 11
687.9074716568
 21
843.717880249024
 31
0.0
  0
CIRCLE
  5
11E
330
1F
100
AcDbEntity
  8
VISIBLE
100
AcDbCircle
 10
527.9074716568
 20
768.717880249024
 30
0.0
 40
2.0
  0
LINE
  5
11F
330
1F
100
AcDbEntity
  8
VISIBLE
100
AcDbLine
 10
547.9074716568
 20
686.217880249024
 30
0.0
 11
530.4074716568
 21
686.217880249024
 31
0.0
  0
LINE
  5
120
330
1F
100
AcDbEntity
  8
VISIBLE
100
AcDbLine
 10
687.9074716568
 20
791.217880249024
 30
0.0
 11
677.9074716568
 21
791.217880249024
 31
0.0
  0
LINE
  5
121
330
1F
100
AcDbEntity
  8
VISIBLE
100
AcDbLine
 10
567.9074716568
 20
848.717880249024
 30
0.0
 11
607.9074716568
 21
848.717880249024
 31
0.0
  0
LINE
  5
122
330
1F
100
AcDbEntity
  8
VISIBLE
100
AcDbLine
 10
630.4074716568
 20
813.717880249024
 30
0.0
 11
635.4074716568
 21
813.717880249024
 31
0.0
  0
LINE
  5
123
330
1F
100
AcDbEntity
  8
VISIBLE
100
AcDbLine
 10
425.4074716568
 20
843.717880249024
 30
0.0
 11
447.9074716568
 21
843.717880249024
 31
0.0
  0
LINE
  5
124
330
1F
100
AcDbEntity
  8
VISIBLE
100
AcDbLine
 10
687.9074716568
 20
588.717880249024
 30
0.0
 11
687.9074716568
 21
586.217880249024
 31
0.0
  0
LINE
  5
125
330
1F
100
AcDbEntity
  8
VISIBLE
100
AcDbLine
 10
487.9074716568
 20
848.717880249024
 30
0.0
 11
487.9074716568
 21
843.717880249024
 31
0.0
  0
LINE
  5
126
330
1F
100
AcDbEntity
  8
VISIBLE
100
AcDbLine
 10
697.9074716568
 20
778.717880249024
 30
0.0
 11
697.9074716568
 21
718.717880249024
 31
0.0
  0
CIRCLE
  5
127
330
1F
100
AcDbEntity
  8
VISIBLE
100
AcDbCircle
 10
567.9074716568
 20
608.717880249024
 30
0.0
 40
2.0
  0
CIRCLE
  5
128
330
1F
100
AcDbEntity
  8
VISIBLE
100
AcDbCircle
 10
567.9074716568
 20
768.717880249024
 30
0.0
 40
2.0
  0
LINE
  5
129
330
1F
100
AcDbEntity
  8
VISIBLE
100
AcDbLine
 10
530.4074716568
 20
686.217880249024
 30
0.0
 11
530.4074716568
 21
668.717880249024
 31
0.0
  0
CIRCLE
  5
12A
330
1F
100
AcDbEntity
  8
VISIBLE
100
AcDbCircle
 10
447.9074716568
 20
648.717880249024
 30
0.0
 40
2.0
  0
LINE
  5
12B
330
1F
100
AcDbEntity
  8
VISIBLE
100
AcDbLine
 10
420.4074716568
 20
773.717880249024
 30
0.0
 11
420.4074716568
 21
791.217880249024
 31
0.0
  0
LINE
  5
12C
330
1F
100
AcDbEntity
  8
VISIBLE
100
AcDbLine
 10
682.9074716568
 20
648.7178802490241
 30
0.0
 11
687.9074716568
 21
648.7178802490241
 31
0.0
  0
LINE
  5
12D
330
1F
100
AcDbEntity
  8
VISIBLE
100
AcDbLine
 10
425.4074716568
 20
838.717880249024
 30
0.0
 11
420.4074716568
 21
838.717880249024
 31
0.0
  0
LINE
  5
12E
330
1F
100
AcDbEntity
  8
VISIBLE
100
AcDbLine
 10
357.9074716568
 20
778.717880249024
 30
0.0
 11
357.9074716568
 21
718.717880249024
 31
0.0
  0
LINE
  5
12F
330
1F
100
AcDbEntity
  8
VISIBLE
100
AcDbLine
 10
635.4074716568
 20
796.217880249024
 30
0.0
 11
652.9074716568
 21
796.217880249024
 31
0.0
  0
LINE
  5
130
330
1F
100
AcDbEntity
  8
VISIBLE
100
AcDbLine
 10
635.4074716568
 20
773.717880249024
 30
0.0
 11
630.4074716568
 21
773.717880249024
 31
0.0
  0
LINE
  5
131
330
1F
100
AcDbEntity
  8
VISIBLE
100
AcDbLine
 10
630.4074716568
 20
796.217880249024
 30
0.0
 11
630.4074716568
 21
813.717880249024
 31
0.0
  0
LINE
  5
132
330
1F
100
AcDbEntity
  8
VISIBLE
100
AcDbLine
 10
377.9074716568
 20
796.217880249024
 30
0.0
 11
377.9074716568
 21
791.217880249024
 31
0.0
  0
CIRCLE
  5
133
330
1F
100
AcDbEntity
  8
VISIBLE
100
AcDbCircle
 10
487.9074716568
 20
768.717880249024
 30
0.0
 40
2.0
  0
LINE
  5
134
330
1F
100
AcDbEntity
  8
VISIBLE
100
AcDbLine
 10
687.9074716568
 20
648.717880249024
 30
0.0
 11
687.9074716568
 21
608.7178802490241
 31
0.0
  0
LINE
  5
135
330
1F
100
AcDbEntity
  8
VISIBLE
100
AcDbLine
 10
420.4074716568
 20
813.717880249024
 30
0.0
 11
425.4074716568
 21
813.717880249024
 31
0.0
  0
LINE
  5
136
330
1F
100
AcDbEntity
  8
VISIBLE
100
AcDbLine
 10
530.4074716568
 20
668.717880249024
 30
0.0
 11
525.4074716568
 21
668.717880249024
 31
0.0
  0
LINE
  5
137
330
1F
100
AcDbEntity
  8
VISIBLE
100
AcDbLine
 10
630.4074716568
 20
543.717880249024
 30
0.0
 11
635.4074716568
 21
543.717880249024
 31
0.0
  0
LINE
  5
138
330
1F
100
AcDbEntity
  8
VISIBLE
100
AcDbLine
 10
630.4074716568
 20
791.217880249024
 30
0.0
 11
612.9074716568
 21
791.217880249024
 31
0.0
  0
LINE
  5
139
330
1F
100
AcDbEntity
  8
VISIBLE
100
AcDbLine
 10
367.9074716568
 20
588.717880249024
 30
0.0
 11
357.9074716568
 21
598.717880249024
 31
0.0
  0
LINE
  5
13A
330
1F
100
AcDbEntity
  8
VISIBLE
100
AcDbLine
 10
612.9074716568
 20
586.217880249024
 30
0.0
 11
630.4074716568
 21
586.217880249024
 31
0.0
  0
LINE
  5
13B
330
1F
100
AcDbEntity
  8
VISIBLE
100
AcDbLine
 10
425.4074716568
 20
581.217880249024
 30
0.0
 11
425.4074716568
 21
563.717880249024
 31
0.0
  0
LINE
  5
13C
330
1F
100
AcDbEntity
  8
VISIBLE
100
AcDbLine
 10
367.9074716568
 20
533.717880249024
 30
0.0
 11
367.9074716568
 21
581.217880249024
 31
0.0
  0
LINE
  5
13D
330
1F
100
AcDbEntity
  8
VISIBLE
100
AcDbLine
 10
687.9074716568
 20
788.717880249024
 30
0.0
 11
697.9074716568
 21
778.717880249024
 31
0.0
  0
LINE
  5
13E
330
1F
100
AcDbEntity
  8
VISIBLE
100
AcDbLine
 10
487.9074716568
 20
843.717880249024
 30
0.0
 11
567.9074716568
 21
843.717880249024
 31
0.0
  0
LINE
  5
13F
330
1F
100
AcDbEntity
  8
VISIBLE
100
AcDbLine
 10
420.4074716568
 20
838.717880249024
 30
0.0
 11
420.4074716568
 21
843.717880249024
 31
0.0
  0
LINE
  5
140
330
1F
100
AcDbEntity
  8
VISIBLE
100
AcDbLine
 10
687.9074716568
 20
728.7178802490241
 30
0.0
 11
687.9074716568
 21
768.717880249024
 31
0.0
  0
CIRCLE
  5
141
330
1F
100
AcDbEntity
  8
VISIBLE
100
AcDbCircle
 10
447.9074716568
 20
688.717880249024
 30
0.0
 40
2.0
  0
LINE
  5
142
330
1F
100
AcDbEntity
  8
VISIBLE
100
AcDbLine
 10
425.4074716568
 20
543.717880249024
 30
0.0
 11
425.4074716568
 21
533.717880249024
 31
0.0
  0
LINE
  5
143
330
1F
100
AcDbEntity
  8
VISIBLE
100
AcDbLine
 10
677.9074716568
 20
796.217880249024
 30
0.0
 11
687.9074716568
 21
796.217880249024
 31
0.0
  0
LINE
  5
144
330
1F
100
AcDbEntity
  8
VISIBLE
100
AcDbLine
 10
420.4074716568
 20
543.717880249024
 30
0.0
 11
425.4074716568
 21
543.717880249024
 31
0.0
  0
LINE
  5
145
330
1F
100
AcDbEntity
  8
VISIBLE
100
AcDbLine
 10
687.9074716568
 20
581.217880249024
 30
0.0
 11
687.9074716568
 21
533.717880249024
 31
0.0
  0
LINE
  5
146
330
1F
100
AcDbEntity
  8
VISIBLE
100
AcDbLine
 10
525.4074716568
 20
686.217880249024
 30
0.0
 11
507.9074716568
 21
686.217880249024
 31
0.0
  0
LINE
  5
147
330
1F
100
AcDbEntity
  8
VISIBLE
100
AcDbLine
 10
507.9074716568
 20
691.217880249024
 30
0.0
 11
525.4074716568
 21
691.217880249024
 31
0.0
  0
LINE
  5
148
330
1F
100
AcDbEntity
  8
VISIBLE
100
AcDbLine
 10
682.9074716568
 20
608.717880249024
 30
0.0
 11
682.9074716568
 21
648.7178802490241
 31
0.0
  0
LINE
  5
149
330
1F
100
AcDbEntity
  8
VISIBLE
100
AcDbLine
 10
367.9074716568
 20
796.217880249024
 30
0.0
 11
377.9074716568
 21
796.217880249024
 31
0.0
  0
LINE
  5
14A
330
1F
100
AcDbEntity
  8
VISIBLE
100
AcDbLine
 10
630.4074716568
 20
773.717880249024
 30
0.0
 11
630.4074716568
 21
791.217880249024
 31
0.0
  0
LINE
  5
14B
330
1F
100
AcDbEntity
  8
VISIBLE
100
AcDbLine
 10
635.4074716568
 20
581.217880249024
 30
0.0
 11
635.4074716568
 21
563.717880249024
 31
0.0
  0
LINE
  5
14C
330
1F
100
AcDbEntity
  8
VISIBLE
100
AcDbLine
 10
425.4074716568
 20
843.717880249024
 30
0.0
 11
425.4074716568
 21
838.717880249024
 31
0.0
  0
LINE
  5
14D
330
1F
100
AcDbEntity
  8
VISIBLE
100
AcDbLine
 10
630.4074716568
 20
563.717880249024
 30
0.0
 11
630.4074716568
 21
581.217880249024
 31
0.0
  0
LINE
  5
14E
330
1F
100
AcDbEntity
  8
VISIBLE
100
AcDbLine
 10
652.9074716568
 20
586.217880249024
 30
0.0
 11
652.9074716568
 21
581.217880249024
 31
0.0
  0
LINE
  5
14F
330
1F
100
AcDbEntity
  8
VISIBLE
100
AcDbLine
 10
630.4074716568
 20
533.717880249024
 30
0.0
 11
425.4074716568
 21
533.717880249024
 31
0.0
  0
LINE
  5
150
330
1F
100
AcDbEntity
  8
VISIBLE
100
AcDbLine
 10
425.4074716568
 20
791.217880249024
 30
0.0
 11
425.4074716568
 21
773.717880249024
 31
0.0
  0
CIRCLE
  5
151
330
1F
100
AcDbEntity
  8
VISIBLE
100
AcDbCircle
 10
527.9074716568
 20
648.717880249024
 30
0.0
 40
2.0
  0
LINE
  5
152
330
1F
100
AcDbEntity
  8
VISIBLE
100
AcDbLine
 10
367.9074716568
 20
768.717880249024
 30
0.0
 11
372.9074716568
 21
768.717880249024
 31
0.0
  0
LINE
  5
153
330
1F
100
AcDbEntity
  8
VISIBLE
100
AcDbLine
 10
630.4074716568
 20
581.217880249024
 30
0.0
 11
612.9074716568
 21
581.217880249024
 31
0.0
  0
LINE
  5
154
330
1F
100
AcDbEntity
  8
VISIBLE
100
AcDbLine
 10
687.9074716568
 20
791.217880249024
 30
0.0
 11
687.9074716568
 21
788.717880249024
 31
0.0
  0
LINE
  5
155
330
1F
100
AcDbEntity
  8
VISIBLE
100
AcDbLine
 10
372.9074716568
 20
648.717880249024
 30
0.0
 11
372.9074716568
 21
608.717880249024
 31
0.0
  0
LINE
  5
156
330
1F
100
AcDbEntity
  8
VISIBLE
100
AcDbLine
 10
420.4074716568
 20
586.217880249024
 30
0.0
 11
420.4074716568
 21
603.717880249024
 31
0.0
  0
LINE
  5
157
330
1F
100
AcDbEntity
  8
VISIBLE
100
AcDbLine
 10
402.9074716568
 20
796.217880249024
 30
0.0
 11
420.4074716568
 21
796.217880249024
 31
0.0
  0
LINE
  5
158
330
1F
100
AcDbEntity
  8
VISIBLE
100
AcDbLine
 10
677.9074716568
 20
791.217880249024
 30
0.0
 11
677.9074716568
 21
796.217880249024
 31
0.0
  0
LINE
  5
159
330
1F
100
AcDbEntity
  8
VISIBLE
100
AcDbLine
 10
635.4074716568
 20
791.217880249024
 30
0.0
 11
635.4074716568
 21
773.717880249024
 31
0.0
  0
LINE
  5
15A
330
1F
100
AcDbEntity
  8
VISIBLE
100
AcDbLine
 10
420.4074716568
 20
603.717880249024
 30
0.0
 11
425.4074716568
 21
603.717880249024
 31
0.0
  0
LINE
  5
15B
330
1F
100
AcDbEntity
  8
VISIBLE
100
AcDbLine
 10
697.9074716568
 20
718.717880249024
 30
0.0
 11
687.9074716568
 21
708.717880249024
 31
0.0
  0
LINE
  5
15C
330
1F
100
AcDbEntity
  8
VISIBLE
100
AcDbLine
 10
612.9074716568
 20
791.217880249024
 30
0.0
 11
612.9074716568
 21
796.217880249024
 31
0.0
  0
LINE
  5
15D
330
1F
100
AcDbEntity
  8
VISIBLE
100
AcDbLine
 10
652.9074716568
 20
796.217880249024
 30
0.0
 11
652.9074716568
 21
791.217880249024
 31
0.0
  0
LINE
  5
15E
330
1F
100
AcDbEntity
  8
VISIBLE
100
AcDbLine
 10
420.4074716568
 20
791.217880249024
 30
0.0
 11
402.9074716568
 21
791.217880249024
 31
0.0
  0
LINE
  5
15F
330
1F
100
AcDbEntity
  8
VISIBLE
100
AcDbLine
 10
442.9074716568
 20
581.217880249024
 30
0.0
 11
425.4074716568
 21
581.217880249024
 31
0.0
  0
CIRCLE
  5
160
330
1F
100
AcDbEntity
  8
VISIBLE
100
AcDbCircle
 10
607.9074716568
 20
688.717880249024
 30
0.0
 40
2.0
  0
LINE
  5
161
330
1F
100
AcDbEntity
  8
VISIBLE
100
AcDbLine
 10
420.4074716568
 20
533.717880249024
 30
0.0
 11
367.9074716568
 21
533.717880249024
 31
0.0
  0
LINE
  5
162
330
1F
100
AcDbEntity
  8
VISIBLE
100
AcDbLine
 10
530.4074716568
 20
708.717880249024
 30
0.0
 11
530.4074716568
 21
691.217880249024
 31
0.0
  0
LINE
  5
163
330
1F
100
AcDbEntity
  8
VISIBLE
100
AcDbLine
 10
687.9074716568
 20
668.717880249024
 30
0.0
 11
697.9074716568
 21
658.717880249024
 31
0.0
  0
CIRCLE
  5
164
330
1F
100
AcDbEntity
  8
VISIBLE
100
AcDbCircle
 10
527.9074716568
 20
728.717880249024
 30
0.0
 40
2.0
  0
LINE
  5
165
330
1F
100
AcDbEntity
  8
VISIBLE
100
AcDbLine
 10
612.9074716568
 20
581.217880249024
 30
0.0
 11
612.9074716568
 21
586.217880249024
 31
0.0
  0
LINE
  5
166
330
1F
100
AcDbEntity
  8
VISIBLE
100
AcDbLine
 10
367.9074716568
 20
586.217880249024
 30
0.0
 11
367.9074716568
 21
588.717880249024
 31
0.0
  0
LINE
  5
167
330
1F
100
AcDbEntity
  8
VISIBLE
100
AcDbLine
 10
372.9074716568
 20
608.717880249024
 30
0.0
 11
367.9074716568
 21
608.717880249024
 31
0.0
  0
LINE
  5
168
330
1F
100
AcDbEntity
  8
VISIBLE
100
AcDbLine
 10
635.4074716568
 20
813.717880249024
 30
0.0
 11
635.4074716568
 21
796.217880249024
 31
0.0
  0
CIRCLE
  5
169
330
1F
100
AcDbEntity
  8
VISIBLE
100
AcDbCircle
 10
447.9074716568
 20
608.717880249024
 30
0.0
 40
2.0
  0
LINE
  5
16A
330
1F
100
AcDbEntity
  8
VISIBLE
100
AcDbLine
 10
367.9074716568
 20
668.717880249024
 30
0.0
 11
367.9074716568
 21
708.717880249024
 31
0.0
  0
LINE
  5
16B
330
1F
100
AcDbEntity
  8
VISIBLE
100
AcDbLine
 10
367.9074716568
 20
708.717880249024
 30
0.0
 11
357.9074716568
 21
718.717880249024
 31
0.0
  0
LINE
  5
16C
330
1F
100
AcDbEntity
  8
VISIBLE
100
AcDbLine
 10
567.9074716568
 20
843.717880249024
 30
0.0
 11
567.9074716568
 21
848.717880249024
 31
0.0
  0
LINE
  5
16D
330
1F
100
AcDbEntity
  8
VISIBLE
100
AcDbLine
 10
425.4074716568
 20
563.717880249024
 30
0.0
 11
420.4074716568
 21
563.717880249024
 31
0.0
  0
LINE
  5
16E
330
1F
100
AcDbEntity
  8
VISIBLE
100
AcDbLine
 10
367.9074716568
 20
648.717880249024
 30
0.0
 11
367.9074716568
 21
608.717880249024
 31
0.0
  0
LINE
  5
16F
330
1F
100
AcDbEntity
  8
VISIBLE
100
AcDbLine
 10
697.9074716568
 20
598.717880249024
 30
0.0
 11
687.9074716568
 21
588.717880249024
 31
0.0
  0
LINE
  5
170
330
1F
100
AcDbEntity
  8
VISIBLE
100
AcDbLine
 10
425.4074716568
 20
796.217880249024
 30
0.0
 11
442.9074716568
 21
796.217880249024
 31
0.0
  0
LINE
  5
171
330
1F
100
AcDbEntity
  8
VISIBLE
100
AcDbLine
 10
256.425493240356
 20
496.364120483398
 30
0.0
 11
256.425493240356
 21
436.364120483398
 31
0.0
  0
LINE
  5
172
330
1F
100
AcDbEntity
  8
VISIBLE
100
AcDbLine
 10
206.425493240356
 20
468.864120483398
 30
0.0
 11
231.425493240356
 21
468.864120483398
 31
0.0
  0
LINE
  5
173
330
1F
100
AcDbEntity
  8
VISIBLE
100
AcDbLine
 10
246.425493240356
 20
486.364120483398
 30
0.0
 11
246.425493240356
 21
496.364120483398
 31
0.0
  0
LINE
  5
174
330
1F
100
AcDbEntity
  8
VISIBLE
100
AcDbLine
 10
216.425493240356
 20
458.864120483398
 30
0.0
 11
216.425493240356
 21
453.864120483398
 31
0.0
  0
LINE
  5
175
330
1F
100
AcDbEntity
  8
VISIBLE
100
AcDbLine
 10
246.425493240356
 20
446.364120483398
 30
0.0
 11
246.425493240356
 21
436.364120483398
 31
0.0
  0
LINE
  5
176
330
1F
100
AcDbEntity
  8
VISIBLE
100
AcDbLine
 10
211.425493240356
 20
453.864120483398
 30
0.0
 11
211.425493240356
 21
458.864120483398
 31
0.0
  0
LINE
  5
177
330
1F
100
AcDbEntity
  8
VISIBLE
100
AcDbLine
 10
216.425493240356
 20
453.864120483398
 30
0.0
 11
211.425493240356
 21
453.864120483398
 31
0.0
  0
LINE
  5
178
330
1F
100
AcDbEntity
  8
VISIBLE
100
AcDbLine
 10
216.425493240356
 20
478.864120483398
 30
0.0
 11
216.425493240356
 21
473.864120483398
 31
0.0
  0
LINE
  5
179
330
1F
100
AcDbEntity
  8
VISIBLE
100
AcDbLine
 10
211.425493240356
 20
458.864120483398
 30
0.0
 11
216.425493240356
 21
458.864120483398
 31
0.0
  0
LINE
  5
17A
330
1F
100
AcDbEntity
  8
VISIBLE
100
AcDbLine
 10
206.425493240356
 20
446.364120483398
 30
0.0
 11
206.425493240356
 21
463.864120483398
 31
0.0
  0
LINE
  5
17B
330
1F
100
AcDbEntity
  8
VISIBLE
100
AcDbLine
 10
216.425493240356
 20
473.864120483398
 30
0.0
 11
211.425493240356
 21
473.864120483398
 31
0.0
  0
LINE
  5
17C
330
1F
100
AcDbEntity
  8
VISIBLE
100
AcDbLine
 10
246.425493240356
 20
436.364120483398
 30
0.0
 11
256.425493240356
 21
436.364120483398
 31
0.0
  0
LINE
  5
17D
330
1F
100
AcDbEntity
  8
VISIBLE
100
AcDbLine
 10
231.425493240356
 20
463.864120483398
 30
0.0
 11
206.425493240356
 21
463.864120483398
 31
0.0
  0
LINE
  5
17E
330
1F
100
AcDbEntity
  8
VISIBLE
100
AcDbLine
 10
231.425493240356
 20
468.864120483398
 30
0.0
 11
231.425493240356
 21
463.864120483398
 31
0.0
  0
LINE
  5
17F
330
1F
100
AcDbEntity
  8
VISIBLE
100
AcDbLine
 10
206.425493240356
 20
486.364120483398
 30
0.0
 11
246.425493240356
 21
486.364120483398
 31
0.0
  0
LINE
  5
180
330
1F
100
AcDbEntity
  8
VISIBLE
100
AcDbLine
 10
211.425493240356
 20
478.864120483398
 30
0.0
 11
216.425493240356
 21
478.864120483398
 31
0.0
  0
LINE
  5
181
330
1F
100
AcDbEntity
  8
VISIBLE
100
AcDbLine
 10
246.425493240356
 20
496.364120483398
 30
0.0
 11
256.425493240356
 21
496.364120483398
 31
0.0
  0
LINE
  5
182
330
1F
100
AcDbEntity
  8
VISIBLE
100
AcDbLine
 10
246.425493240356
 20
446.364120483398
 30
0.0
 11
206.425493240356
 21
446.364120483398
 31
0.0
  0
LINE
  5
183
330
1F
100
AcDbEntity
  8
VISIBLE
100
AcDbLine
 10
206.425493240356
 20
468.864120483398
 30
0.0
 11
206.425493240356
 21
486.364120483398
 31
0.0
  0
LINE
  5
184
330
1F
100
AcDbEntity
  8
VISIBLE
100
AcDbLine
 10
211.425493240356
 20
473.864120483398
 30
0.0
 11
211.425493240356
 21
478.864120483398
 31
0.0
  0
LINE
  5
185
330
1F
100
AcDbEntity
  8
VISIBLE
100
AcDbLine
 10
245.952796936035
 20
378.95068359375
 30
0.0
 11
245.952796936035
 21
368.95068359375
 31
0.0
  0
LINE
  5
186
330
1F
100
AcDbEntity
  8
VISIBLE
100
AcDbLine
 10
220.952796936035
 20
401.45068359375
 30
0.0
 11
240.952796936035
 21
401.45068359375
 31
0.0
  0
LINE
  5
187
330
1F
100
AcDbEntity
  8
VISIBLE
100
AcDbLine
 10
245.952796936035
 20
428.95068359375
 30
0.0
 11
255.952796936035
 21
428.95068359375
 31
0.0
  0
LINE
  5
188
330
1F
100
AcDbEntity
  8
VISIBLE
100
AcDbLine
 10
240.952796936035
 20
401.45068359375
 30
0.0
 11
240.952796936035
 21
396.45068359375
 31
0.0
  0
LINE
  5
189
330
1F
100
AcDbEntity
  8
VISIBLE
100
AcDbLine
 10
205.952796936035
 20
416.95068359375
 30
0.0
 11
207.952796936035
 21
418.95068359375
 31
0.0
  0
LINE
  5
18A
330
1F
100
AcDbEntity
  8
VISIBLE
100
AcDbLine
 10
245.952796936035
 20
368.95068359375
 30
0.0
 11
255.952796936035
 21
368.95068359375
 31
0.0
  0
LINE
  5
18B
330
1F
100
AcDbEntity
  8
VISIBLE
100
AcDbLine
 10
207.952796936035
 20
378.95068359375
 30
0.0
 11
205.952796936035
 21
380.95068359375
 31
0.0
  0
LINE
  5
18C
330
1F
100
AcDbEntity
  8
VISIBLE
100
AcDbLine
 10
220.952796936035
 20
396.45068359375
 30
0.0
 11
220.952796936035
 21
401.45068359375
 31
0.0
  0
LINE
  5
18D
330
1F
100
AcDbEntity
  8
VISIBLE
100
AcDbLine
 10
210.952796936035
 20
388.95068359375
 30
0.0
 11
210.952796936035
 21
408.95068359375
 31
0.0
  0
LINE
  5
18E
330
1F
100
AcDbEntity
  8
VISIBLE
100
AcDbLine
 10
216.1134886741637
 20
388.95068359375
 30
0.0
 11
210.952796936035
 21
388.95068359375
 31
0.0
  0
LINE
  5
18F
330
1F
100
AcDbEntity
  8
VISIBLE
100
AcDbLine
 10
205.952796936035
 20
380.95068359375
 30
0.0
 11
205.952796936035
 21
416.95068359375
 31
0.0
  0
LINE
  5
190
330
1F
100
AcDbEntity
  8
VISIBLE
100
AcDbLine
 10
240.952796936035
 20
396.45068359375
 30
0.0
 11
220.952796936035
 21
396.45068359375
 31
0.0
  0
LINE
  5
191
330
1F
100
AcDbEntity
  8
VISIBLE
100
AcDbLine
 10
210.952796936035
 20
408.95068359375
 30
0.0
 11
216.1134886741637
 21
408.95068359375
 31
0.0
  0
LINE
  5
192
330
1F
100
AcDbEntity
  8
VISIBLE
100
AcDbLine
 10
245.952796936035
 20
418.95068359375
 30
0.0
 11
245.952796936035
 21
428.95068359375
 31
0.0
  0
LINE
  5
193
330
1F
100
AcDbEntity
  8
VISIBLE
100
AcDbLine
 10
245.952796936035
 20
378.95068359375
 30
0.0
 11
207.952796936035
 21
378.95068359375
 31
0.0
  0
LINE
  5
194
330
1F
100
AcDbEntity
  8
VISIBLE
100
AcDbLine
 10
216.1134886741637
 20
408.95068359375
 30
0.0
 11
216.1134886741637
 21
388.95068359375
 31
0.0
  0
LINE
  5
195
330
1F
100
AcDbEntity
  8
VISIBLE
100
AcDbLine
 10
207.952796936035
 20
418.95068359375
 30
0.0
 11
245.952796936035
 21
418.95068359375
 31
0.0
  0
LINE
  5
196
330
1F
100
AcDbEntity
  8
VISIBLE
100
AcDbLine
 10
255.952796936035
 20
428.95068359375
 30
0.0
 11
255.952796936035
 21
368.95068359375
 31
0.0
  0
LINE
  5
197
330
1F
100
AcDbEntity
  8
VISIBLE
100
AcDbLine
 10
44.1254519224166
 20
503.526516914369
 30
0.0
 11
49.12545192241659
 21
508.526516914369
 31
0.0
  0
LINE
  5
198
330
1F
100
AcDbEntity
  8
VISIBLE
100
AcDbLine
 10
39.1254519224165
 20
238.526516914369
 30
0.0
 11
44.1254519224166
 21
238.526516914369
 31
0.0
  0
LINE
  5
199
330
1F
100
AcDbEntity
  8
VISIBLE
100
AcDbLine
 10
69.1254519224165
 20
228.526516914369
 30
0.0
 11
39.1254519224165
 21
228.526516914369
 31
0.0
  0
LINE
  5
19A
330
1F
100
AcDbEntity
  8
VISIBLE
100
AcDbLine
 10
64.1254519224165
 20
238.526516914369
 30
0.0
 11
69.1254519224165
 21
238.526516914369
 31
0.0
  0
LINE
  5
19B
330
1F
100
AcDbEntity
  8
VISIBLE
100
AcDbLine
 10
64.1254519224166
 20
503.526516914369
 30
0.0
 11
64.1254519224165
 21
238.526516914369
 31
0.0
  0
LINE
  5
19C
330
1F
100
AcDbEntity
  8
VISIBLE
100
AcDbLine
 10
39.1254519224165
 20
228.526516914369
 30
0.0
 11
39.1254519224165
 21
238.526516914369
 31
0.0
  0
LINE
  5
19D
330
1F
100
AcDbEntity
  8
VISIBLE
100
AcDbLine
 10
44.1254519224166
 20
238.526516914369
 30
0.0
 11
44.1254519224166
 21
503.526516914369
 31
0.0
  0
LINE
  5
19E
330
1F
100
AcDbEntity
  8
VISIBLE
100
AcDbLine
 10
59.1254519224166
 20
508.526516914369
 30
0.0
 11
64.1254519224166
 21
503.526516914369
 31
0.0
  0
LINE
  5
19F
330
1F
100
AcDbEntity
  8
VISIBLE
100
AcDbLine
 10
69.1254519224165
 20
238.526516914369
 30
0.0
 11
69.1254519224165
 21
228.526516914369
 31
0.0
  0
LINE
  5
1A0
330
1F
100
AcDbEntity
  8
VISIBLE
100
AcDbLine
 10
49.1254519224166
 20
508.526516914369
 30
0.0
 11
59.1254519224166
 21
508.526516914369
 31
0.0
  0
LINE
  5
1A1
330
1F
100
AcDbEntity
  8
VISIBLE
100
AcDbLine
 10
167.234855651856
 20
1186.95690917969
 30
0.0
 11
207.2348556518561
 21
1186.95690917969
 31
0.0
  0
LINE
  5
1A2
330
1F
100
AcDbEntity
  8
VISIBLE
100
AcDbLine
 10
289.734855651856
 20
866.95690917969
 30
0.0
 11
289.734855651856
 21
876.95690917969
 31
0.0
  0
LINE
  5
1A3
330
1F
100
AcDbEntity
  8
VISIBLE
100
AcDbLine
 10
97.23485565185621
 20
856.95690917969
 30
0.0
 11
87.23485565185624
 21
866.95690917969
 31
0.0
  0
LINE
  5
1A4
330
1F
100
AcDbEntity
  8
VISIBLE
100
AcDbLine
 10
227.234855651856
 20
1181.95690917969
 30
0.0
 11
227.234855651856
 21
1186.95690917969
 31
0.0
  0
LINE
  5
1A5
330
1F
100
AcDbEntity
  8
VISIBLE
100
AcDbLine
 10
347.234855651856
 20
1186.95690917969
 30
0.0
 11
347.234855651856
 21
1134.45690917969
 31
0.0
  0
CIRCLE
  5
1A6
330
1F
100
AcDbEntity
  8
VISIBLE
100
AcDbCircle
 10
267.234855651856
 20
1106.95690917969
 30
0.0
 40
2.0
  0
LINE
  5
1A7
330
1F
100
AcDbEntity
  8
VISIBLE
100
AcDbLine
 10
17.23485565185601
 20
996.95690917969
 30
0.0
 11
17.23485565185601
 21
936.95690917969
 31
0.0
  0
LINE
  5
1A8
330
1F
100
AcDbEntity
  8
VISIBLE
100
AcDbLine
 10
87.23485565185621
 20
866.95690917969
 30
0.0
 11
84.73485565185602
 21
866.95690917969
 31
0.0
  0
CIRCLE
  5
1A9
330
1F
100
AcDbEntity
  8
VISIBLE
100
AcDbCircle
 10
147.234855651856
 20
1106.95690917969
 30
0.0
 40
1.999999999999972
  0
LINE
  5
1AA
330
1F
100
AcDbEntity
  8
VISIBLE
100
AcDbLine
 10
32.23485565185601
 20
1106.95690917969
 30
0.0
 11
32.23485565185601
 21
1066.95690917969
 31
0.0
  0
LINE
  5
1AB
330
1F
100
AcDbEntity
  8
VISIBLE
100
AcDbLine
 10
227.234855651856
 20
1186.95690917969
 30
0.0
 11
267.234855651856
 21
1186.95690917969
 31
0.0
  0
LINE
  5
1AC
330
1F
100
AcDbEntity
  8
VISIBLE
100
AcDbLine
 10
79.73485565185601
 20
866.95690917969
 30
0.0
 11
79.73485565185601
 21
876.95690917969
 31
0.0
  0
CIRCLE
  5
1AD
330
1F
100
AcDbEntity
  8
VISIBLE
100
AcDbCircle
 10
267.234855651856
 20
1026.95690917969
 30
0.0
 40
2.0
  0
LINE
  5
1AE
330
1F
100
AcDbEntity
  8
VISIBLE
100
AcDbLine
 10
287.2348556518558
 20
866.95690917969
 30
0.0
 11
277.234855651856
 21
856.95690917969
 31
0.0
  0
LINE
  5
1AF
330
1F
100
AcDbEntity
  8
VISIBLE
100
AcDbLine
 10
84.73485565185601
 20
1186.95690917969
 30
0.0
 11
87.23485565185601
 21
1186.95690917969
 31
0.0
  0
LINE
  5
1B0
330
1F
100
AcDbEntity
  8
VISIBLE
100
AcDbLine
 10
32.23485565185601
 20
1066.95690917969
 30
0.0
 11
27.23485565185601
 21
1066.95690917969
 31
0.0
  0
LINE
  5
1B1
330
1F
100
AcDbEntity
  8
VISIBLE
100
AcDbLine
 10
294.734855651856
 20
1186.95690917969
 30
0.0
 11
347.234855651856
 21
1186.95690917969
 31
0.0
  0
LINE
  5
1B2
330
1F
100
AcDbEntity
  8
VISIBLE
100
AcDbLine
 10
27.23485565185601
 20
866.95690917969
 30
0.0
 11
27.23485565185601
 21
919.45690917969
 31
0.0
  0
LINE
  5
1B3
330
1F
100
AcDbEntity
  8
VISIBLE
100
AcDbLine
 10
27.23485565185601
 20
1106.95690917969
 30
0.0
 11
32.23485565185601
 21
1106.95690917969
 31
0.0
  0
LINE
  5
1B4
330
1F
100
AcDbEntity
  8
VISIBLE
100
AcDbLine
 10
347.234855651856
 20
866.95690917969
 30
0.0
 11
294.734855651856
 21
866.95690917969
 31
0.0
  0
LINE
  5
1B5
330
1F
100
AcDbEntity
  8
VISIBLE
100
AcDbLine
 10
147.234855651856
 20
866.95690917969
 30
0.0
 11
107.234855651856
 21
866.95690917969
 31
0.0
  0
CIRCLE
  5
1B6
330
1F
100
AcDbEntity
  8
VISIBLE
100
AcDbCircle
 10
107.234855651856
 20
1026.95690917969
 30
0.0
 40
2.0
  0
CIRCLE
  5
1B7
330
1F
100
AcDbEntity
  8
VISIBLE
100
AcDbCircle
 10
187.234855651856
 20
1026.95690917969
 30
0.0
 40
2.0
  0
LINE
  5
1B8
330
1F
100
AcDbEntity
  8
VISIBLE
100
AcDbLine
 10
27.23485565185601
 20
926.95690917969
 30
0.0
 11
17.23485565185598
 21
936.95690917969
 31
0.0
  0
CIRCLE
  5
1B9
330
1F
100
AcDbEntity
  8
VISIBLE
100
AcDbCircle
 10
107.234855651856
 20
1106.95690917969
 30
0.0
 40
2.0
  0
LINE
  5
1BA
330
1F
100
AcDbEntity
  8
VISIBLE
100
AcDbLine
 10
147.234855651856
 20
1186.95690917969
 30
0.0
 11
107.234855651856
 21
1186.95690917969
 31
0.0
  0
LINE
  5
1BB
330
1F
100
AcDbEntity
  8
VISIBLE
100
AcDbLine
 10
32.23485565185601
 20
946.95690917969
 30
0.0
 11
27.23485565185601
 21
946.95690917969
 31
0.0
  0
LINE
  5
1BC
330
1F
100
AcDbEntity
  8
VISIBLE
100
AcDbLine
 10
357.234855651856
 20
996.95690917969
 30
0.0
 11
357.234855651856
 21
936.95690917969
 31
0.0
  0
LINE
  5
1BD
330
1F
100
AcDbEntity
  8
VISIBLE
100
AcDbLine
 10
79.73485565185601
 20
1176.95690917969
 30
0.0
 11
79.73485565185601
 21
1186.95690917969
 31
0.0
  0
CIRCLE
  5
1BE
330
1F
100
AcDbEntity
  8
VISIBLE
100
AcDbCircle
 10
187.234855651856
 20
946.95690917969
 30
0.0
 40
2.0
  0
LINE
  5
1BF
330
1F
100
AcDbEntity
  8
VISIBLE
100
AcDbLine
 10
342.234855651856
 20
919.45690917969
 30
0.0
 11
342.234855651856
 21
924.45690917969
 31
0.0
  0
LINE
  5
1C0
330
1F
100
AcDbEntity
  8
VISIBLE
100
AcDbLine
 10
357.234855651856
 20
1056.95690917969
 30
0.0
 11
357.234855651856
 21
1116.95690917969
 31
0.0
  0
CIRCLE
  5
1C1
330
1F
100
AcDbEntity
  8
VISIBLE
100
AcDbCircle
 10
267.234855651856
 20
986.95690917969
 30
0.0
 40
2.0
  0
LINE
  5
1C2
330
1F
100
AcDbEntity
  8
VISIBLE
100
AcDbLine
 10
342.234855651856
 20
1134.45690917969
 30
0.0
 11
347.234855651856
 21
1134.45690917969
 31
0.0
  0
LINE
  5
1C3
330
1F
100
AcDbEntity
  8
VISIBLE
100
AcDbLine
 10
289.734855651856
 20
876.95690917969
 30
0.0
 11
294.734855651856
 21
876.95690917969
 31
0.0
  0
CIRCLE
  5
1C4
330
1F
100
AcDbEntity
  8
VISIBLE
100
AcDbCircle
 10
187.234855651856
 20
1066.95690917969
 30
0.0
 40
2.0
  0
LINE
  5
1C5
330
1F
100
AcDbEntity
  8
VISIBLE
100
AcDbLine
 10
294.734855651856
 20
1186.95690917969
 30
0.0
 11
294.734855651856
 21
1176.95690917969
 31
0.0
  0
LINE
  5
1C6
330
1F
100
AcDbEntity
  8
VISIBLE
100
AcDbLine
 10
27.23485565185601
 20
1134.45690917969
 30
0.0
 11
32.23485565185601
 21
1134.45690917969
 31
0.0
  0
LINE
  5
1C7
330
1F
100
AcDbEntity
  8
VISIBLE
100
AcDbLine
 10
227.234855651856
 20
871.95690917969
 30
0.0
 11
267.234855651856
 21
871.95690917969
 31
0.0
  0
LINE
  5
1C8
330
1F
100
AcDbEntity
  8
VISIBLE
100
AcDbLine
 10
27.23485565185601
 20
1006.95690917969
 30
0.0
 11
27.23485565185601
 21
1046.95690917969
 31
0.0
  0
LINE
  5
1C9
330
1F
100
AcDbEntity
  8
VISIBLE
100
AcDbLine
 10
27.23485565185601
 20
924.45690917969
 30
0.0
 11
27.23485565185601
 21
926.95690917969
 31
0.0
  0
LINE
  5
1CA
330
1F
100
AcDbEntity
  8
VISIBLE
100
AcDbLine
 10
267.234855651856
 20
1181.95690917969
 30
0.0
 11
227.234855651856
 21
1181.95690917969
 31
0.0
  0
LINE
  5
1CB
330
1F
100
AcDbEntity
  8
VISIBLE
100
AcDbLine
 10
277.234855651856
 20
856.95690917969
 30
0.0
 11
217.234855651856
 21
856.95690917969
 31
0.0
  0
LINE
  5
1CC
330
1F
100
AcDbEntity
  8
VISIBLE
100
AcDbLine
 10
289.734855651856
 20
1176.95690917969
 30
0.0
 11
289.734855651856
 21
1186.95690917969
 31
0.0
  0
CIRCLE
  5
1CD
330
1F
100
AcDbEntity
  8
VISIBLE
100
AcDbCircle
 10
107.234855651856
 20
946.95690917969
 30
0.0
 40
2.0
  0
LINE
  5
1CE
330
1F
100
AcDbEntity
  8
VISIBLE
100
AcDbLine
 10
32.23485565185601
 20
1134.45690917969
 30
0.0
 11
32.23485565185601
 21
1129.45690917969
 31
0.0
  0
CIRCLE
  5
1CF
330
1F
100
AcDbEntity
  8
VISIBLE
100
AcDbCircle
 10
227.234855651856
 20
1066.95690917969
 30
0.0
 40
2.0
  0
LINE
  5
1D0
330
1F
100
AcDbEntity
  8
VISIBLE
100
AcDbLine
 10
167.234855651856
 20
866.95690917969
 30
0.0
 11
157.234855651856
 21
856.95690917969
 31
0.0
  0
CIRCLE
  5
1D1
330
1F
100
AcDbEntity
  8
VISIBLE
100
AcDbCircle
 10
267.234855651856
 20
1066.95690917969
 30
0.0
 40
2.0
  0
LINE
  5
1D2
330
1F
100
AcDbEntity
  8
VISIBLE
100
AcDbLine
 10
84.73485565185601
 20
1186.95690917969
 30
0.0
 11
84.73485565185601
 21
1176.95690917969
 31
0.0
  0
CIRCLE
  5
1D3
330
1F
100
AcDbEntity
  8
VISIBLE
100
AcDbCircle
 10
187.234855651856
 20
986.95690917969
 30
0.0
 40
2.0
  0
LINE
  5
1D4
330
1F
100
AcDbEntity
  8
VISIBLE
100
AcDbLine
 10
347.234855651856
 20
926.95690917969
 30
0.0
 11
347.234855651856
 21
924.45690917969
 31
0.0
  0
LINE
  5
1D5
330
1F
100
AcDbEntity
  8
VISIBLE
100
AcDbLine
 10
267.234855651856
 20
871.95690917969
 30
0.0
 11
267.234855651856
 21
866.95690917969
 31
0.0
  0
LINE
  5
1D6
330
1F
100
AcDbEntity
  8
VISIBLE
100
AcDbLine
 10
27.23485565185601
 20
1126.95690917969
 30
0.0
 11
27.23485565185601
 21
1129.45690917969
 31
0.0
  0
CIRCLE
  5
1D7
330
1F
100
AcDbEntity
  8
VISIBLE
100
AcDbCircle
 10
227.234855651856
 20
946.95690917969
 30
0.0
 40
2.0
  0
LINE
  5
1D8
330
1F
100
AcDbEntity
  8
VISIBLE
100
AcDbLine
 10
357.234855651856
 20
936.95690917969
 30
0.0
 11
347.234855651856
 21
926.95690917969
 31
0.0
  0
LINE
  5
1D9
330
1F
100
AcDbEntity
  8
VISIBLE
100
AcDbLine
 10
147.234855651856
 20
871.95690917969
 30
0.0
 11
147.234855651856
 21
866.95690917969
 31
0.0
  0
CIRCLE
  5
1DA
330
1F
100
AcDbEntity
  8
VISIBLE
100
AcDbCircle
 10
107.234855651856
 20
1066.95690917969
 30
0.0
 40
2.0
  0
LINE
  5
1DB
330
1F
100
AcDbEntity
  8
VISIBLE
100
AcDbLine
 10
347.234855651856
 20
946.95690917969
 30
0.0
 11
342.234855651856
 21
946.95690917969
 31
0.0
  0
LINE
  5
1DC
330
1F
100
AcDbEntity
  8
VISIBLE
100
AcDbLine
 10
342.234855651856
 20
1066.95690917969
 30
0.0
 11
342.234855651856
 21
1106.95690917969
 31
0.0
  0
LINE
  5
1DD
330
1F
100
AcDbEntity
  8
VISIBLE
100
AcDbLine
 10
84.73485565185601
 20
876.95690917969
 30
0.0
 11
84.73485565185601
 21
866.95690917969
 31
0.0
  0
LINE
  5
1DE
330
1F
100
AcDbEntity
  8
VISIBLE
100
AcDbLine
 10
79.73485565185601
 20
866.95690917969
 30
0.0
 11
27.23485565185601
 21
866.95690917969
 31
0.0
  0
LINE
  5
1DF
330
1F
100
AcDbEntity
  8
VISIBLE
100
AcDbLine
 10
97.23485565185601
 20
1196.95690917969
 30
0.0
 11
157.234855651856
 21
1196.95690917969
 31
0.0
  0
LINE
  5
1E0
330
1F
100
AcDbEntity
  8
VISIBLE
100
AcDbLine
 10
347.234855651856
 20
1006.95690917969
 30
0.0
 11
357.234855651856
 21
996.95690917969
 31
0.0
  0
LINE
  5
1E1
330
1F
100
AcDbEntity
  8
VISIBLE
100
AcDbLine
 10
207.234855651856
 20
1186.95690917969
 30
0.0
 11
217.234855651856
 21
1196.95690917969
 31
0.0
  0
LINE
  5
1E2
330
1F
100
AcDbEntity
  8
VISIBLE
100
AcDbLine
 10
32.23485565185601
 20
986.9569091796899
 30
0.0
 11
32.23485565185601
 21
946.95690917969
 31
0.0
  0
LINE
  5
1E3
330
1F
100
AcDbEntity
  8
VISIBLE
100
AcDbLine
 10
289.734855651856
 20
866.95690917969
 30
0.0
 11
287.2348556518558
 21
866.95690917969
 31
0.0
  0
LINE
  5
1E4
330
1F
100
AcDbEntity
  8
VISIBLE
100
AcDbLine
 10
27.23485565185601
 20
1186.95690917969
 30
0.0
 11
79.73485565185601
 21
1186.95690917969
 31
0.0
  0
LINE
  5
1E5
330
1F
100
AcDbEntity
  8
VISIBLE
100
AcDbLine
 10
27.23485565185601
 20
1046.95690917969
 30
0.0
 11
17.23485565185598
 21
1056.95690917969
 31
0.0
  0
LINE
  5
1E6
330
1F
100
AcDbEntity
  8
VISIBLE
100
AcDbLine
 10
27.23485565185601
 20
986.95690917969
 30
0.0
 11
32.23485565185601
 21
986.95690917969
 31
0.0
  0
LINE
  5
1E7
330
1F
100
AcDbEntity
  8
VISIBLE
100
AcDbLine
 10
147.234855651856
 20
1181.95690917969
 30
0.0
 11
107.234855651856
 21
1181.95690917969
 31
0.0
  0
LINE
  5
1E8
330
1F
100
AcDbEntity
  8
VISIBLE
100
AcDbLine
 10
342.234855651856
 20
924.45690917969
 30
0.0
 11
347.234855651856
 21
924.45690917969
 31
0.0
  0
CIRCLE
  5
1E9
330
1F
100
AcDbEntity
  8
VISIBLE
100
AcDbCircle
 10
147.234855651856
 20
986.95690917969
 30
0.0
 40
1.999999999999972
  0
LINE
  5
1EA
330
1F
100
AcDbEntity
  8
VISIBLE
100
AcDbLine
 10
347.234855651856
 20
1106.95690917969
 30
0.0
 11
347.234855651856
 21
1066.95690917969
 31
0.0
  0
LINE
  5
1EB
330
1F
100
AcDbEntity
  8
VISIBLE
100
AcDbLine
 10
32.23485565185601
 20
1129.45690917969
 30
0.0
 11
27.23485565185601
 21
1129.45690917969
 31
0.0
  0
LINE
  5
1EC
330
1F
100
AcDbEntity
  8
VISIBLE
100
AcDbLine
 10
207.234855651856
 20
866.95690917969
 30
0.0
 11
167.2348556518559
 21
866.95690917969
 31
0.0
  0
LINE
  5
1ED
330
1F
100
AcDbEntity
  8
VISIBLE
100
AcDbLine
 10
347.234855651856
 20
919.45690917969
 30
0.0
 11
347.234855651856
 21
866.95690917969
 31
0.0
  0
LINE
  5
1EE
330
1F
100
AcDbEntity
  8
VISIBLE
100
AcDbLine
 10
32.23485565185601
 20
924.45690917969
 30
0.0
 11
32.23485565185601
 21
919.45690917969
 31
0.0
  0
LINE
  5
1EF
330
1F
100
AcDbEntity
  8
VISIBLE
100
AcDbLine
 10
227.234855651856
 20
866.95690917969
 30
0.0
 11
227.234855651856
 21
871.95690917969
 31
0.0
  0
LINE
  5
1F0
330
1F
100
AcDbEntity
  8
VISIBLE
100
AcDbLine
 10
347.234855651856
 20
946.95690917969
 30
0.0
 11
347.234855651856
 21
986.95690917969
 31
0.0
  0
CIRCLE
  5
1F1
330
1F
100
AcDbEntity
  8
VISIBLE
100
AcDbCircle
 10
227.234855651856
 20
986.95690917969
 30
0.0
 40
2.0
  0
LINE
  5
1F2
330
1F
100
AcDbEntity
  8
VISIBLE
100
AcDbLine
 10
294.734855651856
 20
1176.95690917969
 30
0.0
 11
289.734855651856
 21
1176.95690917969
 31
0.0
  0
LINE
  5
1F3
330
1F
100
AcDbEntity
  8
VISIBLE
100
AcDbLine
 10
294.734855651856
 20
876.95690917969
 30
0.0
 11
294.734855651856
 21
866.95690917969
 31
0.0
  0
LINE
  5
1F4
330
1F
100
AcDbEntity
  8
VISIBLE
100
AcDbLine
 10
27.23485565185601
 20
1106.95690917969
 30
0.0
 11
27.23485565185601
 21
1066.95690917969
 31
0.0
  0
CIRCLE
  5
1F5
330
1F
100
AcDbEntity
  8
VISIBLE
100
AcDbCircle
 10
147.234855651856
 20
946.95690917969
 30
0.0
 40
1.999999999999972
  0
LINE
  5
1F6
330
1F
100
AcDbEntity
  8
VISIBLE
100
AcDbLine
 10
157.234855651856
 20
1196.95690917969
 30
0.0
 11
167.234855651856
 21
1186.95690917969
 31
0.0
  0
LINE
  5
1F7
330
1F
100
AcDbEntity
  8
VISIBLE
100
AcDbLine
 10
217.234855651856
 20
856.95690917969
 30
0.0
 11
207.234855651856
 21
866.95690917969
 31
0.0
  0
LINE
  5
1F8
330
1F
100
AcDbEntity
  8
VISIBLE
100
AcDbLine
 10
342.234855651856
 20
986.9569091796899
 30
0.0
 11
347.234855651856
 21
986.9569091796899
 31
0.0
  0
LINE
  5
1F9
330
1F
100
AcDbEntity
  8
VISIBLE
100
AcDbLine
 10
107.234855651856
 20
871.95690917969
 30
0.0
 11
147.234855651856
 21
871.95690917969
 31
0.0
  0
LINE
  5
1FA
330
1F
100
AcDbEntity
  8
VISIBLE
100
AcDbLine
 10
97.23485565185621
 20
856.95690917969
 30
0.0
 11
157.234855651856
 21
856.95690917969
 31
0.0
  0
LINE
  5
1FB
330
1F
100
AcDbEntity
  8
VISIBLE
100
AcDbLine
 10
87.23485565185601
 20
1186.95690917969
 30
0.0
 11
97.23485565185604
 21
1196.95690917969
 31
0.0
  0
CIRCLE
  5
1FC
330
1F
100
AcDbEntity
  8
VISIBLE
100
AcDbCircle
 10
227.234855651856
 20
1026.95690917969
 30
0.0
 40
2.0
  0
LINE
  5
1FD
330
1F
100
AcDbEntity
  8
VISIBLE
100
AcDbLine
 10
347.234855651856
 20
1046.95690917969
 30
0.0
 11
347.234855651856
 21
1006.95690917969
 31
0.0
  0
LINE
  5
1FE
330
1F
100
AcDbEntity
  8
VISIBLE
100
AcDbLine
 10
107.234855651856
 20
1181.95690917969
 30
0.0
 11
107.234855651856
 21
1186.95690917969
 31
0.0
  0
LINE
  5
1FF
330
1F
100
AcDbEntity
  8
VISIBLE
100
AcDbLine
 10
17.23485565185601
 20
996.95690917969
 30
0.0
 11
27.23485565185604
 21
1006.95690917969
 31
0.0
  0
LINE
  5
200
330
1F
100
AcDbEntity
  8
VISIBLE
100
AcDbLine
 10
84.73485565185601
 20
1176.95690917969
 30
0.0
 11
79.73485565185601
 21
1176.95690917969
 31
0.0
  0
CIRCLE
  5
201
330
1F
100
AcDbEntity
  8
VISIBLE
100
AcDbCircle
 10
107.234855651856
 20
986.95690917969
 30
0.0
 40
2.0
  0
LINE
  5
202
330
1F
100
AcDbEntity
  8
VISIBLE
100
AcDbLine
 10
27.23485565185601
 20
1134.45690917969
 30
0.0
 11
27.23485565185601
 21
1186.95690917969
 31
0.0
  0
LINE
  5
203
330
1F
100
AcDbEntity
  8
VISIBLE
100
AcDbLine
 10
357.234855651856
 20
1056.95690917969
 30
0.0
 11
347.234855651856
 21
1046.95690917969
 31
0.0
  0
CIRCLE
  5
204
330
1F
100
AcDbEntity
  8
VISIBLE
100
AcDbCircle
 10
227.234855651856
 20
1106.95690917969
 30
0.0
 40
2.0
  0
LINE
  5
205
330
1F
100
AcDbEntity
  8
VISIBLE
100
AcDbLine
 10
79.73485565185601
 20
876.95690917969
 30
0.0
 11
84.73485565185601
 21
876.95690917969
 31
0.0
  0
LINE
  5
206
330
1F
100
AcDbEntity
  8
VISIBLE
100
AcDbLine
 10
27.23485565185601
 20
924.45690917969
 30
0.0
 11
32.23485565185601
 21
924.45690917969
 31
0.0
  0
LINE
  5
207
330
1F
100
AcDbEntity
  8
VISIBLE
100
AcDbLine
 10
32.23485565185601
 20
919.45690917969
 30
0.0
 11
27.23485565185601
 21
919.45690917969
 31
0.0
  0
LINE
  5
208
330
1F
100
AcDbEntity
  8
VISIBLE
100
AcDbLine
 10
347.234855651856
 20
1129.45690917969
 30
0.0
 11
347.234855651856
 21
1126.95690917969
 31
0.0
  0
LINE
  5
209
330
1F
100
AcDbEntity
  8
VISIBLE
100
AcDbLine
 10
27.23485565185601
 20
946.95690917969
 30
0.0
 11
27.23485565185601
 21
986.95690917969
 31
0.0
  0
CIRCLE
  5
20A
330
1F
100
AcDbEntity
  8
VISIBLE
100
AcDbCircle
 10
147.234855651856
 20
1026.95690917969
 30
0.0
 40
1.999999999999972
  0
LINE
  5
20B
330
1F
100
AcDbEntity
  8
VISIBLE
100
AcDbLine
 10
267.234855651856
 20
1186.95690917969
 30
0.0
 11
267.234855651856
 21
1181.95690917969
 31
0.0
  0
LINE
  5
20C
330
1F
100
AcDbEntity
  8
VISIBLE
100
AcDbLine
 10
342.234855651856
 20
946.95690917969
 30
0.0
 11
342.234855651856
 21
986.9569091796899
 31
0.0
  0
CIRCLE
  5
20D
330
1F
100
AcDbEntity
  8
VISIBLE
100
AcDbCircle
 10
147.234855651856
 20
1066.95690917969
 30
0.0
 40
1.999999999999972
  0
LINE
  5
20E
330
1F
100
AcDbEntity
  8
VISIBLE
100
AcDbLine
 10
342.234855651856
 20
1129.45690917969
 30
0.0
 11
342.234855651856
 21
1134.45690917969
 31
0.0
  0
LINE
  5
20F
330
1F
100
AcDbEntity
  8
VISIBLE
100
AcDbLine
 10
347.234855651856
 20
1129.45690917969
 30
0.0
 11
342.234855651856
 21
1129.45690917969
 31
0.0
  0
LINE
  5
210
330
1F
100
AcDbEntity
  8
VISIBLE
100
AcDbLine
 10
147.234855651856
 20
1186.95690917969
 30
0.0
 11
147.234855651856
 21
1181.95690917969
 31
0.0
  0
CIRCLE
  5
211
330
1F
100
AcDbEntity
  8
VISIBLE
100
AcDbCircle
 10
187.234855651856
 20
1106.95690917969
 30
0.0
 40
2.0
  0
LINE
  5
212
330
1F
100
AcDbEntity
  8
VISIBLE
100
AcDbLine
 10
107.234855651856
 20
866.95690917969
 30
0.0
 11
107.234855651856
 21
871.95690917969
 31
0.0
  0
LINE
  5
213
330
1F
100
AcDbEntity
  8
VISIBLE
100
AcDbLine
 10
277.234855651856
 20
1196.95690917969
 30
0.0
 11
287.2348556518558
 21
1186.95690917969
 31
0.0
  0
LINE
  5
214
330
1F
100
AcDbEntity
  8
VISIBLE
100
AcDbLine
 10
17.23485565185601
 20
1056.95690917969
 30
0.0
 11
17.23485565185601
 21
1116.95690917969
 31
0.0
  0
LINE
  5
215
330
1F
100
AcDbEntity
  8
VISIBLE
100
AcDbLine
 10
347.234855651856
 20
919.45690917969
 30
0.0
 11
342.234855651856
 21
919.45690917969
 31
0.0
  0
LINE
  5
216
330
1F
100
AcDbEntity
  8
VISIBLE
100
AcDbLine
 10
287.2348556518558
 20
1186.95690917969
 30
0.0
 11
289.734855651856
 21
1186.95690917969
 31
0.0
  0
LINE
  5
217
330
1F
100
AcDbEntity
  8
VISIBLE
100
AcDbLine
 10
17.23485565185601
 20
1116.95690917969
 30
0.0
 11
27.23485565185604
 21
1126.95690917969
 31
0.0
  0
LINE
  5
218
330
1F
100
AcDbEntity
  8
VISIBLE
100
AcDbLine
 10
227.234855651856
 20
866.95690917969
 30
0.0
 11
267.234855651856
 21
866.95690917969
 31
0.0
  0
LINE
  5
219
330
1F
100
AcDbEntity
  8
VISIBLE
100
AcDbLine
 10
347.234855651856
 20
1066.95690917969
 30
0.0
 11
342.234855651856
 21
1066.95690917969
 31
0.0
  0
LINE
  5
21A
330
1F
100
AcDbEntity
  8
VISIBLE
100
AcDbLine
 10
347.234855651856
 20
1126.95690917969
 30
0.0
 11
357.234855651856
 21
1116.95690917969
 31
0.0
  0
LINE
  5
21B
330
1F
100
AcDbEntity
  8
VISIBLE
100
AcDbLine
 10
342.234855651856
 20
1106.95690917969
 30
0.0
 11
347.234855651856
 21
1106.95690917969
 31
0.0
  0
LINE
  5
21C
330
1F
100
AcDbEntity
  8
VISIBLE
100
AcDbLine
 10
277.234855651856
 20
1196.95690917969
 30
0.0
 11
217.234855651856
 21
1196.95690917969
 31
0.0
  0
CIRCLE
  5
21D
330
1F
100
AcDbEntity
  8
VISIBLE
100
AcDbCircle
 10
267.234855651856
 20
946.95690917969
 30
0.0
 40
2.0
  0
LINE
  5
21E
330
1F
100
AcDbEntity
  8
VISIBLE
100
AcDbLine
 10
337.071838378907
 20
762.033996582031
 30
0.0
 11
352.071838378907
 21
762.033996582031
 31
0.0
  0
LINE
  5
21F
330
1F
100
AcDbEntity
  8
VISIBLE
100
AcDbLine
 10
251.9562101364143
 20
847.033996582031
 30
0.0
 11
251.9562101364143
 21
842.033996582031
 31
0.0
  0
CIRCLE
  5
220
330
1F
100
AcDbEntity
  8
VISIBLE
100
AcDbCircle
 10
142.071838378907
 20
762.033996582031
 30
0.0
 40
2.0
  0
LINE
  5
221
330
1F
100
AcDbEntity
  8
VISIBLE
100
AcDbLine
 10
179.571838378907
 20
702.033996582031
 30
0.0
 11
184.571838378907
 21
702.033996582031
 31
0.0
  0
LINE
  5
222
330
1F
100
AcDbEntity
  8
VISIBLE
100
AcDbLine
 10
307.071838378907
 20
574.533996582031
 30
0.0
 11
289.571838378907
 21
574.533996582031
 31
0.0
  0
LINE
  5
223
330
1F
100
AcDbEntity
  8
VISIBLE
100
AcDbLine
 10
342.071838378907
 20
612.033996582031
 30
0.0
 11
342.071838378907
 21
632.033996582031
 31
0.0
  0
LINE
  5
224
330
1F
100
AcDbEntity
  8
VISIBLE
100
AcDbLine
 10
284.571838378907
 20
574.533996582031
 30
0.0
 11
267.071838378907
 21
574.533996582031
 31
0.0
  0
LINE
  5
225
330
1F
100
AcDbEntity
  8
VISIBLE
100
AcDbLine
 10
27.07183837890699
 20
527.033996582031
 30
0.0
 11
27.07183837890699
 21
602.033996582031
 31
0.0
  0
LINE
  5
226
330
1F
100
AcDbEntity
  8
VISIBLE
100
AcDbLine
 10
142.071838378907
 20
837.033996582031
 30
0.0
 11
222.071838378907
 21
837.033996582031
 31
0.0
  0
LINE
  5
227
330
1F
100
AcDbEntity
  8
VISIBLE
100
AcDbLine
 10
342.071838378907
 20
732.033996582031
 30
0.0
 11
342.071838378907
 21
752.033996582031
 31
0.0
  0
LINE
  5
228
330
1F
100
AcDbEntity
  8
VISIBLE
100
AcDbLine
 10
352.071838378907
 20
722.033996582031
 30
0.0
 11
337.071838378907
 21
722.033996582031
 31
0.0
  0
CIRCLE
  5
229
330
1F
100
AcDbEntity
  8
VISIBLE
100
AcDbCircle
 10
142.071838378907
 20
602.033996582031
 30
0.0
 40
2.0
  0
CIRCLE
  5
22A
330
1F
100
AcDbEntity
  8
VISIBLE
100
AcDbCircle
 10
142.071838378907
 20
722.033996582031
 30
0.0
 40
2.0
  0
CIRCLE
  5
22B
330
1F
100
AcDbEntity
  8
VISIBLE
100
AcDbCircle
 10
182.071838378907
 20
642.033996582031
 30
0.0
 40
2.0
  0
LINE
  5
22C
330
1F
100
AcDbEntity
  8
VISIBLE
100
AcDbLine
 10
347.071838378907
 20
732.033996582031
 30
0.0
 11
342.071838378907
 21
732.033996582031
 31
0.0
  0
CIRCLE
  5
22D
330
1F
100
AcDbEntity
  8
VISIBLE
100
AcDbCircle
 10
182.071838378907
 20
602.033996582031
 30
0.0
 40
2.0
  0
LINE
  5
22E
330
1F
100
AcDbEntity
  8
VISIBLE
100
AcDbLine
 10
79.57183837890699
 20
807.033996582031
 30
0.0
 11
79.57183837890699
 21
789.533996582031
 31
0.0
  0
LINE
  5
22F
330
1F
100
AcDbEntity
  8
VISIBLE
100
AcDbLine
 10
184.571838378907
 20
702.033996582031
 30
0.0
 11
184.571838378907
 21
684.533996582031
 31
0.0
  0
LINE
  5
230
330
1F
100
AcDbEntity
  8
VISIBLE
100
AcDbLine
 10
112.1874666213997
 20
847.033996582031
 30
0.0
 11
132.1874666213997
 21
847.033996582031
 31
0.0
  0
LINE
  5
231
330
1F
100
AcDbEntity
  8
VISIBLE
100
AcDbLine
 10
342.071838378907
 20
752.033996582031
 30
0.0
 11
347.071838378907
 21
752.033996582031
 31
0.0
  0
LINE
  5
232
330
1F
100
AcDbEntity
  8
VISIBLE
100
AcDbLine
 10
289.571838378907
 20
767.033996582031
 30
0.0
 11
284.571838378907
 21
767.033996582031
 31
0.0
  0
CIRCLE
  5
233
330
1F
100
AcDbEntity
  8
VISIBLE
100
AcDbCircle
 10
222.071838378907
 20
722.033996582031
 30
0.0
 40
2.0
  0
LINE
  5
234
330
1F
100
AcDbEntity
  8
VISIBLE
100
AcDbLine
 10
179.571838378907
 20
684.533996582031
 30
0.0
 11
179.571838378907
 21
702.033996582031
 31
0.0
  0
LINE
  5
235
330
1F
100
AcDbEntity
  8
VISIBLE
100
AcDbLine
 10
57.07183837890699
 20
574.533996582031
 30
0.0
 11
57.07183837890699
 21
579.533996582031
 31
0.0
  0
LINE
  5
236
330
1F
100
AcDbEntity
  8
VISIBLE
100
AcDbLine
 10
97.07183837890699
 20
784.533996582031
 30
0.0
 11
79.57183837890699
 21
784.533996582031
 31
0.0
  0
LINE
  5
237
330
1F
100
AcDbEntity
  8
VISIBLE
100
AcDbLine
 10
79.57183837890699
 20
597.033996582031
 30
0.0
 11
79.57183837890699
 21
579.533996582031
 31
0.0
  0
LINE
  5
238
330
1F
100
AcDbEntity
  8
VISIBLE
100
AcDbLine
 10
289.571838378907
 20
837.033996582031
 30
0.0
 11
337.071838378907
 21
837.033996582031
 31
0.0
  0
LINE
  5
239
330
1F
100
AcDbEntity
  8
VISIBLE
100
AcDbLine
 10
337.071838378907
 20
642.033996582031
 30
0.0
 11
352.071838378907
 21
642.033996582031
 31
0.0
  0
LINE
  5
23A
330
1F
100
AcDbEntity
  8
VISIBLE
100
AcDbLine
 10
289.571838378907
 20
789.533996582031
 30
0.0
 11
307.071838378907
 21
789.533996582031
 31
0.0
  0
LINE
  5
23B
330
1F
100
AcDbEntity
  8
VISIBLE
100
AcDbLine
 10
284.571838378907
 20
579.533996582031
 30
0.0
 11
284.571838378907
 21
597.033996582031
 31
0.0
  0
LINE
  5
23C
330
1F
100
AcDbEntity
  8
VISIBLE
100
AcDbLine
 10
57.07183837890699
 20
579.533996582031
 30
0.0
 11
74.57183837890699
 21
579.533996582031
 31
0.0
  0
LINE
  5
23D
330
1F
100
AcDbEntity
  8
VISIBLE
100
AcDbLine
 10
184.571838378907
 20
662.033996582031
 30
0.0
 11
179.571838378907
 21
662.033996582031
 31
0.0
  0
LINE
  5
23E
330
1F
100
AcDbEntity
  8
VISIBLE
100
AcDbLine
 10
184.571838378907
 20
679.533996582031
 30
0.0
 11
184.571838378907
 21
662.033996582031
 31
0.0
  0
LINE
  5
23F
330
1F
100
AcDbEntity
  8
VISIBLE
100
AcDbLine
 10
27.07183837890699
 20
722.033996582031
 30
0.0
 11
12.07183837890699
 21
722.033996582031
 31
0.0
  0
LINE
  5
240
330
1F
100
AcDbEntity
  8
VISIBLE
100
AcDbLine
 10
347.071838378907
 20
632.033996582031
 30
0.0
 11
347.071838378907
 21
612.033996582031
 31
0.0
  0
LINE
  5
241
330
1F
100
AcDbEntity
  8
VISIBLE
100
AcDbLine
 10
337.071838378907
 20
527.033996582031
 30
0.0
 11
27.07183837890699
 21
527.033996582031
 31
0.0
  0
LINE
  5
242
330
1F
100
AcDbEntity
  8
VISIBLE
100
AcDbLine
 10
57.07183837890699
 20
789.533996582031
 30
0.0
 11
74.57183837890699
 21
789.533996582031
 31
0.0
  0
CIRCLE
  5
243
330
1F
100
AcDbEntity
  8
VISIBLE
100
AcDbCircle
 10
142.071838378907
 20
642.033996582031
 30
0.0
 40
2.0
  0
LINE
  5
244
330
1F
100
AcDbEntity
  8
VISIBLE
100
AcDbLine
 10
284.571838378907
 20
784.533996582031
 30
0.0
 11
267.071838378907
 21
784.533996582031
 31
0.0
  0
LINE
  5
245
330
1F
100
AcDbEntity
  8
VISIBLE
100
AcDbLine
 10
179.571838378907
 20
679.533996582031
 30
0.0
 11
162.071838378907
 21
679.533996582031
 31
0.0
  0
LINE
  5
246
330
1F
100
AcDbEntity
  8
VISIBLE
100
AcDbLine
 10
267.071838378907
 20
784.533996582031
 30
0.0
 11
267.071838378907
 21
789.533996582031
 31
0.0
  0
LINE
  5
247
330
1F
100
AcDbEntity
  8
VISIBLE
100
AcDbLine
 10
267.071838378907
 20
579.533996582031
 30
0.0
 11
284.571838378907
 21
579.533996582031
 31
0.0
  0
LINE
  5
248
330
1F
100
AcDbEntity
  8
VISIBLE
100
AcDbLine
 10
102.071838378907
 20
837.033996582031
 30
0.0
 11
102.071838378907
 21
852.033996582031
 31
0.0
  0
LINE
  5
249
330
1F
100
AcDbEntity
  8
VISIBLE
100
AcDbLine
 10
352.071838378907
 20
602.033996582031
 30
0.0
 11
337.071838378907
 21
602.033996582031
 31
0.0
  0
LINE
  5
24A
330
1F
100
AcDbEntity
  8
VISIBLE
100
AcDbLine
 10
17.07183837890699
 20
752.033996582031
 30
0.0
 11
22.07183837890699
 21
752.033996582031
 31
0.0
  0
LINE
  5
24B
330
1F
100
AcDbEntity
  8
VISIBLE
100
AcDbLine
 10
27.07183837890699
 20
602.033996582031
 30
0.0
 11
12.07183837890699
 21
602.033996582031
 31
0.0
  0
LINE
  5
24C
330
1F
100
AcDbEntity
  8
VISIBLE
100
AcDbLine
 10
284.571838378907
 20
789.533996582031
 30
0.0
 11
284.571838378907
 21
807.033996582031
 31
0.0
  0
LINE
  5
24D
330
1F
100
AcDbEntity
  8
VISIBLE
100
AcDbLine
 10
162.071838378907
 20
684.533996582031
 30
0.0
 11
179.571838378907
 21
684.533996582031
 31
0.0
  0
LINE
  5
24E
330
1F
100
AcDbEntity
  8
VISIBLE
100
AcDbLine
 10
284.571838378907
 20
597.033996582031
 30
0.0
 11
289.571838378907
 21
597.033996582031
 31
0.0
  0
LINE
  5
24F
330
1F
100
AcDbEntity
  8
VISIBLE
100
AcDbLine
 10
17.07183837890699
 20
732.033996582031
 30
0.0
 11
17.07183837890699
 21
752.033996582031
 31
0.0
  0
LINE
  5
250
330
1F
100
AcDbEntity
  8
VISIBLE
100
AcDbLine
 10
352.071838378907
 20
762.033996582031
 30
0.0
 11
352.071838378907
 21
722.033996582031
 31
0.0
  0
LINE
  5
251
330
1F
100
AcDbEntity
  8
VISIBLE
100
AcDbLine
 10
289.571838378907
 20
807.033996582031
 30
0.0
 11
289.571838378907
 21
789.533996582031
 31
0.0
  0
LINE
  5
252
330
1F
100
AcDbEntity
  8
VISIBLE
100
AcDbLine
 10
57.07183837890699
 20
784.533996582031
 30
0.0
 11
57.07183837890699
 21
789.533996582031
 31
0.0
  0
CIRCLE
  5
253
330
1F
100
AcDbEntity
  8
VISIBLE
100
AcDbCircle
 10
262.071838378907
 20
722.033996582031
 30
0.0
 40
2.0
  0
CIRCLE
  5
254
330
1F
100
AcDbEntity
  8
VISIBLE
100
AcDbCircle
 10
142.071838378907
 20
682.033996582031
 30
0.0
 40
2.0
  0
LINE
  5
255
330
1F
100
AcDbEntity
  8
VISIBLE
100
AcDbLine
 10
112.1874666213997
 20
842.033996582031
 30
0.0
 11
112.1874666213997
 21
847.033996582031
 31
0.0
  0
LINE
  5
256
330
1F
100
AcDbEntity
  8
VISIBLE
100
AcDbLine
 10
27.07183837890699
 20
642.033996582031
 30
0.0
 11
27.07183837890699
 21
722.033996582031
 31
0.0
  0
LINE
  5
257
330
1F
100
AcDbEntity
  8
VISIBLE
100
AcDbLine
 10
79.57183837890699
 20
574.533996582031
 30
0.0
 11
79.57183837890699
 21
557.033996582031
 31
0.0
  0
LINE
  5
258
330
1F
100
AcDbEntity
  8
VISIBLE
100
AcDbLine
 10
74.57183837890699
 20
832.033996582031
 30
0.0
 11
74.57183837890699
 21
837.033996582031
 31
0.0
  0
LINE
  5
259
330
1F
100
AcDbEntity
  8
VISIBLE
100
AcDbLine
 10
79.57183837890699
 20
789.533996582031
 30
0.0
 11
97.07183837890699
 21
789.533996582031
 31
0.0
  0
LINE
  5
25A
330
1F
100
AcDbEntity
  8
VISIBLE
100
AcDbLine
 10
231.9562101364143
 20
847.033996582031
 30
0.0
 11
251.9562101364143
 21
847.033996582031
 31
0.0
  0
LINE
  5
25B
330
1F
100
AcDbEntity
  8
VISIBLE
100
AcDbLine
 10
74.57183837890699
 20
789.533996582031
 30
0.0
 11
74.57183837890699
 21
807.033996582031
 31
0.0
  0
LINE
  5
25C
330
1F
100
AcDbEntity
  8
VISIBLE
100
AcDbLine
 10
184.571838378907
 20
684.533996582031
 30
0.0
 11
202.071838378907
 21
684.533996582031
 31
0.0
  0
LINE
  5
25D
330
1F
100
AcDbEntity
  8
VISIBLE
100
AcDbLine
 10
132.1874666213997
 20
847.033996582031
 30
0.0
 11
132.1874666213997
 21
842.033996582031
 31
0.0
  0
LINE
  5
25E
330
1F
100
AcDbEntity
  8
VISIBLE
100
AcDbLine
 10
337.071838378907
 20
602.033996582031
 30
0.0
 11
337.071838378907
 21
527.033996582031
 31
0.0
  0
LINE
  5
25F
330
1F
100
AcDbEntity
  8
VISIBLE
100
AcDbLine
 10
22.07183837890699
 20
732.033996582031
 30
0.0
 11
17.07183837890699
 21
732.033996582031
 31
0.0
  0
CIRCLE
  5
260
330
1F
100
AcDbEntity
  8
VISIBLE
100
AcDbCircle
 10
102.071838378907
 20
722.033996582031
 30
0.0
 40
2.0
  0
LINE
  5
261
330
1F
100
AcDbEntity
  8
VISIBLE
100
AcDbLine
 10
231.9562101364143
 20
842.033996582031
 30
0.0
 11
231.9562101364143
 21
847.033996582031
 31
0.0
  0
LINE
  5
262
330
1F
100
AcDbEntity
  8
VISIBLE
100
AcDbLine
 10
79.57183837890699
 20
579.533996582031
 30
0.0
 11
97.07183837890699
 21
579.533996582031
 31
0.0
  0
LINE
  5
263
330
1F
100
AcDbEntity
  8
VISIBLE
100
AcDbLine
 10
17.07183837890699
 20
632.033996582031
 30
0.0
 11
22.07183837890699
 21
632.033996582031
 31
0.0
  0
LINE
  5
264
330
1F
100
AcDbEntity
  8
VISIBLE
100
AcDbLine
 10
12.07183837890699
 20
762.033996582031
 30
0.0
 11
27.07183837890699
 21
762.033996582031
 31
0.0
  0
LINE
  5
265
330
1F
100
AcDbEntity
  8
VISIBLE
100
AcDbLine
 10
74.57183837890699
 20
597.033996582031
 30
0.0
 11
79.57183837890699
 21
597.033996582031
 31
0.0
  0
LINE
  5
266
330
1F
100
AcDbEntity
  8
VISIBLE
100
AcDbLine
 10
352.071838378907
 20
642.033996582031
 30
0.0
 11
352.071838378907
 21
602.033996582031
 31
0.0
  0
LINE
  5
267
330
1F
100
AcDbEntity
  8
VISIBLE
100
AcDbLine
 10
284.571838378907
 20
557.033996582031
 30
0.0
 11
284.571838378907
 21
574.533996582031
 31
0.0
  0
LINE
  5
268
330
1F
100
AcDbEntity
  8
VISIBLE
100
AcDbLine
 10
27.07183837890699
 20
762.033996582031
 30
0.0
 11
27.07183837890699
 21
837.033996582031
 31
0.0
  0
LINE
  5
269
330
1F
100
AcDbEntity
  8
VISIBLE
100
AcDbLine
 10
284.571838378907
 20
767.033996582031
 30
0.0
 11
284.571838378907
 21
784.533996582031
 31
0.0
  0
LINE
  5
26A
330
1F
100
AcDbEntity
  8
VISIBLE
100
AcDbLine
 10
347.071838378907
 20
612.033996582031
 30
0.0
 11
342.071838378907
 21
612.033996582031
 31
0.0
  0
LINE
  5
26B
330
1F
100
AcDbEntity
  8
VISIBLE
100
AcDbLine
 10
267.071838378907
 20
789.533996582031
 30
0.0
 11
284.571838378907
 21
789.533996582031
 31
0.0
  0
LINE
  5
26C
330
1F
100
AcDbEntity
  8
VISIBLE
100
AcDbLine
 10
337.071838378907
 20
837.033996582031
 30
0.0
 11
337.071838378907
 21
762.033996582031
 31
0.0
  0
LINE
  5
26D
330
1F
100
AcDbEntity
  8
VISIBLE
100
AcDbLine
 10
284.571838378907
 20
807.033996582031
 30
0.0
 11
289.571838378907
 21
807.033996582031
 31
0.0
  0
LINE
  5
26E
330
1F
100
AcDbEntity
  8
VISIBLE
100
AcDbLine
 10
307.071838378907
 20
579.533996582031
 30
0.0
 11
307.071838378907
 21
574.533996582031
 31
0.0
  0
CIRCLE
  5
26F
330
1F
100
AcDbEntity
  8
VISIBLE
100
AcDbCircle
 10
102.071838378907
 20
642.033996582031
 30
0.0
 40
2.0
  0
LINE
  5
270
330
1F
100
AcDbEntity
  8
VISIBLE
100
AcDbLine
 10
79.57183837890699
 20
837.033996582031
 30
0.0
 11
79.57183837890699
 21
832.033996582031
 31
0.0
  0
LINE
  5
271
330
1F
100
AcDbEntity
  8
VISIBLE
100
AcDbLine
 10
222.071838378907
 20
837.033996582031
 30
0.0
 11
222.071838378907
 21
852.033996582031
 31
0.0
  0
LINE
  5
272
330
1F
100
AcDbEntity
  8
VISIBLE
100
AcDbLine
 10
22.07183837890699
 20
612.033996582031
 30
0.0
 11
17.07183837890699
 21
612.033996582031
 31
0.0
  0
CIRCLE
  5
273
330
1F
100
AcDbEntity
  8
VISIBLE
100
AcDbCircle
 10
262.071838378907
 20
682.033996582031
 30
0.0
 40
2.0
  0
LINE
  5
274
330
1F
100
AcDbEntity
  8
VISIBLE
100
AcDbLine
 10
267.071838378907
 20
574.533996582031
 30
0.0
 11
267.071838378907
 21
579.533996582031
 31
0.0
  0
LINE
  5
275
330
1F
100
AcDbEntity
  8
VISIBLE
100
AcDbLine
 10
97.07183837890699
 20
574.533996582031
 30
0.0
 11
79.57183837890699
 21
574.533996582031
 31
0.0
  0
LINE
  5
276
330
1F
100
AcDbEntity
  8
VISIBLE
100
AcDbLine
 10
251.9562101364143
 20
842.033996582031
 30
0.0
 11
231.9562101364143
 21
842.033996582031
 31
0.0
  0
CIRCLE
  5
277
330
1F
100
AcDbEntity
  8
VISIBLE
100
AcDbCircle
 10
222.071838378907
 20
762.033996582031
 30
0.0
 40
2.0
  0
LINE
  5
278
330
1F
100
AcDbEntity
  8
VISIBLE
100
AcDbLine
 10
74.57183837890699
 20
579.533996582031
 30
0.0
 11
74.57183837890699
 21
597.033996582031
 31
0.0
  0
LINE
  5
279
330
1F
100
AcDbEntity
  8
VISIBLE
100
AcDbLine
 10
262.071838378907
 20
837.033996582031
 30
0.0
 11
284.571838378907
 21
837.033996582031
 31
0.0
  0
LINE
  5
27A
330
1F
100
AcDbEntity
  8
VISIBLE
100
AcDbLine
 10
97.07183837890699
 20
789.533996582031
 30
0.0
 11
97.07183837890699
 21
784.533996582031
 31
0.0
  0
LINE
  5
27B
330
1F
100
AcDbEntity
  8
VISIBLE
100
AcDbLine
 10
12.07183837890699
 20
722.033996582031
 30
0.0
 11
12.07183837890699
 21
762.033996582031
 31
0.0
  0
LINE
  5
27C
330
1F
100
AcDbEntity
  8
VISIBLE
100
AcDbLine
 10
74.57183837890699
 20
557.033996582031
 30
0.0
 11
74.57183837890699
 21
574.533996582031
 31
0.0
  0
LINE
  5
27D
330
1F
100
AcDbEntity
  8
VISIBLE
100
AcDbLine
 10
79.57183837890699
 20
832.033996582031
 30
0.0
 11
74.57183837890699
 21
832.033996582031
 31
0.0
  0
LINE
  5
27E
330
1F
100
AcDbEntity
  8
VISIBLE
100
AcDbLine
 10
22.07183837890699
 20
752.033996582031
 30
0.0
 11
22.07183837890699
 21
732.033996582031
 31
0.0
  0
LINE
  5
27F
330
1F
100
AcDbEntity
  8
VISIBLE
100
AcDbLine
 10
289.571838378907
 20
579.533996582031
 30
0.0
 11
307.071838378907
 21
579.533996582031
 31
0.0
  0
LINE
  5
280
330
1F
100
AcDbEntity
  8
VISIBLE
100
AcDbLine
 10
74.57183837890699
 20
767.033996582031
 30
0.0
 11
74.57183837890699
 21
784.533996582031
 31
0.0
  0
LINE
  5
281
330
1F
100
AcDbEntity
  8
VISIBLE
100
AcDbLine
 10
307.071838378907
 20
789.533996582031
 30
0.0
 11
307.071838378907
 21
784.533996582031
 31
0.0
  0
LINE
  5
282
330
1F
100
AcDbEntity
  8
VISIBLE
100
AcDbLine
 10
262.071838378907
 20
852.033996582031
 30
0.0
 11
262.071838378907
 21
837.033996582031
 31
0.0
  0
LINE
  5
283
330
1F
100
AcDbEntity
  8
VISIBLE
100
AcDbLine
 10
222.071838378907
 20
852.033996582031
 30
0.0
 11
262.071838378907
 21
852.033996582031
 31
0.0
  0
LINE
  5
284
330
1F
100
AcDbEntity
  8
VISIBLE
100
AcDbLine
 10
74.57183837890699
 20
574.533996582031
 30
0.0
 11
57.07183837890699
 21
574.533996582031
 31
0.0
  0
LINE
  5
285
330
1F
100
AcDbEntity
  8
VISIBLE
100
AcDbLine
 10
307.071838378907
 20
784.533996582031
 30
0.0
 11
289.571838378907
 21
784.533996582031
 31
0.0
  0
CIRCLE
  5
286
330
1F
100
AcDbEntity
  8
VISIBLE
100
AcDbCircle
 10
182.071838378907
 20
722.033996582031
 30
0.0
 40
2.0
  0
CIRCLE
  5
287
330
1F
100
AcDbEntity
  8
VISIBLE
100
AcDbCircle
 10
222.071838378907
 20
642.033996582031
 30
0.0
 40
2.0
  0
LINE
  5
288
330
1F
100
AcDbEntity
  8
VISIBLE
100
AcDbLine
 10
347.071838378907
 20
752.033996582031
 30
0.0
 11
347.071838378907
 21
732.033996582031
 31
0.0
  0
LINE
  5
289
330
1F
100
AcDbEntity
  8
VISIBLE
100
AcDbLine
 10
27.07183837890699
 20
837.033996582031
 30
0.0
 11
74.57183837890699
 21
837.033996582031
 31
0.0
  0
LINE
  5
28A
330
1F
100
AcDbEntity
  8
VISIBLE
100
AcDbLine
 10
12.07183837890699
 20
602.033996582031
 30
0.0
 11
12.07183837890699
 21
642.033996582031
 31
0.0
  0
CIRCLE
  5
28B
330
1F
100
AcDbEntity
  8
VISIBLE
100
AcDbCircle
 10
102.071838378907
 20
762.033996582031
 30
0.0
 40
2.0
  0
LINE
  5
28C
330
1F
100
AcDbEntity
  8
VISIBLE
100
AcDbLine
 10
17.07183837890699
 20
612.033996582031
 30
0.0
 11
17.07183837890699
 21
632.033996582031
 31
0.0
  0
CIRCLE
  5
28D
330
1F
100
AcDbEntity
  8
VISIBLE
100
AcDbCircle
 10
262.071838378907
 20
762.033996582031
 30
0.0
 40
2.0
  0
CIRCLE
  5
28E
330
1F
100
AcDbEntity
  8
VISIBLE
100
AcDbCircle
 10
262.071838378907
 20
602.033996582031
 30
0.0
 40
2.0
  0
LINE
  5
28F
330
1F
100
AcDbEntity
  8
VISIBLE
100
AcDbLine
 10
97.07183837890699
 20
579.533996582031
 30
0.0
 11
97.07183837890699
 21
574.533996582031
 31
0.0
  0
CIRCLE
  5
290
330
1F
100
AcDbEntity
  8
VISIBLE
100
AcDbCircle
 10
222.071838378907
 20
682.033996582031
 30
0.0
 40
2.0
  0
LINE
  5
291
330
1F
100
AcDbEntity
  8
VISIBLE
100
AcDbLine
 10
202.071838378907
 20
684.533996582031
 30
0.0
 11
202.071838378907
 21
679.533996582031
 31
0.0
  0
LINE
  5
292
330
1F
100
AcDbEntity
  8
VISIBLE
100
AcDbLine
 10
337.071838378907
 20
722.033996582031
 30
0.0
 11
337.071838378907
 21
642.033996582031
 31
0.0
  0
LINE
  5
293
330
1F
100
AcDbEntity
  8
VISIBLE
100
AcDbLine
 10
102.071838378907
 20
852.033996582031
 30
0.0
 11
142.071838378907
 21
852.033996582031
 31
0.0
  0
LINE
  5
294
330
1F
100
AcDbEntity
  8
VISIBLE
100
AcDbLine
 10
202.071838378907
 20
679.533996582031
 30
0.0
 11
184.571838378907
 21
679.533996582031
 31
0.0
  0
LINE
  5
295
330
1F
100
AcDbEntity
  8
VISIBLE
100
AcDbLine
 10
342.071838378907
 20
632.033996582031
 30
0.0
 11
347.071838378907
 21
632.033996582031
 31
0.0
  0
LINE
  5
296
330
1F
100
AcDbEntity
  8
VISIBLE
100
AcDbLine
 10
284.571838378907
 20
832.033996582031
 30
0.0
 11
284.571838378907
 21
837.033996582031
 31
0.0
  0
LINE
  5
297
330
1F
100
AcDbEntity
  8
VISIBLE
100
AcDbLine
 10
79.57183837890699
 20
837.033996582031
 30
0.0
 11
102.071838378907
 21
837.033996582031
 31
0.0
  0
CIRCLE
  5
298
330
1F
100
AcDbEntity
  8
VISIBLE
100
AcDbCircle
 10
222.071838378907
 20
602.033996582031
 30
0.0
 40
2.0
  0
LINE
  5
299
330
1F
100
AcDbEntity
  8
VISIBLE
100
AcDbLine
 10
289.571838378907
 20
597.033996582031
 30
0.0
 11
289.571838378907
 21
579.533996582031
 31
0.0
  0
CIRCLE
  5
29A
330
1F
100
AcDbEntity
  8
VISIBLE
100
AcDbCircle
 10
262.071838378907
 20
642.033996582031
 30
0.0
 40
2.0
  0
LINE
  5
29B
330
1F
100
AcDbEntity
  8
VISIBLE
100
AcDbLine
 10
79.57183837890699
 20
784.533996582031
 30
0.0
 11
79.57183837890699
 21
767.033996582031
 31
0.0
  0
LINE
  5
29C
330
1F
100
AcDbEntity
  8
VISIBLE
100
AcDbLine
 10
142.071838378907
 20
852.033996582031
 30
0.0
 11
142.071838378907
 21
837.033996582031
 31
0.0
  0
LINE
  5
29D
330
1F
100
AcDbEntity
  8
VISIBLE
100
AcDbLine
 10
132.1874666213997
 20
842.033996582031
 30
0.0
 11
112.1874666213997
 21
842.033996582031
 31
0.0
  0
CIRCLE
  5
29E
330
1F
100
AcDbEntity
  8
VISIBLE
100
AcDbCircle
 10
102.071838378907
 20
682.033996582031
 30
0.0
 40
2.0
  0
LINE
  5
29F
330
1F
100
AcDbEntity
  8
VISIBLE
100
AcDbLine
 10
289.571838378907
 20
784.533996582031
 30
0.0
 11
289.571838378907
 21
767.033996582031
 31
0.0
  0
LINE
  5
2A0
330
1F
100
AcDbEntity
  8
VISIBLE
100
AcDbLine
 10
22.07183837890699
 20
632.033996582031
 30
0.0
 11
22.07183837890699
 21
612.033996582031
 31
0.0
  0
LINE
  5
2A1
330
1F
100
AcDbEntity
  8
VISIBLE
100
AcDbLine
 10
289.571838378907
 20
837.033996582031
 30
0.0
 11
289.571838378907
 21
832.033996582031
 31
0.0
  0
LINE
  5
2A2
330
1F
100
AcDbEntity
  8
VISIBLE
100
AcDbLine
 10
162.071838378907
 20
679.533996582031
 30
0.0
 11
162.071838378907
 21
684.533996582031
 31
0.0
  0
LINE
  5
2A3
330
1F
100
AcDbEntity
  8
VISIBLE
100
AcDbLine
 10
79.57183837890699
 20
767.033996582031
 30
0.0
 11
74.57183837890699
 21
767.033996582031
 31
0.0
  0
CIRCLE
  5
2A4
330
1F
100
AcDbEntity
  8
VISIBLE
100
AcDbCircle
 10
102.071838378907
 20
602.033996582031
 30
0.0
 40
2.0
  0
CIRCLE
  5
2A5
330
1F
100
AcDbEntity
  8
VISIBLE
100
AcDbCircle
 10
42.07183837890699
 20
542.033996582031
 30
0.0
 40
5.0
  0
LINE
  5
2A6
330
1F
100
AcDbEntity
  8
VISIBLE
100
AcDbLine
 10
12.07183837890699
 20
642.033996582031
 30
0.0
 11
27.07183837890699
 21
642.033996582031
 31
0.0
  0
LINE
  5
2A7
330
1F
100
AcDbEntity
  8
VISIBLE
100
AcDbLine
 10
79.57183837890699
 20
557.033996582031
 30
0.0
 11
74.57183837890699
 21
557.033996582031
 31
0.0
  0
LINE
  5
2A8
330
1F
100
AcDbEntity
  8
VISIBLE
100
AcDbLine
 10
289.571838378907
 20
557.033996582031
 30
0.0
 11
284.571838378907
 21
557.033996582031
 31
0.0
  0
LINE
  5
2A9
330
1F
100
AcDbEntity
  8
VISIBLE
100
AcDbLine
 10
289.571838378907
 20
574.533996582031
 30
0.0
 11
289.571838378907
 21
557.033996582031
 31
0.0
  0
LINE
  5
2AA
330
1F
100
AcDbEntity
  8
VISIBLE
100
AcDbLine
 10
179.571838378907
 20
662.033996582031
 30
0.0
 11
179.571838378907
 21
679.533996582031
 31
0.0
  0
LINE
  5
2AB
330
1F
100
AcDbEntity
  8
VISIBLE
100
AcDbLine
 10
289.571838378907
 20
832.033996582031
 30
0.0
 11
284.571838378907
 21
832.033996582031
 31
0.0
  0
LINE
  5
2AC
330
1F
100
AcDbEntity
  8
VISIBLE
100
AcDbLine
 10
74.57183837890699
 20
807.033996582031
 30
0.0
 11
79.57183837890699
 21
807.033996582031
 31
0.0
  0
LINE
  5
2AD
330
1F
100
AcDbEntity
  8
VISIBLE
100
AcDbLine
 10
74.57183837890699
 20
784.533996582031
 30
0.0
 11
57.07183837890699
 21
784.533996582031
 31
0.0
  0
CIRCLE
  5
2AE
330
1F
100
AcDbEntity
  8
VISIBLE
100
AcDbCircle
 10
182.071838378907
 20
762.033996582031
 30
0.0
 40
2.0
  0
LINE
  5
2AF
330
1F
100
AcDbEntity
  8
VISIBLE
100
AcDbLine
 10
799.413757324219
 20
1174.67993164063
 30
0.0
 11
839.413757324219
 21
1174.67993164063
 31
0.0
  0
LINE
  5
2B0
330
1F
100
AcDbEntity
  8
VISIBLE
100
AcDbLine
 10
876.913757324219
 20
1017.17993164063
 30
0.0
 11
876.913757324219
 21
1034.67993164063
 31
0.0
  0
LINE
  5
2B1
330
1F
100
AcDbEntity
  8
VISIBLE
100
AcDbLine
 10
986.913757324219
 20
869.67993164063
 30
0.0
 11
986.913757324219
 21
859.67993164063
 31
0.0
  0
LINE
  5
2B2
330
1F
100
AcDbEntity
  8
VISIBLE
100
AcDbLine
 10
729.413757324219
 20
912.17993164063
 30
0.0
 11
729.413757324219
 21
907.17993164063
 31
0.0
  0
LINE
  5
2B3
330
1F
100
AcDbEntity
  8
VISIBLE
100
AcDbLine
 10
986.913757324219
 20
1164.67993164063
 30
0.0
 11
981.913757324219
 21
1164.67993164063
 31
0.0
  0
LINE
  5
2B4
330
1F
100
AcDbEntity
  8
VISIBLE
100
AcDbLine
 10
1004.413757324219
 20
907.17993164063
 30
0.0
 11
986.913757324219
 21
907.17993164063
 31
0.0
  0
LINE
  5
2B5
330
1F
100
AcDbEntity
  8
VISIBLE
100
AcDbLine
 10
1039.413757324219
 20
859.67993164063
 30
0.0
 11
986.913757324219
 21
859.67993164063
 31
0.0
  0
CIRCLE
  5
2B6
330
1F
100
AcDbEntity
  8
VISIBLE
100
AcDbCircle
 10
919.413757324219
 20
1054.67993164063
 30
0.0
 40
2.0
  0
LINE
  5
2B7
330
1F
100
AcDbEntity
  8
VISIBLE
100
AcDbLine
 10
794.413757324219
 20
1122.17993164063
 30
0.0
 11
794.413757324219
 21
1117.17993164063
 31
0.0
  0
LINE
  5
2B8
330
1F
100
AcDbEntity
  8
VISIBLE
100
AcDbLine
 10
719.413757324219
 20
912.17993164063
 30
0.0
 11
729.413757324219
 21
912.17993164063
 31
0.0
  0
LINE
  5
2B9
330
1F
100
AcDbEntity
  8
VISIBLE
100
AcDbLine
 10
881.913757324219
 20
1017.17993164063
 30
0.0
 11
899.413757324219
 21
1017.17993164063
 31
0.0
  0
LINE
  5
2BA
330
1F
100
AcDbEntity
  8
VISIBLE
100
AcDbLine
 10
776.913757324219
 20
1139.67993164063
 30
0.0
 11
776.913757324219
 21
1122.17993164063
 31
0.0
  0
LINE
  5
2BB
330
1F
100
AcDbEntity
  8
VISIBLE
100
AcDbLine
 10
794.413757324219
 20
1117.17993164063
 30
0.0
 11
776.913757324219
 21
1117.17993164063
 31
0.0
  0
CIRCLE
  5
2BC
330
1F
100
AcDbEntity
  8
VISIBLE
100
AcDbCircle
 10
959.413757324219
 20
1054.67993164063
 30
0.0
 40
2.0
  0
CIRCLE
  5
2BD
330
1F
100
AcDbEntity
  8
VISIBLE
100
AcDbCircle
 10
839.413757324219
 20
1014.67993164063
 30
0.0
 40
2.0
  0
LINE
  5
2BE
330
1F
100
AcDbEntity
  8
VISIBLE
100
AcDbLine
 10
719.413757324219
 20
1054.67993164063
 30
0.0
 11
719.413757324219
 21
1094.67993164063
 31
0.0
  0
CIRCLE
  5
2BF
330
1F
100
AcDbEntity
  8
VISIBLE
100
AcDbCircle
 10
919.413757324219
 20
1014.67993164063
 30
0.0
 40
2.0
  0
CIRCLE
  5
2C0
330
1F
100
AcDbEntity
  8
VISIBLE
100
AcDbCircle
 10
799.413757324219
 20
1054.67993164063
 30
0.0
 40
2.0
  0
LINE
  5
2C1
330
1F
100
AcDbEntity
  8
VISIBLE
100
AcDbLine
 10
959.413757324219
 20
1174.67993164063
 30
0.0
 11
959.413757324219
 21
1169.67993164063
 31
0.0
  0
CIRCLE
  5
2C2
330
1F
100
AcDbEntity
  8
VISIBLE
100
AcDbCircle
 10
839.413757324219
 20
934.67993164063
 30
0.0
 40
2.0
  0
LINE
  5
2C3
330
1F
100
AcDbEntity
  8
VISIBLE
100
AcDbLine
 10
1039.413757324219
 20
907.17993164063
 30
0.0
 11
1029.413757324219
 21
907.17993164063
 31
0.0
  0
CIRCLE
  5
2C4
330
1F
100
AcDbEntity
  8
VISIBLE
100
AcDbCircle
 10
959.413757324219
 20
974.67993164063
 30
0.0
 40
2.0
  0
LINE
  5
2C5
330
1F
100
AcDbEntity
  8
VISIBLE
100
AcDbLine
 10
1004.413757324219
 20
1117.17993164063
 30
0.0
 11
986.913757324219
 21
1117.17993164063
 31
0.0
  0
LINE
  5
2C6
330
1F
100
AcDbEntity
  8
VISIBLE
100
AcDbLine
 10
964.413757324219
 20
1122.17993164063
 30
0.0
 11
981.913757324219
 21
1122.17993164063
 31
0.0
  0
LINE
  5
2C7
330
1F
100
AcDbEntity
  8
VISIBLE
100
AcDbLine
 10
981.913757324219
 20
929.67993164063
 30
0.0
 11
986.913757324219
 21
929.67993164063
 31
0.0
  0
LINE
  5
2C8
330
1F
100
AcDbEntity
  8
VISIBLE
100
AcDbLine
 10
981.913757324219
 20
912.17993164063
 30
0.0
 11
981.913757324219
 21
929.67993164063
 31
0.0
  0
LINE
  5
2C9
330
1F
100
AcDbEntity
  8
VISIBLE
100
AcDbLine
 10
1029.413757324219
 20
912.17993164063
 30
0.0
 11
1039.413757324219
 21
912.17993164063
 31
0.0
  0
LINE
  5
2CA
330
1F
100
AcDbEntity
  8
VISIBLE
100
AcDbLine
 10
959.413757324219
 20
1169.67993164063
 30
0.0
 11
981.913757324219
 21
1169.67993164063
 31
0.0
  0
LINE
  5
2CB
330
1F
100
AcDbEntity
  8
VISIBLE
100
AcDbLine
 10
986.913757324219
 20
912.17993164063
 30
0.0
 11
1004.413757324219
 21
912.17993164063
 31
0.0
  0
LINE
  5
2CC
330
1F
100
AcDbEntity
  8
VISIBLE
100
AcDbLine
 10
771.913757324219
 20
859.67993164063
 30
0.0
 11
771.913757324219
 21
869.67993164063
 31
0.0
  0
CIRCLE
  5
2CD
330
1F
100
AcDbEntity
  8
VISIBLE
100
AcDbCircle
 10
879.413757324219
 20
934.67993164063
 30
0.0
 40
2.0
  0
LINE
  5
2CE
330
1F
100
AcDbEntity
  8
VISIBLE
100
AcDbLine
 10
719.413757324219
 20
1114.67993164063
 30
0.0
 11
719.413757324219
 21
1117.17993164063
 31
0.0
  0
LINE
  5
2CF
330
1F
100
AcDbEntity
  8
VISIBLE
100
AcDbLine
 10
776.913757324219
 20
929.67993164063
 30
0.0
 11
776.913757324219
 21
912.17993164063
 31
0.0
  0
LINE
  5
2D0
330
1F
100
AcDbEntity
  8
VISIBLE
100
AcDbLine
 10
1034.413757324219
 20
1054.67993164063
 30
0.0
 11
1034.413757324219
 21
1094.67993164063
 31
0.0
  0
LINE
  5
2D1
330
1F
100
AcDbEntity
  8
VISIBLE
100
AcDbLine
 10
771.913757324219
 20
889.67993164063
 30
0.0
 11
771.913757324219
 21
907.17993164063
 31
0.0
  0
LINE
  5
2D2
330
1F
100
AcDbEntity
  8
VISIBLE
100
AcDbLine
 10
876.913757324219
 20
1034.67993164063
 30
0.0
 11
881.913757324219
 21
1034.67993164063
 31
0.0
  0
LINE
  5
2D3
330
1F
100
AcDbEntity
  8
VISIBLE
100
AcDbLine
 10
754.413757324219
 20
1117.17993164063
 30
0.0
 11
754.413757324219
 21
1122.17993164063
 31
0.0
  0
LINE
  5
2D4
330
1F
100
AcDbEntity
  8
VISIBLE
100
AcDbLine
 10
709.413757324219
 20
1104.67993164063
 30
0.0
 11
719.413757324219
 21
1114.67993164063
 31
0.0
  0
LINE
  5
2D5
330
1F
100
AcDbEntity
  8
VISIBLE
100
AcDbLine
 10
776.913757324219
 20
912.17993164063
 30
0.0
 11
794.413757324219
 21
912.17993164063
 31
0.0
  0
LINE
  5
2D6
330
1F
100
AcDbEntity
  8
VISIBLE
100
AcDbLine
 10
986.913757324219
 20
1169.67993164063
 30
0.0
 11
986.913757324219
 21
1164.67993164063
 31
0.0
  0
LINE
  5
2D7
330
1F
100
AcDbEntity
  8
VISIBLE
100
AcDbLine
 10
1039.413757324219
 20
1169.67993164063
 30
0.0
 11
1039.413757324219
 21
1122.17993164063
 31
0.0
  0
LINE
  5
2D8
330
1F
100
AcDbEntity
  8
VISIBLE
100
AcDbLine
 10
1049.413757324219
 20
924.67993164063
 30
0.0
 11
1049.413757324219
 21
984.67993164063
 31
0.0
  0
LINE
  5
2D9
330
1F
100
AcDbEntity
  8
VISIBLE
100
AcDbLine
 10
709.413757324219
 20
984.67993164063
 30
0.0
 11
719.413757324219
 21
994.67993164063
 31
0.0
  0
LINE
  5
2DA
330
1F
100
AcDbEntity
  8
VISIBLE
100
AcDbLine
 10
754.413757324219
 20
912.17993164063
 30
0.0
 11
771.913757324219
 21
912.17993164063
 31
0.0
  0
CIRCLE
  5
2DB
330
1F
100
AcDbEntity
  8
VISIBLE
100
AcDbCircle
 10
959.413757324219
 20
934.67993164063
 30
0.0
 40
2.0
  0
LINE
  5
2DC
330
1F
100
AcDbEntity
  8
VISIBLE
100
AcDbLine
 10
719.413757324219
 20
1169.67993164063
 30
0.0
 11
771.913757324219
 21
1169.67993164063
 31
0.0
  0
LINE
  5
2DD
330
1F
100
AcDbEntity
  8
VISIBLE
100
AcDbLine
 10
771.913757324219
 20
907.17993164063
 30
0.0
 11
754.413757324219
 21
907.17993164063
 31
0.0
  0
LINE
  5
2DE
330
1F
100
AcDbEntity
  8
VISIBLE
100
AcDbLine
 10
771.913757324219
 20
1122.17993164063
 30
0.0
 11
771.913757324219
 21
1139.67993164063
 31
0.0
  0
CIRCLE
  5
2DF
330
1F
100
AcDbEntity
  8
VISIBLE
100
AcDbCircle
 10
839.413757324219
 20
974.67993164063
 30
0.0
 40
2.0
  0
LINE
  5
2E0
330
1F
100
AcDbEntity
  8
VISIBLE
100
AcDbLine
 10
899.413757324219
 20
1017.17993164063
 30
0.0
 11
899.413757324219
 21
1012.17993164063
 31
0.0
  0
LINE
  5
2E1
330
1F
100
AcDbEntity
  8
VISIBLE
100
AcDbLine
 10
799.413757324219
 20
1169.67993164063
 30
0.0
 11
799.413757324219
 21
1174.67993164063
 31
0.0
  0
LINE
  5
2E2
330
1F
100
AcDbEntity
  8
VISIBLE
100
AcDbLine
 10
1039.413757324219
 20
1054.67993164063
 30
0.0
 11
1034.413757324219
 21
1054.67993164063
 31
0.0
  0
LINE
  5
2E3
330
1F
100
AcDbEntity
  8
VISIBLE
100
AcDbLine
 10
1034.413757324219
 20
1094.67993164063
 30
0.0
 11
1039.413757324219
 21
1094.67993164063
 31
0.0
  0
LINE
  5
2E4
330
1F
100
AcDbEntity
  8
VISIBLE
100
AcDbLine
 10
729.413757324219
 20
1117.17993164063
 30
0.0
 11
719.413757324219
 21
1117.17993164063
 31
0.0
  0
LINE
  5
2E5
330
1F
100
AcDbEntity
  8
VISIBLE
100
AcDbLine
 10
754.413757324219
 20
907.17993164063
 30
0.0
 11
754.413757324219
 21
912.17993164063
 31
0.0
  0
CIRCLE
  5
2E6
330
1F
100
AcDbEntity
  8
VISIBLE
100
AcDbCircle
 10
799.413757324219
 20
1094.67993164063
 30
0.0
 40
2.0
  0
LINE
  5
2E7
330
1F
100
AcDbEntity
  8
VISIBLE
100
AcDbLine
 10
1039.413757324219
 20
934.6799316406301
 30
0.0
 11
1034.413757324219
 21
934.6799316406301
 31
0.0
  0
LINE
  5
2E8
330
1F
100
AcDbEntity
  8
VISIBLE
100
AcDbLine
 10
776.913757324219
 20
1099.67993164063
 30
0.0
 11
771.913757324219
 21
1099.67993164063
 31
0.0
  0
LINE
  5
2E9
330
1F
100
AcDbEntity
  8
VISIBLE
100
AcDbLine
 10
724.413757324219
 20
1054.67993164063
 30
0.0
 11
719.413757324219
 21
1054.67993164063
 31
0.0
  0
LINE
  5
2EA
330
1F
100
AcDbEntity
  8
VISIBLE
100
AcDbLine
 10
876.913757324219
 20
994.67993164063
 30
0.0
 11
876.913757324219
 21
1012.17993164063
 31
0.0
  0
CIRCLE
  5
2EB
330
1F
100
AcDbEntity
  8
VISIBLE
100
AcDbCircle
 10
959.413757324219
 20
1094.67993164063
 30
0.0
 40
2.0
  0
LINE
  5
2EC
330
1F
100
AcDbEntity
  8
VISIBLE
100
AcDbLine
 10
986.913757324219
 20
889.67993164063
 30
0.0
 11
981.913757324219
 21
889.67993164063
 31
0.0
  0
LINE
  5
2ED
330
1F
100
AcDbEntity
  8
VISIBLE
100
AcDbLine
 10
729.413757324219
 20
907.17993164063
 30
0.0
 11
719.413757324219
 21
907.17993164063
 31
0.0
  0
LINE
  5
2EE
330
1F
100
AcDbEntity
  8
VISIBLE
100
AcDbLine
 10
981.913757324219
 20
859.67993164063
 30
0.0
 11
981.913757324219
 21
869.67993164063
 31
0.0
  0
LINE
  5
2EF
330
1F
100
AcDbEntity
  8
VISIBLE
100
AcDbLine
 10
719.413757324219
 20
974.67993164063
 30
0.0
 11
724.413757324219
 21
974.67993164063
 31
0.0
  0
LINE
  5
2F0
330
1F
100
AcDbEntity
  8
VISIBLE
100
AcDbLine
 10
1029.413757324219
 20
907.17993164063
 30
0.0
 11
1029.413757324219
 21
912.17993164063
 31
0.0
  0
LINE
  5
2F1
330
1F
100
AcDbEntity
  8
VISIBLE
100
AcDbLine
 10
859.413757324219
 20
1012.17993164063
 30
0.0
 11
859.413757324219
 21
1017.17993164063
 31
0.0
  0
LINE
  5
2F2
330
1F
100
AcDbEntity
  8
VISIBLE
100
AcDbLine
 10
724.413757324219
 20
1094.67993164063
 30
0.0
 11
724.413757324219
 21
1054.67993164063
 31
0.0
  0
LINE
  5
2F3
330
1F
100
AcDbEntity
  8
VISIBLE
100
AcDbLine
 10
986.913757324219
 20
929.67993164063
 30
0.0
 11
986.913757324219
 21
912.17993164063
 31
0.0
  0
LINE
  5
2F4
330
1F
100
AcDbEntity
  8
VISIBLE
100
AcDbLine
 10
719.413757324219
 20
1122.17993164063
 30
0.0
 11
719.413757324219
 21
1169.67993164063
 31
0.0
  0
LINE
  5
2F5
330
1F
100
AcDbEntity
  8
VISIBLE
100
AcDbLine
 10
1039.413757324219
 20
1034.67993164063
 30
0.0
 11
1039.413757324219
 21
994.67993164063
 31
0.0
  0
CIRCLE
  5
2F6
330
1F
100
AcDbEntity
  8
VISIBLE
100
AcDbCircle
 10
839.413757324219
 20
1054.67993164063
 30
0.0
 40
2.0
  0
LINE
  5
2F7
330
1F
100
AcDbEntity
  8
VISIBLE
100
AcDbLine
 10
709.413757324219
 20
924.67993164063
 30
0.0
 11
709.413757324219
 21
984.67993164063
 31
0.0
  0
LINE
  5
2F8
330
1F
100
AcDbEntity
  8
VISIBLE
100
AcDbLine
 10
794.413757324219
 20
912.17993164063
 30
0.0
 11
794.413757324219
 21
907.17993164063
 31
0.0
  0
LINE
  5
2F9
330
1F
100
AcDbEntity
  8
VISIBLE
100
AcDbLine
 10
981.913757324219
 20
1164.67993164063
 30
0.0
 11
981.913757324219
 21
1169.67993164063
 31
0.0
  0
CIRCLE
  5
2FA
330
1F
100
AcDbEntity
  8
VISIBLE
100
AcDbCircle
 10
919.413757324219
 20
974.67993164063
 30
0.0
 40
2.0
  0
LINE
  5
2FB
330
1F
100
AcDbEntity
  8
VISIBLE
100
AcDbLine
 10
986.913757324219
 20
1169.67993164063
 30
0.0
 11
1039.413757324219
 21
1169.67993164063
 31
0.0
  0
CIRCLE
  5
2FC
330
1F
100
AcDbEntity
  8
VISIBLE
100
AcDbCircle
 10
879.413757324219
 20
1094.67993164063
 30
0.0
 40
2.0
  0
LINE
  5
2FD
330
1F
100
AcDbEntity
  8
VISIBLE
100
AcDbLine
 10
899.413757324219
 20
1012.17993164063
 30
0.0
 11
881.913757324219
 21
1012.17993164063
 31
0.0
  0
LINE
  5
2FE
330
1F
100
AcDbEntity
  8
VISIBLE
100
AcDbLine
 10
1039.413757324219
 20
1117.17993164063
 30
0.0
 11
1029.413757324219
 21
1117.17993164063
 31
0.0
  0
LINE
  5
2FF
330
1F
100
AcDbEntity
  8
VISIBLE
100
AcDbLine
 10
919.413757324219
 20
1174.67993164063
 30
0.0
 11
959.413757324219
 21
1174.67993164063
 31
0.0
  0
LINE
  5
300
330
1F
100
AcDbEntity
  8
VISIBLE
100
AcDbLine
 10
981.913757324219
 20
1139.67993164063
 30
0.0
 11
986.913757324219
 21
1139.67993164063
 31
0.0
  0
LINE
  5
301
330
1F
100
AcDbEntity
  8
VISIBLE
100
AcDbLine
 10
776.913757324219
 20
1169.67993164063
 30
0.0
 11
799.413757324219
 21
1169.67993164063
 31
0.0
  0
LINE
  5
302
330
1F
100
AcDbEntity
  8
VISIBLE
100
AcDbLine
 10
1039.413757324219
 20
914.67993164063
 30
0.0
 11
1039.413757324219
 21
912.17993164063
 31
0.0
  0
LINE
  5
303
330
1F
100
AcDbEntity
  8
VISIBLE
100
AcDbLine
 10
839.413757324219
 20
1174.67993164063
 30
0.0
 11
839.413757324219
 21
1169.67993164063
 31
0.0
  0
LINE
  5
304
330
1F
100
AcDbEntity
  8
VISIBLE
100
AcDbLine
 10
1049.413757324219
 20
1104.67993164063
 30
0.0
 11
1049.413757324219
 21
1044.67993164063
 31
0.0
  0
CIRCLE
  5
305
330
1F
100
AcDbEntity
  8
VISIBLE
100
AcDbCircle
 10
919.413757324219
 20
934.67993164063
 30
0.0
 40
2.0
  0
CIRCLE
  5
306
330
1F
100
AcDbEntity
  8
VISIBLE
100
AcDbCircle
 10
919.413757324219
 20
1094.67993164063
 30
0.0
 40
2.0
  0
LINE
  5
307
330
1F
100
AcDbEntity
  8
VISIBLE
100
AcDbLine
 10
881.913757324219
 20
1012.17993164063
 30
0.0
 11
881.913757324219
 21
994.67993164063
 31
0.0
  0
CIRCLE
  5
308
330
1F
100
AcDbEntity
  8
VISIBLE
100
AcDbCircle
 10
799.413757324219
 20
974.67993164063
 30
0.0
 40
2.0
  0
LINE
  5
309
330
1F
100
AcDbEntity
  8
VISIBLE
100
AcDbLine
 10
771.913757324219
 20
1099.67993164063
 30
0.0
 11
771.913757324219
 21
1117.17993164063
 31
0.0
  0
LINE
  5
30A
330
1F
100
AcDbEntity
  8
VISIBLE
100
AcDbLine
 10
1034.413757324219
 20
974.6799316406301
 30
0.0
 11
1039.413757324219
 21
974.6799316406301
 31
0.0
  0
LINE
  5
30B
330
1F
100
AcDbEntity
  8
VISIBLE
100
AcDbLine
 10
776.913757324219
 20
1164.67993164063
 30
0.0
 11
771.913757324219
 21
1164.67993164063
 31
0.0
  0
LINE
  5
30C
330
1F
100
AcDbEntity
  8
VISIBLE
100
AcDbLine
 10
709.413757324219
 20
1104.67993164063
 30
0.0
 11
709.413757324219
 21
1044.67993164063
 31
0.0
  0
LINE
  5
30D
330
1F
100
AcDbEntity
  8
VISIBLE
100
AcDbLine
 10
986.913757324219
 20
1122.17993164063
 30
0.0
 11
1004.413757324219
 21
1122.17993164063
 31
0.0
  0
LINE
  5
30E
330
1F
100
AcDbEntity
  8
VISIBLE
100
AcDbLine
 10
986.913757324219
 20
1099.67993164063
 30
0.0
 11
981.913757324219
 21
1099.67993164063
 31
0.0
  0
LINE
  5
30F
330
1F
100
AcDbEntity
  8
VISIBLE
100
AcDbLine
 10
981.913757324219
 20
1122.17993164063
 30
0.0
 11
981.913757324219
 21
1139.67993164063
 31
0.0
  0
LINE
  5
310
330
1F
100
AcDbEntity
  8
VISIBLE
100
AcDbLine
 10
729.413757324219
 20
1122.17993164063
 30
0.0
 11
729.413757324219
 21
1117.17993164063
 31
0.0
  0
CIRCLE
  5
311
330
1F
100
AcDbEntity
  8
VISIBLE
100
AcDbCircle
 10
839.413757324219
 20
1094.67993164063
 30
0.0
 40
2.0
  0
LINE
  5
312
330
1F
100
AcDbEntity
  8
VISIBLE
100
AcDbLine
 10
1039.413757324219
 20
974.67993164063
 30
0.0
 11
1039.413757324219
 21
934.6799316406301
 31
0.0
  0
LINE
  5
313
330
1F
100
AcDbEntity
  8
VISIBLE
100
AcDbLine
 10
771.913757324219
 20
1139.67993164063
 30
0.0
 11
776.913757324219
 21
1139.67993164063
 31
0.0
  0
LINE
  5
314
330
1F
100
AcDbEntity
  8
VISIBLE
100
AcDbLine
 10
881.913757324219
 20
994.67993164063
 30
0.0
 11
876.913757324219
 21
994.67993164063
 31
0.0
  0
LINE
  5
315
330
1F
100
AcDbEntity
  8
VISIBLE
100
AcDbLine
 10
981.913757324219
 20
869.67993164063
 30
0.0
 11
986.913757324219
 21
869.67993164063
 31
0.0
  0
LINE
  5
316
330
1F
100
AcDbEntity
  8
VISIBLE
100
AcDbLine
 10
981.913757324219
 20
1117.17993164063
 30
0.0
 11
964.413757324219
 21
1117.17993164063
 31
0.0
  0
LINE
  5
317
330
1F
100
AcDbEntity
  8
VISIBLE
100
AcDbLine
 10
719.413757324219
 20
914.67993164063
 30
0.0
 11
709.413757324219
 21
924.67993164063
 31
0.0
  0
LINE
  5
318
330
1F
100
AcDbEntity
  8
VISIBLE
100
AcDbLine
 10
964.413757324219
 20
912.17993164063
 30
0.0
 11
981.913757324219
 21
912.17993164063
 31
0.0
  0
LINE
  5
319
330
1F
100
AcDbEntity
  8
VISIBLE
100
AcDbLine
 10
776.913757324219
 20
907.17993164063
 30
0.0
 11
776.913757324219
 21
889.67993164063
 31
0.0
  0
LINE
  5
31A
330
1F
100
AcDbEntity
  8
VISIBLE
100
AcDbLine
 10
719.413757324219
 20
859.67993164063
 30
0.0
 11
719.413757324219
 21
907.17993164063
 31
0.0
  0
LINE
  5
31B
330
1F
100
AcDbEntity
  8
VISIBLE
100
AcDbLine
 10
1039.413757324219
 20
1114.67993164063
 30
0.0
 11
1049.413757324219
 21
1104.67993164063
 31
0.0
  0
LINE
  5
31C
330
1F
100
AcDbEntity
  8
VISIBLE
100
AcDbLine
 10
839.413757324219
 20
1169.67993164063
 30
0.0
 11
919.413757324219
 21
1169.67993164063
 31
0.0
  0
LINE
  5
31D
330
1F
100
AcDbEntity
  8
VISIBLE
100
AcDbLine
 10
771.913757324219
 20
1164.67993164063
 30
0.0
 11
771.913757324219
 21
1169.67993164063
 31
0.0
  0
LINE
  5
31E
330
1F
100
AcDbEntity
  8
VISIBLE
100
AcDbLine
 10
1039.413757324219
 20
1054.67993164063
 30
0.0
 11
1039.413757324219
 21
1094.67993164063
 31
0.0
  0
CIRCLE
  5
31F
330
1F
100
AcDbEntity
  8
VISIBLE
100
AcDbCircle
 10
799.413757324219
 20
1014.67993164063
 30
0.0
 40
2.0
  0
LINE
  5
320
330
1F
100
AcDbEntity
  8
VISIBLE
100
AcDbLine
 10
776.913757324219
 20
869.67993164063
 30
0.0
 11
776.913757324219
 21
859.67993164063
 31
0.0
  0
LINE
  5
321
330
1F
100
AcDbEntity
  8
VISIBLE
100
AcDbLine
 10
1029.413757324219
 20
1122.17993164063
 30
0.0
 11
1039.413757324219
 21
1122.17993164063
 31
0.0
  0
LINE
  5
322
330
1F
100
AcDbEntity
  8
VISIBLE
100
AcDbLine
 10
771.913757324219
 20
869.67993164063
 30
0.0
 11
776.913757324219
 21
869.67993164063
 31
0.0
  0
LINE
  5
323
330
1F
100
AcDbEntity
  8
VISIBLE
100
AcDbLine
 10
1039.413757324219
 20
907.17993164063
 30
0.0
 11
1039.413757324219
 21
859.67993164063
 31
0.0
  0
LINE
  5
324
330
1F
100
AcDbEntity
  8
VISIBLE
100
AcDbLine
 10
876.913757324219
 20
1012.17993164063
 30
0.0
 11
859.413757324219
 21
1012.17993164063
 31
0.0
  0
LINE
  5
325
330
1F
100
AcDbEntity
  8
VISIBLE
100
AcDbLine
 10
859.413757324219
 20
1017.17993164063
 30
0.0
 11
876.913757324219
 21
1017.17993164063
 31
0.0
  0
LINE
  5
326
330
1F
100
AcDbEntity
  8
VISIBLE
100
AcDbLine
 10
1034.413757324219
 20
934.67993164063
 30
0.0
 11
1034.413757324219
 21
974.6799316406301
 31
0.0
  0
LINE
  5
327
330
1F
100
AcDbEntity
  8
VISIBLE
100
AcDbLine
 10
719.413757324219
 20
1122.17993164063
 30
0.0
 11
729.413757324219
 21
1122.17993164063
 31
0.0
  0
LINE
  5
328
330
1F
100
AcDbEntity
  8
VISIBLE
100
AcDbLine
 10
981.913757324219
 20
1099.67993164063
 30
0.0
 11
981.913757324219
 21
1117.17993164063
 31
0.0
  0
LINE
  5
329
330
1F
100
AcDbEntity
  8
VISIBLE
100
AcDbLine
 10
986.913757324219
 20
907.17993164063
 30
0.0
 11
986.913757324219
 21
889.67993164063
 31
0.0
  0
LINE
  5
32A
330
1F
100
AcDbEntity
  8
VISIBLE
100
AcDbLine
 10
776.913757324219
 20
1169.67993164063
 30
0.0
 11
776.913757324219
 21
1164.67993164063
 31
0.0
  0
LINE
  5
32B
330
1F
100
AcDbEntity
  8
VISIBLE
100
AcDbLine
 10
981.913757324219
 20
889.67993164063
 30
0.0
 11
981.913757324219
 21
907.17993164063
 31
0.0
  0
LINE
  5
32C
330
1F
100
AcDbEntity
  8
VISIBLE
100
AcDbLine
 10
1004.413757324219
 20
912.17993164063
 30
0.0
 11
1004.413757324219
 21
907.17993164063
 31
0.0
  0
LINE
  5
32D
330
1F
100
AcDbEntity
  8
VISIBLE
100
AcDbLine
 10
981.913757324219
 20
859.67993164063
 30
0.0
 11
776.913757324219
 21
859.67993164063
 31
0.0
  0
LINE
  5
32E
330
1F
100
AcDbEntity
  8
VISIBLE
100
AcDbLine
 10
776.913757324219
 20
1117.17993164063
 30
0.0
 11
776.913757324219
 21
1099.67993164063
 31
0.0
  0
CIRCLE
  5
32F
330
1F
100
AcDbEntity
  8
VISIBLE
100
AcDbCircle
 10
879.413757324219
 20
974.67993164063
 30
0.0
 40
2.0
  0
LINE
  5
330
330
1F
100
AcDbEntity
  8
VISIBLE
100
AcDbLine
 10
719.413757324219
 20
1094.67993164063
 30
0.0
 11
724.413757324219
 21
1094.67993164063
 31
0.0
  0
LINE
  5
331
330
1F
100
AcDbEntity
  8
VISIBLE
100
AcDbLine
 10
981.913757324219
 20
907.17993164063
 30
0.0
 11
964.413757324219
 21
907.17993164063
 31
0.0
  0
LINE
  5
332
330
1F
100
AcDbEntity
  8
VISIBLE
100
AcDbLine
 10
1039.413757324219
 20
1117.17993164063
 30
0.0
 11
1039.413757324219
 21
1114.67993164063
 31
0.0
  0
LINE
  5
333
330
1F
100
AcDbEntity
  8
VISIBLE
100
AcDbLine
 10
724.413757324219
 20
974.67993164063
 30
0.0
 11
724.413757324219
 21
934.67993164063
 31
0.0
  0
LINE
  5
334
330
1F
100
AcDbEntity
  8
VISIBLE
100
AcDbLine
 10
771.913757324219
 20
912.17993164063
 30
0.0
 11
771.913757324219
 21
929.67993164063
 31
0.0
  0
LINE
  5
335
330
1F
100
AcDbEntity
  8
VISIBLE
100
AcDbLine
 10
754.413757324219
 20
1122.17993164063
 30
0.0
 11
771.913757324219
 21
1122.17993164063
 31
0.0
  0
LINE
  5
336
330
1F
100
AcDbEntity
  8
VISIBLE
100
AcDbLine
 10
1029.413757324219
 20
1117.17993164063
 30
0.0
 11
1029.413757324219
 21
1122.17993164063
 31
0.0
  0
LINE
  5
337
330
1F
100
AcDbEntity
  8
VISIBLE
100
AcDbLine
 10
986.913757324219
 20
1117.17993164063
 30
0.0
 11
986.913757324219
 21
1099.67993164063
 31
0.0
  0
LINE
  5
338
330
1F
100
AcDbEntity
  8
VISIBLE
100
AcDbLine
 10
771.913757324219
 20
929.67993164063
 30
0.0
 11
776.913757324219
 21
929.67993164063
 31
0.0
  0
LINE
  5
339
330
1F
100
AcDbEntity
  8
VISIBLE
100
AcDbLine
 10
1049.413757324219
 20
1044.67993164063
 30
0.0
 11
1039.413757324219
 21
1034.67993164063
 31
0.0
  0
LINE
  5
33A
330
1F
100
AcDbEntity
  8
VISIBLE
100
AcDbLine
 10
964.413757324219
 20
1117.17993164063
 30
0.0
 11
964.413757324219
 21
1122.17993164063
 31
0.0
  0
LINE
  5
33B
330
1F
100
AcDbEntity
  8
VISIBLE
100
AcDbLine
 10
1004.413757324219
 20
1122.17993164063
 30
0.0
 11
1004.413757324219
 21
1117.17993164063
 31
0.0
  0
LINE
  5
33C
330
1F
100
AcDbEntity
  8
VISIBLE
100
AcDbLine
 10
771.913757324219
 20
1117.17993164063
 30
0.0
 11
754.413757324219
 21
1117.17993164063
 31
0.0
  0
LINE
  5
33D
330
1F
100
AcDbEntity
  8
VISIBLE
100
AcDbLine
 10
794.413757324219
 20
907.17993164063
 30
0.0
 11
776.913757324219
 21
907.17993164063
 31
0.0
  0
CIRCLE
  5
33E
330
1F
100
AcDbEntity
  8
VISIBLE
100
AcDbCircle
 10
959.413757324219
 20
1014.67993164063
 30
0.0
 40
2.0
  0
LINE
  5
33F
330
1F
100
AcDbEntity
  8
VISIBLE
100
AcDbLine
 10
771.913757324219
 20
859.67993164063
 30
0.0
 11
719.413757324219
 21
859.67993164063
 31
0.0
  0
LINE
  5
340
330
1F
100
AcDbEntity
  8
VISIBLE
100
AcDbLine
 10
881.913757324219
 20
1034.67993164063
 30
0.0
 11
881.913757324219
 21
1017.17993164063
 31
0.0
  0
LINE
  5
341
330
1F
100
AcDbEntity
  8
VISIBLE
100
AcDbLine
 10
1039.413757324219
 20
994.67993164063
 30
0.0
 11
1049.413757324219
 21
984.67993164063
 31
0.0
  0
CIRCLE
  5
342
330
1F
100
AcDbEntity
  8
VISIBLE
100
AcDbCircle
 10
879.413757324219
 20
1054.67993164063
 30
0.0
 40
2.0
  0
LINE
  5
343
330
1F
100
AcDbEntity
  8
VISIBLE
100
AcDbLine
 10
964.413757324219
 20
907.17993164063
 30
0.0
 11
964.413757324219
 21
912.17993164063
 31
0.0
  0
LINE
  5
344
330
1F
100
AcDbEntity
  8
VISIBLE
100
AcDbLine
 10
719.413757324219
 20
912.17993164063
 30
0.0
 11
719.413757324219
 21
914.67993164063
 31
0.0
  0
LINE
  5
345
330
1F
100
AcDbEntity
  8
VISIBLE
100
AcDbLine
 10
724.413757324219
 20
934.67993164063
 30
0.0
 11
719.413757324219
 21
934.67993164063
 31
0.0
  0
LINE
  5
346
330
1F
100
AcDbEntity
  8
VISIBLE
100
AcDbLine
 10
986.913757324219
 20
1139.67993164063
 30
0.0
 11
986.913757324219
 21
1122.17993164063
 31
0.0
  0
CIRCLE
  5
347
330
1F
100
AcDbEntity
  8
VISIBLE
100
AcDbCircle
 10
799.413757324219
 20
934.67993164063
 30
0.0
 40
2.0
  0
LINE
  5
348
330
1F
100
AcDbEntity
  8
VISIBLE
100
AcDbLine
 10
719.413757324219
 20
994.67993164063
 30
0.0
 11
719.413757324219
 21
1034.67993164063
 31
0.0
  0
LINE
  5
349
330
1F
100
AcDbEntity
  8
VISIBLE
100
AcDbLine
 10
719.413757324219
 20
1034.67993164063
 30
0.0
 11
709.413757324219
 21
1044.67993164063
 31
0.0
  0
LINE
  5
34A
330
1F
100
AcDbEntity
  8
VISIBLE
100
AcDbLine
 10
919.413757324219
 20
1169.67993164063
 30
0.0
 11
919.413757324219
 21
1174.67993164063
 31
0.0
  0
LINE
  5
34B
330
1F
100
AcDbEntity
  8
VISIBLE
100
AcDbLine
 10
776.913757324219
 20
889.67993164063
 30
0.0
 11
771.913757324219
 21
889.67993164063
 31
0.0
  0
LINE
  5
34C
330
1F
100
AcDbEntity
  8
VISIBLE
100
AcDbLine
 10
719.413757324219
 20
974.67993164063
 30
0.0
 11
719.413757324219
 21
934.67993164063
 31
0.0
  0
LINE
  5
34D
330
1F
100
AcDbEntity
  8
VISIBLE
100
AcDbLine
 10
1049.413757324219
 20
924.67993164063
 30
0.0
 11
1039.413757324219
 21
914.67993164063
 31
0.0
  0
LINE
  5
34E
330
1F
100
AcDbEntity
  8
VISIBLE
100
AcDbLine
 10
776.913757324219
 20
1122.17993164063
 30
0.0
 11
794.413757324219
 21
1122.17993164063
 31
0.0
  0
LINE
  5
34F
330
1F
100
AcDbEntity
  8
VISIBLE
100
AcDbLine
 10
189.329315185547
 20
497.411956787109
 30
0.0
 11
189.329315185547
 21
437.411956787109
 31
0.0
  0
LINE
  5
350
330
1F
100
AcDbEntity
  8
VISIBLE
100
AcDbLine
 10
139.329315185547
 20
469.911956787109
 30
0.0
 11
164.329315185547
 21
469.911956787109
 31
0.0
  0
LINE
  5
351
330
1F
100
AcDbEntity
  8
VISIBLE
100
AcDbLine
 10
179.329315185547
 20
487.411956787109
 30
0.0
 11
179.329315185547
 21
497.411956787109
 31
0.0
  0
LINE
  5
352
330
1F
100
AcDbEntity
  8
VISIBLE
100
AcDbLine
 10
149.329315185547
 20
459.911956787109
 30
0.0
 11
149.329315185547
 21
454.911956787109
 31
0.0
  0
LINE
  5
353
330
1F
100
AcDbEntity
  8
VISIBLE
100
AcDbLine
 10
179.329315185547
 20
447.411956787109
 30
0.0
 11
179.329315185547
 21
437.411956787109
 31
0.0
  0
LINE
  5
354
330
1F
100
AcDbEntity
  8
VISIBLE
100
AcDbLine
 10
144.329315185547
 20
454.911956787109
 30
0.0
 11
144.329315185547
 21
459.911956787109
 31
0.0
  0
LINE
  5
355
330
1F
100
AcDbEntity
  8
VISIBLE
100
AcDbLine
 10
149.329315185547
 20
454.911956787109
 30
0.0
 11
144.329315185547
 21
454.911956787109
 31
0.0
  0
LINE
  5
356
330
1F
100
AcDbEntity
  8
VISIBLE
100
AcDbLine
 10
149.329315185547
 20
479.911956787109
 30
0.0
 11
149.329315185547
 21
474.911956787109
 31
0.0
  0
LINE
  5
357
330
1F
100
AcDbEntity
  8
VISIBLE
100
AcDbLine
 10
144.329315185547
 20
459.911956787109
 30
0.0
 11
149.329315185547
 21
459.911956787109
 31
0.0
  0
LINE
  5
358
330
1F
100
AcDbEntity
  8
VISIBLE
100
AcDbLine
 10
139.329315185547
 20
447.411956787109
 30
0.0
 11
139.329315185547
 21
464.911956787109
 31
0.0
  0
LINE
  5
359
330
1F
100
AcDbEntity
  8
VISIBLE
100
AcDbLine
 10
149.329315185547
 20
474.911956787109
 30
0.0
 11
144.329315185547
 21
474.911956787109
 31
0.0
  0
LINE
  5
35A
330
1F
100
AcDbEntity
  8
VISIBLE
100
AcDbLine
 10
179.329315185547
 20
437.411956787109
 30
0.0
 11
189.329315185547
 21
437.411956787109
 31
0.0
  0
LINE
  5
35B
330
1F
100
AcDbEntity
  8
VISIBLE
100
AcDbLine
 10
164.329315185547
 20
464.911956787109
 30
0.0
 11
139.329315185547
 21
464.911956787109
 31
0.0
  0
LINE
  5
35C
330
1F
100
AcDbEntity
  8
VISIBLE
100
AcDbLine
 10
164.329315185547
 20
469.911956787109
 30
0.0
 11
164.329315185547
 21
464.911956787109
 31
0.0
  0
LINE
  5
35D
330
1F
100
AcDbEntity
  8
VISIBLE
100
AcDbLine
 10
139.329315185547
 20
487.411956787109
 30
0.0
 11
179.329315185547
 21
487.411956787109
 31
0.0
  0
LINE
  5
35E
330
1F
100
AcDbEntity
  8
VISIBLE
100
AcDbLine
 10
144.329315185547
 20
479.911956787109
 30
0.0
 11
149.329315185547
 21
479.911956787109
 31
0.0
  0
LINE
  5
35F
330
1F
100
AcDbEntity
  8
VISIBLE
100
AcDbLine
 10
179.329315185547
 20
497.411956787109
 30
0.0
 11
189.329315185547
 21
497.411956787109
 31
0.0
  0
LINE
  5
360
330
1F
100
AcDbEntity
  8
VISIBLE
100
AcDbLine
 10
179.329315185547
 20
447.411956787109
 30
0.0
 11
139.329315185547
 21
447.411956787109
 31
0.0
  0
LINE
  5
361
330
1F
100
AcDbEntity
  8
VISIBLE
100
AcDbLine
 10
139.329315185547
 20
469.911956787109
 30
0.0
 11
139.329315185547
 21
487.411956787109
 31
0.0
  0
LINE
  5
362
330
1F
100
AcDbEntity
  8
VISIBLE
100
AcDbLine
 10
144.329315185547
 20
474.911956787109
 30
0.0
 11
144.329315185547
 21
479.911956787109
 31
0.0
  0
LINE
  5
363
330
1F
100
AcDbEntity
  8
VISIBLE
100
AcDbLine
 10
179.70947265625
 20
382.661285400391
 30
0.0
 11
179.70947265625
 21
372.661285400391
 31
0.0
  0
LINE
  5
364
330
1F
100
AcDbEntity
  8
VISIBLE
100
AcDbLine
 10
154.70947265625
 20
405.161285400391
 30
0.0
 11
174.70947265625
 21
405.161285400391
 31
0.0
  0
LINE
  5
365
330
1F
100
AcDbEntity
  8
VISIBLE
100
AcDbLine
 10
179.70947265625
 20
432.661285400391
 30
0.0
 11
189.70947265625
 21
432.661285400391
 31
0.0
  0
LINE
  5
366
330
1F
100
AcDbEntity
  8
VISIBLE
100
AcDbLine
 10
174.70947265625
 20
405.161285400391
 30
0.0
 11
174.70947265625
 21
400.161285400391
 31
0.0
  0
LINE
  5
367
330
1F
100
AcDbEntity
  8
VISIBLE
100
AcDbLine
 10
139.70947265625
 20
420.661285400391
 30
0.0
 11
141.70947265625
 21
422.661285400391
 31
0.0
  0
LINE
  5
368
330
1F
100
AcDbEntity
  8
VISIBLE
100
AcDbLine
 10
179.70947265625
 20
372.661285400391
 30
0.0
 11
189.70947265625
 21
372.661285400391
 31
0.0
  0
LINE
  5
369
330
1F
100
AcDbEntity
  8
VISIBLE
100
AcDbLine
 10
141.70947265625
 20
382.661285400391
 30
0.0
 11
139.70947265625
 21
384.661285400391
 31
0.0
  0
LINE
  5
36A
330
1F
100
AcDbEntity
  8
VISIBLE
100
AcDbLine
 10
154.70947265625
 20
400.161285400391
 30
0.0
 11
154.70947265625
 21
405.161285400391
 31
0.0
  0
LINE
  5
36B
330
1F
100
AcDbEntity
  8
VISIBLE
100
AcDbLine
 10
144.70947265625
 20
392.661285400391
 30
0.0
 11
144.70947265625
 21
412.661285400391
 31
0.0
  0
LINE
  5
36C
330
1F
100
AcDbEntity
  8
VISIBLE
100
AcDbLine
 10
149.8701643943787
 20
392.661285400391
 30
0.0
 11
144.70947265625
 21
392.661285400391
 31
0.0
  0
LINE
  5
36D
330
1F
100
AcDbEntity
  8
VISIBLE
100
AcDbLine
 10
139.70947265625
 20
384.661285400391
 30
0.0
 11
139.70947265625
 21
420.661285400391
 31
0.0
  0
LINE
  5
36E
330
1F
100
AcDbEntity
  8
VISIBLE
100
AcDbLine
 10
174.70947265625
 20
400.161285400391
 30
0.0
 11
154.70947265625
 21
400.161285400391
 31
0.0
  0
LINE
  5
36F
330
1F
100
AcDbEntity
  8
VISIBLE
100
AcDbLine
 10
144.70947265625
 20
412.661285400391
 30
0.0
 11
149.8701643943787
 21
412.661285400391
 31
0.0
  0
LINE
  5
370
330
1F
100
AcDbEntity
  8
VISIBLE
100
AcDbLine
 10
179.70947265625
 20
422.661285400391
 30
0.0
 11
179.70947265625
 21
432.661285400391
 31
0.0
  0
LINE
  5
371
330
1F
100
AcDbEntity
  8
VISIBLE
100
AcDbLine
 10
179.70947265625
 20
382.661285400391
 30
0.0
 11
141.70947265625
 21
382.661285400391
 31
0.0
  0
LINE
  5
372
330
1F
100
AcDbEntity
  8
VISIBLE
100
AcDbLine
 10
149.8701643943787
 20
412.661285400391
 30
0.0
 11
149.8701643943787
 21
392.661285400391
 31
0.0
  0
LINE
  5
373
330
1F
100
AcDbEntity
  8
VISIBLE
100
AcDbLine
 10
141.70947265625
 20
422.661285400391
 30
0.0
 11
179.70947265625
 21
422.661285400391
 31
0.0
  0
LINE
  5
374
330
1F
100
AcDbEntity
  8
VISIBLE
100
AcDbLine
 10
189.70947265625
 20
432.661285400391
 30
0.0
 11
189.70947265625
 21
372.661285400391
 31
0.0
  0
LINE
  5
375
330
1F
100
AcDbEntity
  8
VISIBLE
100
AcDbLine
 10
96.8696001768111
 20
504.718182563783
 30
0.0
 11
101.8696001768111
 21
509.718182563783
 31
0.0
  0
LINE
  5
376
330
1F
100
AcDbEntity
  8
VISIBLE
100
AcDbLine
 10
91.86960017681099
 20
239.718182563783
 30
0.0
 11
96.8696001768111
 21
239.718182563783
 31
0.0
  0
LINE
  5
377
330
1F
100
AcDbEntity
  8
VISIBLE
100
AcDbLine
 10
121.869600176811
 20
229.718182563783
 30
0.0
 11
91.869600176811
 21
229.718182563783
 31
0.0
  0
LINE
  5
378
330
1F
100
AcDbEntity
  8
VISIBLE
100
AcDbLine
 10
116.869600176811
 20
239.718182563783
 30
0.0
 11
121.869600176811
 21
239.718182563783
 31
0.0
  0
LINE
  5
379
330
1F
100
AcDbEntity
  8
VISIBLE
100
AcDbLine
 10
116.8696001768111
 20
504.718182563783
 30
0.0
 11
116.869600176811
 21
239.718182563783
 31
0.0
  0
LINE
  5
37A
330
1F
100
AcDbEntity
  8
VISIBLE
100
AcDbLine
 10
91.869600176811
 20
229.718182563783
 30
0.0
 11
91.86960017681099
 21
239.718182563783
 31
0.0
  0
LINE
  5
37B
330
1F
100
AcDbEntity
  8
VISIBLE
100
AcDbLine
 10
96.8696001768111
 20
239.718182563783
 30
0.0
 11
96.8696001768111
 21
504.718182563783
 31
0.0
  0
LINE
  5
37C
330
1F
100
AcDbEntity
  8
VISIBLE
100
AcDbLine
 10
111.8696001768111
 20
509.718182563783
 30
0.0
 11
116.8696001768111
 21
504.718182563783
 31
0.0
  0
LINE
  5
37D
330
1F
100
AcDbEntity
  8
VISIBLE
100
AcDbLine
 10
121.869600176811
 20
239.718182563783
 30
0.0
 11
121.869600176811
 21
229.718182563783
 31
0.0
  0
LINE
  5
37E
330
1F
100
AcDbEntity
  8
VISIBLE
100
AcDbLine
 10
101.8696001768111
 20
509.718182563783
 30
0.0
 11
111.8696001768111
 21
509.718182563783
 31
0.0
  0
LINE
  5
37F
330
1F
100
AcDbEntity
  8
VISIBLE
100
AcDbLine
 10
319.3994140625
 20
467.869323730469
 30
0.0
 11
314.3994140625
 21
462.869323730469
 31
0.0
  0
LINE
  5
380
330
1F
100
AcDbEntity
  8
VISIBLE
100
AcDbLine
 10
334.3994140625
 20
482.869323730469
 30
0.0
 11
334.3994140625
 21
477.869323730469
 31
0.0
  0
LINE
  5
381
330
1F
100
AcDbEntity
  8
VISIBLE
100
AcDbLine
 10
319.3994140625
 20
472.869323730469
 30
0.0
 11
319.3994140625
 21
467.869323730469
 31
0.0
  0
LINE
  5
382
330
1F
100
AcDbEntity
  8
VISIBLE
100
AcDbLine
 10
289.3994140625
 20
472.869323730469
 30
0.0
 11
284.3994140625
 21
477.869323730469
 31
0.0
  0
LINE
  5
383
330
1F
100
AcDbEntity
  8
VISIBLE
100
AcDbLine
 10
304.3994140625
 20
462.869323730469
 30
0.0
 11
299.3994140625
 21
467.869323730469
 31
0.0
  0
LINE
  5
384
330
1F
100
AcDbEntity
  8
VISIBLE
100
AcDbLine
 10
334.3994140625
 20
477.869323730469
 30
0.0
 11
329.3994140625
 21
472.869323730469
 31
0.0
  0
LINE
  5
385
330
1F
100
AcDbEntity
  8
VISIBLE
100
AcDbLine
 10
299.3994140625
 20
472.869323730469
 30
0.0
 11
289.3994140625
 21
472.869323730469
 31
0.0
  0
LINE
  5
386
330
1F
100
AcDbEntity
  8
VISIBLE
100
AcDbLine
 10
314.3994140625
 20
462.869323730469
 30
0.0
 11
304.3994140625
 21
462.869323730469
 31
0.0
  0
LINE
  5
387
330
1F
100
AcDbEntity
  8
VISIBLE
100
AcDbLine
 10
284.3994140625
 20
477.869323730469
 30
0.0
 11
284.3994140625
 21
482.869323730469
 31
0.0
  0
LINE
  5
388
330
1F
100
AcDbEntity
  8
VISIBLE
100
AcDbLine
 10
329.3994140625
 20
472.869323730469
 30
0.0
 11
319.3994140625
 21
472.869323730469
 31
0.0
  0
LINE
  5
389
330
1F
100
AcDbEntity
  8
VISIBLE
100
AcDbLine
 10
299.3994140625
 20
467.869323730469
 30
0.0
 11
299.3994140625
 21
472.869323730469
 31
0.0
  0
LINE
  5
38A
330
1F
100
AcDbEntity
  8
VISIBLE
100
AcDbLine
 10
284.3994140625
 20
482.869323730469
 30
0.0
 11
334.3994140625
 21
482.869323730469
 31
0.0
  0
LINE
  5
38B
330
1F
100
AcDbEntity
  8
VISIBLE
100
AcDbLine
 10
284.214447021484
 20
410.279724121094
 30
0.0
 11
279.214447021484
 21
415.279724121094
 31
0.0
  0
LINE
  5
38C
330
1F
100
AcDbEntity
  8
VISIBLE
100
AcDbLine
 10
279.214447021484
 20
420.279724121094
 30
0.0
 11
329.214447021484
 21
420.279724121094
 31
0.0
  0
ARC
  5
38D
330
1F
100
AcDbEntity
  8
VISIBLE
100
AcDbCircle
 10
304.214447021484
 20
400.779724121094
 30
0.0
 40
2.0
100
AcDbArc
 50
0.0
 51
180.0
  0
LINE
  5
38E
330
1F
100
AcDbEntity
  8
VISIBLE
100
AcDbLine
 10
329.214447021484
 20
415.279724121094
 30
0.0
 11
324.214447021484
 21
410.279724121094
 31
0.0
  0
LINE
  5
38F
330
1F
100
AcDbEntity
  8
VISIBLE
100
AcDbLine
 10
324.214447021484
 20
410.279724121094
 30
0.0
 11
314.214447021484
 21
410.279724121094
 31
0.0
  0
LINE
  5
390
330
1F
100
AcDbEntity
  8
VISIBLE
100
AcDbLine
 10
329.214447021484
 20
420.279724121094
 30
0.0
 11
329.214447021484
 21
415.279724121094
 31
0.0
  0
LINE
  5
391
330
1F
100
AcDbEntity
  8
VISIBLE
100
AcDbLine
 10
314.214447021484
 20
410.279724121094
 30
0.0
 11
314.214447021484
 21
385.279724121094
 31
0.0
  0
LINE
  5
392
330
1F
100
AcDbEntity
  8
VISIBLE
100
AcDbLine
 10
294.214447021484
 20
410.279724121094
 30
0.0
 11
284.214447021484
 21
410.279724121094
 31
0.0
  0
LINE
  5
393
330
1F
100
AcDbEntity
  8
VISIBLE
100
AcDbLine
 10
299.214447021484
 20
380.279724121094
 30
0.0
 11
294.214447021484
 21
385.279724121094
 31
0.0
  0
ARC
  5
394
330
1F
100
AcDbEntity
  8
VISIBLE
100
AcDbCircle
 10
304.214447021484
 20
389.779724121094
 30
0.0
 40
2.000000000000057
100
AcDbArc
 50
180.0
 51
0.0
  0
LINE
  5
395
330
1F
100
AcDbEntity
  8
VISIBLE
100
AcDbLine
 10
306.214447021484
 20
400.779724121094
 30
0.0
 11
306.214447021484
 21
389.779724121094
 31
0.0
  0
LINE
  5
396
330
1F
100
AcDbEntity
  8
VISIBLE
100
AcDbLine
 10
294.214447021484
 20
385.279724121094
 30
0.0
 11
294.214447021484
 21
410.279724121094
 31
0.0
  0
LINE
  5
397
330
1F
100
AcDbEntity
  8
VISIBLE
100
AcDbLine
 10
314.214447021484
 20
385.279724121094
 30
0.0
 11
309.214447021484
 21
380.279724121094
 31
0.0
  0
LINE
  5
398
330
1F
100
AcDbEntity
  8
VISIBLE
100
AcDbLine
 10
279.214447021484
 20
415.279724121094
 30
0.0
 11
279.214447021484
 21
420.279724121094
 31
0.0
  0
LINE
  5
399
330
1F
100
AcDbEntity
  8
VISIBLE
100
AcDbLine
 10
302.214447021484
 20
389.779724121094
 30
0.0
 11
302.214447021484
 21
400.779724121094
 31
0.0
  0
LINE
  5
39A
330
1F
100
AcDbEntity
  8
VISIBLE
100
AcDbLine
 10
309.214447021484
 20
380.279724121094
 30
0.0
 11
299.214447021484
 21
380.279724121094
 31
0.0
  0
CIRCLE
  5
39B
330
1F
100
AcDbEntity
  8
VISIBLE
100
AcDbCircle
 10
920.783325195313
 20
608.564086914063
 30
0.0
 40
2.0
  0
LINE
  5
39C
330
1F
100
AcDbEntity
  8
VISIBLE
100
AcDbLine
 10
735.783325195313
 20
533.564086914063
 30
0.0
 11
725.783325195313
 21
533.564086914063
 31
0.0
  0
CIRCLE
  5
39D
330
1F
100
AcDbEntity
  8
VISIBLE
100
AcDbCircle
 10
960.783325195313
 20
728.564086914063
 30
0.0
 40
2.0
  0
LINE
  5
39E
330
1F
100
AcDbEntity
  8
VISIBLE
100
AcDbLine
 10
745.783325195313
 20
523.564086914063
 30
0.0
 11
745.783325195313
 21
533.564086914063
 31
0.0
  0
LINE
  5
39F
330
1F
100
AcDbEntity
  8
VISIBLE
100
AcDbLine
 10
735.783325195313
 20
853.564086914063
 30
0.0
 11
745.783325195313
 21
853.564086914063
 31
0.0
  0
CIRCLE
  5
3A0
330
1F
100
AcDbEntity
  8
VISIBLE
100
AcDbCircle
 10
960.783325195313
 20
768.564086914063
 30
0.0
 40
2.0
  0
LINE
  5
3A1
330
1F
100
AcDbEntity
  8
VISIBLE
100
AcDbLine
 10
1025.783325195313
 20
673.564086914063
 30
0.0
 11
1025.783325195313
 21
703.564086914063
 31
0.0
  0
CIRCLE
  5
3A2
330
1F
100
AcDbEntity
  8
VISIBLE
100
AcDbCircle
 10
800.783325195313
 20
728.564086914063
 30
0.0
 40
2.0
  0
LINE
  5
3A3
330
1F
100
AcDbEntity
  8
VISIBLE
100
AcDbLine
 10
1035.783325195313
 20
713.564086914063
 30
0.0
 11
1025.783325195313
 21
703.564086914063
 31
0.0
  0
CIRCLE
  5
3A4
330
1F
100
AcDbEntity
  8
VISIBLE
100
AcDbCircle
 10
960.783325195313
 20
648.564086914063
 30
0.0
 40
2.0
  0
LINE
  5
3A5
330
1F
100
AcDbEntity
  8
VISIBLE
100
AcDbLine
 10
745.783325195313
 20
853.564086914063
 30
0.0
 11
745.783325195313
 21
843.564086914063
 31
0.0
  0
LINE
  5
3A6
330
1F
100
AcDbEntity
  8
VISIBLE
100
AcDbLine
 10
1035.783325195313
 20
843.564086914063
 30
0.0
 11
1035.783325195313
 21
713.564086914063
 31
0.0
  0
CIRCLE
  5
3A7
330
1F
100
AcDbEntity
  8
VISIBLE
100
AcDbCircle
 10
880.783325195313
 20
728.564086914063
 30
0.0
 40
2.0
  0
LINE
  5
3A8
330
1F
100
AcDbEntity
  8
VISIBLE
100
AcDbLine
 10
1035.783325195313
 20
663.564086914063
 30
0.0
 11
1035.783325195313
 21
533.564086914063
 31
0.0
  0
LINE
  5
3A9
330
1F
100
AcDbEntity
  8
VISIBLE
100
AcDbLine
 10
735.783325195313
 20
523.564086914063
 30
0.0
 11
745.783325195313
 21
523.564086914063
 31
0.0
  0
CIRCLE
  5
3AA
330
1F
100
AcDbEntity
  8
VISIBLE
100
AcDbCircle
 10
960.783325195313
 20
608.564086914063
 30
0.0
 40
2.0
  0
CIRCLE
  5
3AB
330
1F
100
AcDbEntity
  8
VISIBLE
100
AcDbCircle
 10
880.783325195313
 20
608.564086914063
 30
0.0
 40
2.0
  0
CIRCLE
  5
3AC
330
1F
100
AcDbEntity
  8
VISIBLE
100
AcDbCircle
 10
880.783325195313
 20
768.564086914063
 30
0.0
 40
2.0
  0
CIRCLE
  5
3AD
330
1F
100
AcDbEntity
  8
VISIBLE
100
AcDbCircle
 10
800.783325195313
 20
648.564086914063
 30
0.0
 40
2.0
  0
CIRCLE
  5
3AE
330
1F
100
AcDbEntity
  8
VISIBLE
100
AcDbCircle
 10
920.783325195313
 20
728.564086914063
 30
0.0
 40
2.0
  0
CIRCLE
  5
3AF
330
1F
100
AcDbEntity
  8
VISIBLE
100
AcDbCircle
 10
840.783325195313
 20
688.564086914063
 30
0.0
 40
2.0
  0
LINE
  5
3B0
330
1F
100
AcDbEntity
  8
VISIBLE
100
AcDbLine
 10
1035.783325195313
 20
533.564086914063
 30
0.0
 11
745.783325195313
 21
533.564086914063
 31
0.0
  0
CIRCLE
  5
3B1
330
1F
100
AcDbEntity
  8
VISIBLE
100
AcDbCircle
 10
920.783325195313
 20
768.564086914063
 30
0.0
 40
2.0
  0
LINE
  5
3B2
330
1F
100
AcDbEntity
  8
VISIBLE
100
AcDbLine
 10
1025.783325195313
 20
673.564086914063
 30
0.0
 11
1035.783325195313
 21
663.564086914063
 31
0.0
  0
CIRCLE
  5
3B3
330
1F
100
AcDbEntity
  8
VISIBLE
100
AcDbCircle
 10
840.783325195313
 20
728.564086914063
 30
0.0
 40
2.0
  0
LINE
  5
3B4
330
1F
100
AcDbEntity
  8
VISIBLE
100
AcDbLine
 10
725.783325195313
 20
843.564086914063
 30
0.0
 11
735.783325195313
 21
843.564086914063
 31
0.0
  0
LINE
  5
3B5
330
1F
100
AcDbEntity
  8
VISIBLE
100
AcDbLine
 10
735.783325195313
 20
533.564086914063
 30
0.0
 11
735.783325195313
 21
523.564086914063
 31
0.0
  0
CIRCLE
  5
3B6
330
1F
100
AcDbEntity
  8
VISIBLE
100
AcDbCircle
 10
920.783325195313
 20
688.564086914063
 30
0.0
 40
2.0
  0
CIRCLE
  5
3B7
330
1F
100
AcDbEntity
  8
VISIBLE
100
AcDbCircle
 10
800.783325195313
 20
688.564086914063
 30
0.0
 40
2.0
  0
CIRCLE
  5
3B8
330
1F
100
AcDbEntity
  8
VISIBLE
100
AcDbCircle
 10
840.783325195313
 20
768.564086914063
 30
0.0
 40
2.0
  0
CIRCLE
  5
3B9
330
1F
100
AcDbEntity
  8
VISIBLE
100
AcDbCircle
 10
880.783325195313
 20
648.564086914063
 30
0.0
 40
2.0
  0
CIRCLE
  5
3BA
330
1F
100
AcDbEntity
  8
VISIBLE
100
AcDbCircle
 10
840.783325195313
 20
608.564086914063
 30
0.0
 40
2.0
  0
CIRCLE
  5
3BB
330
1F
100
AcDbEntity
  8
VISIBLE
100
AcDbCircle
 10
800.783325195313
 20
608.564086914063
 30
0.0
 40
2.0
  0
CIRCLE
  5
3BC
330
1F
100
AcDbEntity
  8
VISIBLE
100
AcDbCircle
 10
880.783325195313
 20
688.564086914063
 30
0.0
 40
2.0
  0
LINE
  5
3BD
330
1F
100
AcDbEntity
  8
VISIBLE
100
AcDbLine
 10
735.783325195313
 20
843.564086914063
 30
0.0
 11
735.783325195313
 21
853.564086914063
 31
0.0
  0
CIRCLE
  5
3BE
330
1F
100
AcDbEntity
  8
VISIBLE
100
AcDbCircle
 10
920.783325195313
 20
648.564086914063
 30
0.0
 40
2.0
  0
LINE
  5
3BF
330
1F
100
AcDbEntity
  8
VISIBLE
100
AcDbLine
 10
745.783325195313
 20
843.564086914063
 30
0.0
 11
1035.783325195313
 21
843.564086914063
 31
0.0
  0
CIRCLE
  5
3C0
330
1F
100
AcDbEntity
  8
VISIBLE
100
AcDbCircle
 10
800.783325195313
 20
768.564086914063
 30
0.0
 40
2.0
  0
CIRCLE
  5
3C1
330
1F
100
AcDbEntity
  8
VISIBLE
100
AcDbCircle
 10
840.783325195313
 20
648.564086914063
 30
0.0
 40
2.0
  0
LINE
  5
3C2
330
1F
100
AcDbEntity
  8
VISIBLE
100
AcDbLine
 10
725.783325195313
 20
533.564086914063
 30
0.0
 11
725.783325195313
 21
843.564086914063
 31
0.0
  0
CIRCLE
  5
3C3
330
1F
100
AcDbEntity
  8
VISIBLE
100
AcDbCircle
 10
960.783325195313
 20
688.564086914063
 30
0.0
 40
2.0
  0
ENDSEC
  0
SECTION
  2
OBJECTS
  0
DICTIONARY
  5
C
330
0
100
AcDbDictionary
  3
ACAD_GROUP
350
D
  3
ACAD_LAYOUT
350
1A
  3
ACAD_MATERIAL
350
3B
  3
ACAD_MLEADERSTYLE
350
3E6
  3
ACAD_MLINESTYLE
350
17
  3
ACAD_PLOTSETTINGS
350
19
  3
ACAD_VISUALSTYLE
350
2A
  3
ACDBHEADERROUNDTRIPXREC
350
3C4
  3
ACDBVARIABLEDICTIONARY
350
3E4
  0
DICTIONARY
  5
D
102
{ACAD_REACTORS
330
C
102
}
330
C
100
AcDbDictionary
  0
DICTIONARY
  5
1A
102
{ACAD_REACTORS
330
C
102
}
330
C
100
AcDbDictionary
  0
DICTIONARY
  5
3B
102
{ACAD_REACTORS
330
C
102
}
330
C
100
AcDbDictionary
  3
BYBLOCK
350
3D
  3
BYLAYER
350
3C
  3
GLOBAL
350
3E
  0
DICTIONARY
  5
3E6
102
{ACAD_REACTORS
330
C
102
}
330
C
100
AcDbDictionary
  0
DICTIONARY
  5
17
102
{ACAD_REACTORS
330
C
102
}
330
C
100
AcDbDictionary
  3
STANDARD
350
18
  0
DICTIONARY
  5
19
102
{ACAD_REACTORS
330
C
102
}
330
C
100
AcDbDictionary
  0
DICTIONARY
  5
2A
102
{ACAD_REACTORS
330
C
102
}
330
C
100
AcDbDictionary
  3
2DWIREFRAME
350
2F
  3
3D_HIDDEN
350
31
  3
3DWIREFRAME
350
30
  3
BASIC
350
32
  3
BRIGHTEN
350
36
  3
COLORCHANGE
350
3A
  3
CONCEPTUAL
350
34
  3
DIM
350
35
  3
FACEPATTERN
350
39
  3
FLAT
350
2B
  3
FLATWITHEDGES
350
2C
  3
GOURAUD
350
2D
  3
GOURAUDWITHEDGES
350
2E
  3
LINEPATTERN
350
38
  3
REALISTIC
350
33
  3
THICKEN
350
37
  0
DICTIONARY
  5
3C4
102
{ACAD_REACTORS
330
C
102
}
330
C
100
AcDbDictionary
  3
CEPSNTYPE
350
3CD
  3
DIMSTYLEDATA
350
3E3
  3
FINGERPRINTGUID
350
3CE
  3
HYPERLINKBASE
350
3C7
  3
INSUNITS
350
3CC
  3
LAYOUTDICT
350
3C9
  3
LWETCUNION
350
3CB
  3
PLOTSETDICT
350
3CA
  3
PSVPSCALE
350
3D0
  3
PUCSBASE
350
3D3
  3
PUCSORGBACK
350
3D9
  3
PUCSORGBOTTOM
350
3D5
  3
PUCSORGFRONT
350
3D8
  3
PUCSORGLEFT
350
3D6
  3
PUCSORGRIGHT
350
3D7
  3
PUCSORGTOP
350
3D4
  3
PUCSORTHOREF
350
3D1
  3
PUCSORTHOVIEW
350
3D2
  3
STYLESHEET
350
3C8
  3
TSTACKALIGN
350
3C5
  3
TSTACKSIZE
350
3C6
  3
UCSBASE
350
3DC
  3
UCSORGBACK
350
3E2
  3
UCSORGBOTTOM
350
3DE
  3
UCSORGFRONT
350
3E1
  3
UCSORGLEFT
350
3DF
  3
UCSORGRIGHT
350
3E0
  3
UCSORGTOP
350
3DD
  3
UCSORTHOREF
350
3DA
  3
UCSORTHOVIEW
350
3DB
  3
VERSIONGUID
350
3CF
  0
DICTIONARY
  5
3E4
102
{ACAD_REACTORS
330
C
102
}
330
C
100
AcDbDictionary
  3
DIMASSOC
350
3E9
  3
HIDETEXT
350
3EA
  3
PSOLHEIGHT
350
3E8
  3
PSOLWIDTH
350
3E7
  0
MATERIAL
  5
3D
102
{ACAD_REACTORS
330
3B
102
}
102
{ACAD_XDICTIONARY
360
3ED
102
}
330
3B
100
AcDbMaterial
  1
ByBlock
  0
MATERIAL
  5
3C
102
{ACAD_REACTORS
330
3B
102
}
102
{ACAD_XDICTIONARY
360
3EB
102
}
330
3B
100
AcDbMaterial
  1
ByLayer
  0
MATERIAL
  5
3E
102
{ACAD_REACTORS
330
3B
102
}
102
{ACAD_XDICTIONARY
360
3EF
102
}
330
3B
100
AcDbMaterial
  1
Global
  0
MLINESTYLE
  5
18
102
{ACAD_REACTORS
330
17
102
}
330
17
100
AcDbMlineStyle
  2
Standard
 70
     0
  3

 62
   256
 51
90.0
 52
90.0
 71
     2
 49
0.5
 62
   256
  6
BYLAYER
 49
-0.5
 62
   256
  6
BYLAYER
  0
ACAD_PROXY_OBJECT
  5
2F
102
{ACAD_REACTORS
330
2A
102
}
330
2A
100
AcDbProxyObject
 90
      499
 91
      501
 93
      436
310
42CC9915DA5C99599C985B595049028333333333333E3BF0000000000000FB0107901411070040501600405405064090741402480A0340
1001
ACAD
1000
AcDbSavedByObjectVersion
1070
     0
  0
ACAD_PROXY_OBJECT
  5
31
102
{ACAD_REACTORS
330
2A
102
}
330
2A
100
AcDbProxyObject
 90
      499
 91
      501
 93
      500
310
424CD108121A5919195B90640502408333333333333E3BF0000000000000FB01079024090700405020000000000001110200405405064090740C02480A0340
1001
ACAD
1000
AcDbSavedByObjectVersion
1070
     0
  0
ACAD_PROXY_OBJECT
  5
30
102
{ACAD_REACTORS
330
2A
102
}
330
2A
100
AcDbProxyObject
 90
      499
 91
      501
 93
      436
310
42CCD915DA5C99599C985B595059028333333333333E3BF0000000000000FB0107901411070040501600405405064090741402480A0340
1001
ACAD
1000
AcDbSavedByObjectVersion
1070
     0
  0
ACAD_PROXY_OBJECT
  5
32
102
{ACAD_REACTORS
330
2A
102
}
330
2A
100
AcDbProxyObject
 90
      499
 91
      501
 93
      388
310
4150985CDA58D07406404333333333333E3BF0000000000000FB0107A41107004050150841D405064090741402480A0350
1001
ACAD
1000
AcDbSavedByObjectVersion
1070
     0
  0
ACAD_PROXY_OBJECT
  5
36
102
{ACAD_REACTORS
330
2A
102
}
330
2A
100
AcDbProxyObject
 90
      499
 91
      501
 93
      428
310
42109C9A59DA1D195B90C409028333333333333E3BF0000000000000FB010790141107004050150841D405064090741402480A029950
1001
ACAD
1000
AcDbSavedByObjectVersion
1070
     0
  0
ACAD_PROXY_OBJECT
  5
3A
102
{ACAD_REACTORS
330
2A
102
}
330
2A
100
AcDbProxyObject
 90
      499
 91
      501
 93
      452
310
42D0DBDB1BDC90DA185B99D95104090240C333333333333E3BF0000000000000FB0108901411070040501508421405064090741402480A0350
1001
ACAD
1000
AcDbSavedByObjectVersion
1070
     0
  0
ACAD_PROXY_OBJECT
  5
34
102
{ACAD_REACTORS
330
2A
102
}
330
2A
100
AcDbProxyObject
 90
      499
 91
      501
 93
      500
310
4290DBDB98D95C1D1D585B10940D028333333333333E3BF0000000000000FB0107902409070040501000000000000111010841D405064090740C02480A0340
1001
ACAD
1000
AcDbSavedByObjectVersion
1070
     0
  0
ACAD_PROXY_OBJECT
  5
35
102
{ACAD_REACTORS
330
2A
102
}
330
2A
100
AcDbProxyObject
 90
      499
 91
      501
 93
      412
310
40D11A5B50B409028333333333333E3BF0000000000000FB010790141107004050150841D405064090741402480A02677FFFFFD0
1001
ACAD
1000
AcDbSavedByObjectVersion
1070
     0
  0
ACAD_PROXY_OBJECT
  5
39
102
{ACAD_REACTORS
330
2A
102
}
330
2A
100
AcDbProxyObject
 90
      499
 91
      501
 93
      444
310
42D19858D95C185D1D195C9B90F409028333333333333E3BF0000000000000FB010790141107004050150841D405064090741402480A0350
1001
ACAD
1000
AcDbSavedByObjectVersion
1070
     0
  0
ACAD_PROXY_OBJECT
  5
2B
102
{ACAD_REACTORS
330
2A
102
}
330
2A
100
AcDbProxyObject
 90
      499
 91
      501
 93
      388
310
41119B185D240901404333333333333E3BF0000000000000F9010740A41107004050150841D405064090741402480A1B50
1001
ACAD
1000
AcDbSavedByObjectVersion
1070
     0
  0
ACAD_PROXY_OBJECT
  5
2C
102
{ACAD_REACTORS
330
2A
102
}
330
2A
100
AcDbProxyObject
 90
      499
 91
      501
 93
      476
310
43519B185D15DA5D1A115919D95CD0140901404333333333333E3BF0000000000000F9010740901411070040501600405405064090741402480A1B50
1001
ACAD
1000
AcDbSavedByObjectVersion
1070
     0
  0
ACAD_PROXY_OBJECT
  5
2D
102
{ACAD_REACTORS
330
2A
102
}
330
2A
100
AcDbProxyObject
 90
      499
 91
      501
 93
      412
310
41D1DBDD5C985D5910240902404333333333333E3BF0000000000000F9010740A411070040501641D405064090741402480A1B50
1001
ACAD
1000
AcDbSavedByObjectVersion
1070
     0
  0
ACAD_PROXY_OBJECT
  5
2E
102
{ACAD_REACTORS
330
2A
102
}
330
2A
100
AcDbProxyObject
 90
      499
 91
      501
 93
      500
310
4411DBDD5C985D5915DA5D1A115919D95CD0340902404333333333333E3BF0000000000000F9010740901411070040501600405405064090741402480A1B50
1001
ACAD
1000
AcDbSavedByObjectVersion
1070
     0
  0
ACAD_PROXY_OBJECT
  5
38
102
{ACAD_REACTORS
330
2A
102
}
330
2A
100
AcDbProxyObject
 90
      499
 91
      501
 93
      444
310
42D31A5B995C185D1D195C9B90E409028333333333333E3BF0000000000000FB010790141107004050750841D405064090741402483A0350
1001
ACAD
1000
AcDbSavedByObjectVersion
1070
     0
  0
ACAD_PROXY_OBJECT
  5
33
102
{ACAD_REACTORS
330
2A
102
}
330
2A
100
AcDbProxyObject
 90
      499
 91
      501
 93
      420
310
425499585B1A5CDD1A58D08409028333333333333E3BF0000000000000FB01079019070040501508421405064090741402480A1B40
1001
ACAD
1000
AcDbSavedByObjectVersion
1070
     0
  0
ACAD_PROXY_OBJECT
  5
37
102
{ACAD_REACTORS
330
2A
102
}
330
2A
100
AcDbProxyObject
 90
      499
 91
      501
 93
      412
310
41D51A1A58DAD95B90D409028333333333333E3BF0000000000000FB010790141107004050150C41D405064090741402480A0350
1001
ACAD
1000
AcDbSavedByObjectVersion
1070
     0
  0
XRECORD
  5
3CD
102
{ACAD_REACTORS
330
3C4
102
}
330
3C4
100
AcDbXrecord
 90
        0
  0
XRECORD
  5
3E3
102
{ACAD_REACTORS
330
3C4
102
}
330
3C4
100
AcDbXrecord
1000
DSTYLE
1002
{
1070
    41
 40
3.0
1070
   340
340
11
1070
   140
 40
1.22550817624347
1002
}
  0
XRECORD
  5
3CE
102
{ACAD_REACTORS
330
3C4
102
}
330
3C4
100
AcDbXrecord
  1
{802C84D3-5F40-497C-AFCB-70C61F38B911}
  0
XRECORD
  5
3C7
102
{ACAD_REACTORS
330
3C4
102
}
330
3C4
100
AcDbXrecord
  1

  0
XRECORD
  5
3CC
102
{ACAD_REACTORS
330
3C4
102
}
330
3C4
100
AcDbXrecord
 90
        4
  0
XRECORD
  5
3C9
102
{ACAD_REACTORS
330
3C4
102
}
330
3C4
100
AcDbXrecord
340
1A
  0
XRECORD
  5
3CB
102
{ACAD_REACTORS
330
3C4
102
}
330
3C4
100
AcDbXrecord
 90
    10781
  0
XRECORD
  5
3CA
102
{ACAD_REACTORS
330
3C4
102
}
330
3C4
100
AcDbXrecord
340
19
  0
XRECORD
  5
3D0
102
{ACAD_REACTORS
330
3C4
102
}
330
3C4
100
AcDbXrecord
 40
0.0
  0
XRECORD
  5
3D3
102
{ACAD_REACTORS
330
3C4
102
}
330
3C4
100
AcDbXrecord
340
0
  0
XRECORD
  5
3D9
102
{ACAD_REACTORS
330
3C4
102
}
330
3C4
100
AcDbXrecord
 10
0.0
 20
0.0
 30
0.0
  0
XRECORD
  5
3D5
102
{ACAD_REACTORS
330
3C4
102
}
330
3C4
100
AcDbXrecord
 10
0.0
 20
0.0
 30
0.0
  0
XRECORD
  5
3D8
102
{ACAD_REACTORS
330
3C4
102
}
330
3C4
100
AcDbXrecord
 10
0.0
 20
0.0
 30
0.0
  0
XRECORD
  5
3D6
102
{ACAD_REACTORS
330
3C4
102
}
330
3C4
100
AcDbXrecord
 10
0.0
 20
0.0
 30
0.0
  0
XRECORD
  5
3D7
102
{ACAD_REACTORS
330
3C4
102
}
330
3C4
100
AcDbXrecord
 10
0.0
 20
0.0
 30
0.0
  0
XRECORD
  5
3D4
102
{ACAD_REACTORS
330
3C4
102
}
330
3C4
100
AcDbXrecord
 10
0.0
 20
0.0
 30
0.0
  0
XRECORD
  5
3D1
102
{ACAD_REACTORS
330
3C4
102
}
330
3C4
100
AcDbXrecord
340
0
  0
XRECORD
  5
3D2
102
{ACAD_REACTORS
330
3C4
102
}
330
3C4
100
AcDbXrecord
 70
     0
  0
XRECORD
  5
3C8
102
{ACAD_REACTORS
330
3C4
102
}
330
3C4
100
AcDbXrecord
  1

  0
XRECORD
  5
3C5
102
{ACAD_REACTORS
330
3C4
102
}
330
3C4
100
AcDbXrecord
 90
        1
  0
XRECORD
  5
3C6
102
{ACAD_REACTORS
330
3C4
102
}
330
3C4
100
AcDbXrecord
 90
       70
  0
XRECORD
  5
3DC
102
{ACAD_REACTORS
330
3C4
102
}
330
3C4
100
AcDbXrecord
340
0
  0
XRECORD
  5
3E2
102
{ACAD_REACTORS
330
3C4
102
}
330
3C4
100
AcDbXrecord
 10
0.0
 20
0.0
 30
0.0
  0
XRECORD
  5
3DE
102
{ACAD_REACTORS
330
3C4
102
}
330
3C4
100
AcDbXrecord
 10
0.0
 20
0.0
 30
0.0
  0
XRECORD
  5
3E1
102
{ACAD_REACTORS
330
3C4
102
}
330
3C4
100
AcDbXrecord
 10
0.0
 20
0.0
 30
0.0
  0
XRECORD
  5
3DF
102
{ACAD_REACTORS
330
3C4
102
}
330
3C4
100
AcDbXrecord
 10
0.0
 20
0.0
 30
0.0
  0
XRECORD
  5
3E0
102
{ACAD_REACTORS
330
3C4
102
}
330
3C4
100
AcDbXrecord
 10
0.0
 20
0.0
 30
0.0
  0
XRECORD
  5
3DD
102
{ACAD_REACTORS
330
3C4
102
}
330
3C4
100
AcDbXrecord
 10
0.0
 20
0.0
 30
0.0
  0
XRECORD
  5
3DA
102
{ACAD_REACTORS
330
3C4
102
}
330
3C4
100
AcDbXrecord
340
0
  0
XRECORD
  5
3DB
102
{ACAD_REACTORS
330
3C4
102
}
330
3C4
100
AcDbXrecord
 70
     0
  0
XRECORD
  5
3CF
102
{ACAD_REACTORS
330
3C4
102
}
330
3C4
100
AcDbXrecord
  1
{FAEB1C32-E019-11D5-929B-00C0DF256EC4}
  0
DICTIONARYVAR
  5
3E9
102
{ACAD_REACTORS
330
3E4
102
}
330
3E4
100
DictionaryVariables
280
     0
  1
2
  0
DICTIONARYVAR
  5
3EA
102
{ACAD_REACTORS
330
3E4
102
}
330
3E4
100
DictionaryVariables
280
     0
  1
1
  0
DICTIONARYVAR
  5
3E8
102
{ACAD_REACTORS
330
3E4
102
}
330
3E4
100
DictionaryVariables
280
     0
  1
80.000000
  0
DICTIONARYVAR
  5
3E7
102
{ACAD_REACTORS
330
3E4
102
}
330
3E4
100
DictionaryVariables
280
     0
  1
5.000000
  0
DICTIONARY
  5
3ED
330
3D
100
AcDbDictionary
280
     1
  3
ACAD_XREC_ROUNDTRIP
360
3EE
  0
DICTIONARY
  5
3EB
330
3C
100
AcDbDictionary
280
     1
  3
ACAD_XREC_ROUNDTRIP
360
3EC
  0
DICTIONARY
  5
3EF
330
3E
100
AcDbDictionary
280
     1
  3
ACAD_XREC_ROUNDTRIP
360
3F0
  0
XRECORD
  5
3EE
102
{ACAD_REACTORS
330
3ED
102
}
330
3ED
100
AcDbXrecord
102
MATERIAL
148
0.0
149
0.0
149
0.0
 93
        0
 94
      127
282
     0
 72
     1
 77
     1
171
     1
175
     1
179
     1
273
     0
  0
XRECORD
  5
3EC
102
{ACAD_REACTORS
330
3EB
102
}
330
3EB
100
AcDbXrecord
102
MATERIAL
148
0.0
149
0.0
149
0.0
 93
        0
 94
      127
282
     0
 72
     1
 77
     1
171
     1
175
     1
179
     1
273
     0
  0
XRECORD
  5
3F0
102
{ACAD_REACTORS
330
3EF
102
}
330
3EF
100
AcDbXrecord
102
MATERIAL
148
0.0
149
0.0
149
0.0
 93
        0
 94
      127
282
     0
 72
     1
 77
     1
171
     1
175
     1
179
     1
273
     0
  0
ENDSEC
  0
EOF
