  0
SECTION
  2
HEADER
  9
$ACADVER
  1
AC1015
  9
$ACADMAINTVER
 70
     6
  9
$DWGCODEPAGE
  3
ANSI_1252
  9
$INSBASE
 10
0.0
 20
0.0
 30
0.0
  9
$EXTMIN
 10
1.000000000000000E+20
 20
1.000000000000000E+20
 30
1.000000000000000E+20
  9
$EXTMAX
 10
-1.000000000000000E+20
 20
-1.000000000000000E+20
 30
-1.000000000000000E+20
  9
$LIMMIN
 10
0.0
 20
0.0
  9
$LIMMAX
 10
420.0
 20
297.0
  9
$ORTHOMODE
 70
     0
  9
$REGENMODE
 70
     1
  9
$FILLMODE
 70
     1
  9
$QTEXTMODE
 70
     0
  9
$MIRRTEXT
 70
     1
  9
$LTSCALE
 40
1.0
  9
$ATTMODE
 70
     1
  9
$TEXTSIZE
 40
2.5
  9
$TRACEWID
 40
1.0
  9
$TEXTSTYLE
  7
Standard
  9
$CLAYER
  8
0
  9
$CELTYPE
  6
ByLayer
  9
$CECOLOR
 62
   256
  9
$CELTSCALE
 40
1.0
  9
$DISPSILH
 70
     0
  9
$DIMSCALE
 40
1.0
  9
$DIMASZ
 40
3.0
  9
$DIMEXO
 40
0.625
  9
$DIMDLI
 40
3.75
  9
$DIMRND
 40
0.0
  9
$DIMDLE
 40
0.0
  9
$DIMEXE
 40
1.25
  9
$DIMTP
 40
0.0
  9
$DIMTM
 40
0.0
  9
$DIMTXT
 40
1.22550817624347
  9
$DIMCEN
 40
2.5
  9
$DIMTSZ
 40
0.0
  9
$DIMTOL
 70
     0
  9
$DIMLIM
 70
     0
  9
$DIMTIH
 70
     0
  9
$DIMTOH
 70
     0
  9
$DIMSE1
 70
     0
  9
$DIMSE2
 70
     0
  9
$DIMTAD
 70
     1
  9
$DIMZIN
 70
     8
  9
$DIMBLK
  1

  9
$DIMASO
 70
     1
  9
$DIMSHO
 70
     1
  9
$DIMPOST
  1

  9
$DIMAPOST
  1

  9
$DIMALT
 70
     0
  9
$DIMALTD
 70
     3
  9
$DIMALTF
 40
0.03937007874016
  9
$DIMLFAC
 40
1.0
  9
$DIMTOFL
 70
     1
  9
$DIMTVP
 40
0.0
  9
$DIMTIX
 70
     0
  9
$DIMSOXD
 70
     0
  9
$DIMSAH
 70
     0
  9
$DIMBLK1
  1

  9
$DIMBLK2
  1

  9
$DIMSTYLE
  2
ISO-25
  9
$DIMCLRD
 70
     0
  9
$DIMCLRE
 70
     0
  9
$DIMCLRT
 70
     0
  9
$DIMTFAC
 40
1.0
  9
$DIMGAP
 40
0.625
  9
$DIMJUST
 70
     0
  9
$DIMSD1
 70
     0
  9
$DIMSD2
 70
     0
  9
$DIMTOLJ
 70
     0
  9
$DIMTZIN
 70
     8
  9
$DIMALTZ
 70
     0
  9
$DIMALTTZ
 70
     0
  9
$DIMUPT
 70
     0
  9
$DIMDEC
 70
     2
  9
$DIMTDEC
 70
     2
  9
$DIMALTU
 70
     2
  9
$DIMALTTD
 70
     3
  9
$DIMTXSTY
  7
Standard
  9
$DIMAUNIT
 70
     0
  9
$DIMADEC
 70
     0
  9
$DIMALTRND
 40
0.0
  9
$DIMAZIN
 70
     0
  9
$DIMDSEP
 70
    44
  9
$DIMATFIT
 70
     3
  9
$DIMFRAC
 70
     0
  9
$DIMLDRBLK
  1

  9
$DIMLUNIT
 70
     2
  9
$DIMLWD
 70
    -2
  9
$DIMLWE
 70
    -2
  9
$DIMTMOVE
 70
     0
  9
$LUNITS
 70
     2
  9
$LUPREC
 70
     4
  9
$SKETCHINC
 40
1.0
  9
$FILLETRAD
 40
10.0
  9
$AUNITS
 70
     0
  9
$AUPREC
 70
     0
  9
$MENU
  1
.
  9
$ELEVATION
 40
0.0
  9
$PELEVATION
 40
0.0
  9
$THICKNESS
 40
0.0
  9
$LIMCHECK
 70
     0
  9
$CHAMFERA
 40
10.0
  9
$CHAMFERB
 40
10.0
  9
$CHAMFERC
 40
20.0
  9
$CHAMFERD
 40
0.0
  9
$SKPOLY
 70
     0
  9
$TDCREATE
 40
2457214.601064641
  9
$TDUCREATE
 40
2457214.517731308
  9
$TDUPDATE
 40
2457214.601066412
  9
$TDUUPDATE
 40
2457214.517733079
  9
$TDINDWG
 40
0.0000000116
  9
$TDUSRTIMER
 40
0.0000000116
  9
$USRTIMER
 70
     1
  9
$ANGBASE
 50
0.0
  9
$ANGDIR
 70
     0
  9
$PDMODE
 70
     0
  9
$PDSIZE
 40
0.0
  9
$PLINEWID
 40
0.0
  9
$SPLFRAME
 70
     0
  9
$SPLINETYPE
 70
     6
  9
$SPLINESEGS
 70
     8
  9
$HANDSEED
  5
399
  9
$SURFTAB1
 70
     6
  9
$SURFTAB2
 70
     6
  9
$SURFTYPE
 70
     6
  9
$SURFU
 70
     6
  9
$SURFV
 70
     6
  9
$UCSBASE
  2

  9
$UCSNAME
  2

  9
$UCSORG
 10
0.0
 20
0.0
 30
0.0
  9
$UCSXDIR
 10
1.0
 20
0.0
 30
0.0
  9
$UCSYDIR
 10
0.0
 20
1.0
 30
0.0
  9
$UCSORTHOREF
  2

  9
$UCSORTHOVIEW
 70
     0
  9
$UCSORGTOP
 10
0.0
 20
0.0
 30
0.0
  9
$UCSORGBOTTOM
 10
0.0
 20
0.0
 30
0.0
  9
$UCSORGLEFT
 10
0.0
 20
0.0
 30
0.0
  9
$UCSORGRIGHT
 10
0.0
 20
0.0
 30
0.0
  9
$UCSORGFRONT
 10
0.0
 20
0.0
 30
0.0
  9
$UCSORGBACK
 10
0.0
 20
0.0
 30
0.0
  9
$PUCSBASE
  2

  9
$PUCSNAME
  2

  9
$PUCSORG
 10
0.0
 20
0.0
 30
0.0
  9
$PUCSXDIR
 10
1.0
 20
0.0
 30
0.0
  9
$PUCSYDIR
 10
0.0
 20
1.0
 30
0.0
  9
$PUCSORTHOREF
  2

  9
$PUCSORTHOVIEW
 70
     0
  9
$PUCSORGTOP
 10
0.0
 20
0.0
 30
0.0
  9
$PUCSORGBOTTOM
 10
0.0
 20
0.0
 30
0.0
  9
$PUCSORGLEFT
 10
0.0
 20
0.0
 30
0.0
  9
$PUCSORGRIGHT
 10
0.0
 20
0.0
 30
0.0
  9
$PUCSORGFRONT
 10
0.0
 20
0.0
 30
0.0
  9
$PUCSORGBACK
 10
0.0
 20
0.0
 30
0.0
  9
$USERI1
 70
     0
  9
$USERI2
 70
     0
  9
$USERI3
 70
     0
  9
$USERI4
 70
     0
  9
$USERI5
 70
     0
  9
$USERR1
 40
0.0
  9
$USERR2
 40
0.0
  9
$USERR3
 40
0.0
  9
$USERR4
 40
0.0
  9
$USERR5
 40
0.0
  9
$WORLDVIEW
 70
     1
  9
$SHADEDGE
 70
     3
  9
$SHADEDIF
 70
    70
  9
$TILEMODE
 70
     1
  9
$MAXACTVP
 70
    64
  9
$PINSBASE
 10
0.0
 20
0.0
 30
0.0
  9
$PLIMCHECK
 70
     0
  9
$PEXTMIN
 10
1.000000000000000E+20
 20
1.000000000000000E+20
 30
1.000000000000000E+20
  9
$PEXTMAX
 10
-1.000000000000000E+20
 20
-1.000000000000000E+20
 30
-1.000000000000000E+20
  9
$PLIMMIN
 10
0.0
 20
0.0
  9
$PLIMMAX
 10
420.0
 20
297.0
  9
$UNITMODE
 70
     0
  9
$VISRETAIN
 70
     1
  9
$PLINEGEN
 70
     0
  9
$PSLTSCALE
 70
     1
  9
$TREEDEPTH
 70
  3020
  9
$CMLSTYLE
  2
Standard
  9
$CMLJUST
 70
     0
  9
$CMLSCALE
 40
20.0
  9
$PROXYGRAPHICS
 70
     1
  9
$MEASUREMENT
 70
     1
  9
$CELWEIGHT
370
    -1
  9
$ENDCAPS
280
     0
  9
$JOINSTYLE
280
     0
  9
$LWDISPLAY
290
     0
  9
$INSUNITS
 70
     4
  9
$HYPERLINKBASE
  1

  9
$STYLESHEET
  1

  9
$XEDIT
290
     1
  9
$CEPSNTYPE
380
     0
  9
$PSTYLEMODE
290
     1
  9
$FINGERPRINTGUID
  2
{5DDEBBAB-8E8D-4127-95EF-245F9AF7A481}
  9
$VERSIONGUID
  2
{FAEB1C32-E019-11D5-929B-00C0DF256EC4}
  9
$EXTNAMES
290
     1
  9
$PSVPSCALE
 40
0.0
  9
$OLESTARTUP
290
     0
  0
ENDSEC
  0
SECTION
  2
CLASSES
  0
CLASS
  1
ACDBDICTIONARYWDFLT
  2
AcDbDictionaryWithDefault
  3
ObjectDBX Classes
 90
        0
280
     0
281
     0
  0
CLASS
  1
VISUALSTYLE
  2
AcDbVisualStyle
  3
ObjectDBX Classes
 90
     4095
280
     0
281
     0
  0
CLASS
  1
MATERIAL
  2
AcDbMaterial
  3
ObjectDBX Classes
 90
     1153
280
     0
281
     0
  0
CLASS
  1
DICTIONARYVAR
  2
AcDbDictionaryVar
  3
ObjectDBX Classes
 90
        0
280
     0
281
     0
  0
CLASS
  1
ACDBPLACEHOLDER
  2
AcDbPlaceHolder
  3
ObjectDBX Classes
 90
        0
280
     0
281
     0
  0
CLASS
  1
LAYOUT
  2
AcDbLayout
  3
ObjectDBX Classes
 90
        0
280
     0
281
     0
  0
ENDSEC
  0
SECTION
  2
TABLES
  0
TABLE
  2
VPORT
  5
8
330
0
100
AcDbSymbolTable
 70
     1
  0
VPORT
  5
29
330
8
100
AcDbSymbolTableRecord
100
AcDbViewportTableRecord
  2
*Active
 70
     0
 10
0.0
 20
0.0
 11
1.0
 21
1.0
 12
344.1869158878504
 22
148.5
 13
0.0
 23
0.0
 14
10.0
 24
10.0
 15
10.0
 25
10.0
 16
0.0
 26
0.0
 36
1.0
 17
0.0
 27
0.0
 37
0.0
 40
297.0
 41
1.972972972850329
 42
50.0
 43
0.0
 44
0.0
 50
0.0
 51
0.0
 71
     0
 72
   100
 73
     1
 74
     3
 75
     0
 76
     0
 77
     0
 78
     0
281
     0
 65
     1
110
0.0
120
0.0
130
0.0
111
1.0
121
0.0
131
0.0
112
0.0
122
1.0
132
0.0
 79
     0
146
0.0
  0
ENDTAB
  0
TABLE
  2
LTYPE
  5
5
330
0
100
AcDbSymbolTable
 70
     1
  0
LTYPE
  5
14
330
5
100
AcDbSymbolTableRecord
100
AcDbLinetypeTableRecord
  2
ByBlock
 70
     0
  3

 72
    65
 73
     0
 40
0.0
  0
LTYPE
  5
15
330
5
100
AcDbSymbolTableRecord
100
AcDbLinetypeTableRecord
  2
ByLayer
 70
     0
  3

 72
    65
 73
     0
 40
0.0
  0
LTYPE
  5
16
330
5
100
AcDbSymbolTableRecord
100
AcDbLinetypeTableRecord
  2
Continuous
 70
     0
  3
Solid line
 72
    65
 73
     0
 40
0.0
  0
ENDTAB
  0
TABLE
  2
LAYER
  5
2
330
0
100
AcDbSymbolTable
 70
     2
  0
LAYER
  5
10
330
2
100
AcDbSymbolTableRecord
100
AcDbLayerTableRecord
  2
0
 70
     0
 62
     7
  6
Continuous
370
    -3
390
F
  0
LAYER
  5
3F
330
2
100
AcDbSymbolTableRecord
100
AcDbLayerTableRecord
  2
VISIBLE
 70
     0
 62
     7
  6
Continuous
370
     0
390
F
  0
ENDTAB
  0
TABLE
  2
STYLE
  5
3
330
0
100
AcDbSymbolTable
 70
     1
  0
STYLE
  5
11
330
3
100
AcDbSymbolTableRecord
100
AcDbTextStyleTableRecord
  2
Standard
 70
     0
 40
0.0
 41
1.0
 50
0.0
 71
     0
 42
2.5
  3
txt
  4

  0
ENDTAB
  0
TABLE
  2
VIEW
  5
6
330
0
100
AcDbSymbolTable
 70
     0
  0
ENDTAB
  0
TABLE
  2
UCS
  5
7
330
0
100
AcDbSymbolTable
 70
     0
  0
ENDTAB
  0
TABLE
  2
APPID
  5
9
330
0
100
AcDbSymbolTable
 70
     1
  0
APPID
  5
12
330
9
100
AcDbSymbolTableRecord
100
AcDbRegAppTableRecord
  2
ACAD
 70
     0
  0
ENDTAB
  0
TABLE
  2
DIMSTYLE
  5
A
330
0
100
AcDbSymbolTable
 70
     1
100
AcDbDimStyleTable
  0
DIMSTYLE
105
27
330
A
100
AcDbSymbolTableRecord
100
AcDbDimStyleTableRecord
  2
ISO-25
 70
     0
 41
2.5
 42
0.625
 43
3.75
 44
1.25
 73
     0
 74
     0
 77
     1
 78
     8
140
2.5
141
2.5
143
0.03937007874016
147
0.625
171
     3
172
     1
178
     0
271
     2
272
     2
274
     3
278
    44
283
     0
284
     8
340
11
  0
ENDTAB
  0
TABLE
  2
BLOCK_RECORD
  5
1
330
0
100
AcDbSymbolTable
 70
     1
  0
BLOCK_RECORD
  5
1F
330
1
100
AcDbSymbolTableRecord
100
AcDbBlockTableRecord
  2
*Model_Space
340
22
  0
BLOCK_RECORD
  5
1B
330
1
100
AcDbSymbolTableRecord
100
AcDbBlockTableRecord
  2
*Paper_Space
340
1E
  0
BLOCK_RECORD
  5
23
330
1
100
AcDbSymbolTableRecord
100
AcDbBlockTableRecord
  2
*Paper_Space0
340
26
  0
ENDTAB
  0
ENDSEC
  0
SECTION
  2
BLOCKS
  0
BLOCK
  5
20
330
1F
100
AcDbEntity
  8
0
100
AcDbBlockBegin
  2
*Model_Space
 70
     0
 10
0.0
 20
0.0
 30
0.0
  3
*Model_Space
  1

  0
ENDBLK
  5
21
330
1F
100
AcDbEntity
  8
0
100
AcDbBlockEnd
  0
BLOCK
  5
1C
330
1B
100
AcDbEntity
 67
     1
  8
0
100
AcDbBlockBegin
  2
*Paper_Space
 70
     0
 10
0.0
 20
0.0
 30
0.0
  3
*Paper_Space
  1

  0
ENDBLK
  5
1D
330
1B
100
AcDbEntity
 67
     1
  8
0
100
AcDbBlockEnd
  0
BLOCK
  5
24
330
23
100
AcDbEntity
  8
0
100
AcDbBlockBegin
  2
*Paper_Space0
 70
     0
 10
0.0
 20
0.0
 30
0.0
  3
*Paper_Space0
  1

  0
ENDBLK
  5
25
330
23
100
AcDbEntity
  8
0
100
AcDbBlockEnd
  0
ENDSEC
  0
SECTION
  2
ENTITIES
  0
CIRCLE
  5
40
330
1F
100
AcDbEntity
  8
VISIBLE
100
AcDbCircle
 10
533.277473449707
 20
977.78742980957
 30
0.0
 40
2.0
  0
CIRCLE
  5
41
330
1F
100
AcDbEntity
  8
VISIBLE
100
AcDbCircle
 10
453.277473449707
 20
1057.78742980957
 30
0.0
 40
2.0
  0
LINE
  5
42
330
1F
100
AcDbEntity
  8
VISIBLE
100
AcDbLine
 10
448.277473449707
 20
915.28742980957
 30
0.0
 11
448.277473449707
 21
910.28742980957
 31
0.0
  0
LINE
  5
43
330
1F
100
AcDbEntity
  8
VISIBLE
100
AcDbLine
 10
640.777473449707
 20
915.28742980957
 30
0.0
 11
658.277473449707
 21
915.28742980957
 31
0.0
  0
LINE
  5
44
330
1F
100
AcDbEntity
  8
VISIBLE
100
AcDbLine
 10
635.777473449707
 20
1142.78742980957
 30
0.0
 11
640.777473449707
 21
1142.78742980957
 31
0.0
  0
LINE
  5
45
330
1F
100
AcDbEntity
  8
VISIBLE
100
AcDbLine
 10
553.277473449707
 20
1020.28742980957
 30
0.0
 11
553.277473449707
 21
1015.28742980957
 31
0.0
  0
CIRCLE
  5
46
330
1F
100
AcDbEntity
  8
VISIBLE
100
AcDbCircle
 10
573.277473449707
 20
937.78742980957
 30
0.0
 40
2.0
  0
LINE
  5
47
330
1F
100
AcDbEntity
  8
VISIBLE
100
AcDbLine
 10
618.277473449707
 20
1125.28742980957
 30
0.0
 11
635.777473449707
 21
1125.28742980957
 31
0.0
  0
LINE
  5
48
330
1F
100
AcDbEntity
  8
VISIBLE
100
AcDbLine
 10
635.777473449707
 20
1120.28742980957
 30
0.0
 11
618.277473449707
 21
1120.28742980957
 31
0.0
  0
LINE
  5
49
330
1F
100
AcDbEntity
  8
VISIBLE
100
AcDbLine
 10
425.777473449707
 20
1102.78742980957
 30
0.0
 11
425.777473449707
 21
1120.28742980957
 31
0.0
  0
CIRCLE
  5
4A
330
1F
100
AcDbEntity
  8
VISIBLE
100
AcDbCircle
 10
573.277473449707
 20
1017.78742980957
 30
0.0
 40
2.0
  0
LINE
  5
4B
330
1F
100
AcDbEntity
  8
VISIBLE
100
AcDbLine
 10
425.777473449707
 20
1142.78742980957
 30
0.0
 11
430.777473449707
 21
1142.78742980957
 31
0.0
  0
CIRCLE
  5
4C
330
1F
100
AcDbEntity
  8
VISIBLE
100
AcDbCircle
 10
533.277473449707
 20
937.78742980957
 30
0.0
 40
2.0
  0
LINE
  5
4D
330
1F
100
AcDbEntity
  8
VISIBLE
100
AcDbLine
 10
448.277473449707
 20
1125.28742980957
 30
0.0
 11
448.277473449707
 21
1120.28742980957
 31
0.0
  0
CIRCLE
  5
4E
330
1F
100
AcDbEntity
  8
VISIBLE
100
AcDbCircle
 10
613.277473449707
 20
977.78742980957
 30
0.0
 40
2.0
  0
LINE
  5
4F
330
1F
100
AcDbEntity
  8
VISIBLE
100
AcDbLine
 10
640.777473449707
 20
892.78742980957
 30
0.0
 11
635.777473449707
 21
892.78742980957
 31
0.0
  0
CIRCLE
  5
50
330
1F
100
AcDbEntity
  8
VISIBLE
100
AcDbCircle
 10
533.277473449707
 20
1097.78742980957
 30
0.0
 40
2.0
  0
LINE
  5
51
330
1F
100
AcDbEntity
  8
VISIBLE
100
AcDbLine
 10
640.777473449707
 20
1125.28742980957
 30
0.0
 11
658.277473449707
 21
1125.28742980957
 31
0.0
  0
LINE
  5
52
330
1F
100
AcDbEntity
  8
VISIBLE
100
AcDbLine
 10
688.277473449707
 20
997.78742980957
 30
0.0
 11
688.277473449707
 21
862.78742980957
 31
0.0
  0
LINE
  5
53
330
1F
100
AcDbEntity
  8
VISIBLE
100
AcDbLine
 10
430.777473449707
 20
1142.78742980957
 30
0.0
 11
430.777473449707
 21
1125.28742980957
 31
0.0
  0
CIRCLE
  5
54
330
1F
100
AcDbEntity
  8
VISIBLE
100
AcDbCircle
 10
493.277473449707
 20
977.78742980957
 30
0.0
 40
2.0
  0
LINE
  5
55
330
1F
100
AcDbEntity
  8
VISIBLE
100
AcDbLine
 10
373.277473449707
 20
1037.78742980957
 30
0.0
 11
378.277473449707
 21
1037.78742980957
 31
0.0
  0
LINE
  5
56
330
1F
100
AcDbEntity
  8
VISIBLE
100
AcDbLine
 10
635.777473449707
 20
932.78742980957
 30
0.0
 11
640.777473449707
 21
932.78742980957
 31
0.0
  0
LINE
  5
57
330
1F
100
AcDbEntity
  8
VISIBLE
100
AcDbLine
 10
635.777473449707
 20
892.78742980957
 30
0.0
 11
635.777473449707
 21
910.28742980957
 31
0.0
  0
LINE
  5
58
330
1F
100
AcDbEntity
  8
VISIBLE
100
AcDbLine
 10
688.277473449707
 20
1172.78742980957
 30
0.0
 11
688.277473449707
 21
1037.78742980957
 31
0.0
  0
LINE
  5
59
330
1F
100
AcDbEntity
  8
VISIBLE
100
AcDbLine
 10
448.277473449707
 20
910.28742980957
 30
0.0
 11
430.777473449707
 21
910.28742980957
 31
0.0
  0
CIRCLE
  5
5A
330
1F
100
AcDbEntity
  8
VISIBLE
100
AcDbCircle
 10
613.277473449707
 20
937.78742980957
 30
0.0
 40
2.0
  0
CIRCLE
  5
5B
330
1F
100
AcDbEntity
  8
VISIBLE
100
AcDbCircle
 10
493.277473449707
 20
937.78742980957
 30
0.0
 40
2.0
  0
LINE
  5
5C
330
1F
100
AcDbEntity
  8
VISIBLE
100
AcDbLine
 10
373.277473449707
 20
997.78742980957
 30
0.0
 11
373.277473449707
 21
1037.78742980957
 31
0.0
  0
LINE
  5
5D
330
1F
100
AcDbEntity
  8
VISIBLE
100
AcDbLine
 10
640.777473449707
 20
910.28742980957
 30
0.0
 11
640.777473449707
 21
892.78742980957
 31
0.0
  0
LINE
  5
5E
330
1F
100
AcDbEntity
  8
VISIBLE
100
AcDbLine
 10
378.277473449707
 20
862.78742980957
 30
0.0
 11
378.277473449707
 21
997.78742980957
 31
0.0
  0
CIRCLE
  5
5F
330
1F
100
AcDbEntity
  8
VISIBLE
100
AcDbCircle
 10
493.277473449707
 20
1017.78742980957
 30
0.0
 40
2.0
  0
LINE
  5
60
330
1F
100
AcDbEntity
  8
VISIBLE
100
AcDbLine
 10
553.277473449707
 20
1172.78742980957
 30
0.0
 11
688.277473449707
 21
1172.78742980957
 31
0.0
  0
LINE
  5
61
330
1F
100
AcDbEntity
  8
VISIBLE
100
AcDbLine
 10
378.277473449707
 20
1037.78742980957
 30
0.0
 11
378.277473449707
 21
1172.78742980957
 31
0.0
  0
LINE
  5
62
330
1F
100
AcDbEntity
  8
VISIBLE
100
AcDbLine
 10
693.277473449707
 20
997.78742980957
 30
0.0
 11
688.277473449707
 21
997.78742980957
 31
0.0
  0
CIRCLE
  5
63
330
1F
100
AcDbEntity
  8
VISIBLE
100
AcDbCircle
 10
613.277473449707
 20
1097.78742980957
 30
0.0
 40
2.0
  0
CIRCLE
  5
64
330
1F
100
AcDbEntity
  8
VISIBLE
100
AcDbCircle
 10
493.277473449707
 20
1097.78742980957
 30
0.0
 40
2.0
  0
LINE
  5
65
330
1F
100
AcDbEntity
  8
VISIBLE
100
AcDbLine
 10
425.777473449707
 20
892.78742980957
 30
0.0
 11
425.777473449707
 21
910.28742980957
 31
0.0
  0
LINE
  5
66
330
1F
100
AcDbEntity
  8
VISIBLE
100
AcDbLine
 10
553.277473449707
 20
1015.28742980957
 30
0.0
 11
535.777473449707
 21
1015.28742980957
 31
0.0
  0
LINE
  5
67
330
1F
100
AcDbEntity
  8
VISIBLE
100
AcDbLine
 10
513.277473449707
 20
1177.78742980957
 30
0.0
 11
553.277473449707
 21
1177.78742980957
 31
0.0
  0
LINE
  5
68
330
1F
100
AcDbEntity
  8
VISIBLE
100
AcDbLine
 10
448.277473449707
 20
1120.28742980957
 30
0.0
 11
430.777473449707
 21
1120.28742980957
 31
0.0
  0
LINE
  5
69
330
1F
100
AcDbEntity
  8
VISIBLE
100
AcDbLine
 10
618.277473449707
 20
1120.28742980957
 30
0.0
 11
618.277473449707
 21
1125.28742980957
 31
0.0
  0
LINE
  5
6A
330
1F
100
AcDbEntity
  8
VISIBLE
100
AcDbLine
 10
693.277473449707
 20
1037.78742980957
 30
0.0
 11
693.277473449707
 21
997.78742980957
 31
0.0
  0
CIRCLE
  5
6B
330
1F
100
AcDbEntity
  8
VISIBLE
100
AcDbCircle
 10
453.277473449707
 20
977.78742980957
 30
0.0
 40
2.0
  0
CIRCLE
  5
6C
330
1F
100
AcDbEntity
  8
VISIBLE
100
AcDbCircle
 10
453.277473449707
 20
1097.78742980957
 30
0.0
 40
2.0
  0
LINE
  5
6D
330
1F
100
AcDbEntity
  8
VISIBLE
100
AcDbLine
 10
530.777473449707
 20
1037.78742980957
 30
0.0
 11
535.777473449707
 21
1037.78742980957
 31
0.0
  0
CIRCLE
  5
6E
330
1F
100
AcDbEntity
  8
VISIBLE
100
AcDbCircle
 10
573.277473449707
 20
1057.78742980957
 30
0.0
 40
2.0
  0
LINE
  5
6F
330
1F
100
AcDbEntity
  8
VISIBLE
100
AcDbLine
 10
535.777473449707
 20
997.78742980957
 30
0.0
 11
530.777473449707
 21
997.78742980957
 31
0.0
  0
LINE
  5
70
330
1F
100
AcDbEntity
  8
VISIBLE
100
AcDbLine
 10
430.777473449707
 20
1120.28742980957
 30
0.0
 11
430.777473449707
 21
1102.78742980957
 31
0.0
  0
LINE
  5
71
330
1F
100
AcDbEntity
  8
VISIBLE
100
AcDbLine
 10
430.777473449707
 20
915.28742980957
 30
0.0
 11
448.277473449707
 21
915.28742980957
 31
0.0
  0
LINE
  5
72
330
1F
100
AcDbEntity
  8
VISIBLE
100
AcDbLine
 10
618.277473449707
 20
910.28742980957
 30
0.0
 11
618.277473449707
 21
915.28742980957
 31
0.0
  0
CIRCLE
  5
73
330
1F
100
AcDbEntity
  8
VISIBLE
100
AcDbCircle
 10
613.277473449707
 20
1017.78742980957
 30
0.0
 40
2.0
  0
LINE
  5
74
330
1F
100
AcDbEntity
  8
VISIBLE
100
AcDbLine
 10
535.777473449707
 20
1015.28742980957
 30
0.0
 11
535.777473449707
 21
997.78742980957
 31
0.0
  0
CIRCLE
  5
75
330
1F
100
AcDbEntity
  8
VISIBLE
100
AcDbCircle
 10
453.277473449707
 20
1017.78742980957
 30
0.0
 40
2.0
  0
LINE
  5
76
330
1F
100
AcDbEntity
  8
VISIBLE
100
AcDbLine
 10
513.277473449707
 20
1015.28742980957
 30
0.0
 11
513.277473449707
 21
1020.28742980957
 31
0.0
  0
CIRCLE
  5
77
330
1F
100
AcDbEntity
  8
VISIBLE
100
AcDbCircle
 10
613.277473449707
 20
1057.78742980957
 30
0.0
 40
2.0
  0
LINE
  5
78
330
1F
100
AcDbEntity
  8
VISIBLE
100
AcDbLine
 10
513.277473449707
 20
1020.28742980957
 30
0.0
 11
530.777473449707
 21
1020.28742980957
 31
0.0
  0
CIRCLE
  5
79
330
1F
100
AcDbEntity
  8
VISIBLE
100
AcDbCircle
 10
573.277473449707
 20
977.78742980957
 30
0.0
 40
2.0
  0
LINE
  5
7A
330
1F
100
AcDbEntity
  8
VISIBLE
100
AcDbLine
 10
635.777473449707
 20
1102.78742980957
 30
0.0
 11
635.777473449707
 21
1120.28742980957
 31
0.0
  0
LINE
  5
7B
330
1F
100
AcDbEntity
  8
VISIBLE
100
AcDbLine
 10
378.277473449707
 20
997.78742980957
 30
0.0
 11
373.277473449707
 21
997.78742980957
 31
0.0
  0
LINE
  5
7C
330
1F
100
AcDbEntity
  8
VISIBLE
100
AcDbLine
 10
425.777473449707
 20
1125.28742980957
 30
0.0
 11
425.777473449707
 21
1142.78742980957
 31
0.0
  0
LINE
  5
7D
330
1F
100
AcDbEntity
  8
VISIBLE
100
AcDbLine
 10
535.777473449707
 20
1020.28742980957
 30
0.0
 11
553.277473449707
 21
1020.28742980957
 31
0.0
  0
LINE
  5
7E
330
1F
100
AcDbEntity
  8
VISIBLE
100
AcDbLine
 10
618.277473449707
 20
915.28742980957
 30
0.0
 11
635.777473449707
 21
915.28742980957
 31
0.0
  0
LINE
  5
7F
330
1F
100
AcDbEntity
  8
VISIBLE
100
AcDbLine
 10
688.277473449707
 20
862.78742980957
 30
0.0
 11
378.277473449707
 21
862.78742980957
 31
0.0
  0
LINE
  5
80
330
1F
100
AcDbEntity
  8
VISIBLE
100
AcDbLine
 10
430.777473449707
 20
932.78742980957
 30
0.0
 11
430.777473449707
 21
915.28742980957
 31
0.0
  0
LINE
  5
81
330
1F
100
AcDbEntity
  8
VISIBLE
100
AcDbLine
 10
513.277473449707
 20
1172.78742980957
 30
0.0
 11
513.277473449707
 21
1177.78742980957
 31
0.0
  0
LINE
  5
82
330
1F
100
AcDbEntity
  8
VISIBLE
100
AcDbLine
 10
635.777473449707
 20
915.28742980957
 30
0.0
 11
635.777473449707
 21
932.78742980957
 31
0.0
  0
LINE
  5
83
330
1F
100
AcDbEntity
  8
VISIBLE
100
AcDbLine
 10
553.277473449707
 20
1177.78742980957
 30
0.0
 11
553.277473449707
 21
1172.78742980957
 31
0.0
  0
LINE
  5
84
330
1F
100
AcDbEntity
  8
VISIBLE
100
AcDbLine
 10
658.277473449707
 20
915.28742980957
 30
0.0
 11
658.277473449707
 21
910.28742980957
 31
0.0
  0
CIRCLE
  5
85
330
1F
100
AcDbEntity
  8
VISIBLE
100
AcDbCircle
 10
533.277473449707
 20
1057.78742980957
 30
0.0
 40
2.0
  0
LINE
  5
86
330
1F
100
AcDbEntity
  8
VISIBLE
100
AcDbLine
 10
635.777473449707
 20
910.28742980957
 30
0.0
 11
618.277473449707
 21
910.28742980957
 31
0.0
  0
LINE
  5
87
330
1F
100
AcDbEntity
  8
VISIBLE
100
AcDbLine
 10
530.777473449707
 20
1020.28742980957
 30
0.0
 11
530.777473449707
 21
1037.78742980957
 31
0.0
  0
LINE
  5
88
330
1F
100
AcDbEntity
  8
VISIBLE
100
AcDbLine
 10
635.777473449707
 20
1125.28742980957
 30
0.0
 11
635.777473449707
 21
1142.78742980957
 31
0.0
  0
LINE
  5
89
330
1F
100
AcDbEntity
  8
VISIBLE
100
AcDbLine
 10
688.277473449707
 20
1037.78742980957
 30
0.0
 11
693.277473449707
 21
1037.78742980957
 31
0.0
  0
LINE
  5
8A
330
1F
100
AcDbEntity
  8
VISIBLE
100
AcDbLine
 10
378.277473449707
 20
1172.78742980957
 30
0.0
 11
513.277473449707
 21
1172.78742980957
 31
0.0
  0
LINE
  5
8B
330
1F
100
AcDbEntity
  8
VISIBLE
100
AcDbLine
 10
425.777473449707
 20
1120.28742980957
 30
0.0
 11
408.277473449707
 21
1120.28742980957
 31
0.0
  0
LINE
  5
8C
330
1F
100
AcDbEntity
  8
VISIBLE
100
AcDbLine
 10
535.777473449707
 20
1037.78742980957
 30
0.0
 11
535.777473449707
 21
1020.28742980957
 31
0.0
  0
LINE
  5
8D
330
1F
100
AcDbEntity
  8
VISIBLE
100
AcDbLine
 10
430.777473449707
 20
1125.28742980957
 30
0.0
 11
448.277473449707
 21
1125.28742980957
 31
0.0
  0
LINE
  5
8E
330
1F
100
AcDbEntity
  8
VISIBLE
100
AcDbLine
 10
658.277473449707
 20
1120.28742980957
 30
0.0
 11
640.777473449707
 21
1120.28742980957
 31
0.0
  0
LINE
  5
8F
330
1F
100
AcDbEntity
  8
VISIBLE
100
AcDbLine
 10
530.777473449707
 20
1015.28742980957
 30
0.0
 11
513.277473449707
 21
1015.28742980957
 31
0.0
  0
LINE
  5
90
330
1F
100
AcDbEntity
  8
VISIBLE
100
AcDbLine
 10
640.777473449707
 20
932.78742980957
 30
0.0
 11
640.777473449707
 21
915.28742980957
 31
0.0
  0
CIRCLE
  5
91
330
1F
100
AcDbEntity
  8
VISIBLE
100
AcDbCircle
 10
573.277473449707
 20
1097.78742980957
 30
0.0
 40
2.0
  0
LINE
  5
92
330
1F
100
AcDbEntity
  8
VISIBLE
100
AcDbLine
 10
658.277473449707
 20
910.28742980957
 30
0.0
 11
640.777473449707
 21
910.28742980957
 31
0.0
  0
LINE
  5
93
330
1F
100
AcDbEntity
  8
VISIBLE
100
AcDbLine
 10
530.777473449707
 20
997.78742980957
 30
0.0
 11
530.777473449707
 21
1015.28742980957
 31
0.0
  0
LINE
  5
94
330
1F
100
AcDbEntity
  8
VISIBLE
100
AcDbLine
 10
430.777473449707
 20
892.78742980957
 30
0.0
 11
425.777473449707
 21
892.78742980957
 31
0.0
  0
LINE
  5
95
330
1F
100
AcDbEntity
  8
VISIBLE
100
AcDbLine
 10
430.777473449707
 20
1102.78742980957
 30
0.0
 11
425.777473449707
 21
1102.78742980957
 31
0.0
  0
LINE
  5
96
330
1F
100
AcDbEntity
  8
VISIBLE
100
AcDbLine
 10
425.777473449707
 20
932.78742980957
 30
0.0
 11
430.777473449707
 21
932.78742980957
 31
0.0
  0
LINE
  5
97
330
1F
100
AcDbEntity
  8
VISIBLE
100
AcDbLine
 10
425.777473449707
 20
910.28742980957
 30
0.0
 11
408.277473449707
 21
910.28742980957
 31
0.0
  0
LINE
  5
98
330
1F
100
AcDbEntity
  8
VISIBLE
100
AcDbLine
 10
658.277473449707
 20
1125.28742980957
 30
0.0
 11
658.277473449707
 21
1120.28742980957
 31
0.0
  0
LINE
  5
99
330
1F
100
AcDbEntity
  8
VISIBLE
100
AcDbLine
 10
640.777473449707
 20
1102.78742980957
 30
0.0
 11
635.777473449707
 21
1102.78742980957
 31
0.0
  0
LINE
  5
9A
330
1F
100
AcDbEntity
  8
VISIBLE
100
AcDbLine
 10
640.777473449707
 20
1142.78742980957
 30
0.0
 11
640.777473449707
 21
1125.28742980957
 31
0.0
  0
LINE
  5
9B
330
1F
100
AcDbEntity
  8
VISIBLE
100
AcDbLine
 10
640.777473449707
 20
1120.28742980957
 30
0.0
 11
640.777473449707
 21
1102.78742980957
 31
0.0
  0
CIRCLE
  5
9C
330
1F
100
AcDbEntity
  8
VISIBLE
100
AcDbCircle
 10
453.277473449707
 20
937.78742980957
 30
0.0
 40
2.0
  0
LINE
  5
9D
330
1F
100
AcDbEntity
  8
VISIBLE
100
AcDbLine
 10
408.277473449707
 20
915.28742980957
 30
0.0
 11
425.777473449707
 21
915.28742980957
 31
0.0
  0
CIRCLE
  5
9E
330
1F
100
AcDbEntity
  8
VISIBLE
100
AcDbCircle
 10
493.277473449707
 20
1057.78742980957
 30
0.0
 40
2.0
  0
LINE
  5
9F
330
1F
100
AcDbEntity
  8
VISIBLE
100
AcDbLine
 10
425.777473449707
 20
915.28742980957
 30
0.0
 11
425.777473449707
 21
932.78742980957
 31
0.0
  0
LINE
  5
A0
330
1F
100
AcDbEntity
  8
VISIBLE
100
AcDbLine
 10
408.277473449707
 20
910.28742980957
 30
0.0
 11
408.277473449707
 21
915.28742980957
 31
0.0
  0
LINE
  5
A1
330
1F
100
AcDbEntity
  8
VISIBLE
100
AcDbLine
 10
408.277473449707
 20
1125.28742980957
 30
0.0
 11
425.777473449707
 21
1125.28742980957
 31
0.0
  0
LINE
  5
A2
330
1F
100
AcDbEntity
  8
VISIBLE
100
AcDbLine
 10
430.777473449707
 20
910.28742980957
 30
0.0
 11
430.777473449707
 21
892.78742980957
 31
0.0
  0
LINE
  5
A3
330
1F
100
AcDbEntity
  8
VISIBLE
100
AcDbLine
 10
408.277473449707
 20
1120.28742980957
 30
0.0
 11
408.277473449707
 21
1125.28742980957
 31
0.0
  0
LINE
  5
A4
330
1F
100
AcDbEntity
  8
VISIBLE
100
AcDbLine
 10
530.4074716568
 20
686.217880249024
 30
0.0
 11
530.4074716568
 21
668.717880249024
 31
0.0
  0
LINE
  5
A5
330
1F
100
AcDbEntity
  8
VISIBLE
100
AcDbLine
 10
507.9074716568
 20
843.717880249024
 30
0.0
 11
507.9074716568
 21
848.717880249024
 31
0.0
  0
LINE
  5
A6
330
1F
100
AcDbEntity
  8
VISIBLE
100
AcDbLine
 10
630.4074716568
 20
563.717880249024
 30
0.0
 11
630.4074716568
 21
581.217880249024
 31
0.0
  0
CIRCLE
  5
A7
330
1F
100
AcDbEntity
  8
VISIBLE
100
AcDbCircle
 10
447.9074716568
 20
768.717880249024
 30
0.0
 40
2.0
  0
LINE
  5
A8
330
1F
100
AcDbEntity
  8
VISIBLE
100
AcDbLine
 10
377.9074716568
 20
586.217880249024
 30
0.0
 11
377.9074716568
 21
581.217880249024
 31
0.0
  0
LINE
  5
A9
330
1F
100
AcDbEntity
  8
VISIBLE
100
AcDbLine
 10
635.4074716568
 20
773.717880249024
 30
0.0
 11
630.4074716568
 21
773.717880249024
 31
0.0
  0
LINE
  5
AA
330
1F
100
AcDbEntity
  8
VISIBLE
100
AcDbLine
 10
425.4074716568
 20
773.717880249024
 30
0.0
 11
420.4074716568
 21
773.717880249024
 31
0.0
  0
LINE
  5
AB
330
1F
100
AcDbEntity
  8
VISIBLE
100
AcDbLine
 10
372.9074716568
 20
708.717880249024
 30
0.0
 11
372.9074716568
 21
668.717880249024
 31
0.0
  0
LINE
  5
AC
330
1F
100
AcDbEntity
  8
VISIBLE
100
AcDbLine
 10
630.4074716568
 20
791.217880249024
 30
0.0
 11
612.9074716568
 21
791.217880249024
 31
0.0
  0
LINE
  5
AD
330
1F
100
AcDbEntity
  8
VISIBLE
100
AcDbLine
 10
507.9074716568
 20
691.217880249024
 30
0.0
 11
525.4074716568
 21
691.217880249024
 31
0.0
  0
LINE
  5
AE
330
1F
100
AcDbEntity
  8
VISIBLE
100
AcDbLine
 10
677.9074716568
 20
581.217880249024
 30
0.0
 11
677.9074716568
 21
586.217880249024
 31
0.0
  0
LINE
  5
AF
330
1F
100
AcDbEntity
  8
VISIBLE
100
AcDbLine
 10
367.9074716568
 20
586.217880249024
 30
0.0
 11
377.9074716568
 21
586.217880249024
 31
0.0
  0
CIRCLE
  5
B0
330
1F
100
AcDbEntity
  8
VISIBLE
100
AcDbCircle
 10
527.9074716568
 20
648.717880249024
 30
0.0
 40
2.0
  0
CIRCLE
  5
B1
330
1F
100
AcDbEntity
  8
VISIBLE
100
AcDbCircle
 10
567.9074716568
 20
608.717880249024
 30
0.0
 40
2.0
  0
LINE
  5
B2
330
1F
100
AcDbEntity
  8
VISIBLE
100
AcDbLine
 10
420.4074716568
 20
791.2178802490241
 30
0.0
 11
402.9074716568
 21
791.217880249024
 31
0.0
  0
LINE
  5
B3
330
1F
100
AcDbEntity
  8
VISIBLE
100
AcDbLine
 10
635.4074716568
 20
813.717880249024
 30
0.0
 11
635.4074716568
 21
796.217880249024
 31
0.0
  0
LINE
  5
B4
330
1F
100
AcDbEntity
  8
VISIBLE
100
AcDbLine
 10
420.4074716568
 20
586.217880249024
 30
0.0
 11
420.4074716568
 21
603.717880249024
 31
0.0
  0
LINE
  5
B5
330
1F
100
AcDbEntity
  8
VISIBLE
100
AcDbLine
 10
420.4074716568
 20
533.717880249024
 30
0.0
 11
367.9074716568
 21
533.717880249024
 31
0.0
  0
CIRCLE
  5
B6
330
1F
100
AcDbEntity
  8
VISIBLE
100
AcDbCircle
 10
447.9074716568
 20
688.717880249024
 30
0.0
 40
2.0
  0
CIRCLE
  5
B7
330
1F
100
AcDbEntity
  8
VISIBLE
100
AcDbCircle
 10
527.9074716568
 20
728.717880249024
 30
0.0
 40
2.0
  0
LINE
  5
B8
330
1F
100
AcDbEntity
  8
VISIBLE
100
AcDbLine
 10
507.9074716568
 20
686.217880249024
 30
0.0
 11
507.9074716568
 21
691.217880249024
 31
0.0
  0
LINE
  5
B9
330
1F
100
AcDbEntity
  8
VISIBLE
100
AcDbLine
 10
525.4074716568
 20
708.717880249024
 30
0.0
 11
530.4074716568
 21
708.717880249024
 31
0.0
  0
LINE
  5
BA
330
1F
100
AcDbEntity
  8
VISIBLE
100
AcDbLine
 10
420.4074716568
 20
833.717880249024
 30
0.0
 11
420.4074716568
 21
843.717880249024
 31
0.0
  0
LINE
  5
BB
330
1F
100
AcDbEntity
  8
VISIBLE
100
AcDbLine
 10
687.9074716568
 20
843.717880249024
 30
0.0
 11
687.9074716568
 21
796.217880249024
 31
0.0
  0
LINE
  5
BC
330
1F
100
AcDbEntity
  8
VISIBLE
100
AcDbLine
 10
635.4074716568
 20
543.717880249024
 30
0.0
 11
635.4074716568
 21
533.717880249024
 31
0.0
  0
LINE
  5
BD
330
1F
100
AcDbEntity
  8
VISIBLE
100
AcDbLine
 10
547.9074716568
 20
848.717880249024
 30
0.0
 11
547.9074716568
 21
843.717880249024
 31
0.0
  0
LINE
  5
BE
330
1F
100
AcDbEntity
  8
VISIBLE
100
AcDbLine
 10
372.9074716568
 20
668.717880249024
 30
0.0
 11
367.9074716568
 21
668.717880249024
 31
0.0
  0
LINE
  5
BF
330
1F
100
AcDbEntity
  8
VISIBLE
100
AcDbLine
 10
425.4074716568
 20
796.217880249024
 30
0.0
 11
442.9074716568
 21
796.217880249024
 31
0.0
  0
CIRCLE
  5
C0
330
1F
100
AcDbEntity
  8
VISIBLE
100
AcDbCircle
 10
487.9074716568
 20
768.717880249024
 30
0.0
 40
2.0
  0
LINE
  5
C1
330
1F
100
AcDbEntity
  8
VISIBLE
100
AcDbLine
 10
652.9074716568
 20
791.217880249024
 30
0.0
 11
635.4074716568
 21
791.217880249024
 31
0.0
  0
LINE
  5
C2
330
1F
100
AcDbEntity
  8
VISIBLE
100
AcDbLine
 10
402.9074716568
 20
796.217880249024
 30
0.0
 11
420.4074716568
 21
796.217880249024
 31
0.0
  0
LINE
  5
C3
330
1F
100
AcDbEntity
  8
VISIBLE
100
AcDbLine
 10
682.9074716568
 20
668.717880249024
 30
0.0
 11
682.9074716568
 21
708.717880249024
 31
0.0
  0
LINE
  5
C4
330
1F
100
AcDbEntity
  8
VISIBLE
100
AcDbLine
 10
367.9074716568
 20
843.717880249024
 30
0.0
 11
420.4074716568
 21
843.717880249024
 31
0.0
  0
LINE
  5
C5
330
1F
100
AcDbEntity
  8
VISIBLE
100
AcDbLine
 10
367.9074716568
 20
738.717880249024
 30
0.0
 11
367.9074716568
 21
791.217880249024
 31
0.0
  0
CIRCLE
  5
C6
330
1F
100
AcDbEntity
  8
VISIBLE
100
AcDbCircle
 10
447.9074716568
 20
728.717880249024
 30
0.0
 40
2.0
  0
LINE
  5
C7
330
1F
100
AcDbEntity
  8
VISIBLE
100
AcDbLine
 10
425.4074716568
 20
813.717880249024
 30
0.0
 11
425.4074716568
 21
796.217880249024
 31
0.0
  0
LINE
  5
C8
330
1F
100
AcDbEntity
  8
VISIBLE
100
AcDbLine
 10
635.4074716568
 20
796.217880249024
 30
0.0
 11
652.9074716568
 21
796.217880249024
 31
0.0
  0
LINE
  5
C9
330
1F
100
AcDbEntity
  8
VISIBLE
100
AcDbLine
 10
687.9074716568
 20
533.717880249024
 30
0.0
 11
635.4074716568
 21
533.717880249024
 31
0.0
  0
LINE
  5
CA
330
1F
100
AcDbEntity
  8
VISIBLE
100
AcDbLine
 10
425.4074716568
 20
581.217880249024
 30
0.0
 11
425.4074716568
 21
563.717880249024
 31
0.0
  0
LINE
  5
CB
330
1F
100
AcDbEntity
  8
VISIBLE
100
AcDbLine
 10
420.4074716568
 20
581.217880249024
 30
0.0
 11
402.9074716568
 21
581.217880249024
 31
0.0
  0
CIRCLE
  5
CC
330
1F
100
AcDbEntity
  8
VISIBLE
100
AcDbCircle
 10
567.9074716568
 20
728.717880249024
 30
0.0
 40
2.0
  0
CIRCLE
  5
CD
330
1F
100
AcDbEntity
  8
VISIBLE
100
AcDbCircle
 10
487.9074716568
 20
688.717880249024
 30
0.0
 40
2.0
  0
LINE
  5
CE
330
1F
100
AcDbEntity
  8
VISIBLE
100
AcDbLine
 10
612.9074716568
 20
586.217880249024
 30
0.0
 11
630.4074716568
 21
586.217880249024
 31
0.0
  0
LINE
  5
CF
330
1F
100
AcDbEntity
  8
VISIBLE
100
AcDbLine
 10
367.9074716568
 20
796.217880249024
 30
0.0
 11
377.9074716568
 21
796.217880249024
 31
0.0
  0
LINE
  5
D0
330
1F
100
AcDbEntity
  8
VISIBLE
100
AcDbLine
 10
612.9074716568
 20
796.217880249024
 30
0.0
 11
630.4074716568
 21
796.217880249024
 31
0.0
  0
LINE
  5
D1
330
1F
100
AcDbEntity
  8
VISIBLE
100
AcDbLine
 10
425.4074716568
 20
791.217880249024
 30
0.0
 11
425.4074716568
 21
773.717880249024
 31
0.0
  0
LINE
  5
D2
330
1F
100
AcDbEntity
  8
VISIBLE
100
AcDbLine
 10
635.4074716568
 20
833.717880249024
 30
0.0
 11
630.4074716568
 21
833.717880249024
 31
0.0
  0
LINE
  5
D3
330
1F
100
AcDbEntity
  8
VISIBLE
100
AcDbLine
 10
530.4074716568
 20
708.717880249024
 30
0.0
 11
530.4074716568
 21
691.217880249024
 31
0.0
  0
LINE
  5
D4
330
1F
100
AcDbEntity
  8
VISIBLE
100
AcDbLine
 10
367.9074716568
 20
708.717880249024
 30
0.0
 11
372.9074716568
 21
708.717880249024
 31
0.0
  0
CIRCLE
  5
D5
330
1F
100
AcDbEntity
  8
VISIBLE
100
AcDbCircle
 10
607.9074716568
 20
728.717880249024
 30
0.0
 40
2.0
  0
LINE
  5
D6
330
1F
100
AcDbEntity
  8
VISIBLE
100
AcDbLine
 10
425.4074716568
 20
603.717880249024
 30
0.0
 11
425.4074716568
 21
586.217880249024
 31
0.0
  0
LINE
  5
D7
330
1F
100
AcDbEntity
  8
VISIBLE
100
AcDbLine
 10
682.9074716568
 20
708.717880249024
 30
0.0
 11
687.9074716568
 21
708.717880249024
 31
0.0
  0
LINE
  5
D8
330
1F
100
AcDbEntity
  8
VISIBLE
100
AcDbLine
 10
425.4074716568
 20
563.717880249024
 30
0.0
 11
420.4074716568
 21
563.717880249024
 31
0.0
  0
LINE
  5
D9
330
1F
100
AcDbEntity
  8
VISIBLE
100
AcDbLine
 10
420.4074716568
 20
796.217880249024
 30
0.0
 11
420.4074716568
 21
813.717880249024
 31
0.0
  0
CIRCLE
  5
DA
330
1F
100
AcDbEntity
  8
VISIBLE
100
AcDbCircle
 10
607.9074716568
 20
768.717880249024
 30
0.0
 40
2.0
  0
LINE
  5
DB
330
1F
100
AcDbEntity
  8
VISIBLE
100
AcDbLine
 10
697.9074716568
 20
648.717880249024
 30
0.0
 11
687.9074716568
 21
638.717880249024
 31
0.0
  0
LINE
  5
DC
330
1F
100
AcDbEntity
  8
VISIBLE
100
AcDbLine
 10
402.9074716568
 20
581.217880249024
 30
0.0
 11
402.9074716568
 21
586.217880249024
 31
0.0
  0
CIRCLE
  5
DD
330
1F
100
AcDbEntity
  8
VISIBLE
100
AcDbCircle
 10
527.9074716568
 20
768.717880249024
 30
0.0
 40
2.0
  0
LINE
  5
DE
330
1F
100
AcDbEntity
  8
VISIBLE
100
AcDbLine
 10
420.4074716568
 20
773.717880249024
 30
0.0
 11
420.4074716568
 21
791.2178802490241
 31
0.0
  0
LINE
  5
DF
330
1F
100
AcDbEntity
  8
VISIBLE
100
AcDbLine
 10
635.4074716568
 20
843.717880249024
 30
0.0
 11
635.4074716568
 21
833.717880249024
 31
0.0
  0
LINE
  5
E0
330
1F
100
AcDbEntity
  8
VISIBLE
100
AcDbLine
 10
507.9074716568
 20
848.717880249024
 30
0.0
 11
547.9074716568
 21
848.717880249024
 31
0.0
  0
LINE
  5
E1
330
1F
100
AcDbEntity
  8
VISIBLE
100
AcDbLine
 10
635.4074716568
 20
581.217880249024
 30
0.0
 11
635.4074716568
 21
563.717880249024
 31
0.0
  0
LINE
  5
E2
330
1F
100
AcDbEntity
  8
VISIBLE
100
AcDbLine
 10
525.4074716568
 20
686.217880249024
 30
0.0
 11
507.9074716568
 21
686.217880249024
 31
0.0
  0
LINE
  5
E3
330
1F
100
AcDbEntity
  8
VISIBLE
100
AcDbLine
 10
425.4074716568
 20
833.717880249024
 30
0.0
 11
420.4074716568
 21
833.717880249024
 31
0.0
  0
CIRCLE
  5
E4
330
1F
100
AcDbEntity
  8
VISIBLE
100
AcDbCircle
 10
487.9074716568
 20
608.717880249024
 30
0.0
 40
2.0
  0
LINE
  5
E5
330
1F
100
AcDbEntity
  8
VISIBLE
100
AcDbLine
 10
612.9074716568
 20
581.217880249024
 30
0.0
 11
612.9074716568
 21
586.217880249024
 31
0.0
  0
CIRCLE
  5
E6
330
1F
100
AcDbEntity
  8
VISIBLE
100
AcDbCircle
 10
447.9074716568
 20
648.717880249024
 30
0.0
 40
2.0
  0
LINE
  5
E7
330
1F
100
AcDbEntity
  8
VISIBLE
100
AcDbLine
 10
687.9074716568
 20
738.717880249024
 30
0.0
 11
697.9074716568
 21
728.717880249024
 31
0.0
  0
LINE
  5
E8
330
1F
100
AcDbEntity
  8
VISIBLE
100
AcDbLine
 10
652.9074716568
 20
581.217880249024
 30
0.0
 11
635.4074716568
 21
581.217880249024
 31
0.0
  0
CIRCLE
  5
E9
330
1F
100
AcDbEntity
  8
VISIBLE
100
AcDbCircle
 10
567.9074716568
 20
688.717880249024
 30
0.0
 40
2.0
  0
CIRCLE
  5
EA
330
1F
100
AcDbEntity
  8
VISIBLE
100
AcDbCircle
 10
607.9074716568
 20
688.717880249024
 30
0.0
 40
2.0
  0
LINE
  5
EB
330
1F
100
AcDbEntity
  8
VISIBLE
100
AcDbLine
 10
687.9074716568
 20
581.217880249024
 30
0.0
 11
677.9074716568
 21
581.217880249024
 31
0.0
  0
LINE
  5
EC
330
1F
100
AcDbEntity
  8
VISIBLE
100
AcDbLine
 10
697.9074716568
 20
728.717880249024
 30
0.0
 11
697.9074716568
 21
648.717880249024
 31
0.0
  0
CIRCLE
  5
ED
330
1F
100
AcDbEntity
  8
VISIBLE
100
AcDbCircle
 10
527.9074716568
 20
846.217880249024
 30
0.0
 40
2.0
  0
LINE
  5
EE
330
1F
100
AcDbEntity
  8
VISIBLE
100
AcDbLine
 10
425.4074716568
 20
843.717880249024
 30
0.0
 11
425.4074716568
 21
833.717880249024
 31
0.0
  0
LINE
  5
EF
330
1F
100
AcDbEntity
  8
VISIBLE
100
AcDbLine
 10
442.9074716568
 20
791.217880249024
 30
0.0
 11
425.4074716568
 21
791.217880249024
 31
0.0
  0
LINE
  5
F0
330
1F
100
AcDbEntity
  8
VISIBLE
100
AcDbLine
 10
402.9074716568
 20
791.217880249024
 30
0.0
 11
402.9074716568
 21
796.217880249024
 31
0.0
  0
LINE
  5
F1
330
1F
100
AcDbEntity
  8
VISIBLE
100
AcDbLine
 10
530.4074716568
 20
668.717880249024
 30
0.0
 11
525.4074716568
 21
668.717880249024
 31
0.0
  0
LINE
  5
F2
330
1F
100
AcDbEntity
  8
VISIBLE
100
AcDbLine
 10
687.9074716568
 20
668.717880249024
 30
0.0
 11
687.9074716568
 21
708.717880249024
 31
0.0
  0
LINE
  5
F3
330
1F
100
AcDbEntity
  8
VISIBLE
100
AcDbLine
 10
630.4074716568
 20
833.717880249024
 30
0.0
 11
630.4074716568
 21
843.717880249024
 31
0.0
  0
LINE
  5
F4
330
1F
100
AcDbEntity
  8
VISIBLE
100
AcDbLine
 10
425.4074716568
 20
843.717880249024
 30
0.0
 11
507.9074716568
 21
843.717880249024
 31
0.0
  0
LINE
  5
F5
330
1F
100
AcDbEntity
  8
VISIBLE
100
AcDbLine
 10
425.4074716568
 20
586.217880249024
 30
0.0
 11
442.9074716568
 21
586.217880249024
 31
0.0
  0
LINE
  5
F6
330
1F
100
AcDbEntity
  8
VISIBLE
100
AcDbLine
 10
367.9074716568
 20
796.217880249024
 30
0.0
 11
367.9074716568
 21
843.717880249024
 31
0.0
  0
LINE
  5
F7
330
1F
100
AcDbEntity
  8
VISIBLE
100
AcDbLine
 10
367.9074716568
 20
533.717880249024
 30
0.0
 11
367.9074716568
 21
581.217880249024
 31
0.0
  0
LINE
  5
F8
330
1F
100
AcDbEntity
  8
VISIBLE
100
AcDbLine
 10
547.9074716568
 20
691.217880249024
 30
0.0
 11
547.9074716568
 21
686.217880249024
 31
0.0
  0
LINE
  5
F9
330
1F
100
AcDbEntity
  8
VISIBLE
100
AcDbLine
 10
635.4074716568
 20
843.717880249024
 30
0.0
 11
687.9074716568
 21
843.717880249024
 31
0.0
  0
LINE
  5
FA
330
1F
100
AcDbEntity
  8
VISIBLE
100
AcDbLine
 10
630.4074716568
 20
533.717880249024
 30
0.0
 11
425.4074716568
 21
533.717880249024
 31
0.0
  0
LINE
  5
FB
330
1F
100
AcDbEntity
  8
VISIBLE
100
AcDbLine
 10
630.4074716568
 20
796.217880249024
 30
0.0
 11
630.4074716568
 21
813.717880249024
 31
0.0
  0
LINE
  5
FC
330
1F
100
AcDbEntity
  8
VISIBLE
100
AcDbLine
 10
635.4074716568
 20
586.217880249024
 30
0.0
 11
652.9074716568
 21
586.217880249024
 31
0.0
  0
LINE
  5
FD
330
1F
100
AcDbEntity
  8
VISIBLE
100
AcDbLine
 10
420.4074716568
 20
563.717880249024
 30
0.0
 11
420.4074716568
 21
581.217880249024
 31
0.0
  0
LINE
  5
FE
330
1F
100
AcDbEntity
  8
VISIBLE
100
AcDbLine
 10
687.9074716568
 20
791.217880249024
 30
0.0
 11
677.9074716568
 21
791.217880249024
 31
0.0
  0
LINE
  5
FF
330
1F
100
AcDbEntity
  8
VISIBLE
100
AcDbLine
 10
677.9074716568
 20
796.217880249024
 30
0.0
 11
687.9074716568
 21
796.217880249024
 31
0.0
  0
LINE
  5
100
330
1F
100
AcDbEntity
  8
VISIBLE
100
AcDbLine
 10
547.9074716568
 20
843.717880249024
 30
0.0
 11
630.4074716568
 21
843.717880249024
 31
0.0
  0
LINE
  5
101
330
1F
100
AcDbEntity
  8
VISIBLE
100
AcDbLine
 10
377.9074716568
 20
581.217880249024
 30
0.0
 11
367.9074716568
 21
581.217880249024
 31
0.0
  0
LINE
  5
102
330
1F
100
AcDbEntity
  8
VISIBLE
100
AcDbLine
 10
630.4074716568
 20
543.717880249024
 30
0.0
 11
635.4074716568
 21
543.717880249024
 31
0.0
  0
CIRCLE
  5
103
330
1F
100
AcDbEntity
  8
VISIBLE
100
AcDbCircle
 10
607.9074716568
 20
648.717880249024
 30
0.0
 40
2.0
  0
LINE
  5
104
330
1F
100
AcDbEntity
  8
VISIBLE
100
AcDbLine
 10
420.4074716568
 20
813.717880249024
 30
0.0
 11
425.4074716568
 21
813.717880249024
 31
0.0
  0
CIRCLE
  5
105
330
1F
100
AcDbEntity
  8
VISIBLE
100
AcDbCircle
 10
567.9074716568
 20
768.717880249024
 30
0.0
 40
2.0
  0
LINE
  5
106
330
1F
100
AcDbEntity
  8
VISIBLE
100
AcDbLine
 10
420.4074716568
 20
533.717880249024
 30
0.0
 11
420.4074716568
 21
543.717880249024
 31
0.0
  0
LINE
  5
107
330
1F
100
AcDbEntity
  8
VISIBLE
100
AcDbLine
 10
630.4074716568
 20
603.717880249024
 30
0.0
 11
635.4074716568
 21
603.717880249024
 31
0.0
  0
LINE
  5
108
330
1F
100
AcDbEntity
  8
VISIBLE
100
AcDbLine
 10
635.4074716568
 20
563.717880249024
 30
0.0
 11
630.4074716568
 21
563.717880249024
 31
0.0
  0
LINE
  5
109
330
1F
100
AcDbEntity
  8
VISIBLE
100
AcDbLine
 10
635.4074716568
 20
603.717880249024
 30
0.0
 11
635.4074716568
 21
586.217880249024
 31
0.0
  0
LINE
  5
10A
330
1F
100
AcDbEntity
  8
VISIBLE
100
AcDbLine
 10
630.4074716568
 20
586.217880249024
 30
0.0
 11
630.4074716568
 21
603.717880249024
 31
0.0
  0
LINE
  5
10B
330
1F
100
AcDbEntity
  8
VISIBLE
100
AcDbLine
 10
547.9074716568
 20
686.217880249024
 30
0.0
 11
530.4074716568
 21
686.217880249024
 31
0.0
  0
LINE
  5
10C
330
1F
100
AcDbEntity
  8
VISIBLE
100
AcDbLine
 10
652.9074716568
 20
796.217880249024
 30
0.0
 11
652.9074716568
 21
791.217880249024
 31
0.0
  0
LINE
  5
10D
330
1F
100
AcDbEntity
  8
VISIBLE
100
AcDbLine
 10
442.9074716568
 20
796.217880249024
 30
0.0
 11
442.9074716568
 21
791.217880249024
 31
0.0
  0
LINE
  5
10E
330
1F
100
AcDbEntity
  8
VISIBLE
100
AcDbLine
 10
677.9074716568
 20
791.217880249024
 30
0.0
 11
677.9074716568
 21
796.217880249024
 31
0.0
  0
LINE
  5
10F
330
1F
100
AcDbEntity
  8
VISIBLE
100
AcDbLine
 10
425.4074716568
 20
543.717880249024
 30
0.0
 11
425.4074716568
 21
533.717880249024
 31
0.0
  0
LINE
  5
110
330
1F
100
AcDbEntity
  8
VISIBLE
100
AcDbLine
 10
677.9074716568
 20
586.217880249024
 30
0.0
 11
687.9074716568
 21
586.217880249024
 31
0.0
  0
LINE
  5
111
330
1F
100
AcDbEntity
  8
VISIBLE
100
AcDbLine
 10
687.9074716568
 20
791.217880249024
 30
0.0
 11
687.9074716568
 21
738.717880249024
 31
0.0
  0
LINE
  5
112
330
1F
100
AcDbEntity
  8
VISIBLE
100
AcDbLine
 10
367.9074716568
 20
668.717880249024
 30
0.0
 11
367.9074716568
 21
708.717880249024
 31
0.0
  0
CIRCLE
  5
113
330
1F
100
AcDbEntity
  8
VISIBLE
100
AcDbCircle
 10
567.9074716568
 20
648.717880249024
 30
0.0
 40
2.0
  0
LINE
  5
114
330
1F
100
AcDbEntity
  8
VISIBLE
100
AcDbLine
 10
630.4074716568
 20
581.217880249024
 30
0.0
 11
612.9074716568
 21
581.217880249024
 31
0.0
  0
LINE
  5
115
330
1F
100
AcDbEntity
  8
VISIBLE
100
AcDbLine
 10
442.9074716568
 20
586.217880249024
 30
0.0
 11
442.9074716568
 21
581.217880249024
 31
0.0
  0
LINE
  5
116
330
1F
100
AcDbEntity
  8
VISIBLE
100
AcDbLine
 10
530.4074716568
 20
691.217880249024
 30
0.0
 11
547.9074716568
 21
691.217880249024
 31
0.0
  0
LINE
  5
117
330
1F
100
AcDbEntity
  8
VISIBLE
100
AcDbLine
 10
525.4074716568
 20
691.217880249024
 30
0.0
 11
525.4074716568
 21
708.717880249024
 31
0.0
  0
LINE
  5
118
330
1F
100
AcDbEntity
  8
VISIBLE
100
AcDbLine
 10
357.9074716568
 20
728.717880249024
 30
0.0
 11
357.9074716568
 21
648.717880249024
 31
0.0
  0
CIRCLE
  5
119
330
1F
100
AcDbEntity
  8
VISIBLE
100
AcDbCircle
 10
527.9074716568
 20
608.717880249024
 30
0.0
 40
2.0
  0
LINE
  5
11A
330
1F
100
AcDbEntity
  8
VISIBLE
100
AcDbLine
 10
687.9074716568
 20
638.717880249024
 30
0.0
 11
687.9074716568
 21
586.217880249024
 31
0.0
  0
CIRCLE
  5
11B
330
1F
100
AcDbEntity
  8
VISIBLE
100
AcDbCircle
 10
447.9074716568
 20
608.717880249024
 30
0.0
 40
2.0
  0
LINE
  5
11C
330
1F
100
AcDbEntity
  8
VISIBLE
100
AcDbLine
 10
420.4074716568
 20
543.717880249024
 30
0.0
 11
425.4074716568
 21
543.717880249024
 31
0.0
  0
CIRCLE
  5
11D
330
1F
100
AcDbEntity
  8
VISIBLE
100
AcDbCircle
 10
607.9074716568
 20
608.717880249024
 30
0.0
 40
2.0
  0
LINE
  5
11E
330
1F
100
AcDbEntity
  8
VISIBLE
100
AcDbLine
 10
442.9074716568
 20
581.217880249024
 30
0.0
 11
425.4074716568
 21
581.217880249024
 31
0.0
  0
LINE
  5
11F
330
1F
100
AcDbEntity
  8
VISIBLE
100
AcDbLine
 10
612.9074716568
 20
791.217880249024
 30
0.0
 11
612.9074716568
 21
796.217880249024
 31
0.0
  0
LINE
  5
120
330
1F
100
AcDbEntity
  8
VISIBLE
100
AcDbLine
 10
525.4074716568
 20
668.717880249024
 30
0.0
 11
525.4074716568
 21
686.217880249024
 31
0.0
  0
LINE
  5
121
330
1F
100
AcDbEntity
  8
VISIBLE
100
AcDbLine
 10
377.9074716568
 20
796.217880249024
 30
0.0
 11
377.9074716568
 21
791.217880249024
 31
0.0
  0
LINE
  5
122
330
1F
100
AcDbEntity
  8
VISIBLE
100
AcDbLine
 10
630.4074716568
 20
813.717880249024
 30
0.0
 11
635.4074716568
 21
813.717880249024
 31
0.0
  0
LINE
  5
123
330
1F
100
AcDbEntity
  8
VISIBLE
100
AcDbLine
 10
630.4074716568
 20
533.717880249024
 30
0.0
 11
630.4074716568
 21
543.717880249024
 31
0.0
  0
LINE
  5
124
330
1F
100
AcDbEntity
  8
VISIBLE
100
AcDbLine
 10
377.9074716568
 20
791.217880249024
 30
0.0
 11
367.9074716568
 21
791.217880249024
 31
0.0
  0
LINE
  5
125
330
1F
100
AcDbEntity
  8
VISIBLE
100
AcDbLine
 10
367.9074716568
 20
638.717880249024
 30
0.0
 11
357.9074716568
 21
648.717880249024
 31
0.0
  0
LINE
  5
126
330
1F
100
AcDbEntity
  8
VISIBLE
100
AcDbLine
 10
402.9074716568
 20
586.217880249024
 30
0.0
 11
420.4074716568
 21
586.217880249024
 31
0.0
  0
LINE
  5
127
330
1F
100
AcDbEntity
  8
VISIBLE
100
AcDbLine
 10
630.4074716568
 20
773.717880249024
 30
0.0
 11
630.4074716568
 21
791.217880249024
 31
0.0
  0
CIRCLE
  5
128
330
1F
100
AcDbEntity
  8
VISIBLE
100
AcDbCircle
 10
487.9074716568
 20
648.717880249024
 30
0.0
 40
2.0
  0
LINE
  5
129
330
1F
100
AcDbEntity
  8
VISIBLE
100
AcDbLine
 10
687.9074716568
 20
581.217880249024
 30
0.0
 11
687.9074716568
 21
533.717880249024
 31
0.0
  0
LINE
  5
12A
330
1F
100
AcDbEntity
  8
VISIBLE
100
AcDbLine
 10
635.4074716568
 20
791.2178802490241
 30
0.0
 11
635.4074716568
 21
773.717880249024
 31
0.0
  0
LINE
  5
12B
330
1F
100
AcDbEntity
  8
VISIBLE
100
AcDbLine
 10
420.4074716568
 20
603.717880249024
 30
0.0
 11
425.4074716568
 21
603.717880249024
 31
0.0
  0
LINE
  5
12C
330
1F
100
AcDbEntity
  8
VISIBLE
100
AcDbLine
 10
357.9074716568
 20
728.717880249024
 30
0.0
 11
367.9074716568
 21
738.717880249024
 31
0.0
  0
LINE
  5
12D
330
1F
100
AcDbEntity
  8
VISIBLE
100
AcDbLine
 10
652.9074716568
 20
586.217880249024
 30
0.0
 11
652.9074716568
 21
581.217880249024
 31
0.0
  0
LINE
  5
12E
330
1F
100
AcDbEntity
  8
VISIBLE
100
AcDbLine
 10
367.9074716568
 20
586.217880249024
 30
0.0
 11
367.9074716568
 21
638.717880249024
 31
0.0
  0
LINE
  5
12F
330
1F
100
AcDbEntity
  8
VISIBLE
100
AcDbLine
 10
687.9074716568
 20
668.717880249024
 30
0.0
 11
682.9074716568
 21
668.717880249024
 31
0.0
  0
CIRCLE
  5
130
330
1F
100
AcDbEntity
  8
VISIBLE
100
AcDbCircle
 10
487.9074716568
 20
728.717880249024
 30
0.0
 40
2.0
  0
LINE
  5
131
330
1F
100
AcDbEntity
  8
VISIBLE
100
AcDbLine
 10
256.425493240356
 20
496.364120483398
 30
0.0
 11
256.425493240356
 21
436.364120483398
 31
0.0
  0
LINE
  5
132
330
1F
100
AcDbEntity
  8
VISIBLE
100
AcDbLine
 10
206.425493240356
 20
468.864120483398
 30
0.0
 11
231.425493240356
 21
468.864120483398
 31
0.0
  0
LINE
  5
133
330
1F
100
AcDbEntity
  8
VISIBLE
100
AcDbLine
 10
246.425493240356
 20
486.364120483398
 30
0.0
 11
246.425493240356
 21
496.364120483398
 31
0.0
  0
LINE
  5
134
330
1F
100
AcDbEntity
  8
VISIBLE
100
AcDbLine
 10
216.425493240356
 20
458.864120483398
 30
0.0
 11
216.425493240356
 21
453.864120483398
 31
0.0
  0
LINE
  5
135
330
1F
100
AcDbEntity
  8
VISIBLE
100
AcDbLine
 10
246.425493240356
 20
446.364120483398
 30
0.0
 11
246.425493240356
 21
436.364120483398
 31
0.0
  0
LINE
  5
136
330
1F
100
AcDbEntity
  8
VISIBLE
100
AcDbLine
 10
211.425493240356
 20
453.864120483398
 30
0.0
 11
211.425493240356
 21
458.864120483398
 31
0.0
  0
LINE
  5
137
330
1F
100
AcDbEntity
  8
VISIBLE
100
AcDbLine
 10
216.425493240356
 20
453.864120483398
 30
0.0
 11
211.425493240356
 21
453.864120483398
 31
0.0
  0
LINE
  5
138
330
1F
100
AcDbEntity
  8
VISIBLE
100
AcDbLine
 10
216.425493240356
 20
478.864120483398
 30
0.0
 11
216.425493240356
 21
473.864120483398
 31
0.0
  0
LINE
  5
139
330
1F
100
AcDbEntity
  8
VISIBLE
100
AcDbLine
 10
211.425493240356
 20
458.864120483398
 30
0.0
 11
216.425493240356
 21
458.864120483398
 31
0.0
  0
LINE
  5
13A
330
1F
100
AcDbEntity
  8
VISIBLE
100
AcDbLine
 10
206.425493240356
 20
446.364120483398
 30
0.0
 11
206.425493240356
 21
463.864120483398
 31
0.0
  0
LINE
  5
13B
330
1F
100
AcDbEntity
  8
VISIBLE
100
AcDbLine
 10
216.425493240356
 20
473.864120483398
 30
0.0
 11
211.425493240356
 21
473.864120483398
 31
0.0
  0
LINE
  5
13C
330
1F
100
AcDbEntity
  8
VISIBLE
100
AcDbLine
 10
246.425493240356
 20
436.364120483398
 30
0.0
 11
256.425493240356
 21
436.364120483398
 31
0.0
  0
LINE
  5
13D
330
1F
100
AcDbEntity
  8
VISIBLE
100
AcDbLine
 10
231.425493240356
 20
463.864120483398
 30
0.0
 11
206.425493240356
 21
463.864120483398
 31
0.0
  0
LINE
  5
13E
330
1F
100
AcDbEntity
  8
VISIBLE
100
AcDbLine
 10
231.425493240356
 20
468.864120483398
 30
0.0
 11
231.425493240356
 21
463.864120483398
 31
0.0
  0
LINE
  5
13F
330
1F
100
AcDbEntity
  8
VISIBLE
100
AcDbLine
 10
206.425493240356
 20
486.364120483398
 30
0.0
 11
246.425493240356
 21
486.364120483398
 31
0.0
  0
LINE
  5
140
330
1F
100
AcDbEntity
  8
VISIBLE
100
AcDbLine
 10
211.425493240356
 20
478.864120483398
 30
0.0
 11
216.425493240356
 21
478.864120483398
 31
0.0
  0
LINE
  5
141
330
1F
100
AcDbEntity
  8
VISIBLE
100
AcDbLine
 10
246.425493240356
 20
496.364120483398
 30
0.0
 11
256.425493240356
 21
496.364120483398
 31
0.0
  0
LINE
  5
142
330
1F
100
AcDbEntity
  8
VISIBLE
100
AcDbLine
 10
246.425493240356
 20
446.364120483398
 30
0.0
 11
206.425493240356
 21
446.364120483398
 31
0.0
  0
LINE
  5
143
330
1F
100
AcDbEntity
  8
VISIBLE
100
AcDbLine
 10
206.425493240356
 20
468.864120483398
 30
0.0
 11
206.425493240356
 21
486.364120483398
 31
0.0
  0
LINE
  5
144
330
1F
100
AcDbEntity
  8
VISIBLE
100
AcDbLine
 10
211.425493240356
 20
473.864120483398
 30
0.0
 11
211.425493240356
 21
478.864120483398
 31
0.0
  0
LINE
  5
145
330
1F
100
AcDbEntity
  8
VISIBLE
100
AcDbLine
 10
215.952796936035
 20
403.95068359375
 30
0.0
 11
210.952796936035
 21
403.95068359375
 31
0.0
  0
LINE
  5
146
330
1F
100
AcDbEntity
  8
VISIBLE
100
AcDbLine
 10
220.952796936035
 20
396.45068359375
 30
0.0
 11
220.952796936035
 21
401.45068359375
 31
0.0
  0
LINE
  5
147
330
1F
100
AcDbEntity
  8
VISIBLE
100
AcDbLine
 10
215.952796936035
 20
388.95068359375
 30
0.0
 11
210.952796936035
 21
388.95068359375
 31
0.0
  0
LINE
  5
148
330
1F
100
AcDbEntity
  8
VISIBLE
100
AcDbLine
 10
220.952796936035
 20
401.45068359375
 30
0.0
 11
240.952796936035
 21
401.45068359375
 31
0.0
  0
LINE
  5
149
330
1F
100
AcDbEntity
  8
VISIBLE
100
AcDbLine
 10
245.952796936035
 20
378.95068359375
 30
0.0
 11
205.952796936035
 21
378.95068359375
 31
0.0
  0
LINE
  5
14A
330
1F
100
AcDbEntity
  8
VISIBLE
100
AcDbLine
 10
245.952796936035
 20
428.95068359375
 30
0.0
 11
255.952796936035
 21
428.95068359375
 31
0.0
  0
LINE
  5
14B
330
1F
100
AcDbEntity
  8
VISIBLE
100
AcDbLine
 10
245.952796936035
 20
418.95068359375
 30
0.0
 11
245.952796936035
 21
428.95068359375
 31
0.0
  0
LINE
  5
14C
330
1F
100
AcDbEntity
  8
VISIBLE
100
AcDbLine
 10
210.952796936035
 20
393.95068359375
 30
0.0
 11
215.952796936035
 21
393.95068359375
 31
0.0
  0
LINE
  5
14D
330
1F
100
AcDbEntity
  8
VISIBLE
100
AcDbLine
 10
210.952796936035
 20
408.95068359375
 30
0.0
 11
215.952796936035
 21
408.95068359375
 31
0.0
  0
LINE
  5
14E
330
1F
100
AcDbEntity
  8
VISIBLE
100
AcDbLine
 10
255.952796936035
 20
428.95068359375
 30
0.0
 11
255.952796936035
 21
368.95068359375
 31
0.0
  0
LINE
  5
14F
330
1F
100
AcDbEntity
  8
VISIBLE
100
AcDbLine
 10
245.952796936035
 20
368.95068359375
 30
0.0
 11
255.952796936035
 21
368.95068359375
 31
0.0
  0
LINE
  5
150
330
1F
100
AcDbEntity
  8
VISIBLE
100
AcDbLine
 10
210.952796936035
 20
403.95068359375
 30
0.0
 11
210.952796936035
 21
408.95068359375
 31
0.0
  0
LINE
  5
151
330
1F
100
AcDbEntity
  8
VISIBLE
100
AcDbLine
 10
240.952796936035
 20
396.45068359375
 30
0.0
 11
220.952796936035
 21
396.45068359375
 31
0.0
  0
LINE
  5
152
330
1F
100
AcDbEntity
  8
VISIBLE
100
AcDbLine
 10
240.952796936035
 20
401.45068359375
 30
0.0
 11
240.952796936035
 21
396.45068359375
 31
0.0
  0
LINE
  5
153
330
1F
100
AcDbEntity
  8
VISIBLE
100
AcDbLine
 10
210.952796936035
 20
388.95068359375
 30
0.0
 11
210.952796936035
 21
393.95068359375
 31
0.0
  0
LINE
  5
154
330
1F
100
AcDbEntity
  8
VISIBLE
100
AcDbLine
 10
205.952796936035
 20
418.95068359375
 30
0.0
 11
245.952796936035
 21
418.95068359375
 31
0.0
  0
LINE
  5
155
330
1F
100
AcDbEntity
  8
VISIBLE
100
AcDbLine
 10
245.952796936035
 20
378.95068359375
 30
0.0
 11
245.952796936035
 21
368.95068359375
 31
0.0
  0
LINE
  5
156
330
1F
100
AcDbEntity
  8
VISIBLE
100
AcDbLine
 10
215.952796936035
 20
393.95068359375
 30
0.0
 11
215.952796936035
 21
388.95068359375
 31
0.0
  0
LINE
  5
157
330
1F
100
AcDbEntity
  8
VISIBLE
100
AcDbLine
 10
215.952796936035
 20
408.95068359375
 30
0.0
 11
215.952796936035
 21
403.95068359375
 31
0.0
  0
LINE
  5
158
330
1F
100
AcDbEntity
  8
VISIBLE
100
AcDbLine
 10
205.952796936035
 20
378.95068359375
 30
0.0
 11
205.952796936035
 21
418.95068359375
 31
0.0
  0
LINE
  5
159
330
1F
100
AcDbEntity
  8
VISIBLE
100
AcDbLine
 10
39.1254519224165
 20
238.526516914369
 30
0.0
 11
44.1254519224166
 21
238.526516914369
 31
0.0
  0
LINE
  5
15A
330
1F
100
AcDbEntity
  8
VISIBLE
100
AcDbLine
 10
44.1254519224166
 20
238.526516914369
 30
0.0
 11
44.1254519224166
 21
508.526516914369
 31
0.0
  0
LINE
  5
15B
330
1F
100
AcDbEntity
  8
VISIBLE
100
AcDbLine
 10
64.1254519224166
 20
508.526516914369
 30
0.0
 11
64.1254519224166
 21
238.526516914369
 31
0.0
  0
LINE
  5
15C
330
1F
100
AcDbEntity
  8
VISIBLE
100
AcDbLine
 10
69.1254519224165
 20
228.526516914369
 30
0.0
 11
39.1254519224165
 21
228.526516914369
 31
0.0
  0
LINE
  5
15D
330
1F
100
AcDbEntity
  8
VISIBLE
100
AcDbLine
 10
44.1254519224166
 20
508.526516914369
 30
0.0
 11
64.1254519224166
 21
508.526516914369
 31
0.0
  0
LINE
  5
15E
330
1F
100
AcDbEntity
  8
VISIBLE
100
AcDbLine
 10
69.1254519224165
 20
238.526516914369
 30
0.0
 11
69.1254519224165
 21
228.526516914369
 31
0.0
  0
LINE
  5
15F
330
1F
100
AcDbEntity
  8
VISIBLE
100
AcDbLine
 10
39.1254519224165
 20
228.526516914369
 30
0.0
 11
39.1254519224165
 21
238.526516914369
 31
0.0
  0
LINE
  5
160
330
1F
100
AcDbEntity
  8
VISIBLE
100
AcDbLine
 10
64.1254519224165
 20
238.526516914369
 30
0.0
 11
69.1254519224165
 21
238.526516914369
 31
0.0
  0
CIRCLE
  5
161
330
1F
100
AcDbEntity
  8
VISIBLE
100
AcDbCircle
 10
154.660392761231
 20
1097.67492675781
 30
0.0
 40
2.0
  0
LINE
  5
162
330
1F
100
AcDbEntity
  8
VISIBLE
100
AcDbLine
 10
154.660392761231
 20
847.67492675781
 30
0.0
 11
144.660392761231
 21
857.67492675781
 31
0.0
  0
LINE
  5
163
330
1F
100
AcDbEntity
  8
VISIBLE
100
AcDbLine
 10
39.66039276123101
 20
997.67492675781
 30
0.0
 11
34.66039276123101
 21
997.67492675781
 31
0.0
  0
LINE
  5
164
330
1F
100
AcDbEntity
  8
VISIBLE
100
AcDbLine
 10
354.660392761231
 20
1037.67492675781
 30
0.0
 11
354.660392761231
 21
997.67492675781
 31
0.0
  0
LINE
  5
165
330
1F
100
AcDbEntity
  8
VISIBLE
100
AcDbLine
 10
34.66039276123101
 20
967.67492675781
 30
0.0
 11
24.66039276123101
 21
977.67492675781
 31
0.0
  0
CIRCLE
  5
166
330
1F
100
AcDbEntity
  8
VISIBLE
100
AcDbCircle
 10
274.660392761231
 20
937.67492675781
 30
0.0
 40
2.0
  0
LINE
  5
167
330
1F
100
AcDbEntity
  8
VISIBLE
100
AcDbLine
 10
47.22263908386284
 20
1125.17492675781
 30
0.0
 11
47.22263908386284
 21
1120.17492675781
 31
0.0
  0
CIRCLE
  5
168
330
1F
100
AcDbEntity
  8
VISIBLE
100
AcDbCircle
 10
234.660392761231
 20
1097.67492675781
 30
0.0
 40
2.0
  0
CIRCLE
  5
169
330
1F
100
AcDbEntity
  8
VISIBLE
100
AcDbCircle
 10
114.660392761231
 20
1097.67492675781
 30
0.0
 40
2.0
  0
LINE
  5
16A
330
1F
100
AcDbEntity
  8
VISIBLE
100
AcDbLine
 10
342.0981464385992
 20
910.17492675781
 30
0.0
 11
342.0981464385992
 21
915.17492675781
 31
0.0
  0
CIRCLE
  5
16B
330
1F
100
AcDbEntity
  8
VISIBLE
100
AcDbCircle
 10
194.660392761231
 20
1057.67492675781
 30
0.0
 40
2.0
  0
LINE
  5
16C
330
1F
100
AcDbEntity
  8
VISIBLE
100
AcDbLine
 10
354.660392761231
 20
997.67492675781
 30
0.0
 11
349.660392761231
 21
997.6749267578101
 31
0.0
  0
LINE
  5
16D
330
1F
100
AcDbEntity
  8
VISIBLE
100
AcDbLine
 10
174.660392761231
 20
1172.67492675781
 30
0.0
 11
174.660392761231
 21
1177.67492675781
 31
0.0
  0
LINE
  5
16E
330
1F
100
AcDbEntity
  8
VISIBLE
100
AcDbLine
 10
144.660392761231
 20
1177.67492675781
 30
0.0
 11
154.660392761231
 21
1187.67492675781
 31
0.0
  0
LINE
  5
16F
330
1F
100
AcDbEntity
  8
VISIBLE
100
AcDbLine
 10
302.160392761231
 20
1165.112680435178
 30
0.0
 11
297.160392761231
 21
1165.112680435178
 31
0.0
  0
LINE
  5
170
330
1F
100
AcDbEntity
  8
VISIBLE
100
AcDbLine
 10
144.660392761231
 20
857.67492675781
 30
0.0
 11
92.16039276123101
 21
857.67492675781
 31
0.0
  0
LINE
  5
171
330
1F
100
AcDbEntity
  8
VISIBLE
100
AcDbLine
 10
87.16039276123101
 20
870.2371730804418
 30
0.0
 11
92.16039276123101
 21
870.2371730804418
 31
0.0
  0
CIRCLE
  5
172
330
1F
100
AcDbEntity
  8
VISIBLE
100
AcDbCircle
 10
114.660392761231
 20
1017.67492675781
 30
0.0
 40
2.0
  0
CIRCLE
  5
173
330
1F
100
AcDbEntity
  8
VISIBLE
100
AcDbCircle
 10
274.660392761231
 20
1017.67492675781
 30
0.0
 40
2.0
  0
LINE
  5
174
330
1F
100
AcDbEntity
  8
VISIBLE
100
AcDbLine
 10
354.660392761231
 20
1120.17492675781
 30
0.0
 11
342.0981464385992
 21
1120.17492675781
 31
0.0
  0
LINE
  5
175
330
1F
100
AcDbEntity
  8
VISIBLE
100
AcDbLine
 10
349.660392761231
 20
997.6749267578101
 30
0.0
 11
349.660392761231
 21
1037.67492675781
 31
0.0
  0
LINE
  5
176
330
1F
100
AcDbEntity
  8
VISIBLE
100
AcDbLine
 10
34.66039276123101
 20
1177.67492675781
 30
0.0
 11
87.16039276123101
 21
1177.67492675781
 31
0.0
  0
LINE
  5
177
330
1F
100
AcDbEntity
  8
VISIBLE
100
AcDbLine
 10
302.160392761231
 20
870.2371730804418
 30
0.0
 11
302.160392761231
 21
857.67492675781
 31
0.0
  0
LINE
  5
178
330
1F
100
AcDbEntity
  8
VISIBLE
100
AcDbLine
 10
364.660392761231
 20
977.67492675781
 30
0.0
 11
354.660392761231
 21
967.67492675781
 31
0.0
  0
LINE
  5
179
330
1F
100
AcDbEntity
  8
VISIBLE
100
AcDbLine
 10
354.660392761231
 20
910.17492675781
 30
0.0
 11
342.0981464385992
 21
910.17492675781
 31
0.0
  0
CIRCLE
  5
17A
330
1F
100
AcDbEntity
  8
VISIBLE
100
AcDbCircle
 10
194.660392761231
 20
937.67492675781
 30
0.0
 40
2.0
  0
CIRCLE
  5
17B
330
1F
100
AcDbEntity
  8
VISIBLE
100
AcDbCircle
 10
194.660392761231
 20
1097.67492675781
 30
0.0
 40
2.0
  0
LINE
  5
17C
330
1F
100
AcDbEntity
  8
VISIBLE
100
AcDbLine
 10
354.660392761231
 20
1177.67492675781
 30
0.0
 11
354.660392761231
 21
1125.17492675781
 31
0.0
  0
LINE
  5
17D
330
1F
100
AcDbEntity
  8
VISIBLE
100
AcDbLine
 10
92.16039276123101
 20
1177.67492675781
 30
0.0
 11
92.16039276123101
 21
1165.112680435178
 31
0.0
  0
CIRCLE
  5
17E
330
1F
100
AcDbEntity
  8
VISIBLE
100
AcDbCircle
 10
234.660392761231
 20
977.67492675781
 30
0.0
 40
2.0
  0
LINE
  5
17F
330
1F
100
AcDbEntity
  8
VISIBLE
100
AcDbLine
 10
92.16039276123101
 20
870.2371730804418
 30
0.0
 11
92.16039276123101
 21
857.67492675781
 31
0.0
  0
LINE
  5
180
330
1F
100
AcDbEntity
  8
VISIBLE
100
AcDbLine
 10
47.22263908386284
 20
1120.17492675781
 30
0.0
 11
34.66039276123101
 21
1120.17492675781
 31
0.0
  0
LINE
  5
181
330
1F
100
AcDbEntity
  8
VISIBLE
100
AcDbLine
 10
354.660392761231
 20
1067.67492675781
 30
0.0
 11
364.660392761231
 21
1057.67492675781
 31
0.0
  0
LINE
  5
182
330
1F
100
AcDbEntity
  8
VISIBLE
100
AcDbLine
 10
364.660392761231
 20
977.67492675781
 30
0.0
 11
364.660392761231
 21
1057.67492675781
 31
0.0
  0
LINE
  5
183
330
1F
100
AcDbEntity
  8
VISIBLE
100
AcDbLine
 10
354.660392761231
 20
967.67492675781
 30
0.0
 11
354.660392761231
 21
915.17492675781
 31
0.0
  0
CIRCLE
  5
184
330
1F
100
AcDbEntity
  8
VISIBLE
100
AcDbCircle
 10
234.660392761231
 20
1017.67492675781
 30
0.0
 40
2.0
  0
LINE
  5
185
330
1F
100
AcDbEntity
  8
VISIBLE
100
AcDbLine
 10
87.16039276123101
 20
1165.112680435178
 30
0.0
 11
87.16039276123101
 21
1177.67492675781
 31
0.0
  0
LINE
  5
186
330
1F
100
AcDbEntity
  8
VISIBLE
100
AcDbLine
 10
39.66039276123101
 20
1037.67492675781
 30
0.0
 11
39.66039276123101
 21
997.67492675781
 31
0.0
  0
LINE
  5
187
330
1F
100
AcDbEntity
  8
VISIBLE
100
AcDbLine
 10
34.66039276123101
 20
1125.17492675781
 30
0.0
 11
47.22263908386284
 21
1125.17492675781
 31
0.0
  0
LINE
  5
188
330
1F
100
AcDbEntity
  8
VISIBLE
100
AcDbLine
 10
154.660392761231
 20
1187.67492675781
 30
0.0
 11
234.660392761231
 21
1187.67492675781
 31
0.0
  0
LINE
  5
189
330
1F
100
AcDbEntity
  8
VISIBLE
100
AcDbLine
 10
154.660392761231
 20
847.67492675781
 30
0.0
 11
234.660392761231
 21
847.67492675781
 31
0.0
  0
CIRCLE
  5
18A
330
1F
100
AcDbEntity
  8
VISIBLE
100
AcDbCircle
 10
234.660392761231
 20
1057.67492675781
 30
0.0
 40
2.0
  0
LINE
  5
18B
330
1F
100
AcDbEntity
  8
VISIBLE
100
AcDbLine
 10
349.660392761231
 20
1037.67492675781
 30
0.0
 11
354.660392761231
 21
1037.67492675781
 31
0.0
  0
LINE
  5
18C
330
1F
100
AcDbEntity
  8
VISIBLE
100
AcDbLine
 10
47.22263908386284
 20
910.17492675781
 30
0.0
 11
34.66039276123101
 21
910.17492675781
 31
0.0
  0
LINE
  5
18D
330
1F
100
AcDbEntity
  8
VISIBLE
100
AcDbLine
 10
92.16039276123101
 20
1177.67492675781
 30
0.0
 11
144.660392761231
 21
1177.67492675781
 31
0.0
  0
CIRCLE
  5
18E
330
1F
100
AcDbEntity
  8
VISIBLE
100
AcDbCircle
 10
154.660392761231
 20
937.67492675781
 30
0.0
 40
2.0
  0
LINE
  5
18F
330
1F
100
AcDbEntity
  8
VISIBLE
100
AcDbLine
 10
354.660392761231
 20
910.17492675781
 30
0.0
 11
354.660392761231
 21
857.67492675781
 31
0.0
  0
CIRCLE
  5
190
330
1F
100
AcDbEntity
  8
VISIBLE
100
AcDbCircle
 10
274.660392761231
 20
1057.67492675781
 30
0.0
 40
2.0
  0
LINE
  5
191
330
1F
100
AcDbEntity
  8
VISIBLE
100
AcDbLine
 10
214.660392761231
 20
1177.67492675781
 30
0.0
 11
174.660392761231
 21
1177.67492675781
 31
0.0
  0
CIRCLE
  5
192
330
1F
100
AcDbEntity
  8
VISIBLE
100
AcDbCircle
 10
194.660392761231
 20
977.67492675781
 30
0.0
 40
2.0
  0
LINE
  5
193
330
1F
100
AcDbEntity
  8
VISIBLE
100
AcDbLine
 10
342.0981464385992
 20
1120.17492675781
 30
0.0
 11
342.0981464385992
 21
1125.17492675781
 31
0.0
  0
LINE
  5
194
330
1F
100
AcDbEntity
  8
VISIBLE
100
AcDbLine
 10
34.66039276123101
 20
915.17492675781
 30
0.0
 11
34.66039276123101
 21
967.67492675781
 31
0.0
  0
CIRCLE
  5
195
330
1F
100
AcDbEntity
  8
VISIBLE
100
AcDbCircle
 10
194.660392761231
 20
1017.67492675781
 30
0.0
 40
2.0
  0
LINE
  5
196
330
1F
100
AcDbEntity
  8
VISIBLE
100
AcDbLine
 10
214.660392761231
 20
1177.67492675781
 30
0.0
 11
214.660392761231
 21
1172.67492675781
 31
0.0
  0
LINE
  5
197
330
1F
100
AcDbEntity
  8
VISIBLE
100
AcDbLine
 10
34.66039276123101
 20
1037.67492675781
 30
0.0
 11
39.66039276123101
 21
1037.67492675781
 31
0.0
  0
LINE
  5
198
330
1F
100
AcDbEntity
  8
VISIBLE
100
AcDbLine
 10
34.66039276123101
 20
915.17492675781
 30
0.0
 11
47.22263908386284
 21
915.17492675781
 31
0.0
  0
LINE
  5
199
330
1F
100
AcDbEntity
  8
VISIBLE
100
AcDbLine
 10
244.660392761231
 20
1177.67492675781
 30
0.0
 11
297.160392761231
 21
1177.67492675781
 31
0.0
  0
LINE
  5
19A
330
1F
100
AcDbEntity
  8
VISIBLE
100
AcDbLine
 10
174.6603927612313
 20
862.67492675781
 30
0.0
 11
214.6603927612311
 21
862.67492675781
 31
0.0
  0
LINE
  5
19B
330
1F
100
AcDbEntity
  8
VISIBLE
100
AcDbLine
 10
354.660392761231
 20
857.67492675781
 30
0.0
 11
302.160392761231
 21
857.67492675781
 31
0.0
  0
CIRCLE
  5
19C
330
1F
100
AcDbEntity
  8
VISIBLE
100
AcDbCircle
 10
274.660392761231
 20
1097.67492675781
 30
0.0
 40
2.0
  0
CIRCLE
  5
19D
330
1F
100
AcDbEntity
  8
VISIBLE
100
AcDbCircle
 10
234.660392761231
 20
937.67492675781
 30
0.0
 40
2.0
  0
CIRCLE
  5
19E
330
1F
100
AcDbEntity
  8
VISIBLE
100
AcDbCircle
 10
114.660392761231
 20
1057.67492675781
 30
0.0
 40
2.0
  0
LINE
  5
19F
330
1F
100
AcDbEntity
  8
VISIBLE
100
AcDbLine
 10
302.160392761231
 20
1177.67492675781
 30
0.0
 11
354.660392761231
 21
1177.67492675781
 31
0.0
  0
LINE
  5
1A0
330
1F
100
AcDbEntity
  8
VISIBLE
100
AcDbLine
 10
342.0981464385992
 20
1125.17492675781
 30
0.0
 11
354.660392761231
 21
1125.17492675781
 31
0.0
  0
LINE
  5
1A1
330
1F
100
AcDbEntity
  8
VISIBLE
100
AcDbLine
 10
24.66039276123101
 20
977.67492675781
 30
0.0
 11
24.66039276123101
 21
1057.67492675781
 31
0.0
  0
LINE
  5
1A2
330
1F
100
AcDbEntity
  8
VISIBLE
100
AcDbLine
 10
214.660392761231
 20
1172.67492675781
 30
0.0
 11
174.660392761231
 21
1172.67492675781
 31
0.0
  0
LINE
  5
1A3
330
1F
100
AcDbEntity
  8
VISIBLE
100
AcDbLine
 10
87.16039276123101
 20
857.67492675781
 30
0.0
 11
34.66039276123101
 21
857.67492675781
 31
0.0
  0
LINE
  5
1A4
330
1F
100
AcDbEntity
  8
VISIBLE
100
AcDbLine
 10
214.6603927612311
 20
862.67492675781
 30
0.0
 11
214.660392761231
 21
857.67492675781
 31
0.0
  0
CIRCLE
  5
1A5
330
1F
100
AcDbEntity
  8
VISIBLE
100
AcDbCircle
 10
114.660392761231
 20
937.67492675781
 30
0.0
 40
2.0
  0
LINE
  5
1A6
330
1F
100
AcDbEntity
  8
VISIBLE
100
AcDbLine
 10
297.160392761231
 20
870.2371730804418
 30
0.0
 11
302.160392761231
 21
870.2371730804418
 31
0.0
  0
LINE
  5
1A7
330
1F
100
AcDbEntity
  8
VISIBLE
100
AcDbLine
 10
47.22263908386284
 20
915.17492675781
 30
0.0
 11
47.22263908386284
 21
910.17492675781
 31
0.0
  0
LINE
  5
1A8
330
1F
100
AcDbEntity
  8
VISIBLE
100
AcDbLine
 10
297.160392761231
 20
1165.112680435178
 30
0.0
 11
297.160392761231
 21
1177.67492675781
 31
0.0
  0
LINE
  5
1A9
330
1F
100
AcDbEntity
  8
VISIBLE
100
AcDbLine
 10
34.66039276123101
 20
1067.67492675781
 30
0.0
 11
34.66039276123101
 21
1120.17492675781
 31
0.0
  0
CIRCLE
  5
1AA
330
1F
100
AcDbEntity
  8
VISIBLE
100
AcDbCircle
 10
154.660392761231
 20
977.67492675781
 30
0.0
 40
2.0
  0
LINE
  5
1AB
330
1F
100
AcDbEntity
  8
VISIBLE
100
AcDbLine
 10
24.66039276123101
 20
1057.67492675781
 30
0.0
 11
34.66039276123101
 21
1067.67492675781
 31
0.0
  0
LINE
  5
1AC
330
1F
100
AcDbEntity
  8
VISIBLE
100
AcDbLine
 10
244.660392761231
 20
857.67492675781
 30
0.0
 11
234.660392761231
 21
847.67492675781
 31
0.0
  0
LINE
  5
1AD
330
1F
100
AcDbEntity
  8
VISIBLE
100
AcDbLine
 10
87.16039276123101
 20
857.67492675781
 30
0.0
 11
87.16039276123101
 21
870.2371730804418
 31
0.0
  0
CIRCLE
  5
1AE
330
1F
100
AcDbEntity
  8
VISIBLE
100
AcDbCircle
 10
154.660392761231
 20
1057.67492675781
 30
0.0
 40
2.0
  0
CIRCLE
  5
1AF
330
1F
100
AcDbEntity
  8
VISIBLE
100
AcDbCircle
 10
274.660392761231
 20
977.67492675781
 30
0.0
 40
2.0
  0
CIRCLE
  5
1B0
330
1F
100
AcDbEntity
  8
VISIBLE
100
AcDbCircle
 10
154.660392761231
 20
1017.67492675781
 30
0.0
 40
2.0
  0
LINE
  5
1B1
330
1F
100
AcDbEntity
  8
VISIBLE
100
AcDbLine
 10
214.660392761231
 20
857.67492675781
 30
0.0
 11
174.660392761231
 21
857.67492675781
 31
0.0
  0
LINE
  5
1B2
330
1F
100
AcDbEntity
  8
VISIBLE
100
AcDbLine
 10
34.66039276123101
 20
1125.17492675781
 30
0.0
 11
34.66039276123101
 21
1177.67492675781
 31
0.0
  0
LINE
  5
1B3
330
1F
100
AcDbEntity
  8
VISIBLE
100
AcDbLine
 10
297.160392761231
 20
857.67492675781
 30
0.0
 11
244.660392761231
 21
857.67492675781
 31
0.0
  0
LINE
  5
1B4
330
1F
100
AcDbEntity
  8
VISIBLE
100
AcDbLine
 10
302.160392761231
 20
1177.67492675781
 30
0.0
 11
302.160392761231
 21
1165.112680435178
 31
0.0
  0
LINE
  5
1B5
330
1F
100
AcDbEntity
  8
VISIBLE
100
AcDbLine
 10
174.660392761231
 20
857.67492675781
 30
0.0
 11
174.6603927612313
 21
862.67492675781
 31
0.0
  0
LINE
  5
1B6
330
1F
100
AcDbEntity
  8
VISIBLE
100
AcDbLine
 10
297.160392761231
 20
857.67492675781
 30
0.0
 11
297.160392761231
 21
870.2371730804418
 31
0.0
  0
LINE
  5
1B7
330
1F
100
AcDbEntity
  8
VISIBLE
100
AcDbLine
 10
354.660392761231
 20
1120.17492675781
 30
0.0
 11
354.660392761231
 21
1067.67492675781
 31
0.0
  0
LINE
  5
1B8
330
1F
100
AcDbEntity
  8
VISIBLE
100
AcDbLine
 10
34.66039276123101
 20
857.67492675781
 30
0.0
 11
34.66039276123101
 21
910.17492675781
 31
0.0
  0
LINE
  5
1B9
330
1F
100
AcDbEntity
  8
VISIBLE
100
AcDbLine
 10
342.0981464385992
 20
915.17492675781
 30
0.0
 11
354.660392761231
 21
915.17492675781
 31
0.0
  0
LINE
  5
1BA
330
1F
100
AcDbEntity
  8
VISIBLE
100
AcDbLine
 10
234.660392761231
 20
1187.67492675781
 30
0.0
 11
244.660392761231
 21
1177.67492675781
 31
0.0
  0
LINE
  5
1BB
330
1F
100
AcDbEntity
  8
VISIBLE
100
AcDbLine
 10
92.16039276123101
 20
1165.112680435178
 30
0.0
 11
87.16039276123101
 21
1165.112680435178
 31
0.0
  0
CIRCLE
  5
1BC
330
1F
100
AcDbEntity
  8
VISIBLE
100
AcDbCircle
 10
114.660392761231
 20
977.67492675781
 30
0.0
 40
2.0
  0
LINE
  5
1BD
330
1F
100
AcDbEntity
  8
VISIBLE
100
AcDbLine
 10
34.66039276123101
 20
1037.67492675781
 30
0.0
 11
34.66039276123101
 21
997.67492675781
 31
0.0
  0
CIRCLE
  5
1BE
330
1F
100
AcDbEntity
  8
VISIBLE
100
AcDbCircle
 10
187.641052246094
 20
642.033996582031
 30
0.0
 40
2.0
  0
CIRCLE
  5
1BF
330
1F
100
AcDbEntity
  8
VISIBLE
100
AcDbCircle
 10
107.641052246094
 20
722.033996582031
 30
0.0
 40
2.0
  0
LINE
  5
1C0
330
1F
100
AcDbEntity
  8
VISIBLE
100
AcDbLine
 10
102.641052246094
 20
579.533996582031
 30
0.0
 11
102.641052246094
 21
574.533996582031
 31
0.0
  0
LINE
  5
1C1
330
1F
100
AcDbEntity
  8
VISIBLE
100
AcDbLine
 10
295.141052246094
 20
579.533996582031
 30
0.0
 11
312.641052246094
 21
579.533996582031
 31
0.0
  0
LINE
  5
1C2
330
1F
100
AcDbEntity
  8
VISIBLE
100
AcDbLine
 10
290.141052246094
 20
807.033996582031
 30
0.0
 11
295.141052246094
 21
807.033996582031
 31
0.0
  0
LINE
  5
1C3
330
1F
100
AcDbEntity
  8
VISIBLE
100
AcDbLine
 10
207.641052246094
 20
684.533996582031
 30
0.0
 11
207.641052246094
 21
679.533996582031
 31
0.0
  0
CIRCLE
  5
1C4
330
1F
100
AcDbEntity
  8
VISIBLE
100
AcDbCircle
 10
227.641052246094
 20
602.033996582031
 30
0.0
 40
2.0
  0
LINE
  5
1C5
330
1F
100
AcDbEntity
  8
VISIBLE
100
AcDbLine
 10
272.641052246094
 20
789.533996582031
 30
0.0
 11
290.141052246094
 21
789.533996582031
 31
0.0
  0
LINE
  5
1C6
330
1F
100
AcDbEntity
  8
VISIBLE
100
AcDbLine
 10
290.141052246094
 20
784.533996582031
 30
0.0
 11
272.641052246094
 21
784.533996582031
 31
0.0
  0
LINE
  5
1C7
330
1F
100
AcDbEntity
  8
VISIBLE
100
AcDbLine
 10
80.141052246094
 20
767.033996582031
 30
0.0
 11
80.141052246094
 21
784.533996582031
 31
0.0
  0
CIRCLE
  5
1C8
330
1F
100
AcDbEntity
  8
VISIBLE
100
AcDbCircle
 10
227.641052246094
 20
682.033996582031
 30
0.0
 40
2.0
  0
LINE
  5
1C9
330
1F
100
AcDbEntity
  8
VISIBLE
100
AcDbLine
 10
80.141052246094
 20
807.033996582031
 30
0.0
 11
85.141052246094
 21
807.033996582031
 31
0.0
  0
CIRCLE
  5
1CA
330
1F
100
AcDbEntity
  8
VISIBLE
100
AcDbCircle
 10
187.641052246094
 20
602.033996582031
 30
0.0
 40
2.0
  0
LINE
  5
1CB
330
1F
100
AcDbEntity
  8
VISIBLE
100
AcDbLine
 10
102.641052246094
 20
789.533996582031
 30
0.0
 11
102.641052246094
 21
784.533996582031
 31
0.0
  0
CIRCLE
  5
1CC
330
1F
100
AcDbEntity
  8
VISIBLE
100
AcDbCircle
 10
267.641052246094
 20
642.033996582031
 30
0.0
 40
2.0
  0
LINE
  5
1CD
330
1F
100
AcDbEntity
  8
VISIBLE
100
AcDbLine
 10
295.141052246094
 20
557.033996582031
 30
0.0
 11
290.141052246094
 21
557.033996582031
 31
0.0
  0
CIRCLE
  5
1CE
330
1F
100
AcDbEntity
  8
VISIBLE
100
AcDbCircle
 10
187.641052246094
 20
762.033996582031
 30
0.0
 40
2.0
  0
LINE
  5
1CF
330
1F
100
AcDbEntity
  8
VISIBLE
100
AcDbLine
 10
295.141052246094
 20
789.533996582031
 30
0.0
 11
312.641052246094
 21
789.533996582031
 31
0.0
  0
LINE
  5
1D0
330
1F
100
AcDbEntity
  8
VISIBLE
100
AcDbLine
 10
342.641052246094
 20
662.033996582031
 30
0.0
 11
342.641052246094
 21
527.033996582031
 31
0.0
  0
LINE
  5
1D1
330
1F
100
AcDbEntity
  8
VISIBLE
100
AcDbLine
 10
85.141052246094
 20
807.033996582031
 30
0.0
 11
85.141052246094
 21
789.533996582031
 31
0.0
  0
CIRCLE
  5
1D2
330
1F
100
AcDbEntity
  8
VISIBLE
100
AcDbCircle
 10
147.641052246094
 20
642.033996582031
 30
0.0
 40
2.0
  0
LINE
  5
1D3
330
1F
100
AcDbEntity
  8
VISIBLE
100
AcDbLine
 10
27.64105224609401
 20
702.033996582031
 30
0.0
 11
32.64105224609401
 21
702.033996582031
 31
0.0
  0
LINE
  5
1D4
330
1F
100
AcDbEntity
  8
VISIBLE
100
AcDbLine
 10
290.141052246094
 20
597.033996582031
 30
0.0
 11
295.141052246094
 21
597.033996582031
 31
0.0
  0
LINE
  5
1D5
330
1F
100
AcDbEntity
  8
VISIBLE
100
AcDbLine
 10
290.141052246094
 20
557.033996582031
 30
0.0
 11
290.141052246094
 21
574.533996582031
 31
0.0
  0
LINE
  5
1D6
330
1F
100
AcDbEntity
  8
VISIBLE
100
AcDbLine
 10
342.641052246094
 20
837.033996582031
 30
0.0
 11
342.641052246094
 21
702.033996582031
 31
0.0
  0
LINE
  5
1D7
330
1F
100
AcDbEntity
  8
VISIBLE
100
AcDbLine
 10
102.641052246094
 20
574.533996582031
 30
0.0
 11
85.141052246094
 21
574.533996582031
 31
0.0
  0
CIRCLE
  5
1D8
330
1F
100
AcDbEntity
  8
VISIBLE
100
AcDbCircle
 10
267.641052246094
 20
602.033996582031
 30
0.0
 40
2.0
  0
CIRCLE
  5
1D9
330
1F
100
AcDbEntity
  8
VISIBLE
100
AcDbCircle
 10
147.641052246094
 20
602.033996582031
 30
0.0
 40
2.0
  0
LINE
  5
1DA
330
1F
100
AcDbEntity
  8
VISIBLE
100
AcDbLine
 10
27.64105224609401
 20
662.033996582031
 30
0.0
 11
27.64105224609401
 21
702.033996582031
 31
0.0
  0
LINE
  5
1DB
330
1F
100
AcDbEntity
  8
VISIBLE
100
AcDbLine
 10
295.141052246094
 20
574.533996582031
 30
0.0
 11
295.141052246094
 21
557.033996582031
 31
0.0
  0
LINE
  5
1DC
330
1F
100
AcDbEntity
  8
VISIBLE
100
AcDbLine
 10
32.64105224609401
 20
527.033996582031
 30
0.0
 11
32.64105224609401
 21
662.033996582031
 31
0.0
  0
CIRCLE
  5
1DD
330
1F
100
AcDbEntity
  8
VISIBLE
100
AcDbCircle
 10
147.641052246094
 20
682.033996582031
 30
0.0
 40
2.0
  0
LINE
  5
1DE
330
1F
100
AcDbEntity
  8
VISIBLE
100
AcDbLine
 10
207.641052246094
 20
837.033996582031
 30
0.0
 11
342.641052246094
 21
837.033996582031
 31
0.0
  0
LINE
  5
1DF
330
1F
100
AcDbEntity
  8
VISIBLE
100
AcDbLine
 10
32.64105224609401
 20
702.033996582031
 30
0.0
 11
32.64105224609401
 21
837.033996582031
 31
0.0
  0
LINE
  5
1E0
330
1F
100
AcDbEntity
  8
VISIBLE
100
AcDbLine
 10
347.641052246094
 20
662.033996582031
 30
0.0
 11
342.641052246094
 21
662.033996582031
 31
0.0
  0
CIRCLE
  5
1E1
330
1F
100
AcDbEntity
  8
VISIBLE
100
AcDbCircle
 10
267.641052246094
 20
762.033996582031
 30
0.0
 40
2.0
  0
CIRCLE
  5
1E2
330
1F
100
AcDbEntity
  8
VISIBLE
100
AcDbCircle
 10
147.641052246094
 20
762.033996582031
 30
0.0
 40
2.0
  0
LINE
  5
1E3
330
1F
100
AcDbEntity
  8
VISIBLE
100
AcDbLine
 10
80.141052246094
 20
557.033996582031
 30
0.0
 11
80.141052246094
 21
574.533996582031
 31
0.0
  0
LINE
  5
1E4
330
1F
100
AcDbEntity
  8
VISIBLE
100
AcDbLine
 10
207.641052246094
 20
679.533996582031
 30
0.0
 11
190.141052246094
 21
679.533996582031
 31
0.0
  0
LINE
  5
1E5
330
1F
100
AcDbEntity
  8
VISIBLE
100
AcDbLine
 10
167.641052246094
 20
842.033996582031
 30
0.0
 11
207.641052246094
 21
842.033996582031
 31
0.0
  0
LINE
  5
1E6
330
1F
100
AcDbEntity
  8
VISIBLE
100
AcDbLine
 10
102.641052246094
 20
784.533996582031
 30
0.0
 11
85.141052246094
 21
784.533996582031
 31
0.0
  0
LINE
  5
1E7
330
1F
100
AcDbEntity
  8
VISIBLE
100
AcDbLine
 10
272.641052246094
 20
784.533996582031
 30
0.0
 11
272.641052246094
 21
789.533996582031
 31
0.0
  0
LINE
  5
1E8
330
1F
100
AcDbEntity
  8
VISIBLE
100
AcDbLine
 10
347.641052246094
 20
702.033996582031
 30
0.0
 11
347.641052246094
 21
662.033996582031
 31
0.0
  0
CIRCLE
  5
1E9
330
1F
100
AcDbEntity
  8
VISIBLE
100
AcDbCircle
 10
107.641052246094
 20
642.033996582031
 30
0.0
 40
2.0
  0
CIRCLE
  5
1EA
330
1F
100
AcDbEntity
  8
VISIBLE
100
AcDbCircle
 10
107.641052246094
 20
762.033996582031
 30
0.0
 40
2.0
  0
LINE
  5
1EB
330
1F
100
AcDbEntity
  8
VISIBLE
100
AcDbLine
 10
185.141052246094
 20
702.033996582031
 30
0.0
 11
190.141052246094
 21
702.033996582031
 31
0.0
  0
CIRCLE
  5
1EC
330
1F
100
AcDbEntity
  8
VISIBLE
100
AcDbCircle
 10
227.641052246094
 20
722.033996582031
 30
0.0
 40
2.0
  0
LINE
  5
1ED
330
1F
100
AcDbEntity
  8
VISIBLE
100
AcDbLine
 10
190.141052246094
 20
662.033996582031
 30
0.0
 11
185.141052246094
 21
662.033996582031
 31
0.0
  0
LINE
  5
1EE
330
1F
100
AcDbEntity
  8
VISIBLE
100
AcDbLine
 10
85.141052246094
 20
784.533996582031
 30
0.0
 11
85.141052246094
 21
767.033996582031
 31
0.0
  0
LINE
  5
1EF
330
1F
100
AcDbEntity
  8
VISIBLE
100
AcDbLine
 10
85.141052246094
 20
579.533996582031
 30
0.0
 11
102.641052246094
 21
579.533996582031
 31
0.0
  0
LINE
  5
1F0
330
1F
100
AcDbEntity
  8
VISIBLE
100
AcDbLine
 10
272.641052246094
 20
574.533996582031
 30
0.0
 11
272.641052246094
 21
579.533996582031
 31
0.0
  0
CIRCLE
  5
1F1
330
1F
100
AcDbEntity
  8
VISIBLE
100
AcDbCircle
 10
267.641052246094
 20
682.033996582031
 30
0.0
 40
2.0
  0
LINE
  5
1F2
330
1F
100
AcDbEntity
  8
VISIBLE
100
AcDbLine
 10
190.141052246094
 20
679.533996582031
 30
0.0
 11
190.141052246094
 21
662.033996582031
 31
0.0
  0
CIRCLE
  5
1F3
330
1F
100
AcDbEntity
  8
VISIBLE
100
AcDbCircle
 10
107.641052246094
 20
682.033996582031
 30
0.0
 40
2.0
  0
LINE
  5
1F4
330
1F
100
AcDbEntity
  8
VISIBLE
100
AcDbLine
 10
167.641052246094
 20
679.533996582031
 30
0.0
 11
167.641052246094
 21
684.533996582031
 31
0.0
  0
CIRCLE
  5
1F5
330
1F
100
AcDbEntity
  8
VISIBLE
100
AcDbCircle
 10
267.641052246094
 20
722.033996582031
 30
0.0
 40
2.0
  0
LINE
  5
1F6
330
1F
100
AcDbEntity
  8
VISIBLE
100
AcDbLine
 10
167.641052246094
 20
684.533996582031
 30
0.0
 11
185.141052246094
 21
684.533996582031
 31
0.0
  0
CIRCLE
  5
1F7
330
1F
100
AcDbEntity
  8
VISIBLE
100
AcDbCircle
 10
227.641052246094
 20
642.033996582031
 30
0.0
 40
2.0
  0
LINE
  5
1F8
330
1F
100
AcDbEntity
  8
VISIBLE
100
AcDbLine
 10
290.141052246094
 20
767.033996582031
 30
0.0
 11
290.141052246094
 21
784.533996582031
 31
0.0
  0
LINE
  5
1F9
330
1F
100
AcDbEntity
  8
VISIBLE
100
AcDbLine
 10
32.64105224609401
 20
662.033996582031
 30
0.0
 11
27.64105224609401
 21
662.033996582031
 31
0.0
  0
LINE
  5
1FA
330
1F
100
AcDbEntity
  8
VISIBLE
100
AcDbLine
 10
80.141052246094
 20
789.533996582031
 30
0.0
 11
80.141052246094
 21
807.033996582031
 31
0.0
  0
LINE
  5
1FB
330
1F
100
AcDbEntity
  8
VISIBLE
100
AcDbLine
 10
190.141052246094
 20
684.533996582031
 30
0.0
 11
207.641052246094
 21
684.533996582031
 31
0.0
  0
LINE
  5
1FC
330
1F
100
AcDbEntity
  8
VISIBLE
100
AcDbLine
 10
272.641052246094
 20
579.533996582031
 30
0.0
 11
290.141052246094
 21
579.533996582031
 31
0.0
  0
LINE
  5
1FD
330
1F
100
AcDbEntity
  8
VISIBLE
100
AcDbLine
 10
342.641052246094
 20
527.033996582031
 30
0.0
 11
32.64105224609401
 21
527.033996582031
 31
0.0
  0
LINE
  5
1FE
330
1F
100
AcDbEntity
  8
VISIBLE
100
AcDbLine
 10
85.141052246094
 20
597.033996582031
 30
0.0
 11
85.141052246094
 21
579.533996582031
 31
0.0
  0
LINE
  5
1FF
330
1F
100
AcDbEntity
  8
VISIBLE
100
AcDbLine
 10
167.641052246094
 20
837.033996582031
 30
0.0
 11
167.641052246094
 21
842.033996582031
 31
0.0
  0
LINE
  5
200
330
1F
100
AcDbEntity
  8
VISIBLE
100
AcDbLine
 10
290.141052246094
 20
579.533996582031
 30
0.0
 11
290.141052246094
 21
597.033996582031
 31
0.0
  0
LINE
  5
201
330
1F
100
AcDbEntity
  8
VISIBLE
100
AcDbLine
 10
207.641052246094
 20
842.033996582031
 30
0.0
 11
207.641052246094
 21
837.033996582031
 31
0.0
  0
LINE
  5
202
330
1F
100
AcDbEntity
  8
VISIBLE
100
AcDbLine
 10
312.641052246094
 20
579.533996582031
 30
0.0
 11
312.641052246094
 21
574.533996582031
 31
0.0
  0
CIRCLE
  5
203
330
1F
100
AcDbEntity
  8
VISIBLE
100
AcDbCircle
 10
187.641052246094
 20
722.033996582031
 30
0.0
 40
2.0
  0
LINE
  5
204
330
1F
100
AcDbEntity
  8
VISIBLE
100
AcDbLine
 10
290.141052246094
 20
574.533996582031
 30
0.0
 11
272.641052246094
 21
574.533996582031
 31
0.0
  0
LINE
  5
205
330
1F
100
AcDbEntity
  8
VISIBLE
100
AcDbLine
 10
185.141052246094
 20
684.533996582031
 30
0.0
 11
185.141052246094
 21
702.033996582031
 31
0.0
  0
LINE
  5
206
330
1F
100
AcDbEntity
  8
VISIBLE
100
AcDbLine
 10
290.141052246094
 20
789.533996582031
 30
0.0
 11
290.141052246094
 21
807.033996582031
 31
0.0
  0
LINE
  5
207
330
1F
100
AcDbEntity
  8
VISIBLE
100
AcDbLine
 10
342.641052246094
 20
702.033996582031
 30
0.0
 11
347.641052246094
 21
702.033996582031
 31
0.0
  0
LINE
  5
208
330
1F
100
AcDbEntity
  8
VISIBLE
100
AcDbLine
 10
32.64105224609401
 20
837.033996582031
 30
0.0
 11
167.641052246094
 21
837.033996582031
 31
0.0
  0
LINE
  5
209
330
1F
100
AcDbEntity
  8
VISIBLE
100
AcDbLine
 10
80.141052246094
 20
784.533996582031
 30
0.0
 11
62.64105224609401
 21
784.533996582031
 31
0.0
  0
LINE
  5
20A
330
1F
100
AcDbEntity
  8
VISIBLE
100
AcDbLine
 10
190.141052246094
 20
702.033996582031
 30
0.0
 11
190.141052246094
 21
684.533996582031
 31
0.0
  0
LINE
  5
20B
330
1F
100
AcDbEntity
  8
VISIBLE
100
AcDbLine
 10
85.141052246094
 20
789.533996582031
 30
0.0
 11
102.641052246094
 21
789.533996582031
 31
0.0
  0
LINE
  5
20C
330
1F
100
AcDbEntity
  8
VISIBLE
100
AcDbLine
 10
312.641052246094
 20
784.533996582031
 30
0.0
 11
295.141052246094
 21
784.533996582031
 31
0.0
  0
LINE
  5
20D
330
1F
100
AcDbEntity
  8
VISIBLE
100
AcDbLine
 10
185.141052246094
 20
679.533996582031
 30
0.0
 11
167.641052246094
 21
679.533996582031
 31
0.0
  0
LINE
  5
20E
330
1F
100
AcDbEntity
  8
VISIBLE
100
AcDbLine
 10
295.141052246094
 20
597.033996582031
 30
0.0
 11
295.141052246094
 21
579.533996582031
 31
0.0
  0
CIRCLE
  5
20F
330
1F
100
AcDbEntity
  8
VISIBLE
100
AcDbCircle
 10
227.641052246094
 20
762.033996582031
 30
0.0
 40
2.0
  0
LINE
  5
210
330
1F
100
AcDbEntity
  8
VISIBLE
100
AcDbLine
 10
312.641052246094
 20
574.533996582031
 30
0.0
 11
295.141052246094
 21
574.533996582031
 31
0.0
  0
LINE
  5
211
330
1F
100
AcDbEntity
  8
VISIBLE
100
AcDbLine
 10
185.141052246094
 20
662.033996582031
 30
0.0
 11
185.141052246094
 21
679.533996582031
 31
0.0
  0
LINE
  5
212
330
1F
100
AcDbEntity
  8
VISIBLE
100
AcDbLine
 10
85.141052246094
 20
557.033996582031
 30
0.0
 11
80.141052246094
 21
557.033996582031
 31
0.0
  0
LINE
  5
213
330
1F
100
AcDbEntity
  8
VISIBLE
100
AcDbLine
 10
85.141052246094
 20
767.033996582031
 30
0.0
 11
80.141052246094
 21
767.033996582031
 31
0.0
  0
LINE
  5
214
330
1F
100
AcDbEntity
  8
VISIBLE
100
AcDbLine
 10
80.141052246094
 20
597.033996582031
 30
0.0
 11
85.141052246094
 21
597.033996582031
 31
0.0
  0
LINE
  5
215
330
1F
100
AcDbEntity
  8
VISIBLE
100
AcDbLine
 10
80.141052246094
 20
574.533996582031
 30
0.0
 11
62.64105224609401
 21
574.533996582031
 31
0.0
  0
LINE
  5
216
330
1F
100
AcDbEntity
  8
VISIBLE
100
AcDbLine
 10
312.641052246094
 20
789.533996582031
 30
0.0
 11
312.641052246094
 21
784.533996582031
 31
0.0
  0
LINE
  5
217
330
1F
100
AcDbEntity
  8
VISIBLE
100
AcDbLine
 10
295.141052246094
 20
767.033996582031
 30
0.0
 11
290.141052246094
 21
767.033996582031
 31
0.0
  0
LINE
  5
218
330
1F
100
AcDbEntity
  8
VISIBLE
100
AcDbLine
 10
295.141052246094
 20
807.033996582031
 30
0.0
 11
295.141052246094
 21
789.533996582031
 31
0.0
  0
LINE
  5
219
330
1F
100
AcDbEntity
  8
VISIBLE
100
AcDbLine
 10
295.141052246094
 20
784.533996582031
 30
0.0
 11
295.141052246094
 21
767.033996582031
 31
0.0
  0
CIRCLE
  5
21A
330
1F
100
AcDbEntity
  8
VISIBLE
100
AcDbCircle
 10
107.641052246094
 20
602.033996582031
 30
0.0
 40
2.0
  0
LINE
  5
21B
330
1F
100
AcDbEntity
  8
VISIBLE
100
AcDbLine
 10
62.64105224609401
 20
579.533996582031
 30
0.0
 11
80.141052246094
 21
579.533996582031
 31
0.0
  0
CIRCLE
  5
21C
330
1F
100
AcDbEntity
  8
VISIBLE
100
AcDbCircle
 10
147.641052246094
 20
722.033996582031
 30
0.0
 40
2.0
  0
LINE
  5
21D
330
1F
100
AcDbEntity
  8
VISIBLE
100
AcDbLine
 10
80.141052246094
 20
579.533996582031
 30
0.0
 11
80.141052246094
 21
597.033996582031
 31
0.0
  0
LINE
  5
21E
330
1F
100
AcDbEntity
  8
VISIBLE
100
AcDbLine
 10
62.64105224609401
 20
574.533996582031
 30
0.0
 11
62.64105224609401
 21
579.533996582031
 31
0.0
  0
LINE
  5
21F
330
1F
100
AcDbEntity
  8
VISIBLE
100
AcDbLine
 10
62.64105224609401
 20
789.533996582031
 30
0.0
 11
80.141052246094
 21
789.533996582031
 31
0.0
  0
LINE
  5
220
330
1F
100
AcDbEntity
  8
VISIBLE
100
AcDbLine
 10
85.141052246094
 20
574.533996582031
 30
0.0
 11
85.141052246094
 21
557.033996582031
 31
0.0
  0
LINE
  5
221
330
1F
100
AcDbEntity
  8
VISIBLE
100
AcDbLine
 10
62.64105224609401
 20
784.533996582031
 30
0.0
 11
62.64105224609401
 21
789.533996582031
 31
0.0
  0
LINE
  5
222
330
1F
100
AcDbEntity
  8
VISIBLE
100
AcDbLine
 10
872.631652832031
 20
1014.03637695313
 30
0.0
 11
872.631652832031
 21
996.53637695313
 31
0.0
  0
LINE
  5
223
330
1F
100
AcDbEntity
  8
VISIBLE
100
AcDbLine
 10
850.131652832031
 20
1171.53637695313
 30
0.0
 11
850.131652832031
 21
1176.53637695313
 31
0.0
  0
LINE
  5
224
330
1F
100
AcDbEntity
  8
VISIBLE
100
AcDbLine
 10
972.631652832031
 20
891.53637695313
 30
0.0
 11
972.631652832031
 21
909.03637695313
 31
0.0
  0
CIRCLE
  5
225
330
1F
100
AcDbEntity
  8
VISIBLE
100
AcDbCircle
 10
790.131652832031
 20
1096.53637695313
 30
0.0
 40
2.0
  0
LINE
  5
226
330
1F
100
AcDbEntity
  8
VISIBLE
100
AcDbLine
 10
720.131652832031
 20
914.03637695313
 30
0.0
 11
720.131652832031
 21
909.03637695313
 31
0.0
  0
LINE
  5
227
330
1F
100
AcDbEntity
  8
VISIBLE
100
AcDbLine
 10
977.631652832031
 20
1101.53637695313
 30
0.0
 11
972.631652832031
 21
1101.53637695313
 31
0.0
  0
LINE
  5
228
330
1F
100
AcDbEntity
  8
VISIBLE
100
AcDbLine
 10
767.631652832031
 20
1101.53637695313
 30
0.0
 11
762.631652832031
 21
1101.53637695313
 31
0.0
  0
LINE
  5
229
330
1F
100
AcDbEntity
  8
VISIBLE
100
AcDbLine
 10
715.131652832031
 20
1036.53637695313
 30
0.0
 11
715.131652832031
 21
996.53637695313
 31
0.0
  0
LINE
  5
22A
330
1F
100
AcDbEntity
  8
VISIBLE
100
AcDbLine
 10
972.631652832031
 20
1119.03637695313
 30
0.0
 11
955.131652832031
 21
1119.03637695313
 31
0.0
  0
LINE
  5
22B
330
1F
100
AcDbEntity
  8
VISIBLE
100
AcDbLine
 10
850.131652832031
 20
1019.03637695313
 30
0.0
 11
867.631652832031
 21
1019.03637695313
 31
0.0
  0
LINE
  5
22C
330
1F
100
AcDbEntity
  8
VISIBLE
100
AcDbLine
 10
1020.131652832031
 20
909.03637695313
 30
0.0
 11
1020.131652832031
 21
914.03637695313
 31
0.0
  0
LINE
  5
22D
330
1F
100
AcDbEntity
  8
VISIBLE
100
AcDbLine
 10
710.131652832031
 20
914.03637695313
 30
0.0
 11
720.131652832031
 21
914.03637695313
 31
0.0
  0
CIRCLE
  5
22E
330
1F
100
AcDbEntity
  8
VISIBLE
100
AcDbCircle
 10
870.131652832031
 20
976.53637695313
 30
0.0
 40
2.0
  0
CIRCLE
  5
22F
330
1F
100
AcDbEntity
  8
VISIBLE
100
AcDbCircle
 10
910.131652832031
 20
936.53637695313
 30
0.0
 40
2.0
  0
LINE
  5
230
330
1F
100
AcDbEntity
  8
VISIBLE
100
AcDbLine
 10
762.631652832031
 20
1119.03637695313
 30
0.0
 11
745.131652832031
 21
1119.03637695313
 31
0.0
  0
LINE
  5
231
330
1F
100
AcDbEntity
  8
VISIBLE
100
AcDbLine
 10
977.631652832031
 20
1141.53637695313
 30
0.0
 11
977.631652832031
 21
1124.03637695313
 31
0.0
  0
LINE
  5
232
330
1F
100
AcDbEntity
  8
VISIBLE
100
AcDbLine
 10
762.631652832031
 20
914.03637695313
 30
0.0
 11
762.631652832031
 21
931.53637695313
 31
0.0
  0
LINE
  5
233
330
1F
100
AcDbEntity
  8
VISIBLE
100
AcDbLine
 10
762.631652832031
 20
861.53637695313
 30
0.0
 11
710.131652832031
 21
861.53637695313
 31
0.0
  0
CIRCLE
  5
234
330
1F
100
AcDbEntity
  8
VISIBLE
100
AcDbCircle
 10
790.131652832031
 20
1016.53637695313
 30
0.0
 40
2.0
  0
CIRCLE
  5
235
330
1F
100
AcDbEntity
  8
VISIBLE
100
AcDbCircle
 10
870.131652832031
 20
1056.53637695313
 30
0.0
 40
2.0
  0
LINE
  5
236
330
1F
100
AcDbEntity
  8
VISIBLE
100
AcDbLine
 10
850.131652832031
 20
1014.03637695313
 30
0.0
 11
850.131652832031
 21
1019.03637695313
 31
0.0
  0
LINE
  5
237
330
1F
100
AcDbEntity
  8
VISIBLE
100
AcDbLine
 10
867.631652832031
 20
1036.53637695313
 30
0.0
 11
872.631652832031
 21
1036.53637695313
 31
0.0
  0
LINE
  5
238
330
1F
100
AcDbEntity
  8
VISIBLE
100
AcDbLine
 10
762.631652832031
 20
1161.53637695313
 30
0.0
 11
762.631652832031
 21
1171.53637695313
 31
0.0
  0
LINE
  5
239
330
1F
100
AcDbEntity
  8
VISIBLE
100
AcDbLine
 10
1030.131652832031
 20
1171.53637695313
 30
0.0
 11
1030.131652832031
 21
1124.03637695313
 31
0.0
  0
LINE
  5
23A
330
1F
100
AcDbEntity
  8
VISIBLE
100
AcDbLine
 10
977.631652832031
 20
871.53637695313
 30
0.0
 11
977.631652832031
 21
861.53637695313
 31
0.0
  0
LINE
  5
23B
330
1F
100
AcDbEntity
  8
VISIBLE
100
AcDbLine
 10
890.131652832031
 20
1176.53637695313
 30
0.0
 11
890.131652832031
 21
1171.53637695313
 31
0.0
  0
LINE
  5
23C
330
1F
100
AcDbEntity
  8
VISIBLE
100
AcDbLine
 10
715.131652832031
 20
996.53637695313
 30
0.0
 11
710.131652832031
 21
996.53637695313
 31
0.0
  0
LINE
  5
23D
330
1F
100
AcDbEntity
  8
VISIBLE
100
AcDbLine
 10
767.631652832031
 20
1124.03637695313
 30
0.0
 11
785.131652832031
 21
1124.03637695313
 31
0.0
  0
CIRCLE
  5
23E
330
1F
100
AcDbEntity
  8
VISIBLE
100
AcDbCircle
 10
830.131652832031
 20
1096.53637695313
 30
0.0
 40
2.0
  0
LINE
  5
23F
330
1F
100
AcDbEntity
  8
VISIBLE
100
AcDbLine
 10
995.131652832031
 20
1119.03637695313
 30
0.0
 11
977.631652832031
 21
1119.03637695313
 31
0.0
  0
LINE
  5
240
330
1F
100
AcDbEntity
  8
VISIBLE
100
AcDbLine
 10
745.131652832031
 20
1124.03637695313
 30
0.0
 11
762.631652832031
 21
1124.03637695313
 31
0.0
  0
LINE
  5
241
330
1F
100
AcDbEntity
  8
VISIBLE
100
AcDbLine
 10
1025.131652832031
 20
996.53637695313
 30
0.0
 11
1025.131652832031
 21
1036.53637695313
 31
0.0
  0
LINE
  5
242
330
1F
100
AcDbEntity
  8
VISIBLE
100
AcDbLine
 10
710.131652832031
 20
1171.53637695313
 30
0.0
 11
762.631652832031
 21
1171.53637695313
 31
0.0
  0
LINE
  5
243
330
1F
100
AcDbEntity
  8
VISIBLE
100
AcDbLine
 10
710.131652832031
 20
1066.53637695313
 30
0.0
 11
710.131652832031
 21
1119.03637695313
 31
0.0
  0
CIRCLE
  5
244
330
1F
100
AcDbEntity
  8
VISIBLE
100
AcDbCircle
 10
790.131652832031
 20
1056.53637695313
 30
0.0
 40
2.0
  0
LINE
  5
245
330
1F
100
AcDbEntity
  8
VISIBLE
100
AcDbLine
 10
767.631652832031
 20
1141.53637695313
 30
0.0
 11
767.631652832031
 21
1124.03637695313
 31
0.0
  0
LINE
  5
246
330
1F
100
AcDbEntity
  8
VISIBLE
100
AcDbLine
 10
977.631652832031
 20
1124.03637695313
 30
0.0
 11
995.131652832031
 21
1124.03637695313
 31
0.0
  0
LINE
  5
247
330
1F
100
AcDbEntity
  8
VISIBLE
100
AcDbLine
 10
1030.131652832031
 20
861.53637695313
 30
0.0
 11
977.631652832031
 21
861.53637695313
 31
0.0
  0
LINE
  5
248
330
1F
100
AcDbEntity
  8
VISIBLE
100
AcDbLine
 10
767.631652832031
 20
909.03637695313
 30
0.0
 11
767.631652832031
 21
891.53637695313
 31
0.0
  0
LINE
  5
249
330
1F
100
AcDbEntity
  8
VISIBLE
100
AcDbLine
 10
762.631652832031
 20
909.03637695313
 30
0.0
 11
745.131652832031
 21
909.03637695313
 31
0.0
  0
CIRCLE
  5
24A
330
1F
100
AcDbEntity
  8
VISIBLE
100
AcDbCircle
 10
910.131652832031
 20
1056.53637695313
 30
0.0
 40
2.0
  0
CIRCLE
  5
24B
330
1F
100
AcDbEntity
  8
VISIBLE
100
AcDbCircle
 10
830.131652832031
 20
1016.53637695313
 30
0.0
 40
2.0
  0
LINE
  5
24C
330
1F
100
AcDbEntity
  8
VISIBLE
100
AcDbLine
 10
955.131652832031
 20
914.03637695313
 30
0.0
 11
972.631652832031
 21
914.03637695313
 31
0.0
  0
LINE
  5
24D
330
1F
100
AcDbEntity
  8
VISIBLE
100
AcDbLine
 10
710.131652832031
 20
1124.03637695313
 30
0.0
 11
720.131652832031
 21
1124.03637695313
 31
0.0
  0
LINE
  5
24E
330
1F
100
AcDbEntity
  8
VISIBLE
100
AcDbLine
 10
955.131652832031
 20
1124.03637695313
 30
0.0
 11
972.631652832031
 21
1124.03637695313
 31
0.0
  0
LINE
  5
24F
330
1F
100
AcDbEntity
  8
VISIBLE
100
AcDbLine
 10
767.631652832031
 20
1119.03637695313
 30
0.0
 11
767.631652832031
 21
1101.53637695313
 31
0.0
  0
LINE
  5
250
330
1F
100
AcDbEntity
  8
VISIBLE
100
AcDbLine
 10
977.631652832031
 20
1161.53637695313
 30
0.0
 11
972.631652832031
 21
1161.53637695313
 31
0.0
  0
LINE
  5
251
330
1F
100
AcDbEntity
  8
VISIBLE
100
AcDbLine
 10
872.631652832031
 20
1036.53637695313
 30
0.0
 11
872.631652832031
 21
1019.03637695313
 31
0.0
  0
LINE
  5
252
330
1F
100
AcDbEntity
  8
VISIBLE
100
AcDbLine
 10
710.131652832031
 20
1036.53637695313
 30
0.0
 11
715.131652832031
 21
1036.53637695313
 31
0.0
  0
CIRCLE
  5
253
330
1F
100
AcDbEntity
  8
VISIBLE
100
AcDbCircle
 10
950.131652832031
 20
1056.53637695313
 30
0.0
 40
2.0
  0
LINE
  5
254
330
1F
100
AcDbEntity
  8
VISIBLE
100
AcDbLine
 10
767.631652832031
 20
931.53637695313
 30
0.0
 11
767.631652832031
 21
914.03637695313
 31
0.0
  0
LINE
  5
255
330
1F
100
AcDbEntity
  8
VISIBLE
100
AcDbLine
 10
1025.131652832031
 20
1036.53637695313
 30
0.0
 11
1030.131652832031
 21
1036.53637695313
 31
0.0
  0
LINE
  5
256
330
1F
100
AcDbEntity
  8
VISIBLE
100
AcDbLine
 10
767.631652832031
 20
891.53637695313
 30
0.0
 11
762.631652832031
 21
891.53637695313
 31
0.0
  0
LINE
  5
257
330
1F
100
AcDbEntity
  8
VISIBLE
100
AcDbLine
 10
762.631652832031
 20
1124.03637695313
 30
0.0
 11
762.631652832031
 21
1141.53637695313
 31
0.0
  0
CIRCLE
  5
258
330
1F
100
AcDbEntity
  8
VISIBLE
100
AcDbCircle
 10
950.131652832031
 20
1096.53637695313
 30
0.0
 40
2.0
  0
LINE
  5
259
330
1F
100
AcDbEntity
  8
VISIBLE
100
AcDbLine
 10
1040.131652832031
 20
976.53637695313
 30
0.0
 11
1030.131652832031
 21
966.53637695313
 31
0.0
  0
LINE
  5
25A
330
1F
100
AcDbEntity
  8
VISIBLE
100
AcDbLine
 10
745.131652832031
 20
909.03637695313
 30
0.0
 11
745.131652832031
 21
914.03637695313
 31
0.0
  0
CIRCLE
  5
25B
330
1F
100
AcDbEntity
  8
VISIBLE
100
AcDbCircle
 10
870.131652832031
 20
1096.53637695313
 30
0.0
 40
2.0
  0
LINE
  5
25C
330
1F
100
AcDbEntity
  8
VISIBLE
100
AcDbLine
 10
762.631652832031
 20
1101.53637695313
 30
0.0
 11
762.631652832031
 21
1119.03637695313
 31
0.0
  0
LINE
  5
25D
330
1F
100
AcDbEntity
  8
VISIBLE
100
AcDbLine
 10
977.631652832031
 20
1171.53637695313
 30
0.0
 11
977.631652832031
 21
1161.53637695313
 31
0.0
  0
LINE
  5
25E
330
1F
100
AcDbEntity
  8
VISIBLE
100
AcDbLine
 10
850.131652832031
 20
1176.53637695313
 30
0.0
 11
890.131652832031
 21
1176.53637695313
 31
0.0
  0
LINE
  5
25F
330
1F
100
AcDbEntity
  8
VISIBLE
100
AcDbLine
 10
977.631652832031
 20
909.03637695313
 30
0.0
 11
977.631652832031
 21
891.53637695313
 31
0.0
  0
LINE
  5
260
330
1F
100
AcDbEntity
  8
VISIBLE
100
AcDbLine
 10
867.631652832031
 20
1014.03637695313
 30
0.0
 11
850.131652832031
 21
1014.03637695313
 31
0.0
  0
LINE
  5
261
330
1F
100
AcDbEntity
  8
VISIBLE
100
AcDbLine
 10
767.631652832031
 20
1161.53637695313
 30
0.0
 11
762.631652832031
 21
1161.53637695313
 31
0.0
  0
CIRCLE
  5
262
330
1F
100
AcDbEntity
  8
VISIBLE
100
AcDbCircle
 10
830.131652832031
 20
936.53637695313
 30
0.0
 40
2.0
  0
LINE
  5
263
330
1F
100
AcDbEntity
  8
VISIBLE
100
AcDbLine
 10
955.131652832031
 20
909.03637695313
 30
0.0
 11
955.131652832031
 21
914.03637695313
 31
0.0
  0
CIRCLE
  5
264
330
1F
100
AcDbEntity
  8
VISIBLE
100
AcDbCircle
 10
790.131652832031
 20
976.53637695313
 30
0.0
 40
2.0
  0
LINE
  5
265
330
1F
100
AcDbEntity
  8
VISIBLE
100
AcDbLine
 10
1030.131652832031
 20
1066.53637695313
 30
0.0
 11
1040.131652832031
 21
1056.53637695313
 31
0.0
  0
LINE
  5
266
330
1F
100
AcDbEntity
  8
VISIBLE
100
AcDbLine
 10
995.131652832031
 20
909.03637695313
 30
0.0
 11
977.631652832031
 21
909.03637695313
 31
0.0
  0
CIRCLE
  5
267
330
1F
100
AcDbEntity
  8
VISIBLE
100
AcDbCircle
 10
910.131652832031
 20
1016.53637695313
 30
0.0
 40
2.0
  0
CIRCLE
  5
268
330
1F
100
AcDbEntity
  8
VISIBLE
100
AcDbCircle
 10
950.131652832031
 20
1016.53637695313
 30
0.0
 40
2.0
  0
LINE
  5
269
330
1F
100
AcDbEntity
  8
VISIBLE
100
AcDbLine
 10
1030.131652832031
 20
909.03637695313
 30
0.0
 11
1020.131652832031
 21
909.03637695313
 31
0.0
  0
LINE
  5
26A
330
1F
100
AcDbEntity
  8
VISIBLE
100
AcDbLine
 10
1040.131652832031
 20
1056.53637695313
 30
0.0
 11
1040.131652832031
 21
976.53637695313
 31
0.0
  0
CIRCLE
  5
26B
330
1F
100
AcDbEntity
  8
VISIBLE
100
AcDbCircle
 10
870.131652832031
 20
1174.03637695313
 30
0.0
 40
2.0
  0
LINE
  5
26C
330
1F
100
AcDbEntity
  8
VISIBLE
100
AcDbLine
 10
767.631652832031
 20
1171.53637695313
 30
0.0
 11
767.631652832031
 21
1161.53637695313
 31
0.0
  0
LINE
  5
26D
330
1F
100
AcDbEntity
  8
VISIBLE
100
AcDbLine
 10
785.131652832031
 20
1119.03637695313
 30
0.0
 11
767.631652832031
 21
1119.03637695313
 31
0.0
  0
LINE
  5
26E
330
1F
100
AcDbEntity
  8
VISIBLE
100
AcDbLine
 10
745.131652832031
 20
1119.03637695313
 30
0.0
 11
745.131652832031
 21
1124.03637695313
 31
0.0
  0
LINE
  5
26F
330
1F
100
AcDbEntity
  8
VISIBLE
100
AcDbLine
 10
872.631652832031
 20
996.53637695313
 30
0.0
 11
867.631652832031
 21
996.53637695313
 31
0.0
  0
LINE
  5
270
330
1F
100
AcDbEntity
  8
VISIBLE
100
AcDbLine
 10
1030.131652832031
 20
996.53637695313
 30
0.0
 11
1030.131652832031
 21
1036.53637695313
 31
0.0
  0
LINE
  5
271
330
1F
100
AcDbEntity
  8
VISIBLE
100
AcDbLine
 10
972.631652832031
 20
1161.53637695313
 30
0.0
 11
972.631652832031
 21
1171.53637695313
 31
0.0
  0
LINE
  5
272
330
1F
100
AcDbEntity
  8
VISIBLE
100
AcDbLine
 10
767.631652832031
 20
1171.53637695313
 30
0.0
 11
850.131652832031
 21
1171.53637695313
 31
0.0
  0
LINE
  5
273
330
1F
100
AcDbEntity
  8
VISIBLE
100
AcDbLine
 10
767.631652832031
 20
914.03637695313
 30
0.0
 11
785.131652832031
 21
914.03637695313
 31
0.0
  0
LINE
  5
274
330
1F
100
AcDbEntity
  8
VISIBLE
100
AcDbLine
 10
710.131652832031
 20
1124.03637695313
 30
0.0
 11
710.131652832031
 21
1171.53637695313
 31
0.0
  0
LINE
  5
275
330
1F
100
AcDbEntity
  8
VISIBLE
100
AcDbLine
 10
710.131652832031
 20
861.53637695313
 30
0.0
 11
710.131652832031
 21
909.03637695313
 31
0.0
  0
LINE
  5
276
330
1F
100
AcDbEntity
  8
VISIBLE
100
AcDbLine
 10
890.131652832031
 20
1019.03637695313
 30
0.0
 11
890.131652832031
 21
1014.03637695313
 31
0.0
  0
LINE
  5
277
330
1F
100
AcDbEntity
  8
VISIBLE
100
AcDbLine
 10
977.631652832031
 20
1171.53637695313
 30
0.0
 11
1030.131652832031
 21
1171.53637695313
 31
0.0
  0
LINE
  5
278
330
1F
100
AcDbEntity
  8
VISIBLE
100
AcDbLine
 10
972.631652832031
 20
861.53637695313
 30
0.0
 11
767.631652832031
 21
861.53637695313
 31
0.0
  0
LINE
  5
279
330
1F
100
AcDbEntity
  8
VISIBLE
100
AcDbLine
 10
972.631652832031
 20
1124.03637695313
 30
0.0
 11
972.631652832031
 21
1141.53637695313
 31
0.0
  0
LINE
  5
27A
330
1F
100
AcDbEntity
  8
VISIBLE
100
AcDbLine
 10
977.631652832031
 20
914.03637695313
 30
0.0
 11
995.131652832031
 21
914.03637695313
 31
0.0
  0
LINE
  5
27B
330
1F
100
AcDbEntity
  8
VISIBLE
100
AcDbLine
 10
762.631652832031
 20
891.53637695313
 30
0.0
 11
762.631652832031
 21
909.03637695313
 31
0.0
  0
LINE
  5
27C
330
1F
100
AcDbEntity
  8
VISIBLE
100
AcDbLine
 10
1030.131652832031
 20
1119.03637695313
 30
0.0
 11
1020.131652832031
 21
1119.03637695313
 31
0.0
  0
LINE
  5
27D
330
1F
100
AcDbEntity
  8
VISIBLE
100
AcDbLine
 10
1020.131652832031
 20
1124.03637695313
 30
0.0
 11
1030.131652832031
 21
1124.03637695313
 31
0.0
  0
LINE
  5
27E
330
1F
100
AcDbEntity
  8
VISIBLE
100
AcDbLine
 10
890.131652832031
 20
1171.53637695313
 30
0.0
 11
972.631652832031
 21
1171.53637695313
 31
0.0
  0
LINE
  5
27F
330
1F
100
AcDbEntity
  8
VISIBLE
100
AcDbLine
 10
720.131652832031
 20
909.03637695313
 30
0.0
 11
710.131652832031
 21
909.03637695313
 31
0.0
  0
LINE
  5
280
330
1F
100
AcDbEntity
  8
VISIBLE
100
AcDbLine
 10
972.631652832031
 20
871.53637695313
 30
0.0
 11
977.631652832031
 21
871.53637695313
 31
0.0
  0
CIRCLE
  5
281
330
1F
100
AcDbEntity
  8
VISIBLE
100
AcDbCircle
 10
950.131652832031
 20
976.53637695313
 30
0.0
 40
2.0
  0
LINE
  5
282
330
1F
100
AcDbEntity
  8
VISIBLE
100
AcDbLine
 10
762.631652832031
 20
1141.53637695313
 30
0.0
 11
767.631652832031
 21
1141.53637695313
 31
0.0
  0
CIRCLE
  5
283
330
1F
100
AcDbEntity
  8
VISIBLE
100
AcDbCircle
 10
910.131652832031
 20
1096.53637695313
 30
0.0
 40
2.0
  0
LINE
  5
284
330
1F
100
AcDbEntity
  8
VISIBLE
100
AcDbLine
 10
762.631652832031
 20
861.53637695313
 30
0.0
 11
762.631652832031
 21
871.53637695313
 31
0.0
  0
LINE
  5
285
330
1F
100
AcDbEntity
  8
VISIBLE
100
AcDbLine
 10
972.631652832031
 20
931.53637695313
 30
0.0
 11
977.631652832031
 21
931.53637695313
 31
0.0
  0
LINE
  5
286
330
1F
100
AcDbEntity
  8
VISIBLE
100
AcDbLine
 10
977.631652832031
 20
891.53637695313
 30
0.0
 11
972.631652832031
 21
891.53637695313
 31
0.0
  0
LINE
  5
287
330
1F
100
AcDbEntity
  8
VISIBLE
100
AcDbLine
 10
977.631652832031
 20
931.53637695313
 30
0.0
 11
977.631652832031
 21
914.03637695313
 31
0.0
  0
LINE
  5
288
330
1F
100
AcDbEntity
  8
VISIBLE
100
AcDbLine
 10
972.631652832031
 20
914.03637695313
 30
0.0
 11
972.631652832031
 21
931.53637695313
 31
0.0
  0
LINE
  5
289
330
1F
100
AcDbEntity
  8
VISIBLE
100
AcDbLine
 10
890.131652832031
 20
1014.03637695313
 30
0.0
 11
872.631652832031
 21
1014.03637695313
 31
0.0
  0
LINE
  5
28A
330
1F
100
AcDbEntity
  8
VISIBLE
100
AcDbLine
 10
995.131652832031
 20
1124.03637695313
 30
0.0
 11
995.131652832031
 21
1119.03637695313
 31
0.0
  0
LINE
  5
28B
330
1F
100
AcDbEntity
  8
VISIBLE
100
AcDbLine
 10
785.131652832031
 20
1124.03637695313
 30
0.0
 11
785.131652832031
 21
1119.03637695313
 31
0.0
  0
LINE
  5
28C
330
1F
100
AcDbEntity
  8
VISIBLE
100
AcDbLine
 10
1020.131652832031
 20
1119.03637695313
 30
0.0
 11
1020.131652832031
 21
1124.03637695313
 31
0.0
  0
LINE
  5
28D
330
1F
100
AcDbEntity
  8
VISIBLE
100
AcDbLine
 10
767.631652832031
 20
871.53637695313
 30
0.0
 11
767.631652832031
 21
861.53637695313
 31
0.0
  0
LINE
  5
28E
330
1F
100
AcDbEntity
  8
VISIBLE
100
AcDbLine
 10
1020.131652832031
 20
914.03637695313
 30
0.0
 11
1030.131652832031
 21
914.03637695313
 31
0.0
  0
LINE
  5
28F
330
1F
100
AcDbEntity
  8
VISIBLE
100
AcDbLine
 10
1030.131652832031
 20
1119.03637695313
 30
0.0
 11
1030.131652832031
 21
1066.53637695313
 31
0.0
  0
LINE
  5
290
330
1F
100
AcDbEntity
  8
VISIBLE
100
AcDbLine
 10
710.131652832031
 20
996.53637695313
 30
0.0
 11
710.131652832031
 21
1036.53637695313
 31
0.0
  0
CIRCLE
  5
291
330
1F
100
AcDbEntity
  8
VISIBLE
100
AcDbCircle
 10
910.131652832031
 20
976.53637695313
 30
0.0
 40
2.0
  0
LINE
  5
292
330
1F
100
AcDbEntity
  8
VISIBLE
100
AcDbLine
 10
972.631652832031
 20
909.03637695313
 30
0.0
 11
955.131652832031
 21
909.03637695313
 31
0.0
  0
LINE
  5
293
330
1F
100
AcDbEntity
  8
VISIBLE
100
AcDbLine
 10
785.131652832031
 20
914.03637695313
 30
0.0
 11
785.131652832031
 21
909.03637695313
 31
0.0
  0
LINE
  5
294
330
1F
100
AcDbEntity
  8
VISIBLE
100
AcDbLine
 10
872.631652832031
 20
1019.03637695313
 30
0.0
 11
890.131652832031
 21
1019.03637695313
 31
0.0
  0
LINE
  5
295
330
1F
100
AcDbEntity
  8
VISIBLE
100
AcDbLine
 10
867.631652832031
 20
1019.03637695313
 30
0.0
 11
867.631652832031
 21
1036.53637695313
 31
0.0
  0
LINE
  5
296
330
1F
100
AcDbEntity
  8
VISIBLE
100
AcDbLine
 10
700.131652832031
 20
1056.53637695313
 30
0.0
 11
700.131652832031
 21
976.53637695313
 31
0.0
  0
CIRCLE
  5
297
330
1F
100
AcDbEntity
  8
VISIBLE
100
AcDbCircle
 10
870.131652832031
 20
936.53637695313
 30
0.0
 40
2.0
  0
LINE
  5
298
330
1F
100
AcDbEntity
  8
VISIBLE
100
AcDbLine
 10
1030.131652832031
 20
966.53637695313
 30
0.0
 11
1030.131652832031
 21
914.03637695313
 31
0.0
  0
CIRCLE
  5
299
330
1F
100
AcDbEntity
  8
VISIBLE
100
AcDbCircle
 10
790.131652832031
 20
936.53637695313
 30
0.0
 40
2.0
  0
LINE
  5
29A
330
1F
100
AcDbEntity
  8
VISIBLE
100
AcDbLine
 10
762.631652832031
 20
871.53637695313
 30
0.0
 11
767.631652832031
 21
871.53637695313
 31
0.0
  0
CIRCLE
  5
29B
330
1F
100
AcDbEntity
  8
VISIBLE
100
AcDbCircle
 10
950.131652832031
 20
936.53637695313
 30
0.0
 40
2.0
  0
LINE
  5
29C
330
1F
100
AcDbEntity
  8
VISIBLE
100
AcDbLine
 10
785.131652832031
 20
909.03637695313
 30
0.0
 11
767.631652832031
 21
909.03637695313
 31
0.0
  0
LINE
  5
29D
330
1F
100
AcDbEntity
  8
VISIBLE
100
AcDbLine
 10
955.131652832031
 20
1119.03637695313
 30
0.0
 11
955.131652832031
 21
1124.03637695313
 31
0.0
  0
LINE
  5
29E
330
1F
100
AcDbEntity
  8
VISIBLE
100
AcDbLine
 10
867.631652832031
 20
996.53637695313
 30
0.0
 11
867.631652832031
 21
1014.03637695313
 31
0.0
  0
LINE
  5
29F
330
1F
100
AcDbEntity
  8
VISIBLE
100
AcDbLine
 10
720.131652832031
 20
1124.03637695313
 30
0.0
 11
720.131652832031
 21
1119.03637695313
 31
0.0
  0
LINE
  5
2A0
330
1F
100
AcDbEntity
  8
VISIBLE
100
AcDbLine
 10
972.631652832031
 20
1141.53637695313
 30
0.0
 11
977.631652832031
 21
1141.53637695313
 31
0.0
  0
LINE
  5
2A1
330
1F
100
AcDbEntity
  8
VISIBLE
100
AcDbLine
 10
972.631652832031
 20
861.53637695313
 30
0.0
 11
972.631652832031
 21
871.53637695313
 31
0.0
  0
LINE
  5
2A2
330
1F
100
AcDbEntity
  8
VISIBLE
100
AcDbLine
 10
720.131652832031
 20
1119.03637695313
 30
0.0
 11
710.131652832031
 21
1119.03637695313
 31
0.0
  0
LINE
  5
2A3
330
1F
100
AcDbEntity
  8
VISIBLE
100
AcDbLine
 10
710.131652832031
 20
966.53637695313
 30
0.0
 11
700.131652832031
 21
976.53637695313
 31
0.0
  0
LINE
  5
2A4
330
1F
100
AcDbEntity
  8
VISIBLE
100
AcDbLine
 10
745.131652832031
 20
914.03637695313
 30
0.0
 11
762.631652832031
 21
914.03637695313
 31
0.0
  0
LINE
  5
2A5
330
1F
100
AcDbEntity
  8
VISIBLE
100
AcDbLine
 10
972.631652832031
 20
1101.53637695313
 30
0.0
 11
972.631652832031
 21
1119.03637695313
 31
0.0
  0
CIRCLE
  5
2A6
330
1F
100
AcDbEntity
  8
VISIBLE
100
AcDbCircle
 10
830.131652832031
 20
976.53637695313
 30
0.0
 40
2.0
  0
LINE
  5
2A7
330
1F
100
AcDbEntity
  8
VISIBLE
100
AcDbLine
 10
1030.131652832031
 20
909.03637695313
 30
0.0
 11
1030.131652832031
 21
861.53637695313
 31
0.0
  0
LINE
  5
2A8
330
1F
100
AcDbEntity
  8
VISIBLE
100
AcDbLine
 10
977.631652832031
 20
1119.03637695313
 30
0.0
 11
977.631652832031
 21
1101.53637695313
 31
0.0
  0
LINE
  5
2A9
330
1F
100
AcDbEntity
  8
VISIBLE
100
AcDbLine
 10
762.631652832031
 20
931.53637695313
 30
0.0
 11
767.631652832031
 21
931.53637695313
 31
0.0
  0
LINE
  5
2AA
330
1F
100
AcDbEntity
  8
VISIBLE
100
AcDbLine
 10
700.131652832031
 20
1056.53637695313
 30
0.0
 11
710.131652832031
 21
1066.53637695313
 31
0.0
  0
LINE
  5
2AB
330
1F
100
AcDbEntity
  8
VISIBLE
100
AcDbLine
 10
995.131652832031
 20
914.03637695313
 30
0.0
 11
995.131652832031
 21
909.03637695313
 31
0.0
  0
LINE
  5
2AC
330
1F
100
AcDbEntity
  8
VISIBLE
100
AcDbLine
 10
710.131652832031
 20
914.03637695313
 30
0.0
 11
710.131652832031
 21
966.53637695313
 31
0.0
  0
LINE
  5
2AD
330
1F
100
AcDbEntity
  8
VISIBLE
100
AcDbLine
 10
1030.131652832031
 20
996.53637695313
 30
0.0
 11
1025.131652832031
 21
996.53637695313
 31
0.0
  0
CIRCLE
  5
2AE
330
1F
100
AcDbEntity
  8
VISIBLE
100
AcDbCircle
 10
830.131652832031
 20
1056.53637695313
 30
0.0
 40
2.0
  0
LINE
  5
2AF
330
1F
100
AcDbEntity
  8
VISIBLE
100
AcDbLine
 10
879.987548828125
 20
686.406860351563
 30
0.0
 11
879.987548828125
 21
668.906860351563
 31
0.0
  0
LINE
  5
2B0
330
1F
100
AcDbEntity
  8
VISIBLE
100
AcDbLine
 10
857.487548828125
 20
843.906860351563
 30
0.0
 11
857.487548828125
 21
848.906860351563
 31
0.0
  0
LINE
  5
2B1
330
1F
100
AcDbEntity
  8
VISIBLE
100
AcDbLine
 10
979.987548828125
 20
563.906860351563
 30
0.0
 11
979.987548828125
 21
581.406860351563
 31
0.0
  0
CIRCLE
  5
2B2
330
1F
100
AcDbEntity
  8
VISIBLE
100
AcDbCircle
 10
797.487548828125
 20
768.906860351563
 30
0.0
 40
2.0
  0
LINE
  5
2B3
330
1F
100
AcDbEntity
  8
VISIBLE
100
AcDbLine
 10
727.487548828125
 20
586.406860351563
 30
0.0
 11
727.487548828125
 21
581.406860351563
 31
0.0
  0
LINE
  5
2B4
330
1F
100
AcDbEntity
  8
VISIBLE
100
AcDbLine
 10
984.987548828125
 20
773.906860351563
 30
0.0
 11
979.987548828125
 21
773.906860351563
 31
0.0
  0
LINE
  5
2B5
330
1F
100
AcDbEntity
  8
VISIBLE
100
AcDbLine
 10
774.987548828125
 20
773.906860351563
 30
0.0
 11
769.987548828125
 21
773.906860351563
 31
0.0
  0
LINE
  5
2B6
330
1F
100
AcDbEntity
  8
VISIBLE
100
AcDbLine
 10
722.487548828125
 20
708.906860351563
 30
0.0
 11
722.487548828125
 21
668.906860351563
 31
0.0
  0
LINE
  5
2B7
330
1F
100
AcDbEntity
  8
VISIBLE
100
AcDbLine
 10
979.987548828125
 20
791.406860351563
 30
0.0
 11
962.487548828125
 21
791.406860351563
 31
0.0
  0
LINE
  5
2B8
330
1F
100
AcDbEntity
  8
VISIBLE
100
AcDbLine
 10
857.487548828125
 20
691.406860351563
 30
0.0
 11
874.987548828125
 21
691.406860351563
 31
0.0
  0
LINE
  5
2B9
330
1F
100
AcDbEntity
  8
VISIBLE
100
AcDbLine
 10
1027.487548828125
 20
581.406860351563
 30
0.0
 11
1027.487548828125
 21
586.406860351563
 31
0.0
  0
LINE
  5
2BA
330
1F
100
AcDbEntity
  8
VISIBLE
100
AcDbLine
 10
717.487548828125
 20
586.406860351563
 30
0.0
 11
727.487548828125
 21
586.406860351563
 31
0.0
  0
CIRCLE
  5
2BB
330
1F
100
AcDbEntity
  8
VISIBLE
100
AcDbCircle
 10
877.487548828125
 20
648.906860351563
 30
0.0
 40
2.0
  0
CIRCLE
  5
2BC
330
1F
100
AcDbEntity
  8
VISIBLE
100
AcDbCircle
 10
917.487548828125
 20
608.906860351563
 30
0.0
 40
2.0
  0
LINE
  5
2BD
330
1F
100
AcDbEntity
  8
VISIBLE
100
AcDbLine
 10
769.987548828125
 20
791.406860351563
 30
0.0
 11
752.487548828125
 21
791.406860351563
 31
0.0
  0
LINE
  5
2BE
330
1F
100
AcDbEntity
  8
VISIBLE
100
AcDbLine
 10
984.987548828125
 20
813.906860351563
 30
0.0
 11
984.987548828125
 21
796.406860351563
 31
0.0
  0
LINE
  5
2BF
330
1F
100
AcDbEntity
  8
VISIBLE
100
AcDbLine
 10
769.987548828125
 20
586.406860351563
 30
0.0
 11
769.987548828125
 21
603.906860351563
 31
0.0
  0
LINE
  5
2C0
330
1F
100
AcDbEntity
  8
VISIBLE
100
AcDbLine
 10
769.987548828125
 20
533.906860351563
 30
0.0
 11
717.487548828125
 21
533.906860351563
 31
0.0
  0
CIRCLE
  5
2C1
330
1F
100
AcDbEntity
  8
VISIBLE
100
AcDbCircle
 10
797.487548828125
 20
688.906860351563
 30
0.0
 40
2.0
  0
CIRCLE
  5
2C2
330
1F
100
AcDbEntity
  8
VISIBLE
100
AcDbCircle
 10
877.487548828125
 20
728.906860351563
 30
0.0
 40
2.0
  0
LINE
  5
2C3
330
1F
100
AcDbEntity
  8
VISIBLE
100
AcDbLine
 10
857.487548828125
 20
686.406860351563
 30
0.0
 11
857.487548828125
 21
691.406860351563
 31
0.0
  0
LINE
  5
2C4
330
1F
100
AcDbEntity
  8
VISIBLE
100
AcDbLine
 10
874.987548828125
 20
708.906860351563
 30
0.0
 11
879.987548828125
 21
708.906860351563
 31
0.0
  0
LINE
  5
2C5
330
1F
100
AcDbEntity
  8
VISIBLE
100
AcDbLine
 10
769.987548828125
 20
833.906860351563
 30
0.0
 11
769.987548828125
 21
843.906860351563
 31
0.0
  0
LINE
  5
2C6
330
1F
100
AcDbEntity
  8
VISIBLE
100
AcDbLine
 10
1037.487548828125
 20
843.906860351563
 30
0.0
 11
1037.487548828125
 21
796.406860351563
 31
0.0
  0
LINE
  5
2C7
330
1F
100
AcDbEntity
  8
VISIBLE
100
AcDbLine
 10
984.987548828125
 20
543.906860351563
 30
0.0
 11
984.987548828125
 21
533.906860351563
 31
0.0
  0
LINE
  5
2C8
330
1F
100
AcDbEntity
  8
VISIBLE
100
AcDbLine
 10
897.487548828125
 20
848.906860351563
 30
0.0
 11
897.487548828125
 21
843.906860351563
 31
0.0
  0
LINE
  5
2C9
330
1F
100
AcDbEntity
  8
VISIBLE
100
AcDbLine
 10
722.487548828125
 20
668.906860351563
 30
0.0
 11
717.487548828125
 21
668.906860351563
 31
0.0
  0
LINE
  5
2CA
330
1F
100
AcDbEntity
  8
VISIBLE
100
AcDbLine
 10
774.987548828125
 20
796.406860351563
 30
0.0
 11
792.487548828125
 21
796.406860351563
 31
0.0
  0
CIRCLE
  5
2CB
330
1F
100
AcDbEntity
  8
VISIBLE
100
AcDbCircle
 10
837.487548828125
 20
768.906860351563
 30
0.0
 40
2.0
  0
LINE
  5
2CC
330
1F
100
AcDbEntity
  8
VISIBLE
100
AcDbLine
 10
1002.487548828125
 20
791.406860351563
 30
0.0
 11
984.987548828125
 21
791.406860351563
 31
0.0
  0
LINE
  5
2CD
330
1F
100
AcDbEntity
  8
VISIBLE
100
AcDbLine
 10
752.487548828125
 20
796.406860351563
 30
0.0
 11
769.987548828125
 21
796.406860351563
 31
0.0
  0
LINE
  5
2CE
330
1F
100
AcDbEntity
  8
VISIBLE
100
AcDbLine
 10
1032.487548828125
 20
668.906860351563
 30
0.0
 11
1032.487548828125
 21
708.906860351563
 31
0.0
  0
LINE
  5
2CF
330
1F
100
AcDbEntity
  8
VISIBLE
100
AcDbLine
 10
717.487548828125
 20
843.906860351563
 30
0.0
 11
769.987548828125
 21
843.906860351563
 31
0.0
  0
LINE
  5
2D0
330
1F
100
AcDbEntity
  8
VISIBLE
100
AcDbLine
 10
717.487548828125
 20
738.906860351563
 30
0.0
 11
717.487548828125
 21
791.406860351563
 31
0.0
  0
CIRCLE
  5
2D1
330
1F
100
AcDbEntity
  8
VISIBLE
100
AcDbCircle
 10
797.487548828125
 20
728.906860351563
 30
0.0
 40
2.0
  0
LINE
  5
2D2
330
1F
100
AcDbEntity
  8
VISIBLE
100
AcDbLine
 10
774.987548828125
 20
813.906860351563
 30
0.0
 11
774.987548828125
 21
796.406860351563
 31
0.0
  0
LINE
  5
2D3
330
1F
100
AcDbEntity
  8
VISIBLE
100
AcDbLine
 10
984.987548828125
 20
796.406860351563
 30
0.0
 11
1002.487548828125
 21
796.406860351563
 31
0.0
  0
LINE
  5
2D4
330
1F
100
AcDbEntity
  8
VISIBLE
100
AcDbLine
 10
1037.487548828125
 20
533.906860351563
 30
0.0
 11
984.987548828125
 21
533.906860351563
 31
0.0
  0
LINE
  5
2D5
330
1F
100
AcDbEntity
  8
VISIBLE
100
AcDbLine
 10
774.987548828125
 20
581.406860351563
 30
0.0
 11
774.987548828125
 21
563.906860351563
 31
0.0
  0
LINE
  5
2D6
330
1F
100
AcDbEntity
  8
VISIBLE
100
AcDbLine
 10
769.987548828125
 20
581.406860351563
 30
0.0
 11
752.487548828125
 21
581.406860351563
 31
0.0
  0
CIRCLE
  5
2D7
330
1F
100
AcDbEntity
  8
VISIBLE
100
AcDbCircle
 10
917.487548828125
 20
728.906860351563
 30
0.0
 40
2.0
  0
CIRCLE
  5
2D8
330
1F
100
AcDbEntity
  8
VISIBLE
100
AcDbCircle
 10
837.487548828125
 20
688.906860351563
 30
0.0
 40
2.0
  0
LINE
  5
2D9
330
1F
100
AcDbEntity
  8
VISIBLE
100
AcDbLine
 10
962.487548828125
 20
586.406860351563
 30
0.0
 11
979.987548828125
 21
586.406860351563
 31
0.0
  0
LINE
  5
2DA
330
1F
100
AcDbEntity
  8
VISIBLE
100
AcDbLine
 10
717.487548828125
 20
796.406860351563
 30
0.0
 11
727.487548828125
 21
796.406860351563
 31
0.0
  0
LINE
  5
2DB
330
1F
100
AcDbEntity
  8
VISIBLE
100
AcDbLine
 10
962.487548828125
 20
796.406860351563
 30
0.0
 11
979.987548828125
 21
796.406860351563
 31
0.0
  0
LINE
  5
2DC
330
1F
100
AcDbEntity
  8
VISIBLE
100
AcDbLine
 10
774.987548828125
 20
791.406860351563
 30
0.0
 11
774.987548828125
 21
773.906860351563
 31
0.0
  0
LINE
  5
2DD
330
1F
100
AcDbEntity
  8
VISIBLE
100
AcDbLine
 10
984.987548828125
 20
833.906860351563
 30
0.0
 11
979.987548828125
 21
833.906860351563
 31
0.0
  0
LINE
  5
2DE
330
1F
100
AcDbEntity
  8
VISIBLE
100
AcDbLine
 10
879.987548828125
 20
708.906860351563
 30
0.0
 11
879.987548828125
 21
691.406860351563
 31
0.0
  0
LINE
  5
2DF
330
1F
100
AcDbEntity
  8
VISIBLE
100
AcDbLine
 10
717.487548828125
 20
708.906860351563
 30
0.0
 11
722.487548828125
 21
708.906860351563
 31
0.0
  0
CIRCLE
  5
2E0
330
1F
100
AcDbEntity
  8
VISIBLE
100
AcDbCircle
 10
957.487548828125
 20
728.906860351563
 30
0.0
 40
2.0
  0
LINE
  5
2E1
330
1F
100
AcDbEntity
  8
VISIBLE
100
AcDbLine
 10
774.987548828125
 20
603.906860351563
 30
0.0
 11
774.987548828125
 21
586.406860351563
 31
0.0
  0
LINE
  5
2E2
330
1F
100
AcDbEntity
  8
VISIBLE
100
AcDbLine
 10
1032.487548828125
 20
708.906860351563
 30
0.0
 11
1037.487548828125
 21
708.906860351563
 31
0.0
  0
LINE
  5
2E3
330
1F
100
AcDbEntity
  8
VISIBLE
100
AcDbLine
 10
774.987548828125
 20
563.906860351563
 30
0.0
 11
769.987548828125
 21
563.906860351563
 31
0.0
  0
LINE
  5
2E4
330
1F
100
AcDbEntity
  8
VISIBLE
100
AcDbLine
 10
769.987548828125
 20
796.406860351563
 30
0.0
 11
769.987548828125
 21
813.906860351563
 31
0.0
  0
CIRCLE
  5
2E5
330
1F
100
AcDbEntity
  8
VISIBLE
100
AcDbCircle
 10
957.487548828125
 20
768.906860351563
 30
0.0
 40
2.0
  0
LINE
  5
2E6
330
1F
100
AcDbEntity
  8
VISIBLE
100
AcDbLine
 10
1047.487548828125
 20
648.906860351563
 30
0.0
 11
1037.487548828125
 21
638.906860351563
 31
0.0
  0
LINE
  5
2E7
330
1F
100
AcDbEntity
  8
VISIBLE
100
AcDbLine
 10
752.487548828125
 20
581.406860351563
 30
0.0
 11
752.487548828125
 21
586.406860351563
 31
0.0
  0
CIRCLE
  5
2E8
330
1F
100
AcDbEntity
  8
VISIBLE
100
AcDbCircle
 10
877.487548828125
 20
768.906860351563
 30
0.0
 40
2.0
  0
LINE
  5
2E9
330
1F
100
AcDbEntity
  8
VISIBLE
100
AcDbLine
 10
769.987548828125
 20
773.906860351563
 30
0.0
 11
769.987548828125
 21
791.406860351563
 31
0.0
  0
LINE
  5
2EA
330
1F
100
AcDbEntity
  8
VISIBLE
100
AcDbLine
 10
984.987548828125
 20
843.906860351563
 30
0.0
 11
984.987548828125
 21
833.906860351563
 31
0.0
  0
LINE
  5
2EB
330
1F
100
AcDbEntity
  8
VISIBLE
100
AcDbLine
 10
857.487548828125
 20
848.906860351563
 30
0.0
 11
897.487548828125
 21
848.906860351563
 31
0.0
  0
LINE
  5
2EC
330
1F
100
AcDbEntity
  8
VISIBLE
100
AcDbLine
 10
984.987548828125
 20
581.406860351563
 30
0.0
 11
984.987548828125
 21
563.906860351563
 31
0.0
  0
LINE
  5
2ED
330
1F
100
AcDbEntity
  8
VISIBLE
100
AcDbLine
 10
874.987548828125
 20
686.406860351563
 30
0.0
 11
857.487548828125
 21
686.406860351563
 31
0.0
  0
LINE
  5
2EE
330
1F
100
AcDbEntity
  8
VISIBLE
100
AcDbLine
 10
774.987548828125
 20
833.906860351563
 30
0.0
 11
769.987548828125
 21
833.906860351563
 31
0.0
  0
CIRCLE
  5
2EF
330
1F
100
AcDbEntity
  8
VISIBLE
100
AcDbCircle
 10
837.487548828125
 20
608.906860351563
 30
0.0
 40
2.0
  0
LINE
  5
2F0
330
1F
100
AcDbEntity
  8
VISIBLE
100
AcDbLine
 10
962.487548828125
 20
581.406860351563
 30
0.0
 11
962.487548828125
 21
586.406860351563
 31
0.0
  0
CIRCLE
  5
2F1
330
1F
100
AcDbEntity
  8
VISIBLE
100
AcDbCircle
 10
797.487548828125
 20
648.906860351563
 30
0.0
 40
2.0
  0
LINE
  5
2F2
330
1F
100
AcDbEntity
  8
VISIBLE
100
AcDbLine
 10
1037.487548828125
 20
738.906860351563
 30
0.0
 11
1047.487548828125
 21
728.906860351563
 31
0.0
  0
LINE
  5
2F3
330
1F
100
AcDbEntity
  8
VISIBLE
100
AcDbLine
 10
1002.487548828125
 20
581.406860351563
 30
0.0
 11
984.987548828125
 21
581.406860351563
 31
0.0
  0
CIRCLE
  5
2F4
330
1F
100
AcDbEntity
  8
VISIBLE
100
AcDbCircle
 10
917.487548828125
 20
688.906860351563
 30
0.0
 40
2.0
  0
CIRCLE
  5
2F5
330
1F
100
AcDbEntity
  8
VISIBLE
100
AcDbCircle
 10
957.487548828125
 20
688.906860351563
 30
0.0
 40
2.0
  0
LINE
  5
2F6
330
1F
100
AcDbEntity
  8
VISIBLE
100
AcDbLine
 10
1037.487548828125
 20
581.406860351563
 30
0.0
 11
1027.487548828125
 21
581.406860351563
 31
0.0
  0
LINE
  5
2F7
330
1F
100
AcDbEntity
  8
VISIBLE
100
AcDbLine
 10
1047.487548828125
 20
728.906860351563
 30
0.0
 11
1047.487548828125
 21
648.906860351563
 31
0.0
  0
CIRCLE
  5
2F8
330
1F
100
AcDbEntity
  8
VISIBLE
100
AcDbCircle
 10
877.487548828125
 20
846.406860351563
 30
0.0
 40
2.0
  0
LINE
  5
2F9
330
1F
100
AcDbEntity
  8
VISIBLE
100
AcDbLine
 10
774.987548828125
 20
843.906860351563
 30
0.0
 11
774.987548828125
 21
833.906860351563
 31
0.0
  0
LINE
  5
2FA
330
1F
100
AcDbEntity
  8
VISIBLE
100
AcDbLine
 10
792.487548828125
 20
791.406860351563
 30
0.0
 11
774.987548828125
 21
791.406860351563
 31
0.0
  0
LINE
  5
2FB
330
1F
100
AcDbEntity
  8
VISIBLE
100
AcDbLine
 10
752.487548828125
 20
791.406860351563
 30
0.0
 11
752.487548828125
 21
796.406860351563
 31
0.0
  0
LINE
  5
2FC
330
1F
100
AcDbEntity
  8
VISIBLE
100
AcDbLine
 10
879.987548828125
 20
668.906860351563
 30
0.0
 11
874.987548828125
 21
668.906860351563
 31
0.0
  0
LINE
  5
2FD
330
1F
100
AcDbEntity
  8
VISIBLE
100
AcDbLine
 10
1037.487548828125
 20
668.906860351563
 30
0.0
 11
1037.487548828125
 21
708.906860351563
 31
0.0
  0
LINE
  5
2FE
330
1F
100
AcDbEntity
  8
VISIBLE
100
AcDbLine
 10
979.987548828125
 20
833.906860351563
 30
0.0
 11
979.987548828125
 21
843.906860351563
 31
0.0
  0
LINE
  5
2FF
330
1F
100
AcDbEntity
  8
VISIBLE
100
AcDbLine
 10
774.987548828125
 20
843.906860351563
 30
0.0
 11
857.487548828125
 21
843.906860351563
 31
0.0
  0
LINE
  5
300
330
1F
100
AcDbEntity
  8
VISIBLE
100
AcDbLine
 10
774.987548828125
 20
586.406860351563
 30
0.0
 11
792.487548828125
 21
586.406860351563
 31
0.0
  0
LINE
  5
301
330
1F
100
AcDbEntity
  8
VISIBLE
100
AcDbLine
 10
717.487548828125
 20
796.406860351563
 30
0.0
 11
717.487548828125
 21
843.906860351563
 31
0.0
  0
LINE
  5
302
330
1F
100
AcDbEntity
  8
VISIBLE
100
AcDbLine
 10
717.487548828125
 20
533.906860351563
 30
0.0
 11
717.487548828125
 21
581.406860351563
 31
0.0
  0
LINE
  5
303
330
1F
100
AcDbEntity
  8
VISIBLE
100
AcDbLine
 10
897.487548828125
 20
691.406860351563
 30
0.0
 11
897.487548828125
 21
686.406860351563
 31
0.0
  0
LINE
  5
304
330
1F
100
AcDbEntity
  8
VISIBLE
100
AcDbLine
 10
984.987548828125
 20
843.906860351563
 30
0.0
 11
1037.487548828125
 21
843.906860351563
 31
0.0
  0
LINE
  5
305
330
1F
100
AcDbEntity
  8
VISIBLE
100
AcDbLine
 10
979.987548828125
 20
533.906860351563
 30
0.0
 11
774.987548828125
 21
533.906860351563
 31
0.0
  0
LINE
  5
306
330
1F
100
AcDbEntity
  8
VISIBLE
100
AcDbLine
 10
979.987548828125
 20
796.406860351563
 30
0.0
 11
979.987548828125
 21
813.906860351563
 31
0.0
  0
LINE
  5
307
330
1F
100
AcDbEntity
  8
VISIBLE
100
AcDbLine
 10
984.987548828125
 20
586.406860351563
 30
0.0
 11
1002.487548828125
 21
586.406860351563
 31
0.0
  0
LINE
  5
308
330
1F
100
AcDbEntity
  8
VISIBLE
100
AcDbLine
 10
769.987548828125
 20
563.906860351563
 30
0.0
 11
769.987548828125
 21
581.406860351563
 31
0.0
  0
LINE
  5
309
330
1F
100
AcDbEntity
  8
VISIBLE
100
AcDbLine
 10
1037.487548828125
 20
791.406860351563
 30
0.0
 11
1027.487548828125
 21
791.406860351563
 31
0.0
  0
LINE
  5
30A
330
1F
100
AcDbEntity
  8
VISIBLE
100
AcDbLine
 10
1027.487548828125
 20
796.406860351563
 30
0.0
 11
1037.487548828125
 21
796.406860351563
 31
0.0
  0
LINE
  5
30B
330
1F
100
AcDbEntity
  8
VISIBLE
100
AcDbLine
 10
897.487548828125
 20
843.906860351563
 30
0.0
 11
979.987548828125
 21
843.906860351563
 31
0.0
  0
LINE
  5
30C
330
1F
100
AcDbEntity
  8
VISIBLE
100
AcDbLine
 10
727.487548828125
 20
581.406860351563
 30
0.0
 11
717.487548828125
 21
581.406860351563
 31
0.0
  0
LINE
  5
30D
330
1F
100
AcDbEntity
  8
VISIBLE
100
AcDbLine
 10
979.987548828125
 20
543.906860351563
 30
0.0
 11
984.987548828125
 21
543.906860351563
 31
0.0
  0
CIRCLE
  5
30E
330
1F
100
AcDbEntity
  8
VISIBLE
100
AcDbCircle
 10
957.487548828125
 20
648.906860351563
 30
0.0
 40
2.0
  0
LINE
  5
30F
330
1F
100
AcDbEntity
  8
VISIBLE
100
AcDbLine
 10
769.987548828125
 20
813.906860351563
 30
0.0
 11
774.987548828125
 21
813.906860351563
 31
0.0
  0
CIRCLE
  5
310
330
1F
100
AcDbEntity
  8
VISIBLE
100
AcDbCircle
 10
917.487548828125
 20
768.906860351563
 30
0.0
 40
2.0
  0
LINE
  5
311
330
1F
100
AcDbEntity
  8
VISIBLE
100
AcDbLine
 10
769.987548828125
 20
533.906860351563
 30
0.0
 11
769.987548828125
 21
543.906860351563
 31
0.0
  0
LINE
  5
312
330
1F
100
AcDbEntity
  8
VISIBLE
100
AcDbLine
 10
979.987548828125
 20
603.906860351563
 30
0.0
 11
984.987548828125
 21
603.906860351563
 31
0.0
  0
LINE
  5
313
330
1F
100
AcDbEntity
  8
VISIBLE
100
AcDbLine
 10
984.987548828125
 20
563.906860351563
 30
0.0
 11
979.987548828125
 21
563.906860351563
 31
0.0
  0
LINE
  5
314
330
1F
100
AcDbEntity
  8
VISIBLE
100
AcDbLine
 10
984.987548828125
 20
603.906860351563
 30
0.0
 11
984.987548828125
 21
586.406860351563
 31
0.0
  0
LINE
  5
315
330
1F
100
AcDbEntity
  8
VISIBLE
100
AcDbLine
 10
979.987548828125
 20
586.406860351563
 30
0.0
 11
979.987548828125
 21
603.906860351563
 31
0.0
  0
LINE
  5
316
330
1F
100
AcDbEntity
  8
VISIBLE
100
AcDbLine
 10
897.487548828125
 20
686.406860351563
 30
0.0
 11
879.987548828125
 21
686.406860351563
 31
0.0
  0
LINE
  5
317
330
1F
100
AcDbEntity
  8
VISIBLE
100
AcDbLine
 10
1002.487548828125
 20
796.406860351563
 30
0.0
 11
1002.487548828125
 21
791.406860351563
 31
0.0
  0
LINE
  5
318
330
1F
100
AcDbEntity
  8
VISIBLE
100
AcDbLine
 10
792.487548828125
 20
796.406860351563
 30
0.0
 11
792.487548828125
 21
791.406860351563
 31
0.0
  0
LINE
  5
319
330
1F
100
AcDbEntity
  8
VISIBLE
100
AcDbLine
 10
1027.487548828125
 20
791.406860351563
 30
0.0
 11
1027.487548828125
 21
796.406860351563
 31
0.0
  0
LINE
  5
31A
330
1F
100
AcDbEntity
  8
VISIBLE
100
AcDbLine
 10
774.987548828125
 20
543.906860351563
 30
0.0
 11
774.987548828125
 21
533.906860351563
 31
0.0
  0
LINE
  5
31B
330
1F
100
AcDbEntity
  8
VISIBLE
100
AcDbLine
 10
1027.487548828125
 20
586.406860351563
 30
0.0
 11
1037.487548828125
 21
586.406860351563
 31
0.0
  0
LINE
  5
31C
330
1F
100
AcDbEntity
  8
VISIBLE
100
AcDbLine
 10
1037.487548828125
 20
791.406860351563
 30
0.0
 11
1037.487548828125
 21
738.906860351563
 31
0.0
  0
LINE
  5
31D
330
1F
100
AcDbEntity
  8
VISIBLE
100
AcDbLine
 10
717.487548828125
 20
668.906860351563
 30
0.0
 11
717.487548828125
 21
708.906860351563
 31
0.0
  0
CIRCLE
  5
31E
330
1F
100
AcDbEntity
  8
VISIBLE
100
AcDbCircle
 10
917.487548828125
 20
648.906860351563
 30
0.0
 40
2.0
  0
LINE
  5
31F
330
1F
100
AcDbEntity
  8
VISIBLE
100
AcDbLine
 10
979.987548828125
 20
581.406860351563
 30
0.0
 11
962.487548828125
 21
581.406860351563
 31
0.0
  0
LINE
  5
320
330
1F
100
AcDbEntity
  8
VISIBLE
100
AcDbLine
 10
792.487548828125
 20
586.406860351563
 30
0.0
 11
792.487548828125
 21
581.406860351563
 31
0.0
  0
LINE
  5
321
330
1F
100
AcDbEntity
  8
VISIBLE
100
AcDbLine
 10
879.987548828125
 20
691.406860351563
 30
0.0
 11
897.487548828125
 21
691.406860351563
 31
0.0
  0
LINE
  5
322
330
1F
100
AcDbEntity
  8
VISIBLE
100
AcDbLine
 10
874.987548828125
 20
691.406860351563
 30
0.0
 11
874.987548828125
 21
708.906860351563
 31
0.0
  0
LINE
  5
323
330
1F
100
AcDbEntity
  8
VISIBLE
100
AcDbLine
 10
707.487548828125
 20
728.906860351563
 30
0.0
 11
707.487548828125
 21
648.906860351563
 31
0.0
  0
CIRCLE
  5
324
330
1F
100
AcDbEntity
  8
VISIBLE
100
AcDbCircle
 10
877.487548828125
 20
608.906860351563
 30
0.0
 40
2.0
  0
LINE
  5
325
330
1F
100
AcDbEntity
  8
VISIBLE
100
AcDbLine
 10
1037.487548828125
 20
638.906860351563
 30
0.0
 11
1037.487548828125
 21
586.406860351563
 31
0.0
  0
CIRCLE
  5
326
330
1F
100
AcDbEntity
  8
VISIBLE
100
AcDbCircle
 10
797.487548828125
 20
608.906860351563
 30
0.0
 40
2.0
  0
LINE
  5
327
330
1F
100
AcDbEntity
  8
VISIBLE
100
AcDbLine
 10
769.987548828125
 20
543.906860351563
 30
0.0
 11
774.987548828125
 21
543.906860351563
 31
0.0
  0
CIRCLE
  5
328
330
1F
100
AcDbEntity
  8
VISIBLE
100
AcDbCircle
 10
957.487548828125
 20
608.906860351563
 30
0.0
 40
2.0
  0
LINE
  5
329
330
1F
100
AcDbEntity
  8
VISIBLE
100
AcDbLine
 10
792.487548828125
 20
581.406860351563
 30
0.0
 11
774.987548828125
 21
581.406860351563
 31
0.0
  0
LINE
  5
32A
330
1F
100
AcDbEntity
  8
VISIBLE
100
AcDbLine
 10
962.487548828125
 20
791.406860351563
 30
0.0
 11
962.487548828125
 21
796.406860351563
 31
0.0
  0
LINE
  5
32B
330
1F
100
AcDbEntity
  8
VISIBLE
100
AcDbLine
 10
874.987548828125
 20
668.906860351563
 30
0.0
 11
874.987548828125
 21
686.406860351563
 31
0.0
  0
LINE
  5
32C
330
1F
100
AcDbEntity
  8
VISIBLE
100
AcDbLine
 10
727.487548828125
 20
796.406860351563
 30
0.0
 11
727.487548828125
 21
791.406860351563
 31
0.0
  0
LINE
  5
32D
330
1F
100
AcDbEntity
  8
VISIBLE
100
AcDbLine
 10
979.987548828125
 20
813.906860351563
 30
0.0
 11
984.987548828125
 21
813.906860351563
 31
0.0
  0
LINE
  5
32E
330
1F
100
AcDbEntity
  8
VISIBLE
100
AcDbLine
 10
979.987548828125
 20
533.906860351563
 30
0.0
 11
979.987548828125
 21
543.906860351563
 31
0.0
  0
LINE
  5
32F
330
1F
100
AcDbEntity
  8
VISIBLE
100
AcDbLine
 10
727.487548828125
 20
791.406860351563
 30
0.0
 11
717.487548828125
 21
791.406860351563
 31
0.0
  0
LINE
  5
330
330
1F
100
AcDbEntity
  8
VISIBLE
100
AcDbLine
 10
717.487548828125
 20
638.906860351563
 30
0.0
 11
707.487548828125
 21
648.906860351563
 31
0.0
  0
LINE
  5
331
330
1F
100
AcDbEntity
  8
VISIBLE
100
AcDbLine
 10
752.487548828125
 20
586.406860351563
 30
0.0
 11
769.987548828125
 21
586.406860351563
 31
0.0
  0
LINE
  5
332
330
1F
100
AcDbEntity
  8
VISIBLE
100
AcDbLine
 10
979.987548828125
 20
773.906860351563
 30
0.0
 11
979.987548828125
 21
791.406860351563
 31
0.0
  0
CIRCLE
  5
333
330
1F
100
AcDbEntity
  8
VISIBLE
100
AcDbCircle
 10
837.487548828125
 20
648.906860351563
 30
0.0
 40
2.0
  0
LINE
  5
334
330
1F
100
AcDbEntity
  8
VISIBLE
100
AcDbLine
 10
1037.487548828125
 20
581.406860351563
 30
0.0
 11
1037.487548828125
 21
533.906860351563
 31
0.0
  0
LINE
  5
335
330
1F
100
AcDbEntity
  8
VISIBLE
100
AcDbLine
 10
984.987548828125
 20
791.406860351563
 30
0.0
 11
984.987548828125
 21
773.906860351563
 31
0.0
  0
LINE
  5
336
330
1F
100
AcDbEntity
  8
VISIBLE
100
AcDbLine
 10
769.987548828125
 20
603.906860351563
 30
0.0
 11
774.987548828125
 21
603.906860351563
 31
0.0
  0
LINE
  5
337
330
1F
100
AcDbEntity
  8
VISIBLE
100
AcDbLine
 10
707.487548828125
 20
728.906860351563
 30
0.0
 11
717.487548828125
 21
738.906860351563
 31
0.0
  0
LINE
  5
338
330
1F
100
AcDbEntity
  8
VISIBLE
100
AcDbLine
 10
1002.487548828125
 20
586.406860351563
 30
0.0
 11
1002.487548828125
 21
581.406860351563
 31
0.0
  0
LINE
  5
339
330
1F
100
AcDbEntity
  8
VISIBLE
100
AcDbLine
 10
717.487548828125
 20
586.406860351563
 30
0.0
 11
717.487548828125
 21
638.906860351563
 31
0.0
  0
LINE
  5
33A
330
1F
100
AcDbEntity
  8
VISIBLE
100
AcDbLine
 10
1037.487548828125
 20
668.906860351563
 30
0.0
 11
1032.487548828125
 21
668.906860351563
 31
0.0
  0
CIRCLE
  5
33B
330
1F
100
AcDbEntity
  8
VISIBLE
100
AcDbCircle
 10
837.487548828125
 20
728.906860351563
 30
0.0
 40
2.0
  0
LINE
  5
33C
330
1F
100
AcDbEntity
  8
VISIBLE
100
AcDbLine
 10
189.329315185547
 20
497.411956787109
 30
0.0
 11
189.329315185547
 21
437.411956787109
 31
0.0
  0
LINE
  5
33D
330
1F
100
AcDbEntity
  8
VISIBLE
100
AcDbLine
 10
139.329315185547
 20
469.911956787109
 30
0.0
 11
164.329315185547
 21
469.911956787109
 31
0.0
  0
LINE
  5
33E
330
1F
100
AcDbEntity
  8
VISIBLE
100
AcDbLine
 10
179.329315185547
 20
487.411956787109
 30
0.0
 11
179.329315185547
 21
497.411956787109
 31
0.0
  0
LINE
  5
33F
330
1F
100
AcDbEntity
  8
VISIBLE
100
AcDbLine
 10
149.329315185547
 20
459.911956787109
 30
0.0
 11
149.329315185547
 21
454.911956787109
 31
0.0
  0
LINE
  5
340
330
1F
100
AcDbEntity
  8
VISIBLE
100
AcDbLine
 10
179.329315185547
 20
447.411956787109
 30
0.0
 11
179.329315185547
 21
437.411956787109
 31
0.0
  0
LINE
  5
341
330
1F
100
AcDbEntity
  8
VISIBLE
100
AcDbLine
 10
144.329315185547
 20
454.911956787109
 30
0.0
 11
144.329315185547
 21
459.911956787109
 31
0.0
  0
LINE
  5
342
330
1F
100
AcDbEntity
  8
VISIBLE
100
AcDbLine
 10
149.329315185547
 20
454.911956787109
 30
0.0
 11
144.329315185547
 21
454.911956787109
 31
0.0
  0
LINE
  5
343
330
1F
100
AcDbEntity
  8
VISIBLE
100
AcDbLine
 10
149.329315185547
 20
479.911956787109
 30
0.0
 11
149.329315185547
 21
474.911956787109
 31
0.0
  0
LINE
  5
344
330
1F
100
AcDbEntity
  8
VISIBLE
100
AcDbLine
 10
144.329315185547
 20
459.911956787109
 30
0.0
 11
149.329315185547
 21
459.911956787109
 31
0.0
  0
LINE
  5
345
330
1F
100
AcDbEntity
  8
VISIBLE
100
AcDbLine
 10
139.329315185547
 20
447.411956787109
 30
0.0
 11
139.329315185547
 21
464.911956787109
 31
0.0
  0
LINE
  5
346
330
1F
100
AcDbEntity
  8
VISIBLE
100
AcDbLine
 10
149.329315185547
 20
474.911956787109
 30
0.0
 11
144.329315185547
 21
474.911956787109
 31
0.0
  0
LINE
  5
347
330
1F
100
AcDbEntity
  8
VISIBLE
100
AcDbLine
 10
179.329315185547
 20
437.411956787109
 30
0.0
 11
189.329315185547
 21
437.411956787109
 31
0.0
  0
LINE
  5
348
330
1F
100
AcDbEntity
  8
VISIBLE
100
AcDbLine
 10
164.329315185547
 20
464.911956787109
 30
0.0
 11
139.329315185547
 21
464.911956787109
 31
0.0
  0
LINE
  5
349
330
1F
100
AcDbEntity
  8
VISIBLE
100
AcDbLine
 10
164.329315185547
 20
469.911956787109
 30
0.0
 11
164.329315185547
 21
464.911956787109
 31
0.0
  0
LINE
  5
34A
330
1F
100
AcDbEntity
  8
VISIBLE
100
AcDbLine
 10
139.329315185547
 20
487.411956787109
 30
0.0
 11
179.329315185547
 21
487.411956787109
 31
0.0
  0
LINE
  5
34B
330
1F
100
AcDbEntity
  8
VISIBLE
100
AcDbLine
 10
144.329315185547
 20
479.911956787109
 30
0.0
 11
149.329315185547
 21
479.911956787109
 31
0.0
  0
LINE
  5
34C
330
1F
100
AcDbEntity
  8
VISIBLE
100
AcDbLine
 10
179.329315185547
 20
497.411956787109
 30
0.0
 11
189.329315185547
 21
497.411956787109
 31
0.0
  0
LINE
  5
34D
330
1F
100
AcDbEntity
  8
VISIBLE
100
AcDbLine
 10
179.329315185547
 20
447.411956787109
 30
0.0
 11
139.329315185547
 21
447.411956787109
 31
0.0
  0
LINE
  5
34E
330
1F
100
AcDbEntity
  8
VISIBLE
100
AcDbLine
 10
139.329315185547
 20
469.911956787109
 30
0.0
 11
139.329315185547
 21
487.411956787109
 31
0.0
  0
LINE
  5
34F
330
1F
100
AcDbEntity
  8
VISIBLE
100
AcDbLine
 10
144.329315185547
 20
474.911956787109
 30
0.0
 11
144.329315185547
 21
479.911956787109
 31
0.0
  0
LINE
  5
350
330
1F
100
AcDbEntity
  8
VISIBLE
100
AcDbLine
 10
149.70947265625
 20
407.661285400391
 30
0.0
 11
144.70947265625
 21
407.661285400391
 31
0.0
  0
LINE
  5
351
330
1F
100
AcDbEntity
  8
VISIBLE
100
AcDbLine
 10
154.70947265625
 20
400.161285400391
 30
0.0
 11
154.70947265625
 21
405.161285400391
 31
0.0
  0
LINE
  5
352
330
1F
100
AcDbEntity
  8
VISIBLE
100
AcDbLine
 10
149.70947265625
 20
392.661285400391
 30
0.0
 11
144.70947265625
 21
392.661285400391
 31
0.0
  0
LINE
  5
353
330
1F
100
AcDbEntity
  8
VISIBLE
100
AcDbLine
 10
154.70947265625
 20
405.161285400391
 30
0.0
 11
174.70947265625
 21
405.161285400391
 31
0.0
  0
LINE
  5
354
330
1F
100
AcDbEntity
  8
VISIBLE
100
AcDbLine
 10
179.70947265625
 20
382.661285400391
 30
0.0
 11
139.70947265625
 21
382.661285400391
 31
0.0
  0
LINE
  5
355
330
1F
100
AcDbEntity
  8
VISIBLE
100
AcDbLine
 10
179.70947265625
 20
432.661285400391
 30
0.0
 11
189.70947265625
 21
432.661285400391
 31
0.0
  0
LINE
  5
356
330
1F
100
AcDbEntity
  8
VISIBLE
100
AcDbLine
 10
179.70947265625
 20
422.661285400391
 30
0.0
 11
179.70947265625
 21
432.661285400391
 31
0.0
  0
LINE
  5
357
330
1F
100
AcDbEntity
  8
VISIBLE
100
AcDbLine
 10
144.70947265625
 20
397.661285400391
 30
0.0
 11
149.70947265625
 21
397.661285400391
 31
0.0
  0
LINE
  5
358
330
1F
100
AcDbEntity
  8
VISIBLE
100
AcDbLine
 10
144.70947265625
 20
412.661285400391
 30
0.0
 11
149.70947265625
 21
412.661285400391
 31
0.0
  0
LINE
  5
359
330
1F
100
AcDbEntity
  8
VISIBLE
100
AcDbLine
 10
189.70947265625
 20
432.661285400391
 30
0.0
 11
189.70947265625
 21
372.661285400391
 31
0.0
  0
LINE
  5
35A
330
1F
100
AcDbEntity
  8
VISIBLE
100
AcDbLine
 10
179.70947265625
 20
372.661285400391
 30
0.0
 11
189.70947265625
 21
372.661285400391
 31
0.0
  0
LINE
  5
35B
330
1F
100
AcDbEntity
  8
VISIBLE
100
AcDbLine
 10
144.70947265625
 20
407.661285400391
 30
0.0
 11
144.70947265625
 21
412.661285400391
 31
0.0
  0
LINE
  5
35C
330
1F
100
AcDbEntity
  8
VISIBLE
100
AcDbLine
 10
174.70947265625
 20
400.161285400391
 30
0.0
 11
154.70947265625
 21
400.161285400391
 31
0.0
  0
LINE
  5
35D
330
1F
100
AcDbEntity
  8
VISIBLE
100
AcDbLine
 10
174.70947265625
 20
405.161285400391
 30
0.0
 11
174.70947265625
 21
400.161285400391
 31
0.0
  0
LINE
  5
35E
330
1F
100
AcDbEntity
  8
VISIBLE
100
AcDbLine
 10
144.70947265625
 20
392.661285400391
 30
0.0
 11
144.70947265625
 21
397.661285400391
 31
0.0
  0
LINE
  5
35F
330
1F
100
AcDbEntity
  8
VISIBLE
100
AcDbLine
 10
139.70947265625
 20
422.661285400391
 30
0.0
 11
179.70947265625
 21
422.661285400391
 31
0.0
  0
LINE
  5
360
330
1F
100
AcDbEntity
  8
VISIBLE
100
AcDbLine
 10
179.70947265625
 20
382.661285400391
 30
0.0
 11
179.70947265625
 21
372.661285400391
 31
0.0
  0
LINE
  5
361
330
1F
100
AcDbEntity
  8
VISIBLE
100
AcDbLine
 10
149.70947265625
 20
397.661285400391
 30
0.0
 11
149.70947265625
 21
392.661285400391
 31
0.0
  0
LINE
  5
362
330
1F
100
AcDbEntity
  8
VISIBLE
100
AcDbLine
 10
149.70947265625
 20
412.661285400391
 30
0.0
 11
149.70947265625
 21
407.661285400391
 31
0.0
  0
LINE
  5
363
330
1F
100
AcDbEntity
  8
VISIBLE
100
AcDbLine
 10
139.70947265625
 20
382.661285400391
 30
0.0
 11
139.70947265625
 21
422.661285400391
 31
0.0
  0
LINE
  5
364
330
1F
100
AcDbEntity
  8
VISIBLE
100
AcDbLine
 10
91.869600176811
 20
239.718182563783
 30
0.0
 11
96.8696001768111
 21
239.718182563783
 31
0.0
  0
LINE
  5
365
330
1F
100
AcDbEntity
  8
VISIBLE
100
AcDbLine
 10
96.8696001768111
 20
239.718182563783
 30
0.0
 11
96.8696001768111
 21
509.718182563783
 31
0.0
  0
LINE
  5
366
330
1F
100
AcDbEntity
  8
VISIBLE
100
AcDbLine
 10
116.8696001768111
 20
509.718182563783
 30
0.0
 11
116.8696001768111
 21
239.718182563783
 31
0.0
  0
LINE
  5
367
330
1F
100
AcDbEntity
  8
VISIBLE
100
AcDbLine
 10
121.869600176811
 20
229.718182563783
 30
0.0
 11
91.869600176811
 21
229.718182563783
 31
0.0
  0
LINE
  5
368
330
1F
100
AcDbEntity
  8
VISIBLE
100
AcDbLine
 10
96.8696001768111
 20
509.718182563783
 30
0.0
 11
116.8696001768111
 21
509.718182563783
 31
0.0
  0
LINE
  5
369
330
1F
100
AcDbEntity
  8
VISIBLE
100
AcDbLine
 10
121.869600176811
 20
239.718182563783
 30
0.0
 11
121.869600176811
 21
229.718182563783
 31
0.0
  0
LINE
  5
36A
330
1F
100
AcDbEntity
  8
VISIBLE
100
AcDbLine
 10
91.869600176811
 20
229.718182563783
 30
0.0
 11
91.869600176811
 21
239.718182563783
 31
0.0
  0
LINE
  5
36B
330
1F
100
AcDbEntity
  8
VISIBLE
100
AcDbLine
 10
116.869600176811
 20
239.718182563783
 30
0.0
 11
121.869600176811
 21
239.718182563783
 31
0.0
  0
ENDSEC
  0
SECTION
  2
OBJECTS
  0
DICTIONARY
  5
C
330
0
100
AcDbDictionary
281
     1
  3
ACAD_GROUP
350
D
  3
ACAD_LAYOUT
350
1A
  3
ACAD_MATERIAL
350
3B
  3
ACAD_MLEADERSTYLE
350
36E
  3
ACAD_MLINESTYLE
350
17
  3
ACAD_PLOTSETTINGS
350
19
  3
ACAD_PLOTSTYLENAME
350
E
  3
ACAD_VISUALSTYLE
350
2A
  3
AcDbVariableDictionary
350
36C
  0
DICTIONARY
  5
D
102
{ACAD_REACTORS
330
C
102
}
330
C
100
AcDbDictionary
281
     1
  0
DICTIONARY
  5
1A
102
{ACAD_REACTORS
330
C
102
}
330
C
100
AcDbDictionary
281
     1
  3
Layout1
350
1E
  3
Layout2
350
26
  3
Model
350
22
  0
DICTIONARY
  5
3B
102
{ACAD_REACTORS
330
C
102
}
330
C
100
AcDbDictionary
281
     1
  3
ByBlock
350
3D
  3
ByLayer
350
3C
  3
Global
350
3E
  0
DICTIONARY
  5
36E
102
{ACAD_REACTORS
330
C
102
}
330
C
100
AcDbDictionary
281
     1
  0
DICTIONARY
  5
17
102
{ACAD_REACTORS
330
C
102
}
330
C
100
AcDbDictionary
281
     1
  3
Standard
350
18
  0
DICTIONARY
  5
19
102
{ACAD_REACTORS
330
C
102
}
330
C
100
AcDbDictionary
281
     1
  0
ACDBDICTIONARYWDFLT
  5
E
102
{ACAD_REACTORS
330
C
102
}
330
C
100
AcDbDictionary
281
     1
  3
Normal
350
F
100
AcDbDictionaryWithDefault
340
F
  0
DICTIONARY
  5
2A
102
{ACAD_REACTORS
330
C
102
}
330
C
100
AcDbDictionary
281
     1
  3
2dWireframe
350
2F
  3
3D Hidden
350
31
  3
3dWireframe
350
30
  3
Basic
350
32
  3
Brighten
350
36
  3
ColorChange
350
3A
  3
Conceptual
350
34
  3
Dim
350
35
  3
Facepattern
350
39
  3
Flat
350
2B
  3
FlatWithEdges
350
2C
  3
Gouraud
350
2D
  3
GouraudWithEdges
350
2E
  3
Linepattern
350
38
  3
Realistic
350
33
  3
Thicken
350
37
  0
DICTIONARY
  5
36C
102
{ACAD_REACTORS
330
C
102
}
330
C
100
AcDbDictionary
281
     1
  3
DIMASSOC
350
371
  3
HIDETEXT
350
372
  3
PSOLHEIGHT
350
370
  3
PSOLWIDTH
350
36F
  0
LAYOUT
  5
1E
102
{ACAD_REACTORS
330
1A
102
}
330
1A
100
AcDbPlotSettings
  1

  2
none_device
  4

  6

 40
0.0
 41
0.0
 42
0.0
 43
0.0
 44
0.0
 45
0.0
 46
0.0
 47
0.0
 48
0.0
 49
0.0
140
0.0
141
0.0
142
1.0
143
1.0
 70
   688
 72
     0
 73
     0
 74
     5
  7

 75
    16
147
1.0
148
0.0
149
0.0
100
AcDbLayout
  1
Layout1
 70
     1
 71
     1
 10
0.0
 20
0.0
 11
420.0
 21
297.0
 12
0.0
 22
0.0
 32
0.0
 14
1.000000000000000E+20
 24
1.000000000000000E+20
 34
1.000000000000000E+20
 15
-1.000000000000000E+20
 25
-1.000000000000000E+20
 35
-1.000000000000000E+20
146
0.0
 13
0.0
 23
0.0
 33
0.0
 16
1.0
 26
0.0
 36
0.0
 17
0.0
 27
1.0
 37
0.0
 76
     0
330
1B
  0
LAYOUT
  5
26
102
{ACAD_REACTORS
330
1A
102
}
330
1A
100
AcDbPlotSettings
  1

  2
none_device
  4

  6

 40
0.0
 41
0.0
 42
0.0
 43
0.0
 44
0.0
 45
0.0
 46
0.0
 47
0.0
 48
0.0
 49
0.0
140
0.0
141
0.0
142
1.0
143
1.0
 70
   688
 72
     0
 73
     0
 74
     5
  7

 75
    16
147
1.0
148
0.0
149
0.0
100
AcDbLayout
  1
Layout2
 70
     1
 71
     2
 10
0.0
 20
0.0
 11
0.0
 21
0.0
 12
0.0
 22
0.0
 32
0.0
 14
0.0
 24
0.0
 34
0.0
 15
0.0
 25
0.0
 35
0.0
146
0.0
 13
0.0
 23
0.0
 33
0.0
 16
1.0
 26
0.0
 36
0.0
 17
0.0
 27
1.0
 37
0.0
 76
     0
330
23
  0
LAYOUT
  5
22
102
{ACAD_REACTORS
330
1A
102
}
330
1A
100
AcDbPlotSettings
  1

  2
none_device
  4

  6

 40
0.0
 41
0.0
 42
0.0
 43
0.0
 44
0.0
 45
0.0
 46
0.0
 47
0.0
 48
0.0
 49
0.0
140
0.0
141
0.0
142
1.0
143
1.0
 70
  1712
 72
     0
 73
     0
 74
     0
  7

 75
     0
147
1.0
148
0.0
149
0.0
100
AcDbLayout
  1
Model
 70
     1
 71
     0
 10
0.0
 20
0.0
 11
420.0
 21
297.0
 12
0.0
 22
0.0
 32
0.0
 14
1.000000000000000E+20
 24
1.000000000000000E+20
 34
1.000000000000000E+20
 15
-1.000000000000000E+20
 25
-1.000000000000000E+20
 35
-1.000000000000000E+20
146
0.0
 13
0.0
 23
0.0
 33
0.0
 16
1.0
 26
0.0
 36
0.0
 17
0.0
 27
1.0
 37
0.0
 76
     0
330
1F
331
29
  0
MATERIAL
  5
3D
102
{ACAD_REACTORS
330
3B
102
}
102
{ACAD_XDICTIONARY
360
395
102
}
330
3B
100
AcDbMaterial
  1
ByBlock
  0
MATERIAL
  5
3C
102
{ACAD_REACTORS
330
3B
102
}
102
{ACAD_XDICTIONARY
360
393
102
}
330
3B
100
AcDbMaterial
  1
ByLayer
  0
MATERIAL
  5
3E
102
{ACAD_REACTORS
330
3B
102
}
102
{ACAD_XDICTIONARY
360
397
102
}
330
3B
100
AcDbMaterial
  1
Global
  0
MLINESTYLE
  5
18
102
{ACAD_REACTORS
330
17
102
}
330
17
100
AcDbMlineStyle
  2
Standard
 70
     0
  3

 62
   256
 51
90.0
 52
90.0
 71
     2
 49
0.5
 62
   256
  6
BYLAYER
 49
-0.5
 62
   256
  6
BYLAYER
  0
ACDBPLACEHOLDER
  5
F
102
{ACAD_REACTORS
330
E
102
}
330
E
  0
VISUALSTYLE
  5
2F
102
{ACAD_REACTORS
330
2A
102
}
102
{ACAD_XDICTIONARY
360
37B
102
}
330
2A
100
AcDbVisualStyle
  2
2dWireframe
 70
     4
 71
     0
 72
     2
 73
     0
 90
        0
 40
-0.6
 41
-30.0
 62
     5
 63
     7
 74
     1
 91
        4
 64
     7
 65
   257
 75
     1
175
     1
 42
1.0
 92
        0
 66
   257
 43
1.0
 76
     1
 77
     6
 78
     2
 67
     7
 79
     5
170
     0
171
     0
290
     0
174
     0
 93
        1
 44
0.0
173
     0
291
     0
 45
0.0
1001
ACAD
1000
AcDbSavedByObjectVersion
1070
     0
  0
VISUALSTYLE
  5
31
102
{ACAD_REACTORS
330
2A
102
}
102
{ACAD_XDICTIONARY
360
37F
102
}
330
2A
100
AcDbVisualStyle
  2
3D Hidden
 70
     6
 71
     1
 72
     2
 73
     2
 90
        0
 40
-0.6
 41
-30.0
 62
     5
 63
     7
 74
     2
 91
        2
 64
     7
 65
   257
 75
     2
175
     1
 42
40.0
 92
        0
 66
   257
 43
1.0
 76
     1
 77
     6
 78
     2
 67
     7
 79
     3
170
     0
171
     0
290
     0
174
     0
 93
        1
 44
0.0
173
     0
291
     0
 45
0.0
1001
ACAD
1000
AcDbSavedByObjectVersion
1070
     0
  0
VISUALSTYLE
  5
30
102
{ACAD_REACTORS
330
2A
102
}
102
{ACAD_XDICTIONARY
360
37D
102
}
330
2A
100
AcDbVisualStyle
  2
3dWireframe
 70
     5
 71
     0
 72
     2
 73
     0
 90
        0
 40
-0.6
 41
-30.0
 62
     5
 63
     7
 74
     1
 91
        4
 64
     7
 65
   257
 75
     1
175
     1
 42
1.0
 92
        0
 66
   257
 43
1.0
 76
     1
 77
     6
 78
     2
 67
     7
 79
     5
170
     0
171
     0
290
     0
174
     0
 93
        1
 44
0.0
173
     0
291
     0
 45
0.0
1001
ACAD
1000
AcDbSavedByObjectVersion
1070
     0
  0
VISUALSTYLE
  5
32
102
{ACAD_REACTORS
330
2A
102
}
102
{ACAD_XDICTIONARY
360
381
102
}
330
2A
100
AcDbVisualStyle
  2
Basic
 70
     7
 71
     1
 72
     0
 73
     1
 90
        0
 40
-0.6
 41
-30.0
 62
     5
 63
     7
 74
     0
 91
        4
 64
     7
 65
   257
 75
     1
175
     1
 42
1.0
 92
        8
 66
     7
 43
1.0
 76
     1
 77
     6
 78
     2
 67
     7
 79
     5
170
     0
171
     0
290
     0
174
     0
 93
        1
 44
0.0
173
     0
291
     1
 45
0.0
1001
ACAD
1000
AcDbSavedByObjectVersion
1070
     0
  0
VISUALSTYLE
  5
36
102
{ACAD_REACTORS
330
2A
102
}
102
{ACAD_XDICTIONARY
360
389
102
}
330
2A
100
AcDbVisualStyle
  2
Brighten
 70
    12
 71
     2
 72
     2
 73
     0
 90
        0
 40
-0.6
 41
-30.0
 62
     5
 63
     7
 74
     1
 91
        4
 64
     7
 65
   257
 75
     1
175
     1
 42
1.0
 92
        8
 66
     7
 43
1.0
 76
     1
 77
     6
 78
     2
 67
     7
 79
     5
170
     0
171
     0
290
     0
174
     0
 93
        1
 44
50.0
173
     0
291
     1
 45
0.0
1001
ACAD
1000
AcDbSavedByObjectVersion
1070
     0
  0
VISUALSTYLE
  5
3A
102
{ACAD_REACTORS
330
2A
102
}
102
{ACAD_XDICTIONARY
360
391
102
}
330
2A
100
AcDbVisualStyle
  2
ColorChange
 70
    16
 71
     2
 72
     2
 73
     3
 90
        0
 40
-0.6
 41
-30.0
 62
     5
 63
     8
 74
     1
 91
        4
 64
     7
 65
   257
 75
     1
175
     1
 42
1.0
 92
        8
 66
     8
 43
1.0
 76
     1
 77
     6
 78
     2
 67
     7
 79
     5
170
     0
171
     0
290
     0
174
     0
 93
        1
 44
0.0
173
     0
291
     1
 45
0.0
1001
ACAD
1000
AcDbSavedByObjectVersion
1070
     0
  0
VISUALSTYLE
  5
34
102
{ACAD_REACTORS
330
2A
102
}
102
{ACAD_XDICTIONARY
360
385
102
}
330
2A
100
AcDbVisualStyle
  2
Conceptual
 70
     9
 71
     3
 72
     2
 73
     0
 90
        0
 40
-0.6
 41
-30.0
 62
     5
 63
     7
 74
     2
 91
        2
 64
     7
 65
   257
 75
     1
175
     1
 42
40.0
 92
        8
 66
     7
 43
1.0
 76
     1
 77
     6
 78
     2
 67
     7
 79
     3
170
     0
171
     0
290
     0
174
     0
 93
        1
 44
0.0
173
     0
291
     0
 45
0.0
1001
ACAD
1000
AcDbSavedByObjectVersion
1070
     0
  0
VISUALSTYLE
  5
35
102
{ACAD_REACTORS
330
2A
102
}
102
{ACAD_XDICTIONARY
360
387
102
}
330
2A
100
AcDbVisualStyle
  2
Dim
 70
    11
 71
     2
 72
     2
 73
     0
 90
        0
 40
-0.6
 41
-30.0
 62
     5
 63
     7
 74
     1
 91
        4
 64
     7
 65
   257
 75
     1
175
     1
 42
1.0
 92
        8
 66
     7
 43
1.0
 76
     1
 77
     6
 78
     2
 67
     7
 79
     5
170
     0
171
     0
290
     0
174
     0
 93
        1
 44
-50.0
173
     0
291
     1
 45
0.0
1001
ACAD
1000
AcDbSavedByObjectVersion
1070
     0
  0
VISUALSTYLE
  5
39
102
{ACAD_REACTORS
330
2A
102
}
102
{ACAD_XDICTIONARY
360
38F
102
}
330
2A
100
AcDbVisualStyle
  2
Facepattern
 70
    15
 71
     2
 72
     2
 73
     0
 90
        0
 40
-0.6
 41
-30.0
 62
     5
 63
     7
 74
     1
 91
        4
 64
     7
 65
   257
 75
     1
175
     1
 42
1.0
 92
        8
 66
     7
 43
1.0
 76
     1
 77
     6
 78
     2
 67
     7
 79
     5
170
     0
171
     0
290
     0
174
     0
 93
        1
 44
0.0
173
     0
291
     1
 45
0.0
1001
ACAD
1000
AcDbSavedByObjectVersion
1070
     0
  0
VISUALSTYLE
  5
2B
102
{ACAD_REACTORS
330
2A
102
}
102
{ACAD_XDICTIONARY
360
373
102
}
330
2A
100
AcDbVisualStyle
  2
Flat
 70
     0
 71
     2
 72
     1
 73
     1
 90
        2
 40
-0.6
 41
30.0
 62
     5
 63
     7
 74
     0
 91
        4
 64
     7
 65
   257
 75
     1
175
     1
 42
1.0
 92
        8
 66
     7
 43
1.0
 76
     1
 77
     6
 78
     2
 67
     7
 79
     5
170
     0
171
     0
290
     0
174
     0
 93
       13
 44
0.0
173
     0
291
     1
 45
0.0
1001
ACAD
1000
AcDbSavedByObjectVersion
1070
     0
  0
VISUALSTYLE
  5
2C
102
{ACAD_REACTORS
330
2A
102
}
102
{ACAD_XDICTIONARY
360
375
102
}
330
2A
100
AcDbVisualStyle
  2
FlatWithEdges
 70
     1
 71
     2
 72
     1
 73
     1
 90
        2
 40
-0.6
 41
30.0
 62
     5
 63
     7
 74
     1
 91
        4
 64
     7
 65
   257
 75
     1
175
     1
 42
1.0
 92
        0
 66
   257
 43
1.0
 76
     1
 77
     6
 78
     2
 67
     7
 79
     5
170
     0
171
     0
290
     0
174
     0
 93
       13
 44
0.0
173
     0
291
     1
 45
0.0
1001
ACAD
1000
AcDbSavedByObjectVersion
1070
     0
  0
VISUALSTYLE
  5
2D
102
{ACAD_REACTORS
330
2A
102
}
102
{ACAD_XDICTIONARY
360
377
102
}
330
2A
100
AcDbVisualStyle
  2
Gouraud
 70
     2
 71
     2
 72
     2
 73
     1
 90
        2
 40
-0.6
 41
30.0
 62
     5
 63
     7
 74
     0
 91
        4
 64
     7
 65
   257
 75
     1
175
     1
 42
1.0
 92
        0
 66
     7
 43
1.0
 76
     1
 77
     6
 78
     2
 67
     7
 79
     5
170
     0
171
     0
290
     0
174
     0
 93
       13
 44
0.0
173
     0
291
     1
 45
0.0
1001
ACAD
1000
AcDbSavedByObjectVersion
1070
     0
  0
VISUALSTYLE
  5
2E
102
{ACAD_REACTORS
330
2A
102
}
102
{ACAD_XDICTIONARY
360
379
102
}
330
2A
100
AcDbVisualStyle
  2
GouraudWithEdges
 70
     3
 71
     2
 72
     2
 73
     1
 90
        2
 40
-0.6
 41
30.0
 62
     5
 63
     7
 74
     1
 91
        4
 64
     7
 65
   257
 75
     1
175
     1
 42
1.0
 92
        0
 66
   257
 43
1.0
 76
     1
 77
     6
 78
     2
 67
     7
 79
     5
170
     0
171
     0
290
     0
174
     0
 93
       13
 44
0.0
173
     0
291
     1
 45
0.0
1001
ACAD
1000
AcDbSavedByObjectVersion
1070
     0
  0
VISUALSTYLE
  5
38
102
{ACAD_REACTORS
330
2A
102
}
102
{ACAD_XDICTIONARY
360
38D
102
}
330
2A
100
AcDbVisualStyle
  2
Linepattern
 70
    14
 71
     2
 72
     2
 73
     0
 90
        0
 40
-0.6
 41
-30.0
 62
     5
 63
     7
 74
     1
 91
        4
 64
     7
 65
   257
 75
     7
175
     7
 42
1.0
 92
        8
 66
     7
 43
1.0
 76
     1
 77
     6
 78
     2
 67
     7
 79
     5
170
     0
171
     0
290
     0
174
     0
 93
        1
 44
0.0
173
     0
291
     1
 45
0.0
1001
ACAD
1000
AcDbSavedByObjectVersion
1070
     0
  0
VISUALSTYLE
  5
33
102
{ACAD_REACTORS
330
2A
102
}
102
{ACAD_XDICTIONARY
360
383
102
}
330
2A
100
AcDbVisualStyle
  2
Realistic
 70
     8
 71
     2
 72
     2
 73
     0
 90
        0
 40
-0.6
 41
-30.0
 62
     5
 63
     7
 74
     1
 91
        0
 64
     7
 65
   257
 75
     1
175
     1
 42
1.0
 92
        8
 66
     8
 43
1.0
 76
     1
 77
     6
 78
     2
 67
     7
 79
     5
170
     0
171
     0
290
     0
174
     0
 93
       13
 44
0.0
173
     0
291
     0
 45
0.0
1001
ACAD
1000
AcDbSavedByObjectVersion
1070
     0
  0
VISUALSTYLE
  5
37
102
{ACAD_REACTORS
330
2A
102
}
102
{ACAD_XDICTIONARY
360
38B
102
}
330
2A
100
AcDbVisualStyle
  2
Thicken
 70
    13
 71
     2
 72
     2
 73
     0
 90
        0
 40
-0.6
 41
-30.0
 62
     5
 63
     7
 74
     1
 91
        4
 64
     7
 65
   257
 75
     1
175
     1
 42
1.0
 92
       12
 66
     7
 43
1.0
 76
     1
 77
     6
 78
     2
 67
     7
 79
     5
170
     0
171
     0
290
     0
174
     0
 93
        1
 44
0.0
173
     0
291
     1
 45
0.0
1001
ACAD
1000
AcDbSavedByObjectVersion
1070
     0
  0
DICTIONARYVAR
  5
371
102
{ACAD_REACTORS
330
36C
102
}
330
36C
100
DictionaryVariables
280
     0
  1
2
  0
DICTIONARYVAR
  5
372
102
{ACAD_REACTORS
330
36C
102
}
330
36C
100
DictionaryVariables
280
     0
  1
1
  0
DICTIONARYVAR
  5
370
102
{ACAD_REACTORS
330
36C
102
}
330
36C
100
DictionaryVariables
280
     0
  1
80.000000
  0
DICTIONARYVAR
  5
36F
102
{ACAD_REACTORS
330
36C
102
}
330
36C
100
DictionaryVariables
280
     0
  1
5.000000
  0
DICTIONARY
  5
395
330
3D
100
AcDbDictionary
280
     1
281
     1
  3
ACAD_XREC_ROUNDTRIP
360
396
  0
DICTIONARY
  5
393
330
3C
100
AcDbDictionary
280
     1
281
     1
  3
ACAD_XREC_ROUNDTRIP
360
394
  0
DICTIONARY
  5
397
330
3E
100
AcDbDictionary
280
     1
281
     1
  3
ACAD_XREC_ROUNDTRIP
360
398
  0
DICTIONARY
  5
37B
330
2F
100
AcDbDictionary
280
     1
281
     1
  3
ACAD_XREC_ROUNDTRIP
360
37C
  0
DICTIONARY
  5
37F
330
31
100
AcDbDictionary
280
     1
281
     1
  3
ACAD_XREC_ROUNDTRIP
360
380
  0
DICTIONARY
  5
37D
330
30
100
AcDbDictionary
280
     1
281
     1
  3
ACAD_XREC_ROUNDTRIP
360
37E
  0
DICTIONARY
  5
381
330
32
100
AcDbDictionary
280
     1
281
     1
  3
ACAD_XREC_ROUNDTRIP
360
382
  0
DICTIONARY
  5
389
330
36
100
AcDbDictionary
280
     1
281
     1
  3
ACAD_XREC_ROUNDTRIP
360
38A
  0
DICTIONARY
  5
391
330
3A
100
AcDbDictionary
280
     1
281
     1
  3
ACAD_XREC_ROUNDTRIP
360
392
  0
DICTIONARY
  5
385
330
34
100
AcDbDictionary
280
     1
281
     1
  3
ACAD_XREC_ROUNDTRIP
360
386
  0
DICTIONARY
  5
387
330
35
100
AcDbDictionary
280
     1
281
     1
  3
ACAD_XREC_ROUNDTRIP
360
388
  0
DICTIONARY
  5
38F
330
39
100
AcDbDictionary
280
     1
281
     1
  3
ACAD_XREC_ROUNDTRIP
360
390
  0
DICTIONARY
  5
373
330
2B
100
AcDbDictionary
280
     1
281
     1
  3
ACAD_XREC_ROUNDTRIP
360
374
  0
DICTIONARY
  5
375
330
2C
100
AcDbDictionary
280
     1
281
     1
  3
ACAD_XREC_ROUNDTRIP
360
376
  0
DICTIONARY
  5
377
330
2D
100
AcDbDictionary
280
     1
281
     1
  3
ACAD_XREC_ROUNDTRIP
360
378
  0
DICTIONARY
  5
379
330
2E
100
AcDbDictionary
280
     1
281
     1
  3
ACAD_XREC_ROUNDTRIP
360
37A
  0
DICTIONARY
  5
38D
330
38
100
AcDbDictionary
280
     1
281
     1
  3
ACAD_XREC_ROUNDTRIP
360
38E
  0
DICTIONARY
  5
383
330
33
100
AcDbDictionary
280
     1
281
     1
  3
ACAD_XREC_ROUNDTRIP
360
384
  0
DICTIONARY
  5
38B
330
37
100
AcDbDictionary
280
     1
281
     1
  3
ACAD_XREC_ROUNDTRIP
360
38C
  0
XRECORD
  5
396
102
{ACAD_REACTORS
330
395
102
}
330
395
100
AcDbXrecord
280
     1
102
MATERIAL
148
0.0
149
0.0
149
0.0
 93
        0
 94
      127
282
     0
 72
     1
 77
     1
171
     1
175
     1
179
     1
273
     0
  0
XRECORD
  5
394
102
{ACAD_REACTORS
330
393
102
}
330
393
100
AcDbXrecord
280
     1
102
MATERIAL
148
0.0
149
0.0
149
0.0
 93
        0
 94
      127
282
     0
 72
     1
 77
     1
171
     1
175
     1
179
     1
273
     0
  0
XRECORD
  5
398
102
{ACAD_REACTORS
330
397
102
}
330
397
100
AcDbXrecord
280
     1
102
MATERIAL
148
0.0
149
0.0
149
0.0
 93
        0
 94
      127
282
     0
 72
     1
 77
     1
171
     1
175
     1
179
     1
273
     0
  0
XRECORD
  5
37C
102
{ACAD_REACTORS
330
37B
102
}
330
37B
100
AcDbXrecord
280
     1
102
RTVSPropertyOp0
 70
     1
102
RTVSPropertyOp1
 70
     1
102
RTVSPropertyOp2
 70
     1
102
RTVSPropertyOp3
 70
     1
102
RTVSPropertyOp4
 70
     1
102
RTVSPropertyOp5
 70
     1
102
RTVSPropertyOp6
 70
     1
102
RTVSPropertyOp7
 70
     1
102
RTVSPropertyOp8
 70
     1
102
RTVSPropertyOp9
 70
     1
102
RTVSPropertyOp10
 70
     1
102
RTVSPropertyOp11
 70
     1
102
RTVSPropertyOp12
 70
     1
102
RTVSPropertyOp13
 70
     1
102
RTVSPropertyOp14
 70
     1
102
RTVSPropertyOp15
 70
     1
102
RTVSPropertyOp16
 70
     1
102
RTVSPropertyOp17
 70
     1
102
RTVSPropertyOp18
 70
     1
102
RTVSPropertyOp19
 70
     1
102
RTVSPropertyOp20
 70
     1
102
RTVSPropertyOp21
 70
     1
102
RTVSPropertyOp22
 70
     1
102
RTVSPropertyOp23
 70
     1
102
RTVSPropertyOp24
 70
     1
102
RTVSPropertyOp25
 70
     1
102
RTVSPropertyOp26
 70
     1
102
RTVSPropertyOp27
 70
     1
  0
XRECORD
  5
380
102
{ACAD_REACTORS
330
37F
102
}
330
37F
100
AcDbXrecord
280
     1
102
RTVSPropertyOp0
 70
     1
102
RTVSPropertyOp1
 70
     1
102
RTVSPropertyOp2
 70
     1
102
RTVSPropertyOp3
 70
     1
102
RTVSPropertyOp4
 70
     1
102
RTVSPropertyOp5
 70
     1
102
RTVSPropertyOp6
 70
     1
102
RTVSPropertyOp7
 70
     1
102
RTVSPropertyOp8
 70
     1
102
RTVSPropertyOp9
 70
     1
102
RTVSPropertyOp10
 70
     1
102
RTVSPropertyOp11
 70
     1
102
RTVSPropertyOp12
 70
     1
102
RTVSPropertyOp13
 70
     1
102
RTVSPropertyOp14
 70
     1
102
RTVSPropertyOp15
 70
     1
102
RTVSPropertyOp16
 70
     1
102
RTVSPropertyOp17
 70
     1
102
RTVSPropertyOp18
 70
     1
102
RTVSPropertyOp19
 70
     1
102
RTVSPropertyOp20
 70
     1
102
RTVSPropertyOp21
 70
     1
102
RTVSPropertyOp22
 70
     1
102
RTVSPropertyOp23
 70
     1
102
RTVSPropertyOp24
 70
     1
102
RTVSPropertyOp25
 70
     1
102
RTVSPropertyOp26
 70
     1
102
RTVSPropertyOp27
 70
     1
  0
XRECORD
  5
37E
102
{ACAD_REACTORS
330
37D
102
}
330
37D
100
AcDbXrecord
280
     1
102
RTVSPropertyOp0
 70
     1
102
RTVSPropertyOp1
 70
     1
102
RTVSPropertyOp2
 70
     1
102
RTVSPropertyOp3
 70
     1
102
RTVSPropertyOp4
 70
     1
102
RTVSPropertyOp5
 70
     1
102
RTVSPropertyOp6
 70
     1
102
RTVSPropertyOp7
 70
     1
102
RTVSPropertyOp8
 70
     1
102
RTVSPropertyOp9
 70
     1
102
RTVSPropertyOp10
 70
     1
102
RTVSPropertyOp11
 70
     1
102
RTVSPropertyOp12
 70
     1
102
RTVSPropertyOp13
 70
     1
102
RTVSPropertyOp14
 70
     1
102
RTVSPropertyOp15
 70
     1
102
RTVSPropertyOp16
 70
     1
102
RTVSPropertyOp17
 70
     1
102
RTVSPropertyOp18
 70
     1
102
RTVSPropertyOp19
 70
     1
102
RTVSPropertyOp20
 70
     1
102
RTVSPropertyOp21
 70
     1
102
RTVSPropertyOp22
 70
     1
102
RTVSPropertyOp23
 70
     1
102
RTVSPropertyOp24
 70
     1
102
RTVSPropertyOp25
 70
     1
102
RTVSPropertyOp26
 70
     1
102
RTVSPropertyOp27
 70
     1
  0
XRECORD
  5
382
102
{ACAD_REACTORS
330
381
102
}
330
381
100
AcDbXrecord
280
     1
102
RTVSPropertyOp0
 70
     1
102
RTVSPropertyOp1
 70
     1
102
RTVSPropertyOp2
 70
     1
102
RTVSPropertyOp3
 70
     1
102
RTVSPropertyOp4
 70
     1
102
RTVSPropertyOp5
 70
     1
102
RTVSPropertyOp6
 70
     1
102
RTVSPropertyOp7
 70
     1
102
RTVSPropertyOp8
 70
     1
102
RTVSPropertyOp9
 70
     1
102
RTVSPropertyOp10
 70
     1
102
RTVSPropertyOp11
 70
     1
102
RTVSPropertyOp12
 70
     1
102
RTVSPropertyOp13
 70
     1
102
RTVSPropertyOp14
 70
     1
102
RTVSPropertyOp15
 70
     1
102
RTVSPropertyOp16
 70
     1
102
RTVSPropertyOp17
 70
     1
102
RTVSPropertyOp18
 70
     1
102
RTVSPropertyOp19
 70
     1
102
RTVSPropertyOp20
 70
     1
102
RTVSPropertyOp21
 70
     1
102
RTVSPropertyOp22
 70
     1
102
RTVSPropertyOp23
 70
     1
102
RTVSPropertyOp24
 70
     1
102
RTVSPropertyOp25
 70
     1
102
RTVSPropertyOp26
 70
     1
102
RTVSPropertyOp27
 70
     1
  0
XRECORD
  5
38A
102
{ACAD_REACTORS
330
389
102
}
330
389
100
AcDbXrecord
280
     1
102
RTVSPropertyOp0
 70
     1
102
RTVSPropertyOp1
 70
     1
102
RTVSPropertyOp2
 70
     1
102
RTVSPropertyOp3
 70
     1
102
RTVSPropertyOp4
 70
     1
102
RTVSPropertyOp5
 70
     1
102
RTVSPropertyOp6
 70
     1
102
RTVSPropertyOp7
 70
     1
102
RTVSPropertyOp8
 70
     1
102
RTVSPropertyOp9
 70
     1
102
RTVSPropertyOp10
 70
     1
102
RTVSPropertyOp11
 70
     1
102
RTVSPropertyOp12
 70
     1
102
RTVSPropertyOp13
 70
     1
102
RTVSPropertyOp14
 70
     1
102
RTVSPropertyOp15
 70
     1
102
RTVSPropertyOp16
 70
     1
102
RTVSPropertyOp17
 70
     1
102
RTVSPropertyOp18
 70
     1
102
RTVSPropertyOp19
 70
     1
102
RTVSPropertyOp20
 70
     1
102
RTVSPropertyOp21
 70
     1
102
RTVSPropertyOp22
 70
     1
102
RTVSPropertyOp23
 70
     1
102
RTVSPropertyOp24
 70
     1
102
RTVSPropertyOp25
 70
     1
102
RTVSPropertyOp26
 70
     1
102
RTVSPropertyOp27
 70
     1
  0
XRECORD
  5
392
102
{ACAD_REACTORS
330
391
102
}
330
391
100
AcDbXrecord
280
     1
102
RTVSPropertyOp0
 70
     1
102
RTVSPropertyOp1
 70
     1
102
RTVSPropertyOp2
 70
     1
102
RTVSPropertyOp3
 70
     1
102
RTVSPropertyOp4
 70
     1
102
RTVSPropertyOp5
 70
     1
102
RTVSPropertyOp6
 70
     1
102
RTVSPropertyOp7
 70
     1
102
RTVSPropertyOp8
 70
     1
102
RTVSPropertyOp9
 70
     1
102
RTVSPropertyOp10
 70
     1
102
RTVSPropertyOp11
 70
     1
102
RTVSPropertyOp12
 70
     1
102
RTVSPropertyOp13
 70
     1
102
RTVSPropertyOp14
 70
     1
102
RTVSPropertyOp15
 70
     1
102
RTVSPropertyOp16
 70
     1
102
RTVSPropertyOp17
 70
     1
102
RTVSPropertyOp18
 70
     1
102
RTVSPropertyOp19
 70
     1
102
RTVSPropertyOp20
 70
     1
102
RTVSPropertyOp21
 70
     1
102
RTVSPropertyOp22
 70
     1
102
RTVSPropertyOp23
 70
     1
102
RTVSPropertyOp24
 70
     1
102
RTVSPropertyOp25
 70
     1
102
RTVSPropertyOp26
 70
     1
102
RTVSPropertyOp27
 70
     1
  0
XRECORD
  5
386
102
{ACAD_REACTORS
330
385
102
}
330
385
100
AcDbXrecord
280
     1
102
RTVSPropertyOp0
 70
     1
102
RTVSPropertyOp1
 70
     1
102
RTVSPropertyOp2
 70
     1
102
RTVSPropertyOp3
 70
     1
102
RTVSPropertyOp4
 70
     1
102
RTVSPropertyOp5
 70
     1
102
RTVSPropertyOp6
 70
     1
102
RTVSPropertyOp7
 70
     1
102
RTVSPropertyOp8
 70
     1
102
RTVSPropertyOp9
 70
     1
102
RTVSPropertyOp10
 70
     1
102
RTVSPropertyOp11
 70
     1
102
RTVSPropertyOp12
 70
     1
102
RTVSPropertyOp13
 70
     1
102
RTVSPropertyOp14
 70
     1
102
RTVSPropertyOp15
 70
     1
102
RTVSPropertyOp16
 70
     1
102
RTVSPropertyOp17
 70
     1
102
RTVSPropertyOp18
 70
     1
102
RTVSPropertyOp19
 70
     1
102
RTVSPropertyOp20
 70
     1
102
RTVSPropertyOp21
 70
     1
102
RTVSPropertyOp22
 70
     1
102
RTVSPropertyOp23
 70
     1
102
RTVSPropertyOp24
 70
     1
102
RTVSPropertyOp25
 70
     1
102
RTVSPropertyOp26
 70
     1
102
RTVSPropertyOp27
 70
     1
  0
XRECORD
  5
388
102
{ACAD_REACTORS
330
387
102
}
330
387
100
AcDbXrecord
280
     1
102
RTVSPropertyOp0
 70
     1
102
RTVSPropertyOp1
 70
     1
102
RTVSPropertyOp2
 70
     1
102
RTVSPropertyOp3
 70
     1
102
RTVSPropertyOp4
 70
     1
102
RTVSPropertyOp5
 70
     1
102
RTVSPropertyOp6
 70
     1
102
RTVSPropertyOp7
 70
     1
102
RTVSPropertyOp8
 70
     1
102
RTVSPropertyOp9
 70
     1
102
RTVSPropertyOp10
 70
     1
102
RTVSPropertyOp11
 70
     1
102
RTVSPropertyOp12
 70
     1
102
RTVSPropertyOp13
 70
     1
102
RTVSPropertyOp14
 70
     1
102
RTVSPropertyOp15
 70
     1
102
RTVSPropertyOp16
 70
     1
102
RTVSPropertyOp17
 70
     1
102
RTVSPropertyOp18
 70
     1
102
RTVSPropertyOp19
 70
     1
102
RTVSPropertyOp20
 70
     1
102
RTVSPropertyOp21
 70
     1
102
RTVSPropertyOp22
 70
     1
102
RTVSPropertyOp23
 70
     1
102
RTVSPropertyOp24
 70
     1
102
RTVSPropertyOp25
 70
     1
102
RTVSPropertyOp26
 70
     1
102
RTVSPropertyOp27
 70
     1
  0
XRECORD
  5
390
102
{ACAD_REACTORS
330
38F
102
}
330
38F
100
AcDbXrecord
280
     1
102
RTVSPropertyOp0
 70
     1
102
RTVSPropertyOp1
 70
     1
102
RTVSPropertyOp2
 70
     1
102
RTVSPropertyOp3
 70
     1
102
RTVSPropertyOp4
 70
     1
102
RTVSPropertyOp5
 70
     1
102
RTVSPropertyOp6
 70
     1
102
RTVSPropertyOp7
 70
     1
102
RTVSPropertyOp8
 70
     1
102
RTVSPropertyOp9
 70
     1
102
RTVSPropertyOp10
 70
     1
102
RTVSPropertyOp11
 70
     1
102
RTVSPropertyOp12
 70
     1
102
RTVSPropertyOp13
 70
     1
102
RTVSPropertyOp14
 70
     1
102
RTVSPropertyOp15
 70
     1
102
RTVSPropertyOp16
 70
     1
102
RTVSPropertyOp17
 70
     1
102
RTVSPropertyOp18
 70
     1
102
RTVSPropertyOp19
 70
     1
102
RTVSPropertyOp20
 70
     1
102
RTVSPropertyOp21
 70
     1
102
RTVSPropertyOp22
 70
     1
102
RTVSPropertyOp23
 70
     1
102
RTVSPropertyOp24
 70
     1
102
RTVSPropertyOp25
 70
     1
102
RTVSPropertyOp26
 70
     1
102
RTVSPropertyOp27
 70
     1
  0
XRECORD
  5
374
102
{ACAD_REACTORS
330
373
102
}
330
373
100
AcDbXrecord
280
     1
102
RTVSPropertyOp0
 70
     1
102
RTVSPropertyOp1
 70
     1
102
RTVSPropertyOp2
 70
     1
102
RTVSPropertyOp3
 70
     1
102
RTVSPropertyOp4
 70
     1
102
RTVSPropertyOp5
 70
     1
102
RTVSPropertyOp6
 70
     1
102
RTVSPropertyOp7
 70
     1
102
RTVSPropertyOp8
 70
     1
102
RTVSPropertyOp9
 70
     1
102
RTVSPropertyOp10
 70
     1
102
RTVSPropertyOp11
 70
     1
102
RTVSPropertyOp12
 70
     1
102
RTVSPropertyOp13
 70
     1
102
RTVSPropertyOp14
 70
     1
102
RTVSPropertyOp15
 70
     1
102
RTVSPropertyOp16
 70
     1
102
RTVSPropertyOp17
 70
     1
102
RTVSPropertyOp18
 70
     1
102
RTVSPropertyOp19
 70
     1
102
RTVSPropertyOp20
 70
     1
102
RTVSPropertyOp21
 70
     1
102
RTVSPropertyOp22
 70
     1
102
RTVSPropertyOp23
 70
     1
102
RTVSPropertyOp24
 70
     1
102
RTVSPropertyOp25
 70
     1
102
RTVSPropertyOp26
 70
     1
102
RTVSPropertyOp27
 70
     1
  0
XRECORD
  5
376
102
{ACAD_REACTORS
330
375
102
}
330
375
100
AcDbXrecord
280
     1
102
RTVSPropertyOp0
 70
     1
102
RTVSPropertyOp1
 70
     1
102
RTVSPropertyOp2
 70
     1
102
RTVSPropertyOp3
 70
     1
102
RTVSPropertyOp4
 70
     1
102
RTVSPropertyOp5
 70
     1
102
RTVSPropertyOp6
 70
     1
102
RTVSPropertyOp7
 70
     1
102
RTVSPropertyOp8
 70
     1
102
RTVSPropertyOp9
 70
     1
102
RTVSPropertyOp10
 70
     1
102
RTVSPropertyOp11
 70
     1
102
RTVSPropertyOp12
 70
     1
102
RTVSPropertyOp13
 70
     1
102
RTVSPropertyOp14
 70
     1
102
RTVSPropertyOp15
 70
     1
102
RTVSPropertyOp16
 70
     1
102
RTVSPropertyOp17
 70
     1
102
RTVSPropertyOp18
 70
     1
102
RTVSPropertyOp19
 70
     1
102
RTVSPropertyOp20
 70
     1
102
RTVSPropertyOp21
 70
     1
102
RTVSPropertyOp22
 70
     1
102
RTVSPropertyOp23
 70
     1
102
RTVSPropertyOp24
 70
     1
102
RTVSPropertyOp25
 70
     1
102
RTVSPropertyOp26
 70
     1
102
RTVSPropertyOp27
 70
     1
  0
XRECORD
  5
378
102
{ACAD_REACTORS
330
377
102
}
330
377
100
AcDbXrecord
280
     1
102
RTVSPropertyOp0
 70
     1
102
RTVSPropertyOp1
 70
     1
102
RTVSPropertyOp2
 70
     1
102
RTVSPropertyOp3
 70
     1
102
RTVSPropertyOp4
 70
     1
102
RTVSPropertyOp5
 70
     1
102
RTVSPropertyOp6
 70
     1
102
RTVSPropertyOp7
 70
     1
102
RTVSPropertyOp8
 70
     1
102
RTVSPropertyOp9
 70
     1
102
RTVSPropertyOp10
 70
     1
102
RTVSPropertyOp11
 70
     1
102
RTVSPropertyOp12
 70
     1
102
RTVSPropertyOp13
 70
     1
102
RTVSPropertyOp14
 70
     1
102
RTVSPropertyOp15
 70
     1
102
RTVSPropertyOp16
 70
     1
102
RTVSPropertyOp17
 70
     1
102
RTVSPropertyOp18
 70
     1
102
RTVSPropertyOp19
 70
     1
102
RTVSPropertyOp20
 70
     1
102
RTVSPropertyOp21
 70
     1
102
RTVSPropertyOp22
 70
     1
102
RTVSPropertyOp23
 70
     1
102
RTVSPropertyOp24
 70
     1
102
RTVSPropertyOp25
 70
     1
102
RTVSPropertyOp26
 70
     1
102
RTVSPropertyOp27
 70
     1
  0
XRECORD
  5
37A
102
{ACAD_REACTORS
330
379
102
}
330
379
100
AcDbXrecord
280
     1
102
RTVSPropertyOp0
 70
     1
102
RTVSPropertyOp1
 70
     1
102
RTVSPropertyOp2
 70
     1
102
RTVSPropertyOp3
 70
     1
102
RTVSPropertyOp4
 70
     1
102
RTVSPropertyOp5
 70
     1
102
RTVSPropertyOp6
 70
     1
102
RTVSPropertyOp7
 70
     1
102
RTVSPropertyOp8
 70
     1
102
RTVSPropertyOp9
 70
     1
102
RTVSPropertyOp10
 70
     1
102
RTVSPropertyOp11
 70
     1
102
RTVSPropertyOp12
 70
     1
102
RTVSPropertyOp13
 70
     1
102
RTVSPropertyOp14
 70
     1
102
RTVSPropertyOp15
 70
     1
102
RTVSPropertyOp16
 70
     1
102
RTVSPropertyOp17
 70
     1
102
RTVSPropertyOp18
 70
     1
102
RTVSPropertyOp19
 70
     1
102
RTVSPropertyOp20
 70
     1
102
RTVSPropertyOp21
 70
     1
102
RTVSPropertyOp22
 70
     1
102
RTVSPropertyOp23
 70
     1
102
RTVSPropertyOp24
 70
     1
102
RTVSPropertyOp25
 70
     1
102
RTVSPropertyOp26
 70
     1
102
RTVSPropertyOp27
 70
     1
  0
XRECORD
  5
38E
102
{ACAD_REACTORS
330
38D
102
}
330
38D
100
AcDbXrecord
280
     1
102
RTVSPropertyOp0
 70
     1
102
RTVSPropertyOp1
 70
     1
102
RTVSPropertyOp2
 70
     1
102
RTVSPropertyOp3
 70
     1
102
RTVSPropertyOp4
 70
     1
102
RTVSPropertyOp5
 70
     1
102
RTVSPropertyOp6
 70
     1
102
RTVSPropertyOp7
 70
     1
102
RTVSPropertyOp8
 70
     1
102
RTVSPropertyOp9
 70
     1
102
RTVSPropertyOp10
 70
     1
102
RTVSPropertyOp11
 70
     1
102
RTVSPropertyOp12
 70
     1
102
RTVSPropertyOp13
 70
     1
102
RTVSPropertyOp14
 70
     1
102
RTVSPropertyOp15
 70
     1
102
RTVSPropertyOp16
 70
     1
102
RTVSPropertyOp17
 70
     1
102
RTVSPropertyOp18
 70
     1
102
RTVSPropertyOp19
 70
     1
102
RTVSPropertyOp20
 70
     1
102
RTVSPropertyOp21
 70
     1
102
RTVSPropertyOp22
 70
     1
102
RTVSPropertyOp23
 70
     1
102
RTVSPropertyOp24
 70
     1
102
RTVSPropertyOp25
 70
     1
102
RTVSPropertyOp26
 70
     1
102
RTVSPropertyOp27
 70
     1
  0
XRECORD
  5
384
102
{ACAD_REACTORS
330
383
102
}
330
383
100
AcDbXrecord
280
     1
102
RTVSPropertyOp0
 70
     1
102
RTVSPropertyOp1
 70
     1
102
RTVSPropertyOp2
 70
     1
102
RTVSPropertyOp3
 70
     1
102
RTVSPropertyOp4
 70
     1
102
RTVSPropertyOp5
 70
     1
102
RTVSPropertyOp6
 70
     1
102
RTVSPropertyOp7
 70
     1
102
RTVSPropertyOp8
 70
     1
102
RTVSPropertyOp9
 70
     1
102
RTVSPropertyOp10
 70
     1
102
RTVSPropertyOp11
 70
     1
102
RTVSPropertyOp12
 70
     1
102
RTVSPropertyOp13
 70
     1
102
RTVSPropertyOp14
 70
     1
102
RTVSPropertyOp15
 70
     1
102
RTVSPropertyOp16
 70
     1
102
RTVSPropertyOp17
 70
     1
102
RTVSPropertyOp18
 70
     1
102
RTVSPropertyOp19
 70
     1
102
RTVSPropertyOp20
 70
     1
102
RTVSPropertyOp21
 70
     1
102
RTVSPropertyOp22
 70
     1
102
RTVSPropertyOp23
 70
     1
102
RTVSPropertyOp24
 70
     1
102
RTVSPropertyOp25
 70
     1
102
RTVSPropertyOp26
 70
     1
102
RTVSPropertyOp27
 70
     1
  0
XRECORD
  5
38C
102
{ACAD_REACTORS
330
38B
102
}
330
38B
100
AcDbXrecord
280
     1
102
RTVSPropertyOp0
 70
     1
102
RTVSPropertyOp1
 70
     1
102
RTVSPropertyOp2
 70
     1
102
RTVSPropertyOp3
 70
     1
102
RTVSPropertyOp4
 70
     1
102
RTVSPropertyOp5
 70
     1
102
RTVSPropertyOp6
 70
     1
102
RTVSPropertyOp7
 70
     1
102
RTVSPropertyOp8
 70
     1
102
RTVSPropertyOp9
 70
     1
102
RTVSPropertyOp10
 70
     1
102
RTVSPropertyOp11
 70
     1
102
RTVSPropertyOp12
 70
     1
102
RTVSPropertyOp13
 70
     1
102
RTVSPropertyOp14
 70
     1
102
RTVSPropertyOp15
 70
     1
102
RTVSPropertyOp16
 70
     1
102
RTVSPropertyOp17
 70
     1
102
RTVSPropertyOp18
 70
     1
102
RTVSPropertyOp19
 70
     1
102
RTVSPropertyOp20
 70
     1
102
RTVSPropertyOp21
 70
     1
102
RTVSPropertyOp22
 70
     1
102
RTVSPropertyOp23
 70
     1
102
RTVSPropertyOp24
 70
     1
102
RTVSPropertyOp25
 70
     1
102
RTVSPropertyOp26
 70
     1
102
RTVSPropertyOp27
 70
     1
  0
ENDSEC
  0
EOF
