  0
SECTION
  2
HEADER
  9
$ACADVER
  1
AC1014
  9
$ACADMAINTVER
 70
     9
  9
$DWGCODEPAGE
  3
ANSI_1252
  9
$INSBASE
 10
0.0
 20
0.0
 30
0.0
  9
$EXTMIN
 10
1.000000000000000E+20
 20
1.000000000000000E+20
 30
1.000000000000000E+20
  9
$EXTMAX
 10
-1.000000000000000E+20
 20
-1.000000000000000E+20
 30
-1.000000000000000E+20
  9
$LIMMIN
 10
0.0
 20
0.0
  9
$LIMMAX
 10
420.0
 20
297.0
  9
$ORTHOMODE
 70
     0
  9
$REGENMODE
 70
     1
  9
$FILLMODE
 70
     1
  9
$QTEXTMODE
 70
     0
  9
$MIRRTEXT
 70
     1
  9
$DRAGMODE
 70
     2
  9
$LTSCALE
 40
1.0
  9
$OSMODE
 70
    37
  9
$ATTMODE
 70
     1
  9
$TEXTSIZE
 40
2.5
  9
$TRACEWID
 40
1.0
  9
$TEXTSTYLE
  7
STANDARD
  9
$CLAYER
  8
0
  9
$CELTYPE
  6
BYLAYER
  9
$CECOLOR
 62
   256
  9
$CELTSCALE
 40
1.0
  9
$DELOBJ
 70
     1
  9
$DISPSILH
 70
     0
  9
$DIMSCALE
 40
1.0
  9
$DIMASZ
 40
3.0
  9
$DIMEXO
 40
0.625
  9
$DIMDLI
 40
3.75
  9
$DIMRND
 40
0.0
  9
$DIMDLE
 40
0.0
  9
$DIMEXE
 40
1.25
  9
$DIMTP
 40
0.0
  9
$DIMTM
 40
0.0
  9
$DIMTXT
 40
1.22550817624347
  9
$DIMCEN
 40
2.5
  9
$DIMTSZ
 40
0.0
  9
$DIMTOL
 70
     0
  9
$DIMLIM
 70
     0
  9
$DIMTIH
 70
     0
  9
$DIMTOH
 70
     0
  9
$DIMSE1
 70
     0
  9
$DIMSE2
 70
     0
  9
$DIMTAD
 70
     1
  9
$DIMZIN
 70
     8
  9
$DIMBLK
  1

  9
$DIMASO
 70
     1
  9
$DIMSHO
 70
     1
  9
$DIMPOST
  1

  9
$DIMAPOST
  1

  9
$DIMALT
 70
     0
  9
$DIMALTD
 70
     3
  9
$DIMALTF
 40
0.03937007874016
  9
$DIMLFAC
 40
1.0
  9
$DIMTOFL
 70
     1
  9
$DIMTVP
 40
0.0
  9
$DIMTIX
 70
     0
  9
$DIMSOXD
 70
     0
  9
$DIMSAH
 70
     0
  9
$DIMBLK1
  1

  9
$DIMBLK2
  1

  9
$DIMSTYLE
  2
ISO-25
  9
$DIMCLRD
 70
     0
  9
$DIMCLRE
 70
     0
  9
$DIMCLRT
 70
     0
  9
$DIMTFAC
 40
1.0
  9
$DIMGAP
 40
0.625
  9
$DIMJUST
 70
     0
  9
$DIMSD1
 70
     0
  9
$DIMSD2
 70
     0
  9
$DIMTOLJ
 70
     0
  9
$DIMTZIN
 70
     8
  9
$DIMALTZ
 70
     0
  9
$DIMALTTZ
 70
     0
  9
$DIMFIT
 70
     3
  9
$DIMUPT
 70
     0
  9
$DIMUNIT
 70
     2
  9
$DIMDEC
 70
     2
  9
$DIMTDEC
 70
     2
  9
$DIMALTU
 70
     2
  9
$DIMALTTD
 70
     3
  9
$DIMTXSTY
  7
STANDARD
  9
$DIMAUNIT
 70
     0
  9
$LUNITS
 70
     2
  9
$LUPREC
 70
     4
  9
$SKETCHINC
 40
1.0
  9
$FILLETRAD
 40
10.0
  9
$AUNITS
 70
     0
  9
$AUPREC
 70
     0
  9
$MENU
  1
.
  9
$ELEVATION
 40
0.0
  9
$PELEVATION
 40
0.0
  9
$THICKNESS
 40
0.0
  9
$LIMCHECK
 70
     0
  9
$CHAMFERA
 40
10.0
  9
$CHAMFERB
 40
10.0
  9
$CHAMFERC
 40
20.0
  9
$CHAMFERD
 40
0.0
  9
$SKPOLY
 70
     0
  9
$TDCREATE
 40
2457249.65279787
  9
$TDUPDATE
 40
2457249.652798588
  9
$TDINDWG
 40
0.0000000116
  9
$TDUSRTIMER
 40
0.0000000116
  9
$USRTIMER
 70
     1
  9
$ANGBASE
 50
0.0
  9
$ANGDIR
 70
     0
  9
$PDMODE
 70
     0
  9
$PDSIZE
 40
0.0
  9
$PLINEWID
 40
0.0
  9
$COORDS
 70
     1
  9
$SPLFRAME
 70
     0
  9
$SPLINETYPE
 70
     6
  9
$SPLINESEGS
 70
     8
  9
$ATTDIA
 70
     0
  9
$ATTREQ
 70
     1
  9
$HANDLING
 70
     1
  9
$HANDSEED
  5
CC
  9
$SURFTAB1
 70
     6
  9
$SURFTAB2
 70
     6
  9
$SURFTYPE
 70
     6
  9
$SURFU
 70
     6
  9
$SURFV
 70
     6
  9
$UCSNAME
  2

  9
$UCSORG
 10
0.0
 20
0.0
 30
0.0
  9
$UCSXDIR
 10
1.0
 20
0.0
 30
0.0
  9
$UCSYDIR
 10
0.0
 20
1.0
 30
0.0
  9
$PUCSNAME
  2

  9
$PUCSORG
 10
0.0
 20
0.0
 30
0.0
  9
$PUCSXDIR
 10
1.0
 20
0.0
 30
0.0
  9
$PUCSYDIR
 10
0.0
 20
1.0
 30
0.0
  9
$USERI1
 70
     0
  9
$USERI2
 70
     0
  9
$USERI3
 70
     0
  9
$USERI4
 70
     0
  9
$USERI5
 70
     0
  9
$USERR1
 40
0.0
  9
$USERR2
 40
0.0
  9
$USERR3
 40
0.0
  9
$USERR4
 40
0.0
  9
$USERR5
 40
0.0
  9
$WORLDVIEW
 70
     1
  9
$SHADEDGE
 70
     3
  9
$SHADEDIF
 70
    70
  9
$TILEMODE
 70
     1
  9
$MAXACTVP
 70
    64
  9
$PINSBASE
 10
0.0
 20
0.0
 30
0.0
  9
$PLIMCHECK
 70
     0
  9
$PEXTMIN
 10
1.000000000000000E+20
 20
1.000000000000000E+20
 30
1.000000000000000E+20
  9
$PEXTMAX
 10
-1.000000000000000E+20
 20
-1.000000000000000E+20
 30
-1.000000000000000E+20
  9
$PLIMMIN
 10
0.0
 20
0.0
  9
$PLIMMAX
 10
420.0
 20
297.0
  9
$UNITMODE
 70
     0
  9
$VISRETAIN
 70
     1
  9
$PLINEGEN
 70
     0
  9
$PSLTSCALE
 70
     1
  9
$TREEDEPTH
 70
  3020
  9
$PICKSTYLE
 70
     1
  9
$CMLSTYLE
  2
STANDARD
  9
$CMLJUST
 70
     0
  9
$CMLSCALE
 40
20.0
  9
$PROXYGRAPHICS
 70
     1
  9
$MEASUREMENT
 70
     1
  0
ENDSEC
  0
SECTION
  2
CLASSES
  0
CLASS
  1
ACDBDICTIONARYWDFLT
  2
AcDbDictionaryWithDefault
  3
ObjectDBX Classes
 90
        0
280
     0
281
     0
  0
CLASS
  1
VISUALSTYLE
  2
AcDbVisualStyle
  3
ObjectDBX Classes
 90
     4095
280
     0
281
     0
  0
CLASS
  1
MATERIAL
  2
AcDbMaterial
  3
ObjectDBX Classes
 90
     1153
280
     0
281
     0
  0
CLASS
  1
DICTIONARYVAR
  2
AcDbDictionaryVar
  3
ObjectDBX Classes
 90
        0
280
     0
281
     0
  0
CLASS
  1
XRECORD
  2
AcDbXrecord
  3
AutoCAD 2000
 90
        0
280
     0
281
     0
  0
CLASS
  1
LWPOLYLINE
  2
AcDbPolyline
  3
AutoCAD 2000
 90
        0
280
     0
281
     1
  0
CLASS
  1
HATCH
  2
AcDbHatch
  3
AutoCAD 2000
 90
        0
280
     0
281
     1
  0
CLASS
  1
ACDBPLACEHOLDER
  2
AcDbPlaceHolder
  3
ObjectDBX Classes
 90
        0
280
     0
281
     0
  0
CLASS
  1
LAYOUT
  2
AcDbLayout
  3
ObjectDBX Classes
 90
        0
280
     0
281
     0
  0
ENDSEC
  0
SECTION
  2
TABLES
  0
TABLE
  2
VPORT
  5
8
330
0
100
AcDbSymbolTable
 70
     1
  0
VPORT
  5
29
330
8
100
AcDbSymbolTableRecord
100
AcDbViewportTableRecord
  2
*ACTIVE
 70
     0
 10
0.0
 20
0.0
 11
1.0
 21
1.0
 12
344.1869158878504
 22
148.5
 13
0.0
 23
0.0
 14
10.0
 24
10.0
 15
10.0
 25
10.0
 16
0.0
 26
0.0
 36
1.0
 17
0.0
 27
0.0
 37
0.0
 40
297.0
 41
1.972972972850329
 42
50.0
 43
0.0
 44
0.0
 50
0.0
 51
0.0
 71
     0
 72
   100
 73
     1
 74
     3
 75
     0
 76
     0
 77
     0
 78
     0
  0
ENDTAB
  0
TABLE
  2
LTYPE
  5
5
330
0
100
AcDbSymbolTable
 70
     1
  0
LTYPE
  5
14
330
5
100
AcDbSymbolTableRecord
100
AcDbLinetypeTableRecord
  2
BYBLOCK
 70
     0
  3

 72
    65
 73
     0
 40
0.0
  0
LTYPE
  5
15
330
5
100
AcDbSymbolTableRecord
100
AcDbLinetypeTableRecord
  2
BYLAYER
 70
     0
  3

 72
    65
 73
     0
 40
0.0
  0
LTYPE
  5
16
330
5
100
AcDbSymbolTableRecord
100
AcDbLinetypeTableRecord
  2
CONTINUOUS
 70
     0
  3
Solid line
 72
    65
 73
     0
 40
0.0
  0
ENDTAB
  0
TABLE
  2
LAYER
  5
2
330
0
100
AcDbSymbolTable
 70
     2
  0
LAYER
  5
10
330
2
100
AcDbSymbolTableRecord
100
AcDbLayerTableRecord
  2
0
 70
     0
 62
     7
  6
CONTINUOUS
  0
LAYER
  5
3F
330
2
100
AcDbSymbolTableRecord
100
AcDbLayerTableRecord
  2
APPARENT
 70
     0
 62
     7
  6
CONTINUOUS
  0
ENDTAB
  0
TABLE
  2
STYLE
  5
3
330
0
100
AcDbSymbolTable
 70
     1
  0
STYLE
  5
11
330
3
100
AcDbSymbolTableRecord
100
AcDbTextStyleTableRecord
  2
STANDARD
 70
     0
 40
0.0
 41
1.0
 50
0.0
 71
     0
 42
2.5
  3
txt
  4

  0
ENDTAB
  0
TABLE
  2
VIEW
  5
6
330
0
100
AcDbSymbolTable
 70
     0
  0
ENDTAB
  0
TABLE
  2
UCS
  5
7
330
0
100
AcDbSymbolTable
 70
     0
  0
ENDTAB
  0
TABLE
  2
APPID
  5
9
330
0
100
AcDbSymbolTable
 70
     1
  0
APPID
  5
12
330
9
100
AcDbSymbolTableRecord
100
AcDbRegAppTableRecord
  2
ACAD
 70
     0
  0
ENDTAB
  0
TABLE
  2
DIMSTYLE
  5
A
330
0
100
AcDbSymbolTable
 70
     1
  0
DIMSTYLE
105
27
330
A
100
AcDbSymbolTableRecord
100
AcDbDimStyleTableRecord
  2
ISO-25
 70
     0
  3

  4

  5

  6

  7

 40
1.0
 41
2.5
 42
0.625
 43
3.75
 44
1.25
 45
0.0
 46
0.0
 47
0.0
 48
0.0
140
2.5
141
2.5
142
0.0
143
0.03937007874016
144
1.0
145
0.0
146
1.0
147
0.625
 71
     0
 72
     0
 73
     0
 74
     0
 75
     0
 76
     0
 77
     1
 78
     8
170
     0
171
     3
172
     1
173
     0
174
     0
175
     0
176
     0
177
     0
178
     0
270
     2
271
     2
272
     2
273
     2
274
     3
340
11
275
     0
280
     0
281
     0
282
     0
283
     0
284
     8
285
     0
286
     0
287
     3
288
     0
  0
ENDTAB
  0
TABLE
  2
BLOCK_RECORD
  5
1
330
0
100
AcDbSymbolTable
 70
     1
  0
BLOCK_RECORD
  5
1F
330
1
100
AcDbSymbolTableRecord
100
AcDbBlockTableRecord
  2
*MODEL_SPACE
  0
BLOCK_RECORD
  5
1B
330
1
100
AcDbSymbolTableRecord
100
AcDbBlockTableRecord
  2
*PAPER_SPACE
  0
ENDTAB
  0
ENDSEC
  0
SECTION
  2
BLOCKS
  0
BLOCK
  5
20
330
1F
100
AcDbEntity
  8
0
100
AcDbBlockBegin
  2
*MODEL_SPACE
 70
     0
 10
0.0
 20
0.0
 30
0.0
  3
*MODEL_SPACE
  1

  0
ENDBLK
  5
21
330
1F
100
AcDbEntity
  8
0
100
AcDbBlockEnd
  0
BLOCK
  5
1C
330
1B
100
AcDbEntity
 67
     1
  8
0
100
AcDbBlockBegin
  2
*PAPER_SPACE
 70
     0
 10
0.0
 20
0.0
 30
0.0
  3
*PAPER_SPACE
  1

  0
ENDBLK
  5
1D
330
1B
100
AcDbEntity
 67
     1
  8
0
100
AcDbBlockEnd
  0
ENDSEC
  0
SECTION
  2
ENTITIES
  0
LINE
  5
40
330
1F
100
AcDbEntity
  8
APPARENT
100
AcDbLine
 10
19.00350952148401
 20
171.767333984375
 30
0.0
 11
19.00350952148401
 21
821.767333984375
 31
0.0
  0
CIRCLE
  5
41
330
1F
100
AcDbEntity
  8
APPARENT
100
AcDbCircle
 10
134.003509521484
 20
246.767333984375
 30
0.0
 40
2.0
  0
LINE
  5
42
330
1F
100
AcDbEntity
  8
APPARENT
100
AcDbLine
 10
329.003509521484
 20
171.767333984375
 30
0.0
 11
39.00350952148401
 21
171.767333984375
 31
0.0
  0
LINE
  5
43
330
1F
100
AcDbEntity
  8
APPARENT
100
AcDbLine
 10
19.00350952148401
 20
821.767333984375
 30
0.0
 11
29.00350952148401
 21
821.767333984375
 31
0.0
  0
LINE
  5
44
330
1F
100
AcDbEntity
  8
APPARENT
100
AcDbLine
 10
39.00350952148401
 20
161.767333984375
 30
0.0
 11
39.00350952148401
 21
171.767333984375
 31
0.0
  0
CIRCLE
  5
45
330
1F
100
AcDbEntity
  8
APPARENT
100
AcDbCircle
 10
214.003509521484
 20
366.767333984375
 30
0.0
 40
2.0
  0
CIRCLE
  5
46
330
1F
100
AcDbEntity
  8
APPARENT
100
AcDbCircle
 10
94.003509521484
 20
706.767333984375
 30
0.0
 40
2.0
  0
CIRCLE
  5
47
330
1F
100
AcDbEntity
  8
APPARENT
100
AcDbCircle
 10
94.003509521484
 20
746.767333984375
 30
0.0
 40
2.0
  0
CIRCLE
  5
48
330
1F
100
AcDbEntity
  8
APPARENT
100
AcDbCircle
 10
174.003509521484
 20
666.767333984375
 30
0.0
 40
2.0
  0
LINE
  5
49
330
1F
100
AcDbEntity
  8
APPARENT
100
AcDbLine
 10
319.003509521484
 20
311.767333984375
 30
0.0
 11
319.003509521484
 21
341.767333984375
 31
0.0
  0
CIRCLE
  5
4A
330
1F
100
AcDbEntity
  8
APPARENT
100
AcDbCircle
 10
174.003509521484
 20
246.767333984375
 30
0.0
 40
2.0
  0
CIRCLE
  5
4B
330
1F
100
AcDbEntity
  8
APPARENT
100
AcDbCircle
 10
134.003509521484
 20
586.767333984375
 30
0.0
 40
2.0
  0
CIRCLE
  5
4C
330
1F
100
AcDbEntity
  8
APPARENT
100
AcDbCircle
 10
174.003509521484
 20
326.767333984375
 30
0.0
 40
2.0
  0
CIRCLE
  5
4D
330
1F
100
AcDbEntity
  8
APPARENT
100
AcDbCircle
 10
174.003509521484
 20
626.767333984375
 30
0.0
 40
2.0
  0
CIRCLE
  5
4E
330
1F
100
AcDbEntity
  8
APPARENT
100
AcDbCircle
 10
94.003509521484
 20
586.767333984375
 30
0.0
 40
2.0
  0
CIRCLE
  5
4F
330
1F
100
AcDbEntity
  8
APPARENT
100
AcDbCircle
 10
94.003509521484
 20
626.767333984375
 30
0.0
 40
2.0
  0
CIRCLE
  5
50
330
1F
100
AcDbEntity
  8
APPARENT
100
AcDbCircle
 10
174.003509521484
 20
586.767333984375
 30
0.0
 40
2.0
  0
LINE
  5
51
330
1F
100
AcDbEntity
  8
APPARENT
100
AcDbLine
 10
39.00350952148401
 20
821.767333984375
 30
0.0
 11
329.003509521484
 21
821.767333984375
 31
0.0
  0
LINE
  5
52
330
1F
100
AcDbEntity
  8
APPARENT
100
AcDbLine
 10
29.00350952148401
 20
161.767333984375
 30
0.0
 11
39.00350952148401
 21
161.767333984375
 31
0.0
  0
CIRCLE
  5
53
330
1F
100
AcDbEntity
  8
APPARENT
100
AcDbCircle
 10
254.003509521484
 20
326.767333984375
 30
0.0
 40
2.000000000000028
  0
CIRCLE
  5
54
330
1F
100
AcDbEntity
  8
APPARENT
100
AcDbCircle
 10
254.003509521484
 20
706.767333984375
 30
0.0
 40
2.000000000000028
  0
CIRCLE
  5
55
330
1F
100
AcDbEntity
  8
APPARENT
100
AcDbCircle
 10
254.003509521484
 20
666.767333984375
 30
0.0
 40
2.000000000000028
  0
LINE
  5
56
330
1F
100
AcDbEntity
  8
APPARENT
100
AcDbLine
 10
319.003509521484
 20
651.767333984375
 30
0.0
 11
329.003509521484
 21
641.767333984375
 31
0.0
  0
LINE
  5
57
330
1F
100
AcDbEntity
  8
APPARENT
100
AcDbLine
 10
29.00350952148401
 20
171.767333984375
 30
0.0
 11
29.00350952148401
 21
161.767333984375
 31
0.0
  0
LINE
  5
58
330
1F
100
AcDbEntity
  8
APPARENT
100
AcDbLine
 10
319.003509521484
 20
651.767333984375
 30
0.0
 11
319.003509521484
 21
681.767333984375
 31
0.0
  0
CIRCLE
  5
59
330
1F
100
AcDbEntity
  8
APPARENT
100
AcDbCircle
 10
214.003509521484
 20
706.767333984375
 30
0.0
 40
2.0
  0
CIRCLE
  5
5A
330
1F
100
AcDbEntity
  8
APPARENT
100
AcDbCircle
 10
174.003509521484
 20
706.767333984375
 30
0.0
 40
2.0
  0
CIRCLE
  5
5B
330
1F
100
AcDbEntity
  8
APPARENT
100
AcDbCircle
 10
214.003509521484
 20
626.767333984375
 30
0.0
 40
2.0
  0
CIRCLE
  5
5C
330
1F
100
AcDbEntity
  8
APPARENT
100
AcDbCircle
 10
254.003509521484
 20
286.767333984375
 30
0.0
 40
2.000000000000028
  0
CIRCLE
  5
5D
330
1F
100
AcDbEntity
  8
APPARENT
100
AcDbCircle
 10
134.003509521484
 20
746.767333984375
 30
0.0
 40
2.0
  0
LINE
  5
5E
330
1F
100
AcDbEntity
  8
APPARENT
100
AcDbLine
 10
29.00350952148401
 20
171.767333984375
 30
0.0
 11
19.00350952148401
 21
171.767333984375
 31
0.0
  0
CIRCLE
  5
5F
330
1F
100
AcDbEntity
  8
APPARENT
100
AcDbCircle
 10
254.003509521484
 20
366.767333984375
 30
0.0
 40
2.000000000000028
  0
LINE
  5
60
330
1F
100
AcDbEntity
  8
APPARENT
100
AcDbLine
 10
329.003509521484
 20
301.767333984375
 30
0.0
 11
329.003509521484
 21
171.767333984375
 31
0.0
  0
CIRCLE
  5
61
330
1F
100
AcDbEntity
  8
APPARENT
100
AcDbCircle
 10
214.003509521484
 20
286.767333984375
 30
0.0
 40
2.0
  0
CIRCLE
  5
62
330
1F
100
AcDbEntity
  8
APPARENT
100
AcDbCircle
 10
134.003509521484
 20
286.767333984375
 30
0.0
 40
2.0
  0
CIRCLE
  5
63
330
1F
100
AcDbEntity
  8
APPARENT
100
AcDbCircle
 10
134.003509521484
 20
626.767333984375
 30
0.0
 40
2.0
  0
CIRCLE
  5
64
330
1F
100
AcDbEntity
  8
APPARENT
100
AcDbCircle
 10
254.003509521484
 20
246.767333984375
 30
0.0
 40
2.000000000000028
  0
CIRCLE
  5
65
330
1F
100
AcDbEntity
  8
APPARENT
100
AcDbCircle
 10
134.003509521484
 20
326.767333984375
 30
0.0
 40
2.0
  0
CIRCLE
  5
66
330
1F
100
AcDbEntity
  8
APPARENT
100
AcDbCircle
 10
174.003509521484
 20
746.767333984375
 30
0.0
 40
2.0
  0
CIRCLE
  5
67
330
1F
100
AcDbEntity
  8
APPARENT
100
AcDbCircle
 10
214.003509521484
 20
586.767333984375
 30
0.0
 40
2.0
  0
CIRCLE
  5
68
330
1F
100
AcDbEntity
  8
APPARENT
100
AcDbCircle
 10
94.003509521484
 20
246.767333984375
 30
0.0
 40
2.0
  0
CIRCLE
  5
69
330
1F
100
AcDbEntity
  8
APPARENT
100
AcDbCircle
 10
174.003509521484
 20
366.767333984375
 30
0.0
 40
2.0
  0
CIRCLE
  5
6A
330
1F
100
AcDbEntity
  8
APPARENT
100
AcDbCircle
 10
214.003509521484
 20
746.767333984375
 30
0.0
 40
2.0
  0
LINE
  5
6B
330
1F
100
AcDbEntity
  8
APPARENT
100
AcDbLine
 10
329.003509521484
 20
821.767333984375
 30
0.0
 11
329.003509521484
 21
691.767333984375
 31
0.0
  0
CIRCLE
  5
6C
330
1F
100
AcDbEntity
  8
APPARENT
100
AcDbCircle
 10
214.003509521484
 20
666.767333984375
 30
0.0
 40
2.0
  0
CIRCLE
  5
6D
330
1F
100
AcDbEntity
  8
APPARENT
100
AcDbCircle
 10
254.003509521484
 20
406.767333984375
 30
0.0
 40
2.000000000000028
  0
CIRCLE
  5
6E
330
1F
100
AcDbEntity
  8
APPARENT
100
AcDbCircle
 10
134.003509521484
 20
366.767333984375
 30
0.0
 40
2.0
  0
CIRCLE
  5
6F
330
1F
100
AcDbEntity
  8
APPARENT
100
AcDbCircle
 10
254.003509521484
 20
626.767333984375
 30
0.0
 40
2.000000000000028
  0
CIRCLE
  5
70
330
1F
100
AcDbEntity
  8
APPARENT
100
AcDbCircle
 10
134.003509521484
 20
706.767333984375
 30
0.0
 40
2.0
  0
CIRCLE
  5
71
330
1F
100
AcDbEntity
  8
APPARENT
100
AcDbCircle
 10
254.003509521484
 20
586.767333984375
 30
0.0
 40
2.000000000000028
  0
CIRCLE
  5
72
330
1F
100
AcDbEntity
  8
APPARENT
100
AcDbCircle
 10
214.003509521484
 20
246.767333984375
 30
0.0
 40
2.0
  0
LINE
  5
73
330
1F
100
AcDbEntity
  8
APPARENT
100
AcDbLine
 10
329.003509521484
 20
351.767333984375
 30
0.0
 11
319.003509521484
 21
341.767333984375
 31
0.0
  0
LINE
  5
74
330
1F
100
AcDbEntity
  8
APPARENT
100
AcDbLine
 10
329.003509521484
 20
691.767333984375
 30
0.0
 11
319.003509521484
 21
681.767333984375
 31
0.0
  0
CIRCLE
  5
75
330
1F
100
AcDbEntity
  8
APPARENT
100
AcDbCircle
 10
134.003509521484
 20
406.767333984375
 30
0.0
 40
2.0
  0
LINE
  5
76
330
1F
100
AcDbEntity
  8
APPARENT
100
AcDbLine
 10
29.00350952148401
 20
831.767333984375
 30
0.0
 11
39.00350952148401
 21
831.767333984375
 31
0.0
  0
LINE
  5
77
330
1F
100
AcDbEntity
  8
APPARENT
100
AcDbLine
 10
39.00350952148401
 20
831.767333984375
 30
0.0
 11
39.00350952148401
 21
821.767333984375
 31
0.0
  0
LINE
  5
78
330
1F
100
AcDbEntity
  8
APPARENT
100
AcDbLine
 10
29.00350952148401
 20
821.767333984375
 30
0.0
 11
29.00350952148401
 21
831.767333984375
 31
0.0
  0
CIRCLE
  5
79
330
1F
100
AcDbEntity
  8
APPARENT
100
AcDbCircle
 10
94.003509521484
 20
366.767333984375
 30
0.0
 40
2.0
  0
CIRCLE
  5
7A
330
1F
100
AcDbEntity
  8
APPARENT
100
AcDbCircle
 10
94.003509521484
 20
406.767333984375
 30
0.0
 40
2.0
  0
CIRCLE
  5
7B
330
1F
100
AcDbEntity
  8
APPARENT
100
AcDbCircle
 10
214.003509521484
 20
406.767333984375
 30
0.0
 40
2.0
  0
CIRCLE
  5
7C
330
1F
100
AcDbEntity
  8
APPARENT
100
AcDbCircle
 10
134.003509521484
 20
666.767333984375
 30
0.0
 40
2.0
  0
CIRCLE
  5
7D
330
1F
100
AcDbEntity
  8
APPARENT
100
AcDbCircle
 10
214.003509521484
 20
326.767333984375
 30
0.0
 40
2.0
  0
CIRCLE
  5
7E
330
1F
100
AcDbEntity
  8
APPARENT
100
AcDbCircle
 10
94.003509521484
 20
326.767333984375
 30
0.0
 40
2.0
  0
LINE
  5
7F
330
1F
100
AcDbEntity
  8
APPARENT
100
AcDbLine
 10
329.003509521484
 20
641.767333984375
 30
0.0
 11
329.003509521484
 21
351.767333984375
 31
0.0
  0
CIRCLE
  5
80
330
1F
100
AcDbEntity
  8
APPARENT
100
AcDbCircle
 10
174.003509521484
 20
406.767333984375
 30
0.0
 40
2.0
  0
CIRCLE
  5
81
330
1F
100
AcDbEntity
  8
APPARENT
100
AcDbCircle
 10
254.003509521484
 20
746.767333984375
 30
0.0
 40
2.000000000000028
  0
CIRCLE
  5
82
330
1F
100
AcDbEntity
  8
APPARENT
100
AcDbCircle
 10
174.003509521484
 20
286.767333984375
 30
0.0
 40
2.0
  0
CIRCLE
  5
83
330
1F
100
AcDbEntity
  8
APPARENT
100
AcDbCircle
 10
94.003509521484
 20
286.767333984375
 30
0.0
 40
2.0
  0
LINE
  5
84
330
1F
100
AcDbEntity
  8
APPARENT
100
AcDbLine
 10
319.003509521484
 20
311.767333984375
 30
0.0
 11
329.003509521484
 21
301.767333984375
 31
0.0
  0
CIRCLE
  5
85
330
1F
100
AcDbEntity
  8
APPARENT
100
AcDbCircle
 10
94.003509521484
 20
666.767333984375
 30
0.0
 40
2.0
  0
ARC
  5
86
330
1F
100
AcDbEntity
  8
APPARENT
100
AcDbCircle
 10
366.970916748047
 20
802.416858672192
 30
0.0
 40
5.0
100
AcDbArc
 50
90.0
 51
180.0
  0
LINE
  5
87
330
1F
100
AcDbEntity
  8
APPARENT
100
AcDbLine
 10
375.970916748047
 20
787.416858672192
 30
0.0
 11
369.5064506539797
 21
780.9523925781248
 31
0.0
  0
ARC
  5
88
330
1F
100
AcDbEntity
  8
APPARENT
100
AcDbCircle
 10
378.8998489361815
 20
817.4168586721919
 30
0.0
 40
5.000000000000041
100
AcDbArc
 50
45.0
 51
90.0
  0
LINE
  5
89
330
1F
100
AcDbEntity
  8
APPARENT
100
AcDbLine
 10
375.970916748047
 20
812.416858672192
 30
0.0
 11
375.970916748047
 21
807.416858672192
 31
0.0
  0
LINE
  5
8A
330
1F
100
AcDbEntity
  8
APPARENT
100
AcDbLine
 10
340.970916748047
 20
812.416858672192
 30
0.0
 11
349.5064506539798
 21
820.9523925781248
 31
0.0
  0
ARC
  5
8B
330
1F
100
AcDbEntity
  8
APPARENT
100
AcDbCircle
 10
353.0419845599125
 20
817.4168586721919
 30
0.0
 40
5.000000000000114
100
AcDbArc
 50
90.0
 51
135.0
  0
LINE
  5
8C
330
1F
100
AcDbEntity
  8
APPARENT
100
AcDbLine
 10
382.4353828421143
 20
820.9523925781247
 30
0.0
 11
390.970916748047
 21
812.416858672192
 31
0.0
  0
ARC
  5
8D
330
1F
100
AcDbEntity
  8
APPARENT
100
AcDbCircle
 10
365.970916748047
 20
784.4879264840574
 30
0.0
 40
5.000000000000041
100
AcDbArc
 50
225.0
 51
314.9999999999995
  0
LINE
  5
8E
330
1F
100
AcDbEntity
  8
APPARENT
100
AcDbLine
 10
361.970916748047
 20
792.416858672192
 30
0.0
 11
361.970916748047
 21
802.416858672192
 31
0.0
  0
LINE
  5
8F
330
1F
100
AcDbEntity
  8
APPARENT
100
AcDbLine
 10
369.970916748047
 20
799.416858672192
 30
0.0
 11
369.970916748047
 21
790.416858672192
 31
0.0
  0
LINE
  5
90
330
1F
100
AcDbEntity
  8
APPARENT
100
AcDbLine
 10
366.970916748047
 20
807.416858672192
 30
0.0
 11
375.970916748047
 21
807.416858672192
 31
0.0
  0
LINE
  5
91
330
1F
100
AcDbEntity
  8
APPARENT
100
AcDbLine
 10
355.970916748047
 20
787.416858672192
 30
0.0
 11
355.970916748047
 21
812.416858672192
 31
0.0
  0
ARC
  5
92
330
1F
100
AcDbEntity
  8
APPARENT
100
AcDbCircle
 10
366.970916748047
 20
790.416858672192
 30
0.0
 40
3.0
100
AcDbArc
 50
270.0
 51
0.0
  0
LINE
  5
93
330
1F
100
AcDbEntity
  8
APPARENT
100
AcDbLine
 10
390.970916748047
 20
812.416858672192
 30
0.0
 11
375.970916748047
 21
812.416858672192
 31
0.0
  0
LINE
  5
94
330
1F
100
AcDbEntity
  8
APPARENT
100
AcDbLine
 10
362.4353828421142
 20
780.9523925781247
 30
0.0
 11
355.970916748047
 21
787.416858672192
 31
0.0
  0
ARC
  5
95
330
1F
100
AcDbEntity
  8
APPARENT
100
AcDbCircle
 10
366.970916748047
 20
792.416858672192
 30
0.0
 40
5.0
100
AcDbArc
 50
180.0
 51
270.0
  0
LINE
  5
96
330
1F
100
AcDbEntity
  8
APPARENT
100
AcDbLine
 10
375.970916748047
 20
799.416858672192
 30
0.0
 11
375.970916748047
 21
787.416858672192
 31
0.0
  0
LINE
  5
97
330
1F
100
AcDbEntity
  8
APPARENT
100
AcDbLine
 10
355.970916748047
 20
812.416858672192
 30
0.0
 11
340.970916748047
 21
812.416858672192
 31
0.0
  0
LINE
  5
98
330
1F
100
AcDbEntity
  8
APPARENT
100
AcDbLine
 10
375.970916748047
 20
799.416858672192
 30
0.0
 11
369.970916748047
 21
799.416858672192
 31
0.0
  0
LINE
  5
99
330
1F
100
AcDbEntity
  8
APPARENT
100
AcDbLine
 10
353.0419845599125
 20
822.416858672192
 30
0.0
 11
378.8998489361816
 21
822.416858672192
 31
0.0
  0
LINE
  5
9A
330
1F
100
AcDbEntity
  8
APPARENT
100
AcDbLine
 10
344.2474975585938
 20
494.8373413085938
 30
0.0
 11
344.2474975585938
 21
764.8373413085938
 31
0.0
  0
LINE
  5
9B
330
1F
100
AcDbEntity
  8
APPARENT
100
AcDbLine
 10
344.2474975585938
 20
764.8373413085938
 30
0.0
 11
654.2474975585938
 21
764.8373413085938
 31
0.0
  0
LINE
  5
9C
330
1F
100
AcDbEntity
  8
APPARENT
100
AcDbLine
 10
364.2474975585938
 20
474.8373413085938
 30
0.0
 11
344.2474975585938
 21
494.8373413085938
 31
0.0
  0
LINE
  5
9D
330
1F
100
AcDbEntity
  8
APPARENT
100
AcDbLine
 10
654.2474975585938
 20
474.8373413085938
 30
0.0
 11
364.2474975585938
 21
474.8373413085938
 31
0.0
  0
LINE
  5
9E
330
1F
100
AcDbEntity
  8
APPARENT
100
AcDbLine
 10
654.2474975585938
 20
764.8373413085938
 30
0.0
 11
654.2474975585938
 21
474.8373413085938
 31
0.0
  0
ENDSEC
  0
SECTION
  2
OBJECTS
  0
DICTIONARY
  5
C
330
0
100
AcDbDictionary
  3
ACAD_GROUP
350
D
  3
ACAD_LAYOUT
350
1A
  3
ACAD_MATERIAL
350
3B
  3
ACAD_MLEADERSTYLE
350
C1
  3
ACAD_MLINESTYLE
350
17
  3
ACAD_PLOTSETTINGS
350
19
  3
ACAD_VISUALSTYLE
350
2A
  3
ACDBHEADERROUNDTRIPXREC
350
9F
  3
ACDBVARIABLEDICTIONARY
350
BF
  0
DICTIONARY
  5
D
102
{ACAD_REACTORS
330
C
102
}
330
C
100
AcDbDictionary
  0
DICTIONARY
  5
1A
102
{ACAD_REACTORS
330
C
102
}
330
C
100
AcDbDictionary
  0
DICTIONARY
  5
3B
102
{ACAD_REACTORS
330
C
102
}
330
C
100
AcDbDictionary
  3
BYBLOCK
350
3D
  3
BYLAYER
350
3C
  3
GLOBAL
350
3E
  0
DICTIONARY
  5
C1
102
{ACAD_REACTORS
330
C
102
}
330
C
100
AcDbDictionary
  0
DICTIONARY
  5
17
102
{ACAD_REACTORS
330
C
102
}
330
C
100
AcDbDictionary
  3
STANDARD
350
18
  0
DICTIONARY
  5
19
102
{ACAD_REACTORS
330
C
102
}
330
C
100
AcDbDictionary
  0
DICTIONARY
  5
2A
102
{ACAD_REACTORS
330
C
102
}
330
C
100
AcDbDictionary
  3
2DWIREFRAME
350
2F
  3
3D_HIDDEN
350
31
  3
3DWIREFRAME
350
30
  3
BASIC
350
32
  3
BRIGHTEN
350
36
  3
COLORCHANGE
350
3A
  3
CONCEPTUAL
350
34
  3
DIM
350
35
  3
FACEPATTERN
350
39
  3
FLAT
350
2B
  3
FLATWITHEDGES
350
2C
  3
GOURAUD
350
2D
  3
GOURAUDWITHEDGES
350
2E
  3
LINEPATTERN
350
38
  3
REALISTIC
350
33
  3
THICKEN
350
37
  0
DICTIONARY
  5
9F
102
{ACAD_REACTORS
330
C
102
}
330
C
100
AcDbDictionary
  3
CEPSNTYPE
350
A8
  3
DIMSTYLEDATA
350
BE
  3
FINGERPRINTGUID
350
A9
  3
HYPERLINKBASE
350
A2
  3
INSUNITS
350
A7
  3
LAYOUTDICT
350
A4
  3
LWETCUNION
350
A6
  3
PLOTSETDICT
350
A5
  3
PSVPSCALE
350
AB
  3
PUCSBASE
350
AE
  3
PUCSORGBACK
350
B4
  3
PUCSORGBOTTOM
350
B0
  3
PUCSORGFRONT
350
B3
  3
PUCSORGLEFT
350
B1
  3
PUCSORGRIGHT
350
B2
  3
PUCSORGTOP
350
AF
  3
PUCSORTHOREF
350
AC
  3
PUCSORTHOVIEW
350
AD
  3
STYLESHEET
350
A3
  3
TSTACKALIGN
350
A0
  3
TSTACKSIZE
350
A1
  3
UCSBASE
350
B7
  3
UCSORGBACK
350
BD
  3
UCSORGBOTTOM
350
B9
  3
UCSORGFRONT
350
BC
  3
UCSORGLEFT
350
BA
  3
UCSORGRIGHT
350
BB
  3
UCSORGTOP
350
B8
  3
UCSORTHOREF
350
B5
  3
UCSORTHOVIEW
350
B6
  3
VERSIONGUID
350
AA
  0
DICTIONARY
  5
BF
102
{ACAD_REACTORS
330
C
102
}
330
C
100
AcDbDictionary
  3
DIMASSOC
350
C4
  3
HIDETEXT
350
C5
  3
PSOLHEIGHT
350
C3
  3
PSOLWIDTH
350
C2
  0
MATERIAL
  5
3D
102
{ACAD_REACTORS
330
3B
102
}
102
{ACAD_XDICTIONARY
360
C8
102
}
330
3B
100
AcDbMaterial
  1
ByBlock
  0
MATERIAL
  5
3C
102
{ACAD_REACTORS
330
3B
102
}
102
{ACAD_XDICTIONARY
360
C6
102
}
330
3B
100
AcDbMaterial
  1
ByLayer
  0
MATERIAL
  5
3E
102
{ACAD_REACTORS
330
3B
102
}
102
{ACAD_XDICTIONARY
360
CA
102
}
330
3B
100
AcDbMaterial
  1
Global
  0
MLINESTYLE
  5
18
102
{ACAD_REACTORS
330
17
102
}
330
17
100
AcDbMlineStyle
  2
Standard
 70
     0
  3

 62
   256
 51
90.0
 52
90.0
 71
     2
 49
0.5
 62
   256
  6
BYLAYER
 49
-0.5
 62
   256
  6
BYLAYER
  0
ACAD_PROXY_OBJECT
  5
2F
102
{ACAD_REACTORS
330
2A
102
}
330
2A
100
AcDbProxyObject
 90
      499
 91
      501
 93
      436
310
42CC9915DA5C99599C985B595049028333333333333E3BF0000000000000FB0107901411070040501600405405064090741402480A0340
1001
ACAD
1000
AcDbSavedByObjectVersion
1070
     0
  0
ACAD_PROXY_OBJECT
  5
31
102
{ACAD_REACTORS
330
2A
102
}
330
2A
100
AcDbProxyObject
 90
      499
 91
      501
 93
      500
310
424CD108121A5919195B90640502408333333333333E3BF0000000000000FB01079024090700405020000000000001110200405405064090740C02480A0340
1001
ACAD
1000
AcDbSavedByObjectVersion
1070
     0
  0
ACAD_PROXY_OBJECT
  5
30
102
{ACAD_REACTORS
330
2A
102
}
330
2A
100
AcDbProxyObject
 90
      499
 91
      501
 93
      436
310
42CCD915DA5C99599C985B595059028333333333333E3BF0000000000000FB0107901411070040501600405405064090741402480A0340
1001
ACAD
1000
AcDbSavedByObjectVersion
1070
     0
  0
ACAD_PROXY_OBJECT
  5
32
102
{ACAD_REACTORS
330
2A
102
}
330
2A
100
AcDbProxyObject
 90
      499
 91
      501
 93
      388
310
4150985CDA58D07406404333333333333E3BF0000000000000FB0107A41107004050150841D405064090741402480A0350
1001
ACAD
1000
AcDbSavedByObjectVersion
1070
     0
  0
ACAD_PROXY_OBJECT
  5
36
102
{ACAD_REACTORS
330
2A
102
}
330
2A
100
AcDbProxyObject
 90
      499
 91
      501
 93
      428
310
42109C9A59DA1D195B90C409028333333333333E3BF0000000000000FB010790141107004050150841D405064090741402480A029950
1001
ACAD
1000
AcDbSavedByObjectVersion
1070
     0
  0
ACAD_PROXY_OBJECT
  5
3A
102
{ACAD_REACTORS
330
2A
102
}
330
2A
100
AcDbProxyObject
 90
      499
 91
      501
 93
      452
310
42D0DBDB1BDC90DA185B99D95104090240C333333333333E3BF0000000000000FB0108901411070040501508421405064090741402480A0350
1001
ACAD
1000
AcDbSavedByObjectVersion
1070
     0
  0
ACAD_PROXY_OBJECT
  5
34
102
{ACAD_REACTORS
330
2A
102
}
330
2A
100
AcDbProxyObject
 90
      499
 91
      501
 93
      500
310
4290DBDB98D95C1D1D585B10940D028333333333333E3BF0000000000000FB0107902409070040501000000000000111010841D405064090740C02480A0340
1001
ACAD
1000
AcDbSavedByObjectVersion
1070
     0
  0
ACAD_PROXY_OBJECT
  5
35
102
{ACAD_REACTORS
330
2A
102
}
330
2A
100
AcDbProxyObject
 90
      499
 91
      501
 93
      412
310
40D11A5B50B409028333333333333E3BF0000000000000FB010790141107004050150841D405064090741402480A02677FFFFFD0
1001
ACAD
1000
AcDbSavedByObjectVersion
1070
     0
  0
ACAD_PROXY_OBJECT
  5
39
102
{ACAD_REACTORS
330
2A
102
}
330
2A
100
AcDbProxyObject
 90
      499
 91
      501
 93
      444
310
42D19858D95C185D1D195C9B90F409028333333333333E3BF0000000000000FB010790141107004050150841D405064090741402480A0350
1001
ACAD
1000
AcDbSavedByObjectVersion
1070
     0
  0
ACAD_PROXY_OBJECT
  5
2B
102
{ACAD_REACTORS
330
2A
102
}
330
2A
100
AcDbProxyObject
 90
      499
 91
      501
 93
      388
310
41119B185D240901404333333333333E3BF0000000000000F9010740A41107004050150841D405064090741402480A1B50
1001
ACAD
1000
AcDbSavedByObjectVersion
1070
     0
  0
ACAD_PROXY_OBJECT
  5
2C
102
{ACAD_REACTORS
330
2A
102
}
330
2A
100
AcDbProxyObject
 90
      499
 91
      501
 93
      476
310
43519B185D15DA5D1A115919D95CD0140901404333333333333E3BF0000000000000F9010740901411070040501600405405064090741402480A1B50
1001
ACAD
1000
AcDbSavedByObjectVersion
1070
     0
  0
ACAD_PROXY_OBJECT
  5
2D
102
{ACAD_REACTORS
330
2A
102
}
330
2A
100
AcDbProxyObject
 90
      499
 91
      501
 93
      412
310
41D1DBDD5C985D5910240902404333333333333E3BF0000000000000F9010740A411070040501641D405064090741402480A1B50
1001
ACAD
1000
AcDbSavedByObjectVersion
1070
     0
  0
ACAD_PROXY_OBJECT
  5
2E
102
{ACAD_REACTORS
330
2A
102
}
330
2A
100
AcDbProxyObject
 90
      499
 91
      501
 93
      500
310
4411DBDD5C985D5915DA5D1A115919D95CD0340902404333333333333E3BF0000000000000F9010740901411070040501600405405064090741402480A1B50
1001
ACAD
1000
AcDbSavedByObjectVersion
1070
     0
  0
ACAD_PROXY_OBJECT
  5
38
102
{ACAD_REACTORS
330
2A
102
}
330
2A
100
AcDbProxyObject
 90
      499
 91
      501
 93
      444
310
42D31A5B995C185D1D195C9B90E409028333333333333E3BF0000000000000FB010790141107004050750841D405064090741402483A0350
1001
ACAD
1000
AcDbSavedByObjectVersion
1070
     0
  0
ACAD_PROXY_OBJECT
  5
33
102
{ACAD_REACTORS
330
2A
102
}
330
2A
100
AcDbProxyObject
 90
      499
 91
      501
 93
      420
310
425499585B1A5CDD1A58D08409028333333333333E3BF0000000000000FB01079019070040501508421405064090741402480A1B40
1001
ACAD
1000
AcDbSavedByObjectVersion
1070
     0
  0
ACAD_PROXY_OBJECT
  5
37
102
{ACAD_REACTORS
330
2A
102
}
330
2A
100
AcDbProxyObject
 90
      499
 91
      501
 93
      412
310
41D51A1A58DAD95B90D409028333333333333E3BF0000000000000FB010790141107004050150C41D405064090741402480A0350
1001
ACAD
1000
AcDbSavedByObjectVersion
1070
     0
  0
XRECORD
  5
A8
102
{ACAD_REACTORS
330
9F
102
}
330
9F
100
AcDbXrecord
 90
        0
  0
XRECORD
  5
BE
102
{ACAD_REACTORS
330
9F
102
}
330
9F
100
AcDbXrecord
1000
DSTYLE
1002
{
1070
    41
 40
3.0
1070
   340
340
11
1070
   140
 40
1.22550817624347
1002
}
  0
XRECORD
  5
A9
102
{ACAD_REACTORS
330
9F
102
}
330
9F
100
AcDbXrecord
  1
{28613E39-757D-4AF7-B653-F6F281AAB54F}
  0
XRECORD
  5
A2
102
{ACAD_REACTORS
330
9F
102
}
330
9F
100
AcDbXrecord
  1

  0
XRECORD
  5
A7
102
{ACAD_REACTORS
330
9F
102
}
330
9F
100
AcDbXrecord
 90
        4
  0
XRECORD
  5
A4
102
{ACAD_REACTORS
330
9F
102
}
330
9F
100
AcDbXrecord
340
1A
  0
XRECORD
  5
A6
102
{ACAD_REACTORS
330
9F
102
}
330
9F
100
AcDbXrecord
 90
    10781
  0
XRECORD
  5
A5
102
{ACAD_REACTORS
330
9F
102
}
330
9F
100
AcDbXrecord
340
19
  0
XRECORD
  5
AB
102
{ACAD_REACTORS
330
9F
102
}
330
9F
100
AcDbXrecord
 40
0.0
  0
XRECORD
  5
AE
102
{ACAD_REACTORS
330
9F
102
}
330
9F
100
AcDbXrecord
340
0
  0
XRECORD
  5
B4
102
{ACAD_REACTORS
330
9F
102
}
330
9F
100
AcDbXrecord
 10
0.0
 20
0.0
 30
0.0
  0
XRECORD
  5
B0
102
{ACAD_REACTORS
330
9F
102
}
330
9F
100
AcDbXrecord
 10
0.0
 20
0.0
 30
0.0
  0
XRECORD
  5
B3
102
{ACAD_REACTORS
330
9F
102
}
330
9F
100
AcDbXrecord
 10
0.0
 20
0.0
 30
0.0
  0
XRECORD
  5
B1
102
{ACAD_REACTORS
330
9F
102
}
330
9F
100
AcDbXrecord
 10
0.0
 20
0.0
 30
0.0
  0
XRECORD
  5
B2
102
{ACAD_REACTORS
330
9F
102
}
330
9F
100
AcDbXrecord
 10
0.0
 20
0.0
 30
0.0
  0
XRECORD
  5
AF
102
{ACAD_REACTORS
330
9F
102
}
330
9F
100
AcDbXrecord
 10
0.0
 20
0.0
 30
0.0
  0
XRECORD
  5
AC
102
{ACAD_REACTORS
330
9F
102
}
330
9F
100
AcDbXrecord
340
0
  0
XRECORD
  5
AD
102
{ACAD_REACTORS
330
9F
102
}
330
9F
100
AcDbXrecord
 70
     0
  0
XRECORD
  5
A3
102
{ACAD_REACTORS
330
9F
102
}
330
9F
100
AcDbXrecord
  1

  0
XRECORD
  5
A0
102
{ACAD_REACTORS
330
9F
102
}
330
9F
100
AcDbXrecord
 90
        1
  0
XRECORD
  5
A1
102
{ACAD_REACTORS
330
9F
102
}
330
9F
100
AcDbXrecord
 90
       70
  0
XRECORD
  5
B7
102
{ACAD_REACTORS
330
9F
102
}
330
9F
100
AcDbXrecord
340
0
  0
XRECORD
  5
BD
102
{ACAD_REACTORS
330
9F
102
}
330
9F
100
AcDbXrecord
 10
0.0
 20
0.0
 30
0.0
  0
XRECORD
  5
B9
102
{ACAD_REACTORS
330
9F
102
}
330
9F
100
AcDbXrecord
 10
0.0
 20
0.0
 30
0.0
  0
XRECORD
  5
BC
102
{ACAD_REACTORS
330
9F
102
}
330
9F
100
AcDbXrecord
 10
0.0
 20
0.0
 30
0.0
  0
XRECORD
  5
BA
102
{ACAD_REACTORS
330
9F
102
}
330
9F
100
AcDbXrecord
 10
0.0
 20
0.0
 30
0.0
  0
XRECORD
  5
BB
102
{ACAD_REACTORS
330
9F
102
}
330
9F
100
AcDbXrecord
 10
0.0
 20
0.0
 30
0.0
  0
XRECORD
  5
B8
102
{ACAD_REACTORS
330
9F
102
}
330
9F
100
AcDbXrecord
 10
0.0
 20
0.0
 30
0.0
  0
XRECORD
  5
B5
102
{ACAD_REACTORS
330
9F
102
}
330
9F
100
AcDbXrecord
340
0
  0
XRECORD
  5
B6
102
{ACAD_REACTORS
330
9F
102
}
330
9F
100
AcDbXrecord
 70
     0
  0
XRECORD
  5
AA
102
{ACAD_REACTORS
330
9F
102
}
330
9F
100
AcDbXrecord
  1
{FAEB1C32-E019-11D5-929B-00C0DF256EC4}
  0
DICTIONARYVAR
  5
C4
102
{ACAD_REACTORS
330
BF
102
}
330
BF
100
DictionaryVariables
280
     0
  1
2
  0
DICTIONARYVAR
  5
C5
102
{ACAD_REACTORS
330
BF
102
}
330
BF
100
DictionaryVariables
280
     0
  1
1
  0
DICTIONARYVAR
  5
C3
102
{ACAD_REACTORS
330
BF
102
}
330
BF
100
DictionaryVariables
280
     0
  1
80.000000
  0
DICTIONARYVAR
  5
C2
102
{ACAD_REACTORS
330
BF
102
}
330
BF
100
DictionaryVariables
280
     0
  1
5.000000
  0
DICTIONARY
  5
C8
330
3D
100
AcDbDictionary
280
     1
  3
ACAD_XREC_ROUNDTRIP
360
C9
  0
DICTIONARY
  5
C6
330
3C
100
AcDbDictionary
280
     1
  3
ACAD_XREC_ROUNDTRIP
360
C7
  0
DICTIONARY
  5
CA
330
3E
100
AcDbDictionary
280
     1
  3
ACAD_XREC_ROUNDTRIP
360
CB
  0
XRECORD
  5
C9
102
{ACAD_REACTORS
330
C8
102
}
330
C8
100
AcDbXrecord
102
MATERIAL
148
0.0
149
0.0
149
0.0
 93
        0
 94
      127
282
     0
 72
     1
 77
     1
171
     1
175
     1
179
     1
273
     0
  0
XRECORD
  5
C7
102
{ACAD_REACTORS
330
C6
102
}
330
C6
100
AcDbXrecord
102
MATERIAL
148
0.0
149
0.0
149
0.0
 93
        0
 94
      127
282
     0
 72
     1
 77
     1
171
     1
175
     1
179
     1
273
     0
  0
XRECORD
  5
CB
102
{ACAD_REACTORS
330
CA
102
}
330
CA
100
AcDbXrecord
102
MATERIAL
148
0.0
149
0.0
149
0.0
 93
        0
 94
      127
282
     0
 72
     1
 77
     1
171
     1
175
     1
179
     1
273
     0
  0
ENDSEC
  0
EOF
